<?xml version="1.0" encoding="utf-8"?>
<!-- Generator: Adobe Illustrator 23.0.0, SVG Export Plug-In . SVG Version: 6.00 Build 0)  -->
<!DOCTYPE svg PUBLIC "-//W3C//DTD SVG 1.1//EN" "http://www.w3.org/Graphics/SVG/1.1/DTD/svg11.dtd" [
	<!ENTITY ns_extend "http://ns.adobe.com/Extensibility/1.0/">
	<!ENTITY ns_ai "http://ns.adobe.com/AdobeIllustrator/10.0/">
	<!ENTITY ns_graphs "http://ns.adobe.com/Graphs/1.0/">
	<!ENTITY ns_vars "http://ns.adobe.com/Variables/1.0/">
	<!ENTITY ns_imrep "http://ns.adobe.com/ImageReplacement/1.0/">
	<!ENTITY ns_sfw "http://ns.adobe.com/SaveForWeb/1.0/">
	<!ENTITY ns_custom "http://ns.adobe.com/GenericCustomNamespace/1.0/">
	<!ENTITY ns_adobe_xpath "http://ns.adobe.com/XPath/1.0/">
]>
<svg version="1.1" id="Capa_1" xmlns:x="&ns_extend;" xmlns:i="&ns_ai;" xmlns:graph="&ns_graphs;"
	 xmlns="http://www.w3.org/2000/svg" xmlns:xlink="http://www.w3.org/1999/xlink" x="0px" y="0px" viewBox="0 0 62.5641022 61"
	 enable-background="new 0 0 62.5641022 61" xml:space="preserve">
<metadata>
	<sfw  xmlns="&ns_sfw;">
		<slices></slices>
		<sliceSourceBounds  bottomLeftOrigin="true" height="61" width="62.5641022" x="88.7179489" y="86.5"></sliceSourceBounds>
	</sfw>
</metadata>
<g>
	<path fill="#1F0040" d="M2.6068375,2.6068375h57.3504257v55.7863235H2.6068375V2.6068375z"/>
	<path fill="#D291FF" d="M0,0v61h62.5641022V0H0z M2.6068375,2.6068375h57.3504257v55.7863235H2.6068375V2.6068375z
		 M17.6743603,34.5405998l-2.0594025,7.7944412c-0.0521374,0.2085495-0.1303425,0.2867546-0.3910255,0.2867546H11.391881
		c-0.260684,0-0.3128214-0.0782051-0.260684-0.3910255l7.4034176-25.8858986
		c0.1303425-0.4692307,0.2085476-0.8341885,0.260685-2.1376076c0-0.1824789,0.0782051-0.260684,0.2085476-0.260684h5.4743576
		c0.182478,0,0.260685,0.0521374,0.3128204,0.260684l8.2897434,28.0756416c0.0521355,0.2085457,0,0.3388901-0.2085495,0.3388901
		h-4.301281c-0.2085476,0-0.3388901-0.0782051-0.3910255-0.260685l-2.1636772-7.8205109H17.6743603L17.6743603,34.5405998z
		 M24.9995728,30.317522c-0.7299156-2.893589-2.5025635-9.202137-3.1542721-12.2521362h-0.0521374
		c-0.5474358,3.0499992-1.9811954,8.2115383-3.0499992,12.2521362C18.7692299,30.317522,24.9995728,30.317522,24.9995728,30.317522z
		 M38.9722214,32.9764938c0.0521355,3.5192337,1.7205162,5.8914566,5.6829071,5.8914566
		c1.5380325,0,2.8675232-0.2085495,4.2491455-0.8081207c0.1824799-0.0782051,0.3128204-0.0521355,0.3128204,0.182476v3.2585487
		c0,0.260685-0.0782051,0.3910255-0.260685,0.5213661c-1.3816223,0.6777802-3.1021347,0.9906006-5.2397423,0.9906006
		c-6.8820496,0-9.462822-5.0833359-9.462822-10.7662392c0-6.1521378,3.1803398-11.1833363,8.7850418-11.1833363
		c5.6829071,0,7.6641006,4.7705116,7.6641006,8.6547031c0,1.2512817-0.0782051,2.2679482-0.2085495,2.7632484
		c-0.0521355,0.2085457-0.1303406,0.2867508-0.3388901,0.3388901c-0.5213661,0.0782051-2.0593987,0.182476-4.3534164,0.182476
		L38.9722214,32.9764938L38.9722214,32.9764938z M44.2641029,29.3790588c1.3294907,0,1.7987175,0,1.9290581-0.0521355
		c0-0.182478,0.0521355-0.3128204,0.0521355-0.443161c0-1.4076939-0.6777802-4.0145321-3.3888893-4.0145321
		c-2.5025635,0-3.5713654,2.1897449-3.8320503,4.5098286H44.2641029L44.2641029,29.3790588z"/>
</g>
</svg>
