<?xml version="1.0" encoding="utf-8"?>
<!-- Generator: Adobe Illustrator 23.0.0, SVG Export Plug-In . SVG Version: 6.00 Build 0)  -->
<!DOCTYPE svg PUBLIC "-//W3C//DTD SVG 1.1//EN" "http://www.w3.org/Graphics/SVG/1.1/DTD/svg11.dtd" [
	<!ENTITY ns_extend "http://ns.adobe.com/Extensibility/1.0/">
	<!ENTITY ns_ai "http://ns.adobe.com/AdobeIllustrator/10.0/">
	<!ENTITY ns_graphs "http://ns.adobe.com/Graphs/1.0/">
	<!ENTITY ns_vars "http://ns.adobe.com/Variables/1.0/">
	<!ENTITY ns_imrep "http://ns.adobe.com/ImageReplacement/1.0/">
	<!ENTITY ns_sfw "http://ns.adobe.com/SaveForWeb/1.0/">
	<!ENTITY ns_custom "http://ns.adobe.com/GenericCustomNamespace/1.0/">
	<!ENTITY ns_adobe_xpath "http://ns.adobe.com/XPath/1.0/">
]>
<svg version="1.1" id="Capa_1" xmlns:x="&ns_extend;" xmlns:i="&ns_ai;" xmlns:graph="&ns_graphs;"
	 xmlns="http://www.w3.org/2000/svg" xmlns:xlink="http://www.w3.org/1999/xlink" x="0px" y="0px" viewBox="0 0 62.5641022 61"
	 enable-background="new 0 0 62.5641022 61" xml:space="preserve">
<metadata>
	<sfw  xmlns="&ns_sfw;">
		<slices></slices>
		<sliceSourceBounds  bottomLeftOrigin="true" height="61" width="62.5641022" x="88.7179489" y="86.5"></sliceSourceBounds>
	</sfw>
</metadata>
<path fill="#001D26" d="M2.6068375,2.6068375h57.3504257v55.7863235H2.6068375V2.6068375z"/>
<path fill="#00C8FF" d="M0,0v61h62.5641022V0H0z M2.6068375,2.6068375h57.3504257v55.7863235H2.6068375V2.6068375z
	 M15.1196585,14.28547c0-0.1824789,0.3649569-0.3128204,0.5735044-0.3128204
	c1.668375-0.0782051,4.1448708-0.1303425,6.7256413-0.1303425c7.2209377,0,10.0363235,3.9623919,10.0363235,9.0457277
	c0,6.6213684-4.7965813,9.462822-10.6880341,9.462822c-0.9905987,0-1.3294868-0.0521355-2.0333328-0.0521355V42.308979
	c0,0.2085495-0.078207,0.3128204-0.3128204,0.3128204h-3.9884615c-0.2085466,0-0.3128204-0.0782051-0.3128204-0.3128204V14.28547
	L15.1196585,14.28547z M19.7598305,28.127779c0.5995731,0.0521355,1.0688019,0.0521355,2.1115379,0.0521355
	c3.0499992,0,5.9175224-1.0688038,5.9175224-5.2136765c0-3.3106823-2.0594025-4.9790592-5.526495-4.9790592
	c-1.0427361,0-2.0333347,0.0521374-2.5025635,0.078207V28.127779H19.7598305z M42.1786346,25.0256405
	c-2.0594025,0-2.7632523,1.0427361-2.7632523,1.9029922c0,0.9384613,0.4692345,1.5901718,3.2324791,3.0239315
	c4.0927353,1.9811974,5.3700867,3.8841896,5.3700867,6.6735039c0,4.1709404-3.1803398,6.4128227-7.4816246,6.4128227
	c-2.2679482,0-4.2230759-0.4692307-5.344017-1.1209412c-0.182476-0.0782051-0.2085457-0.2085495-0.2085457-0.4170952v-3.8320503
	c0-0.260685,0.1303406-0.3388901,0.3128204-0.2085495c1.6423073,1.0688057,3.5192299,1.5380325,5.2397423,1.5380325
	c2.0594025,0,2.9196587-0.8602562,2.9196587-2.0333328c0-0.9384651-0.599575-1.7726517-3.2324753-3.1282043
	c-3.7017097-1.7726517-5.2397461-3.5713673-5.2397461-6.569231c0-3.3628216,2.6329079-6.1521358,7.1948738-6.1521358
	c2.2418823,0,3.8059845,0.3388901,4.6662369,0.7299156c0.2085457,0.1303406,0.260685,0.3388882,0.260685,0.5213661v3.5713673
	c0,0.2085476-0.1303444,0.3388901-0.3910255,0.2606831C45.567524,25.4688034,43.8730774,25.0256405,42.1786346,25.0256405
	L42.1786346,25.0256405z"/>
</svg>
