<?xml version="1.0" encoding="utf-8"?>
<!-- Generator: Adobe Illustrator 23.0.0, SVG Export Plug-In . SVG Version: 6.00 Build 0)  -->
<!DOCTYPE svg PUBLIC "-//W3C//DTD SVG 1.1//EN" "http://www.w3.org/Graphics/SVG/1.1/DTD/svg11.dtd" [
	<!ENTITY ns_extend "http://ns.adobe.com/Extensibility/1.0/">
	<!ENTITY ns_ai "http://ns.adobe.com/AdobeIllustrator/10.0/">
	<!ENTITY ns_graphs "http://ns.adobe.com/Graphs/1.0/">
	<!ENTITY ns_vars "http://ns.adobe.com/Variables/1.0/">
	<!ENTITY ns_imrep "http://ns.adobe.com/ImageReplacement/1.0/">
	<!ENTITY ns_sfw "http://ns.adobe.com/SaveForWeb/1.0/">
	<!ENTITY ns_custom "http://ns.adobe.com/GenericCustomNamespace/1.0/">
	<!ENTITY ns_adobe_xpath "http://ns.adobe.com/XPath/1.0/">
]>
<svg version="1.1" id="Layer_1" xmlns:x="&ns_extend;" xmlns:i="&ns_ai;" xmlns:graph="&ns_graphs;"
	 xmlns="http://www.w3.org/2000/svg" xmlns:xlink="http://www.w3.org/1999/xlink" x="0px" y="0px" viewBox="0 0 50.5067711 50"
	 enable-background="new 0 0 50.5067711 50" xml:space="preserve">
<metadata>
	<sfw  xmlns="&ns_sfw;">
		<slices></slices>
		<sliceSourceBounds  bottomLeftOrigin="true" height="50" width="50.5067711" x="230.7472992" y="230.5676422">
			</sliceSourceBounds>
	</sfw>
</metadata>
<g id="surface1">
	<path fill="#FFFFFF" d="M45.410614,33.3107262l3.4553032-3.4556904c2.1875496-2.1871643,2.1879349-5.7465096,0.0003853-7.9348316
		c-0.6712532-0.6708679-1.477375-1.1421337-2.3386002-1.4033928c0.7043915-0.9567871,1.0854874-2.1085567,1.0854874-3.3188953
		c0-1.4985704-0.5837822-2.9077425-1.6438408-3.9674158c-1.059288-1.0596733-2.4684601-1.6434565-3.9674149-1.6434565
		c-0.062809,0-0.1256218,0.0011559-0.1884308,0.0030823c0.0489388-1.4977999-0.4966965-3.0121689-1.6376762-4.153533
		c-1.1409798-1.1405935-2.6572762-1.6869998-4.1527634-1.6372914c0.0019264-0.0624242,0.0030823-0.1256194,0.0030823-0.1884289
		c0-1.4989557-0.5837822-2.907743-1.6434555-3.9674163c-2.1871643-2.1871653-5.7465096-2.1875505-7.9348316,0l-1.19454,1.1945406
		L24.059164,1.643842C22.9994907,0.5837836,21.5903168,0,20.091362,0c-1.4985714,0-2.9073582,0.5837836-3.9670315,1.6430713
		C14.9829664,2.7844355,14.438488,4.29919,14.4881954,5.7981458c-0.0631943-0.0023122-0.1263895-0.0046239-0.1895847-0.0046239
		c-1.4985704,0-2.9077425,0.5833979-3.9681864,1.6430712c-1.1409788,1.1417494-1.6854582,2.6565037-1.6357498,4.1550741
		c-0.0635805-0.0023117-0.1267757-0.0046234-0.1903563-0.0046234c-1.4985704,0-2.907743,0.5837831-3.9666452,1.6430712
		c-1.0600584,1.0596733-1.643842,2.4688454-1.643842,3.9678011c0,1.2099533,0.3807116,2.3617229,1.0854907,3.3181248
		c-0.8739414,0.2635708-1.6750543,0.7406158-2.3389876,1.4041634c-2.1821561,2.1829262-2.1871653,5.7310982-0.0146427,7.9194183
		c0.0053947,0.0057812,0.0107894,0.0111752,0.0161841,0.0169563l3.460314,3.4595413
		c0.0046244,0.0050125,0.0096335,0.0100212,0.0146427,0.0150299c0.207696,0.2080803,0.4296494,0.3965111,0.6623921,0.567215
		L4.7557731,34.921814c-0.9953222,0.9953232-1.5024238,2.3513184-1.4272833,3.8182907
		C3.400162,40.14851,4.0062952,41.4902458,5.0343704,42.518322l5.8528633,5.8532486
		C11.9731102,49.4570618,13.3988523,50,14.8249788,50s2.8522558-0.5429382,3.9377451-1.6284294l2.7204704-2.7208557
		c1.2411652,0.2662697,2.5054531,0.4015198,3.770895,0.4015198c1.264286,0,2.5289574-0.1344795,3.7697392-0.4007492
		l2.719698,2.7200851C32.8294029,49.4570618,34.255146,50,35.6812706,50
		c1.4257431-0.0003853,2.8522568-0.5429382,3.937748-1.6284294l5.8532486-5.8532486
		c2.1709785-2.1709785,2.4175949-5.4571228,0.5494881-7.3256149l-1.246563-1.246563l0.6149979-0.6153793
		C45.3971252,33.3242149,45.4036751,33.3176613,45.410614,33.3107262z M18.2656422,3.7847669
		c0.4878349-0.4878349,1.1363544-0.7564139,1.8261051-0.7564139s1.3382702,0.268579,1.8261051,0.7564139l4.6344318,4.6344318
		c1.0068836,1.007267,1.0068836,2.6457148,0,3.6525965c-0.4878349,0.4878349-1.1363544,0.7564144-1.8257198,0.7564144h-0.0003853
		c-0.6897507-0.0003853-1.3378849-0.2685795-1.8257198-0.7564144c-0.0007706-0.0007706-0.0015411-0.0015411-0.0019264-0.0019264
		L18.266798,7.4381342c-0.0038548-0.0038533-0.0073223-0.0077066-0.0115604-0.0111747
		C17.2587585,6.4185362,17.262228,4.7877955,18.2656422,3.7847669z M12.4651833,13.2235641
		c-0.9999456-1.0076532-0.9976339-2.6410904,0.0065508-3.6452751c0.4882202-0.4878349,1.137126-0.7564144,1.8268766-0.7564144
		c0.6889801,0,1.336729,0.2681942,1.824564,0.7556429c0.0003853,0,0.0007706,0.0003862,0.0007706,0.0007715
		c0.0019264,0.0015411,0.0034695,0.0030823,0.0050106,0.0046234l4.6290359,4.6290379
		c0.0026989,0.0030823,0.0061665,0.0061655,0.0092487,0.0092478l1.1502266,1.1502266
		c0.4878349,0.4878349,0.7567997,1.1363554,0.7567997,1.8264914c0,0.6897507-0.2685795,1.3382702-0.7564144,1.8257198
		c-0.4878349,0.4878349-1.1363544,0.7564144-1.8261051,0.7564144s-1.3382702-0.2685795-1.8257198-0.7564144
		c-0.0061665-0.0061646-0.012331-0.0119457-0.0184975-0.017725l-1.1355839-1.1359692
		c-0.0015411-0.0015411-0.0030823-0.0030823-0.0046234-0.0050087l-4.6352034-4.6344328l-0.0003853-0.0003853
		C12.4694223,13.2278023,12.4671106,13.2254906,12.4651833,13.2235641z M6.6793685,15.3714247
		c0.4874496-0.4874496,1.1355844-0.7560282,1.825335-0.7560282s1.3382711,0.2685785,1.8261061,0.7564135l4.6398268,4.6398268
		c1.0018721,1.007267,0.9999456,2.641861-0.0046244,3.6472015c-0.4878349,0.4874496-1.1367397,0.7560291-1.8264914,0.7560291
		c-0.6897507,0-1.3382702-0.2685795-1.8257198-0.7564144c-0.0061655-0.0057793-0.0119457-0.0119438-0.0181112-0.017725
		l-4.6020637-4.6020641c-0.0050092-0.0050087-0.0100188-0.0104027-0.0146427-0.015028
		c-0.4878349-0.4878349-0.7564139-1.1359692-0.7564139-1.8257198C5.922184,16.5081654,6.1911483,15.8596449,6.6793685,15.3714247z
		 M3.7974432,27.7295246c-0.00578-0.0061646-0.01156-0.0119457-0.0173402-0.017725
		c-1.0049553-1.0068817-1.0041847-2.6437874,0.0019267-3.6498985c0.4878349-0.4878349,1.1363549-0.7564144,1.8261061-0.7564144
		s1.3386559,0.2685795,1.8264909,0.7567997l3.475728,3.4753418c1.0068817,1.0068817,1.0068817,2.6453285,0.0003853,3.6522121
		c-0.4878349,0.4878349-1.1363554,0.7564125-1.8257208,0.7564125H9.0846338c-0.1267757,0-0.2520094-0.0092468-0.3753166-0.0269737
		c-0.0092487-0.0019264-0.0184965-0.0030823-0.0277443-0.0046234c-0.5317631-0.0828476-1.0226812-0.3286915-1.4122553-0.7136421
		c-0.0038533-0.0042381-0.0080919-0.008091-0.0119457-0.012331L3.7974432,27.7295246z M21.4011173,42.5198631
		c-0.0131016-0.0034676-0.0258179-0.0050087-0.0385323-0.008091c-0.0304432-0.0073204-0.0604992-0.0142593-0.0909405-0.0196533
		c-0.0223484-0.0038528-0.0446987-0.0065498-0.0674343-0.0096321c-0.0250454-0.0030823-0.0500927-0.0061646-0.0755253-0.008091
		c-0.0265884-0.0023117-0.053175-0.0034676-0.0797634-0.0038528c-0.0215797-0.0007744-0.0427723-0.0011597-0.064352-0.0007744
		c-0.0285149,0.0003891-0.0566444,0.0019302-0.084774,0.0042419c-0.020422,0.0015411-0.0408459,0.0030823-0.0612679,0.005394
		c-0.0277443,0.0030823-0.0551033,0.0073204-0.0824623,0.0119438c-0.0215778,0.0034676-0.0427723,0.0077095-0.0643501,0.0123329
		c-0.0250473,0.005394-0.0497093,0.0111732-0.0743694,0.0181084c-0.0235062,0.0061684-0.0470123,0.0131035-0.0705166,0.0204239
		c-0.021965,0.0073204-0.0431576,0.0150299-0.0647373,0.0227356c-0.0250473,0.0096321-0.0500927,0.0192642-0.0743694,0.030056
		c-0.0196514,0.0084763-0.0393047,0.0177231-0.0585709,0.0269737c-0.024662,0.0119438-0.0489388,0.0242767-0.0728283,0.0377617
		c-0.0196533,0.010788-0.0389194,0.0223503-0.0581856,0.0342941c-0.0215797,0.0134888-0.0435429,0.0269737-0.0647373,0.0416183
		c-0.0215778,0.0150261-0.0427723,0.0308266-0.0635796,0.0470085c-0.0173397,0.0131035-0.034296,0.0262032-0.0512505,0.0400772
		c-0.024662,0.0208092-0.0481663,0.0423851-0.0712872,0.0647354c-0.0088615,0.0084763-0.0184956,0.0158005-0.027359,0.024662
		l-3.3181248,3.3181267c-0.9906979,0.990696-2.6021719,0.990696-3.5928698,0l-5.8528633-5.8528633
		c-0.4970832-0.4970856-0.7895527-1.1332741-0.8230772-1.7918129c-0.0304413-0.599968,0.162612-1.1405945,0.5444794-1.5220757
		l2.0908318-2.091217c0.0319824,0.0003853,0.0639658,0.0023117,0.0963335,0.0023117c0,0,0,0,0.0003853,0
		c1.4981852,0,2.9069719-0.5837822,3.9670305-1.6434555c1.6218777-1.622263,2.0399675-3.9982433,1.2561941-6.0104656
		c1.0527372-0.2219543,2.0203161-0.742157,2.7994642-1.5205345c0.88974-0.8905106,1.4176502-2.0083694,1.5829582-3.1682301
		c0.4523849,0.1159859,0.9221096,0.1764832,1.4010811,0.1764832c0,0,0,0,0.0003853,0
		c1.4981842,0,2.9069729-0.5833969,3.9670315-1.6430702c1.0596714-1.0596733,1.6434555-2.4688454,1.6434555-3.9674168
		c0-0.4782009-0.060112-0.947155-0.1753273-1.3987684c1.19454-0.169548,2.2981415-0.717495,3.1663036-1.5864267
		c2.1875496-2.1871653,2.1875496-5.7465105,0.0003853-7.9344468l-1.2993526-1.2993517l1.19454-1.1941555
		c1.0072689-1.0068822,2.6457157-1.0068822,3.6522102-0.0003853c0.4878387,0.4878347,0.7564163,1.1363547,0.7564163,1.8261058
		s-0.2685776,1.3382707-0.7564163,1.8261056c-0.2955513,0.2955523-0.4435196,0.6831999-0.4435196,1.0708475
		c0,0.3872623,0.147583,0.77491,0.4435196,1.0704632c0.5914917,0.5914898,1.5498238,0.5914898,2.1413116,0
		c1.0064964-1.0064974,2.6449432-1.0068827,3.6522102,0c1.0068855,1.007267,1.0065002,2.6457138-0.0003853,3.6525965
		c-0.2955513,0.2955523-0.4435196,0.6831999-0.4435196,1.0704622c0,0.3876476,0.147583,0.77491,0.4435196,1.0704622
		c0.5914917,0.5914907,1.5498199,0.5914907,2.1413116,0.0003853c0.4878349-0.4878349,1.1367416-0.7564135,1.8264923-0.7567987
		c0.6897507,0,1.3382683,0.2685785,1.8257179,0.7564135c0.4882202,0.4882202,0.7568016,1.1367407,0.7568016,1.8264914
		c0,0.6805019-0.2616425,1.3209305-0.7371483,1.8060684c-0.0069351,0.0069351-0.0138702,0.0134869-0.0204239,0.020422
		l-2.1713638,2.1717529c-0.5406265,0.5406246-0.5934181,1.399538-0.1229248,2.002203l0.0778389,0.099802
		c0.4693375,0.6015091,1.3132248,0.7594967,1.9682961,0.3691521c1.015358-0.6049767,2.3089294-0.4427509,3.1458778,0.3938141
		c1.0068817,1.007267,1.0068817,2.6457138,0,3.6525955l-3.4753418,3.4749565
		c-0.0065498,0.006937-0.013485,0.0138721-0.0200348,0.0208092l-7.459713,7.459713
		C32.0271339,42.4119682,26.5214577,43.8874207,21.4011173,42.5198631z M43.8808289,37.3340149
		c0.6639328,0.6643219,0.407299,2.0865936-0.5494881,3.0433846l-5.8532486,5.8528633
		c-0.990696,0.990696-2.6021729,0.990696-3.5928688,0l-1.6107025-1.6107063
		c2.0935287-0.8935928,4.0109558-2.1833115,5.6366882-3.8090401l4.7226753-4.7230606L43.8808289,37.3340149z"/>
</g>
</svg>
