<?xml version="1.0" encoding="utf-8"?>
<!-- Generator: Adobe Illustrator 23.0.0, SVG Export Plug-In . SVG Version: 6.00 Build 0)  -->
<!DOCTYPE svg PUBLIC "-//W3C//DTD SVG 1.1//EN" "http://www.w3.org/Graphics/SVG/1.1/DTD/svg11.dtd" [
	<!ENTITY ns_extend "http://ns.adobe.com/Extensibility/1.0/">
	<!ENTITY ns_ai "http://ns.adobe.com/AdobeIllustrator/10.0/">
	<!ENTITY ns_graphs "http://ns.adobe.com/Graphs/1.0/">
	<!ENTITY ns_vars "http://ns.adobe.com/Variables/1.0/">
	<!ENTITY ns_imrep "http://ns.adobe.com/ImageReplacement/1.0/">
	<!ENTITY ns_sfw "http://ns.adobe.com/SaveForWeb/1.0/">
	<!ENTITY ns_custom "http://ns.adobe.com/GenericCustomNamespace/1.0/">
	<!ENTITY ns_adobe_xpath "http://ns.adobe.com/XPath/1.0/">
]>
<svg version="1.1" id="Layer_1" xmlns:x="&ns_extend;" xmlns:i="&ns_ai;" xmlns:graph="&ns_graphs;"
	 xmlns="http://www.w3.org/2000/svg" xmlns:xlink="http://www.w3.org/1999/xlink" x="0px" y="0px" viewBox="0 0 53.9980011 58"
	 enable-background="new 0 0 53.9980011 58" xml:space="preserve">
<metadata>
	<sfw  xmlns="&ns_sfw;">
		<slices></slices>
		<sliceSourceBounds  bottomLeftOrigin="true" height="58" width="53.9980011" x="98.0009995" y="91"></sliceSourceBounds>
	</sfw>
</metadata>
<g>
	<polygon fill="#DD0031" points="26.9990005,0 26.9990005,0 26.9990005,0 0,9.6280003 4.1179996,45.3269997 26.9990005,58 
		26.9990005,58 26.9990005,58 49.8799973,45.3269997 53.9980011,9.6280003 	"/>
	<polygon fill="#C3002F" points="26.9990005,0 26.9990005,6.4380002 26.9990005,6.4089994 26.9990005,35.7859993 
		26.9990005,35.7859993 26.9990005,58 26.9990005,58 49.8799973,45.3269997 53.9980011,9.6280003 	"/>
	<path fill="#FFFFFF" d="M26.9990005,6.4089994L10.1210012,44.2540016l0,0h6.2929983l0,0l3.3929996-8.4679985h14.326004
		l3.3929977,8.4679985l0,0h6.2929993l0,0L26.9990005,6.4089994L26.9990005,6.4089994L26.9990005,6.4089994L26.9990005,6.4089994
		L26.9990005,6.4089994z M31.9290009,30.5659981h-9.8600006l4.9300003-11.8610001L31.9290009,30.5659981z"/>
</g>
</svg>
