<?xml version="1.0" encoding="utf-8"?>
<!-- Generator: Adobe Illustrator 23.0.0, SVG Export Plug-In . SVG Version: 6.00 Build 0)  -->
<!DOCTYPE svg PUBLIC "-//W3C//DTD SVG 1.1//EN" "http://www.w3.org/Graphics/SVG/1.1/DTD/svg11.dtd" [
	<!ENTITY ns_extend "http://ns.adobe.com/Extensibility/1.0/">
	<!ENTITY ns_ai "http://ns.adobe.com/AdobeIllustrator/10.0/">
	<!ENTITY ns_graphs "http://ns.adobe.com/Graphs/1.0/">
	<!ENTITY ns_vars "http://ns.adobe.com/Variables/1.0/">
	<!ENTITY ns_imrep "http://ns.adobe.com/ImageReplacement/1.0/">
	<!ENTITY ns_sfw "http://ns.adobe.com/SaveForWeb/1.0/">
	<!ENTITY ns_custom "http://ns.adobe.com/GenericCustomNamespace/1.0/">
	<!ENTITY ns_adobe_xpath "http://ns.adobe.com/XPath/1.0/">
]>
<svg version="1.1" id="Layer_1" xmlns:x="&ns_extend;" xmlns:i="&ns_ai;" xmlns:graph="&ns_graphs;"
	 xmlns="http://www.w3.org/2000/svg" xmlns:xlink="http://www.w3.org/1999/xlink" x="0px" y="0px" viewBox="0 0 99.4249344 62"
	 enable-background="new 0 0 99.4249344 62" xml:space="preserve">
<metadata>
	<sfw  xmlns="&ns_sfw;">
		<slices></slices>
		<sliceSourceBounds  bottomLeftOrigin="true" height="62" width="99.4249344" x="-13.6529665" y="3.2505016"></sliceSourceBounds>
	</sfw>
</metadata>
<g>
	<polygon fill="#F7981F" points="27.1440258,31.0364876 24.3611813,42.5503044 29.8916378,42.5503044 27.2069283,31.0364876 	"/>
	<path fill="#F7981F" d="M0,43.5668221v1.6757431C0,53.5734787,9.0052357,62,20.1064034,62h59.2121239
		c11.1011658,0,20.1064072-8.4290352,20.1064072-16.7574348v-1.6757431c0-7.7446518-7.7949753-17.4695034-17.8167267-18.3249874
		c-0.223938-6.9243965-5.8927765-12.467432-12.8649826-12.467432c-2.7073517,0-5.2184563,0.8403873-7.2917442,2.2645178
		C57.4759903,6.1821365,48.6016045,0,38.2628174,0C24.2253189,0,12.847374,11.3754301,12.847374,25.417963
		c0,0.2516079,0.0301914,0.4906445,0.0377407,0.7372246C5.3543282,28.3366833,0,37.1532021,0,43.5668221z M31.9523506,51.2536049
		l-1.4392281-5.724205h-6.8363323l-1.5071602,5.724205H18.277174l6.64007-23.3572521h4.7756195l6.1494255,23.3572521H31.9523506z
		 M54.6277313,51.2536049h-4.3176842l-3.0092888-17.5978241h-0.0654221l-2.9765816,17.5978241h-4.3176804l-4.5164528-23.3572521
		h3.7641296l3.0722008,18.1538868h0.0679359l3.072197-18.1538868h3.9276848l3.1401329,18.2520199h0.0654221l3.0420036-18.2520199
		h3.6962013L54.6277313,51.2536049z M68.2978668,51.7090225c-5.7896156,0-7.0980034-3.8572311-7.0980034-7.1307144v-0.5560684
		h3.7289009v0.5887794c0,2.8457451,1.2429657,4.2849693,3.827034,4.2849693c2.3551025,0,3.5301361-1.6707153,3.5301361-3.4068451
		c0-2.4532242-1.2404556-3.5326462-3.3338776-4.151619l-2.5538712-0.8856812
		c-3.4043274-1.3083878-4.8737488-3.072197-4.8737488-6.4085884c0-4.2547741,2.8784561-6.6098747,7.2615585-6.6098747
		c5.9858856,0,6.6073608,3.7289028,6.6073608,6.1469116v0.5258713h-3.7289047v-0.4906464
		c0-2.1286488-0.9485779-3.3716164-3.2709656-3.3716164c-1.6027756,0-3.1401367,0.8856812-3.1401367,3.3716164
		c0,1.9952888,1.0139999,3.0067749,3.502449,3.9553566l2.5161362,0.9183922
		c3.3036804,1.1750298,4.74543,2.9790916,4.74543,6.1821365C76.0198746,49.6508255,73.0080719,51.7090225,68.2978668,51.7090225z"/>
	<path fill="#FFFFFF" d="M24.9172497,27.8963528l-6.6400719,23.3572521h3.892458l1.507164-5.724205h6.8363266l1.43923,5.724205
		h3.892458l-6.1494274-23.3572521H24.9172497z M24.3611813,42.5503044l2.7803249-11.5138168h0.0629025l2.6821957,11.5138168
		H24.3611813z"/>
	<polygon fill="#FFFFFF" points="52.5343056,46.1483727 52.4663696,46.1483727 49.3262367,27.8963528 45.4010773,27.8963528 
		42.3288765,46.0477257 42.2609406,46.0477257 39.1887474,27.8963528 35.424614,27.8963528 39.9410667,51.2536049 
		44.2587471,51.2536049 47.2328224,33.6557808 47.3007584,33.6557808 50.3100471,51.2536049 54.6277313,51.2536049 
		59.2699966,27.8963528 55.5763092,27.8963528 	"/>
	<path fill="#FFFFFF" d="M71.2744598,38.4968185l-2.5161362-0.9183922c-2.4859314-0.9485779-3.502449-1.9600639-3.502449-3.9553566
		c0-2.4859352,1.5373611-3.3716164,3.1401367-3.3716164c2.3223877,0,3.2709656,1.2429676,3.2709656,3.3716164v0.4906464h3.7289047
		v-0.5258713c0-2.4179993-0.6214905-6.1469116-6.6073608-6.1469116c-4.3831024,0-7.2615585,2.3551025-7.2615585,6.6098747
		c0,3.3363914,1.4694214,5.1002007,4.8737488,6.4085884l2.5538712,0.8856812
		c2.0934219,0.6189651,3.3338776,1.700901,3.3338776,4.1516228c0,1.7336121-1.1775436,3.4068413-3.5301361,3.4068413
		c-2.5840683,0-3.827034-1.4392242-3.827034-4.2849693v-0.5887794h-3.7289009v0.5560684
		c0,3.2734833,1.3109016,7.1307144,7.0980034,7.1307144c4.7102051,0,7.7194901-2.058197,7.7194901-7.0325813
		C76.0198746,41.4733963,74.5781403,39.6693344,71.2744598,38.4968185z"/>
</g>
</svg>
