<?xml version="1.0" encoding="utf-8"?>
<!-- Generator: Adobe Illustrator 23.0.0, SVG Export Plug-In . SVG Version: 6.00 Build 0)  -->
<!DOCTYPE svg PUBLIC "-//W3C//DTD SVG 1.1//EN" "http://www.w3.org/Graphics/SVG/1.1/DTD/svg11.dtd" [
	<!ENTITY ns_extend "http://ns.adobe.com/Extensibility/1.0/">
	<!ENTITY ns_ai "http://ns.adobe.com/AdobeIllustrator/10.0/">
	<!ENTITY ns_graphs "http://ns.adobe.com/Graphs/1.0/">
	<!ENTITY ns_vars "http://ns.adobe.com/Variables/1.0/">
	<!ENTITY ns_imrep "http://ns.adobe.com/ImageReplacement/1.0/">
	<!ENTITY ns_sfw "http://ns.adobe.com/SaveForWeb/1.0/">
	<!ENTITY ns_custom "http://ns.adobe.com/GenericCustomNamespace/1.0/">
	<!ENTITY ns_adobe_xpath "http://ns.adobe.com/XPath/1.0/">
]>
<svg version="1.1"
	 id="svg8" xmlns:x="&ns_extend;" xmlns:i="&ns_ai;" xmlns:graph="&ns_graphs;" xmlns:cc="http://creativecommons.org/ns#" xmlns:dc="http://purl.org/dc/elements/1.1/" xmlns:inkscape="http://www.inkscape.org/namespaces/inkscape" xmlns:rdf="http://www.w3.org/1999/02/22-rdf-syntax-ns#" xmlns:sodipodi="http://sodipodi.sourceforge.net/DTD/sodipodi-0.dtd" xmlns:svg="http://www.w3.org/2000/svg"
	 xmlns="http://www.w3.org/2000/svg" xmlns:xlink="http://www.w3.org/1999/xlink" x="0px" y="0px" viewBox="0 0 156.1995392 45"
	 enable-background="new 0 0 156.1995392 45" xml:space="preserve">
<metadata  id="metadata5">
	<rdf:RDF>
		<cc:Work  rdf:about="">
			<dc:format>image/svg+xml</dc:format>
			<dc:type  rdf:resource="http://purl.org/dc/dcmitype/StillImage"></dc:type>
			<dc:title></dc:title>
		</cc:Work>
	</rdf:RDF>
	<sfw  xmlns="&ns_sfw;">
		<slices></slices>
		<sliceSourceBounds  bottomLeftOrigin="true" height="45" width="156.1995392" x="-3.0998938" y="-0.8930556"></sliceSourceBounds>
	</sfw>
</metadata>
<sodipodi:namedview  bordercolor="#666666" borderopacity="1.0" fit-margin-bottom="0" fit-margin-left="0" fit-margin-right="0" fit-margin-top="0" id="base" inkscape:current-layer="layer1" inkscape:cx="67.4659" inkscape:cy="38.024323" inkscape:document-units="mm" inkscape:pagecheckerboard="true" inkscape:pageopacity="0.0" inkscape:pageshadow="2" inkscape:window-height="781" inkscape:window-maximized="0" inkscape:window-width="930" inkscape:window-x="667" inkscape:window-y="117" inkscape:zoom="6.5246067" pagecolor="#ffffff" showgrid="false">
	</sodipodi:namedview>
<g id="layer1" transform="translate(677.9313,-313.85407)" inkscape:groupmode="layer" inkscape:label="Layer 1">
	<g id="layer1-1" transform="matrix(0.03978217,0,0,0.03978217,-658.51488,317.36166)" inkscape:label="Layer 1">
		<path id="path21" inkscape:connector-curvature="0" fill="#0089D6" d="M187.5485535,982.5858154
			c187.6277161-33.1448364,342.5975037-60.5722046,344.3773499-60.949646l3.236084-0.6862793l-177.1390381-210.701355
			c-97.4263916-115.8858032-177.1389618-211.1506958-177.1389618-211.6998596
			c0-1.0397034,182.911026-504.7371521,183.9393158-506.5291443
			c0.343811-0.5991263,124.8203125,214.3061523,301.7392578,520.9445801
			c165.6347046,287.0804443,302.1925049,523.7792969,303.461792,525.9973145l2.3078613,4.032959l-562.9625244-0.0726318
			l-562.9624634-0.0723877C-153.5927582,1042.8493652,187.5485535,982.5859985,187.5485535,982.5858154z M2346.4438477,931.6289063
			c-85.6938477-5.4941406-135.5339355-54.2901611-148.7412109-145.6255493
			c-3.5131836-24.2966309-3.5266113-24.927063-3.8862305-182.6606445l-0.3479004-152.659668h37.9257813h37.9257813
			l0.2988281,147.6612549c0.269043,133.0830078,0.4379883,148.6867676,1.7104492,158.0488281
			c5.1638184,37.994812,15.4438477,63.5454712,32.9458008,81.8853149
			c14.0070801,14.6777344,30.4047852,23.2718506,53.1035156,27.8321533
			c10.7087402,2.1513672,41.1723633,2.1557007,50.9355469,0.0088501
			c23.0119629-5.0641479,41.4558105-15.078186,57.7260742-31.3423462
			c18.5446777-18.5377808,32.263916-44.8389282,38.9020996-74.5803833l2.2373047-10.0239868l0.2490234-148.9108887
			l0.2492676-148.9108582h38.7199707h38.7199707v234.0920715v234.092041h-38.3212891h-38.3210449V883.394165
			c0-25.2360229-0.2766113-37.0487671-0.8625488-36.8533936c-0.4743652,0.1582031-2.442627,3.1689453-4.3737793,6.6907349
			c-13.2055664,24.0838013-35.2075195,46.1082153-59.3166504,59.3772583
			c-28.8991699,15.9051514-57.8808594,21.56073-97.4787598,19.0218506V931.6289063z M3216.2446289,931.2505493
			c-30.25-2.2737427-62.1015625-12.6738892-88.1352539-28.7774658
			c-54.8706055-33.9415894-87.3371582-89.8882446-96.8432617-166.8808594
			c-3.2895508-26.642395-3.6848145-62.4298096-0.9399414-85.0686035
			c6.1335449-50.5847168,26.0109863-100.2429199,54.3166504-135.694397
			c7.2561035-9.0881348,23.7177734-25.54953,32.8054199-32.8053284
			c24.5407715-19.5937805,53.2460938-33.2953491,83.7233887-39.9626465
			c17.7573242-3.8846741,49.0285645-5.7086182,67.8947754-3.9601135
			c47.3937988,4.3924561,90.8305664,26.7070007,120.3535156,61.8283691
			c29.994873,35.6829224,46.4816895,85.5438232,48.5869141,146.940979
			c0.3300781,9.6218872,0.4101563,26.4915161,0.1782227,37.4880371l-0.4223633,19.9936523l-165.9887695,0.210144
			l-165.9887695,0.210144v7.4072876c0,22.5493774,5.4821777,48.2323608,14.9597168,70.0839233
			c8.1728516,18.8435669,22.2414551,39.4203491,33.7602539,49.3779907
			c23.6184082,20.4172974,52.5241699,32.6382446,84.1542969,35.5792236
			c11.7282715,1.0903931,41.6171875-0.0575562,54.9824219-2.111084
			c38.1315918-5.8601074,74.3842773-20.8162231,103.6601563-42.7653809
			c3.4443359-2.5824585,6.7407227-4.9951782,7.3249512-5.3615112c0.8549805-0.5361938,1.0571289,6.2108154,1.0356445,34.5722656
			l-0.0266113,35.2385254l-7.8439941,4.8515015c-33.1186523,20.4829712-71.0593262,33.6353149-111.2307129,38.5588379
			c-11.9885254,1.4692993-55.9794922,2.1237793-70.3164063,1.0461426L3216.2446289,931.2505493z M3360.7041016,634.0462646
			c0-37.7717285-15.9174805-79.7313843-38.442627-101.3373413c-16.0751953-15.4193115-35.5080566-24.8425598-58.6098633-28.4207153
			c-10.9294434-1.6928711-33.9643555-1.0408936-45.4875488,1.2875061
			c-24.359375,4.9220886-44.5078125,15.6308899-62.0812988,32.9960022
			c-18.494873,18.2756348-32.3613281,40.4730225-41.0820313,65.7637939
			c-3.1357422,9.0942993-6.8034668,24.0248413-7.9418945,32.3299561l-0.5424805,3.9570923h127.09375h127.0939941V634.0462646z
			 M1109.0968018,919.4920044c0.194458-0.5727539,56.5603027-148.649292,125.2575684-329.059021l124.9040527-328.0176086
			l40.1324463-0.0025024l40.1322021-0.0024719l3.329834,8.5389404
			c10.1755371,26.0942993,250.0491943,648.8727417,250.0491943,649.196228c0,0.2131348-19.2125244,0.3848877-42.6947021,0.3814697
			l-42.6948242-0.0089111l-34.5722656-92.0458984l-34.5722656-92.0458984l-139.2042236-0.0016479l-139.2042236-0.0016479
			l-1.2097168,3.1239624c-0.6652832,1.7182007-15.4361572,43.1359253-32.8243408,92.0394287l-31.614502,88.9153442
			l-42.7839355,0.0147705c-33.8652344,0.0117798-42.710083-0.2025146-42.4304199-1.0267334L1109.0968018,919.4920044z
			 M1512.9594727,666.182373c0-0.145813-23.2657471-63.2196045-51.7017822-140.1636963
			c-53.1989746-143.9490662-56.1749268-152.6101379-60.3780518-175.7202759
			c-1.9709473-10.8367615-2.9682617-11.1379089-4.1380615-1.2496033
			c-0.8363037,7.0680847-4.4622803,22.8838196-7.2575684,31.6566162
			c-1.3869629,4.3527527-25.3436279,70.1047668-53.2369385,146.115509s-50.7150879,138.5221558-50.7150879,138.9140625
			c0,0.3920288,51.1711426,0.7126465,113.7137451,0.7126465S1512.9594727,666.3283691,1512.9594727,666.182373z
			 M1718.7272949,908.5452271v-11.9880981l138.6899414-190.6556396l138.6898193-190.6556396l-125.5689697-0.4165649
			l-125.5690918-0.4165039l-0.2182617-31.8648682l-0.2181396-31.8648376h181.6186523h181.6187744v10.7624817v10.7624817
			L1969.064209,663.9034424c-76.288208,105.4324951-138.7056885,191.8728027-138.7056885,192.0895386
			c0,0.2166748,61.6678467,0.394104,137.0395508,0.394104h137.0396729v32.0731201v32.0731201h-192.8552246h-192.8552246V908.5452271
			z M2736.4587402,919.9779053c-0.3056641-0.3054199-0.5556641-106.0217285-0.5556641-234.9251099v-234.369751h37.9047852h37.904541
			v48.3179321c0,26.5748901,0.3232422,48.3179321,0.7182617,48.3179321s2.2397461-4.3500366,4.0996094-9.666687
			c8.5219727-24.3631592,23.3012695-47.1278992,42.342041-65.2206421
			c17.152832-16.2989197,36.7570801-26.0457764,59.8894043-29.7758179
			c6.4980469-1.047821,11.9960938-1.2478333,24.9919434-0.9093323c16.3212891,0.4251099,24.854248,1.6181335,34.7807617,4.8627319
			l3.1240234,1.0211487v39.344574v39.3445129l-8.9555664-4.4828491
			c-15.8193359-7.9187622-31.4284668-11.0524597-50.1923828-10.0767517
			c-12.2119141,0.6350403-20.2272949,2.2030945-29.9902344,5.867218
			c-20.0876465,7.5388794-36.3818359,20.8456421-47.7670898,39.0097046
			c-16.4821777,26.2952881-28.2373047,60.0952148-31.7045898,91.1605225
			c-0.6223145,5.5749512-0.9892578,50.9783936-1.1352539,140.4865723l-0.2158203,132.2495117h-37.342041
			C2753.817627,920.5333252,2736.763916,920.2833252,2736.4587402,919.9779053z M-488.069519,918.3320313
			c0-0.2966309,83.4670715-145.1889038,185.4823303-321.9829712l185.4823303-321.4436035L99.0533676,93.5050354
			C217.9404144-6.2651663,315.5317383-88.0173187,315.9229736-88.1664047
			c0.3912659-0.1490631-1.1726685,3.7871475-3.4754333,8.7472076
			c-2.3027344,4.9600677-107.9255524,231.5098877-234.7173615,503.4440613l-230.5305786,494.4257507l-167.6345978,0.210144
			C-412.6340027,918.7764893-488.0695801,918.6282959-488.069519,918.3320313z"/>
	</g>
</g>
</svg>
