<?xml version="1.0" encoding="utf-8"?>
<!-- Generator: Adobe Illustrator 23.0.0, SVG Export Plug-In . SVG Version: 6.00 Build 0)  -->
<!DOCTYPE svg PUBLIC "-//W3C//DTD SVG 1.1//EN" "http://www.w3.org/Graphics/SVG/1.1/DTD/svg11.dtd" [
	<!ENTITY ns_extend "http://ns.adobe.com/Extensibility/1.0/">
	<!ENTITY ns_ai "http://ns.adobe.com/AdobeIllustrator/10.0/">
	<!ENTITY ns_graphs "http://ns.adobe.com/Graphs/1.0/">
	<!ENTITY ns_vars "http://ns.adobe.com/Variables/1.0/">
	<!ENTITY ns_imrep "http://ns.adobe.com/ImageReplacement/1.0/">
	<!ENTITY ns_sfw "http://ns.adobe.com/SaveForWeb/1.0/">
	<!ENTITY ns_custom "http://ns.adobe.com/GenericCustomNamespace/1.0/">
	<!ENTITY ns_adobe_xpath "http://ns.adobe.com/XPath/1.0/">
]>
<svg version="1.1" xmlns:x="&ns_extend;" xmlns:i="&ns_ai;" xmlns:graph="&ns_graphs;"
	 xmlns="http://www.w3.org/2000/svg" xmlns:xlink="http://www.w3.org/1999/xlink" x="0px" y="0px" viewBox="0 0 54.4661636 49"
	 enable-background="new 0 0 54.4661636 49" xml:space="preserve">
<metadata>
	<sfw  xmlns="&ns_sfw;">
		<slices></slices>
		<sliceSourceBounds  bottomLeftOrigin="true" height="49" width="54.4661636" x="1789.7669678" y="-408.5"></sliceSourceBounds>
	</sfw>
</metadata>
<g id="Inspo">
</g>
<g id="Work_x5C_">
	<g>
		<g>
			<g>
				<path fill="#C7223C" d="M49.5091896,3.2679698c0.9313164,0,1.689003,0.7576859,1.689003,1.6890361v39.0859909
					c0,0.9313469-0.7576866,1.6890335-1.689003,1.6890335H4.957006c-0.9313502,0-1.6890361-0.7576866-1.6890361-1.6890335V4.957006
					c0-0.9313502,0.7576859-1.6890361,1.6890361-1.6890361H49.5091896 M49.5091896,0H4.957006C2.2193365,0,0,2.2193365,0,4.957006
					v39.0859909C0,46.7807312,2.2193365,49,4.957006,49h44.5521851c2.7376709,0,4.956974-2.2192688,4.956974-4.9570045V4.957006
					C54.4661636,2.2193365,52.2468605,0,49.5091896,0L49.5091896,0z"/>
			</g>
			<g>
				<path fill="#C7223C" d="M49.5481873,3.2679698c0.9098053,0,1.6500053,0.7401998,1.6500053,1.6500084
					s-0.7402,1.6500082-1.6500053,1.6500082H4.9180112c-0.9098415,0-1.6500413-0.7402-1.6500413-1.6500082
					s0.7401998-1.6500084,1.6500413-1.6500084H49.5481873 M49.5481873,0H4.9180112C2.2018838,0,0,2.2018504,0,4.9179783
					s2.2018838,4.9179783,4.9180112,4.9179783h44.6301765c2.7161255,0,4.9179764-2.2018509,4.9179764-4.9179783
					S52.2643127,0,49.5481873,0L49.5481873,0z"/>
			</g>
		</g>
		<g>
			<g>
				<path fill="#C7223C" d="M16.8099117,43.3947296H6.4211831c-0.9023619,0-1.633985-0.7316246-1.633985-1.6339836
					c0-0.9023628,0.7316232-1.6339874,1.633985-1.6339874h10.3887291c0.9023628,0,1.6339855,0.7316246,1.6339855,1.6339874
					C18.4438972,42.663105,17.7122746,43.3947296,16.8099117,43.3947296z"/>
			</g>
			<g>
				<g>
					<path fill="#C7223C" d="M12.0627394,26.8931847H6.4211831c-0.9023619,0-1.633985-0.7316246-1.633985-1.6339855
						c0-0.9023628,0.7316232-1.6339855,1.633985-1.6339855h5.6415563c0.9023619,0,1.6339846,0.7316227,1.6339846,1.6339855
						C13.6967239,26.1615601,12.9651012,26.8931847,12.0627394,26.8931847z"/>
				</g>
				<g>
					<path fill="#C7223C" d="M32.1420822,26.8931847h-16.226553c-0.9023619,0-1.6339855-0.7316246-1.6339855-1.6339855
						c0-0.9023628,0.7316236-1.6339855,1.6339855-1.6339855h16.226553c0.9023628,0,1.6339874,0.7316227,1.6339874,1.6339855
						C33.7760696,26.1615601,33.044445,26.8931847,32.1420822,26.8931847z"/>
				</g>
				<g>
					<path fill="#C7223C" d="M48.0449791,26.8931847H37.2434998c-0.9023628,0-1.6339836-0.7316246-1.6339836-1.6339855
						c0-0.9023628,0.7316208-1.6339855,1.6339836-1.6339855h10.8014793c0.9023628,0,1.6339874,0.7316227,1.6339874,1.6339855
						C49.6789665,26.1615601,48.9473419,26.8931847,48.0449791,26.8931847z"/>
				</g>
			</g>
			<g>
				<g>
					<path fill="#C7223C" d="M22.4514694,32.3935204H6.4211831c-0.9023619,0-1.633985-0.7316227-1.633985-1.6339836
						s0.7316232-1.6339855,1.633985-1.6339855h16.0302868c0.9023609,0,1.6339836,0.7316246,1.6339836,1.6339855
						S23.3538303,32.3935204,22.4514694,32.3935204z"/>
				</g>
				<g>
					<path fill="#C7223C" d="M38.6538239,32.3935204H27.1885357c-0.9023628,0-1.6339855-0.7316227-1.6339855-1.6339836
						s0.7316227-1.6339855,1.6339855-1.6339855h11.4652882c0.902359,0,1.6339836,0.7316246,1.6339836,1.6339855
						S39.5561829,32.3935204,38.6538239,32.3935204z"/>
				</g>
			</g>
			<g>
				<g>
					<path fill="#C7223C" d="M30.3977299,37.8941269H6.4211831c-0.9023619,0-1.633985-0.7316246-1.633985-1.6339874
						c0-0.902359,0.7316232-1.6339836,1.633985-1.6339836h23.9765472c0.9023628,0,1.6339855,0.7316246,1.6339855,1.6339836
						C32.0317154,37.1625023,31.3000927,37.8941269,30.3977299,37.8941269z"/>
				</g>
			</g>
			<g>
				<path fill="#C7223C" d="M42.6097984,21.39258H6.4211831c-0.9023619,0-1.633985-0.7316227-1.633985-1.6339855
					c0-0.9023609,0.7316232-1.6339836,1.633985-1.6339836h36.1886139c0.9023628,0,1.6339874,0.7316227,1.6339874,1.6339836
					C44.2437859,20.6609573,43.5121613,21.39258,42.6097984,21.39258z"/>
			</g>
			<g>
				<g>
					<path fill="#C7223C" d="M14.8836508,15.8922424H6.4211831c-0.9023619,0-1.633985-0.7316236-1.633985-1.6339855
						s0.7316232-1.6339846,1.633985-1.6339846h8.4624672c0.9023619,0,1.6339846,0.7316227,1.6339846,1.6339846
						S15.7860126,15.8922424,14.8836508,15.8922424z"/>
				</g>
				<g>
					<path fill="#C7223C" d="M27.8866501,15.8922424H19.424448c-0.9023628,0-1.6339855-0.7316236-1.6339855-1.6339855
						s0.7316227-1.6339846,1.6339855-1.6339846h8.4622021c0.9023609,0,1.6339836,0.7316227,1.6339836,1.6339846
						S28.789011,15.8922424,27.8866501,15.8922424z"/>
				</g>
			</g>
		</g>
	</g>
</g>
</svg>
