<?xml version="1.0" encoding="utf-8"?>
<!-- Generator: Adobe Illustrator 23.0.0, SVG Export Plug-In . SVG Version: 6.00 Build 0)  -->
<!DOCTYPE svg PUBLIC "-//W3C//DTD SVG 1.1//EN" "http://www.w3.org/Graphics/SVG/1.1/DTD/svg11.dtd" [
	<!ENTITY ns_extend "http://ns.adobe.com/Extensibility/1.0/">
	<!ENTITY ns_ai "http://ns.adobe.com/AdobeIllustrator/10.0/">
	<!ENTITY ns_graphs "http://ns.adobe.com/Graphs/1.0/">
	<!ENTITY ns_vars "http://ns.adobe.com/Variables/1.0/">
	<!ENTITY ns_imrep "http://ns.adobe.com/ImageReplacement/1.0/">
	<!ENTITY ns_sfw "http://ns.adobe.com/SaveForWeb/1.0/">
	<!ENTITY ns_custom "http://ns.adobe.com/GenericCustomNamespace/1.0/">
	<!ENTITY ns_adobe_xpath "http://ns.adobe.com/XPath/1.0/">
]>
<svg version="1.1" id="balsamiq-logo-print" xmlns:x="&ns_extend;" xmlns:i="&ns_ai;" xmlns:graph="&ns_graphs;"
	 xmlns="http://www.w3.org/2000/svg" xmlns:xlink="http://www.w3.org/1999/xlink" x="0px" y="0px" viewBox="0 0 112.6956558 36"
	 enable-background="new 0 0 112.6956558 36" xml:space="preserve">
<metadata>
	<sfw  xmlns="&ns_sfw;">
		<slices></slices>
		<sliceSourceBounds  bottomLeftOrigin="true" height="36" width="112.6956558" x="123.6521759" y="39.5"></sliceSourceBounds>
	</sfw>
</metadata>
<g>
	<path fill-rule="evenodd" clip-rule="evenodd" fill="#CC0000" d="M0,32.2434769C0,34.3180161,1.6819826,36,3.7565217,36
		h105.1826096c2.0745392,0,3.7565231-1.6819839,3.7565231-3.7565231V3.7565217C112.6956558,1.6819826,111.0136719,0,108.9391327,0
		H3.7565217C1.6819826,0,0,1.6819826,0,3.7565217V32.2434769z"/>
	<g>
		<path fill="#FFFFFF" d="M17.9737053,23.9277897c0.0400677-0.6611462,0.0801392-1.6428528,0.0801392-2.5043468V9.7043476h1.742712
			v6.0902615h0.0400696c0.6210785-1.0818787,1.7430248-1.7830954,3.3054276-1.7830954
			c2.4041729,0,4.1068172,2.0031652,4.0867825,4.9482775c0,3.465704-2.1837902,5.1886978-4.3472347,5.1886978
			c-1.4024372,0-2.5240688-0.5409374-3.2453232-1.823164h-0.0601044l-0.0801392,1.6027832h-1.5223293V23.9277897z
			 M19.7965565,20.041357c0,0.2203846,0.0400677,0.4407654,0.0801392,0.6411133
			c0.3405914,1.2221203,1.3623657,2.0635834,2.6442795,2.0635834c1.8431988,0,2.9451122-1.5026093,2.9451122-3.7261562
			c0-1.9433746-1.0017395-3.6062622-2.884697-3.6062622c-1.2020874,0-2.3240337,0.8214264-2.6846619,2.1637573
			c-0.0400696,0.200346-0.100174,0.4407654-0.100174,0.7212524C19.7965546,18.298645,19.7965546,20.041357,19.7965565,20.041357z"/>
		<path fill="#FFFFFF" d="M35.2749901,23.9277897l-0.1402435-1.2221203h-0.0601044
			c-0.5409355,0.7613201-1.5827484,1.4425049-2.9651451,1.4425049c-1.9630985,0-2.9648361-1.3824005-2.9648361-2.7848339
			c0-2.3437557,2.0836163-3.6259823,5.8298073-3.6059475V17.557045c0-0.8013916-0.2203827-2.2435827-2.2035141-2.2435827
			c-0.9015636,0-1.8431988,0.2804861-2.5240688,0.7212515l-0.4006958-1.1617031
			c0.8013916-0.5209055,1.9630947-0.861496,3.1852169-0.861496c2.9651489,0,3.6860886,2.023201,3.6860886,3.9665756v3.6259823
			c0,0.8414612,0.0400696,1.6625729,0.1602783,2.3237209C36.8777733,23.9277935,35.2749901,23.9277935,35.2749901,23.9277897z
			 M35.0145378,18.9795132c-1.923336-0.0400696-4.1068172,0.3005219-4.1068172,2.1834793
			c0,1.141983,0.7613201,1.6826096,1.6628857,1.6826096c1.2621918,0,2.0632706-0.8013916,2.3437576-1.6225052
			c0.0601044-0.1803112,0.100174-0.380661,0.100174-0.5609741C35.0145378,20.6621227,35.0145378,18.9795132,35.0145378,18.9795132z"
			/>
		<path fill="#FFFFFF" d="M39.8551331,9.7043476h1.7627449v14.2237549h-1.7627449V9.7043476z"/>
		<path fill="#FFFFFF" d="M44.5370064,22.1246624c0.5209045,0.3405895,1.4421921,0.7012157,2.3237228,0.7012157
			c1.2822266,0,1.8832741-0.6411114,1.8832741-1.4425049c0-0.8414612-0.5008736-1.3022614-1.8031311-1.7830944
			c-1.7427139-0.6207657-2.5641365-1.5824356-2.5641365-2.7444515c0-1.5627136,1.2621918-2.8446264,3.3458099-2.8446264
			c0.9817047,0,1.8428841,0.2804871,2.3838272,0.6010427l-0.4407654,1.2822266
			c-0.380661-0.2404175-1.0818787-0.5609741-1.9831314-0.5609741c-1.0418129,0-1.6228218,0.6010427-1.6228218,1.3222961
			c0,0.8013916,0.5806961,1.1620159,1.8428841,1.6428528c1.6829262,0.6411133,2.5441055,1.4825726,2.5441055,2.9250774
			c0,1.7026443-1.3222961,2.9047318-3.6259804,2.9047318c-1.0618439,0-2.043232-0.2604542-2.7247276-0.6608353
			L44.5370064,22.1246624z"/>
		<path fill="#FFFFFF" d="M58.5870247,23.9277897l-0.1402397-1.2221203h-0.0601082
			c-0.5409355,0.7613201-1.5827446,1.4425049-2.9648323,1.4425049c-1.9630928,0-2.9648323-1.3824005-2.9648323-2.7848339
			c0-2.3437557,2.083622-3.6259823,5.8298111-3.6059475V17.557045c0-0.8013916-0.2203827-2.2435827-2.2038269-2.2435827
			c-0.9012489,0-1.8428841,0.2804861-2.5240669,0.7212515l-0.4006958-1.1617031
			c0.8013878-0.5209055,1.9634094-0.861496,3.1852188-0.861496c2.9651451,0,3.6860847,2.023201,3.6860847,3.9665756v3.6259823
			c0,0.8414612,0.0400696,1.6625729,0.1602745,2.3237209C60.1898117,23.9277935,58.5870247,23.9277935,58.5870247,23.9277897z
			 M58.3265724,18.9795132c-1.923336-0.0400696-4.1068153,0.3005219-4.1068153,2.1834793
			c0,1.141983,0.761322,1.6826096,1.6628838,1.6826096c1.261879,0,2.0635796-0.8013916,2.3437576-1.6225052
			c0.0601044-0.1803112,0.100174-0.380661,0.100174-0.5609741V18.9795132z"/>
		<path fill="#FFFFFF" d="M63.1533928,16.8561401c0-1.0017405-0.0200348-1.8231668-0.0801392-2.6242437h1.542675
			l0.0801392,1.5627127h0.0597916c0.5412521-0.9216003,1.4425049-1.7830954,3.0452881-1.7830954
			c1.3222961,0,2.324028,0.8013916,2.7447662,1.9433737h0.0400696c0.3005219-0.5409393,0.6811829-0.961669,1.0818787-1.2621918
			c0.5806885-0.4407654,1.2218094-0.6811819,2.1434097-0.6811819c1.2822189,0,3.185524,0.8414612,3.185524,4.2069921v5.7096004
			h-1.7229919v-5.4895325c0-1.8632336-0.6811752-2.984869-2.103653-2.984869c-1.0014267,0-1.7827835,0.7412872-2.0832977,1.6027813
			c-0.0801392,0.2404194-0.1402435,0.5609741-0.1402435,0.881218v5.9900856h-1.7226791v-5.8097725
			c0-1.5426788-0.6811829-2.6643133-2.0235214-2.6643133c-1.1019135,0-1.9029846,0.881217-2.1837845,1.7627478
			c-0.0998611,0.2604523-0.1402435,0.5609741-0.1402435,0.861496v5.8498421h-1.722683v-7.0716496H63.1533928z"/>
		<path fill="#FFFFFF" d="M82.1141205,11.507165c0.0197144,0.6010427-0.4207306,1.0818787-1.1219559,1.0818787
			c-0.6207657,0-1.0618439-0.480835-1.0618439-1.0818787c0-0.6210785,0.4608002-1.1019135,1.1019135-1.1019135
			C81.6933899,10.4052515,82.1141205,10.8860874,82.1141205,11.507165z M80.1507111,23.9277897v-9.6962061h1.7630539v9.6962099
			C81.913765,23.9277935,80.1507111,23.9277935,80.1507111,23.9277897z"/>
		<path fill="#FFFFFF" d="M91.808136,22.4251823h-0.040062c-0.5209045,0.9616699-1.6024704,1.7229919-3.165184,1.7229919
			c-2.2636108,0-4.1068115-1.9630947-4.1068115-4.9082088c0-3.6259832,2.3437576-5.2287655,4.3876114-5.2287655
			c1.5023041,0,2.5040359,0.7412872,2.9848709,1.6826086h0.0400696l0.0597916-1.4622269h1.6628952
			c-0.0400696,0.8214264-0.0597992,1.6628876-0.0597992,2.6643133v10.9981575h-1.7630539v-5.4688702H91.808136z
			 M91.808136,18.1580868c0-0.2404175-0.0197144-0.5209045-0.0801392-0.7412872
			c-0.2604523-1.0818787-1.2020874-2.0034781-2.5240631-2.0034781c-1.8228531,0-2.9250793,1.5426779-2.9250793,3.7261572
			c0,1.9233379,0.9216003,3.6062622,2.8646622,3.6062622c1.141983,0,2.1236877-0.7012177,2.5240631-1.9233379
			c0.0801468-0.2404175,0.1402435-0.5810108,0.1402435-0.8414612v-1.822855H91.808136z"/>
	</g>
	<g>
		<path fill="#FFFFFF" d="M98.7520752,15.4436865c0,0.8414602-0.6836853,1.516696-1.5511322,1.516696
			c-0.8677521,0-1.5602112-0.674921-1.5602112-1.516696c0-0.832695,0.6924591-1.5073032,1.5602112-1.5073032
			S98.7520752,14.6109915,98.7520752,15.4436865z M96.1052856,15.4524517c0,0.6310959,0.464241,1.1307125,1.0956497,1.1307125
			c0.6310959,0,1.0956497-0.4999294,1.0956497-1.1397905c0-0.6223297-0.4645538-1.1307125-1.1044159-1.1307125
			C96.5698471,14.312974,96.1052856,14.8213568,96.1052856,15.4524517z M97.0081024,16.1624355h-0.4294968v-1.3936701
			c0.0964203-0.0175304,0.3243179-0.0438261,0.6135635-0.0438261c0.3155441,0,0.4557877,0.0438261,0.5609665,0.1051826
			c0.0876541,0.0613565,0.1490173,0.1665392,0.1490173,0.3067827c0,0.1402426-0.131485,0.2629566-0.3243179,0.315547v0.0175304
			c0.1580887,0.0525913,0.2454224,0.1577749,0.2895584,0.359374c0.0438309,0.2016001,0.0701218,0.2804861,0.0964203,0.3327646
			h-0.4820862c-0.0438309-0.0525913-0.0701218-0.1753044-0.0964203-0.2977037
			c-0.0262985-0.1402445-0.0967255-0.2106791-0.2366638-0.2106791H97.0084v0.5086975H97.0081024z M97.0256348,15.3648005h0.123024
			c0.1577759,0,0.2629547-0.0610437,0.2629547-0.1662254c0-0.1139479-0.0967255-0.1756182-0.2454224-0.1756182
			c-0.0525894,0-0.1051788,0.0087652-0.1402435,0.0087652v0.3330784H97.0256348z"/>
	</g>
</g>
</svg>
