<?xml version="1.0" encoding="utf-8"?>
<!-- Generator: Adobe Illustrator 23.0.0, SVG Export Plug-In . SVG Version: 6.00 Build 0)  -->
<!DOCTYPE svg PUBLIC "-//W3C//DTD SVG 1.1//EN" "http://www.w3.org/Graphics/SVG/1.1/DTD/svg11.dtd" [
	<!ENTITY ns_extend "http://ns.adobe.com/Extensibility/1.0/">
	<!ENTITY ns_ai "http://ns.adobe.com/AdobeIllustrator/10.0/">
	<!ENTITY ns_graphs "http://ns.adobe.com/Graphs/1.0/">
	<!ENTITY ns_vars "http://ns.adobe.com/Variables/1.0/">
	<!ENTITY ns_imrep "http://ns.adobe.com/ImageReplacement/1.0/">
	<!ENTITY ns_sfw "http://ns.adobe.com/SaveForWeb/1.0/">
	<!ENTITY ns_custom "http://ns.adobe.com/GenericCustomNamespace/1.0/">
	<!ENTITY ns_adobe_xpath "http://ns.adobe.com/XPath/1.0/">
]>
<svg version="1.1" id="Layer_1" xmlns:x="&ns_extend;" xmlns:i="&ns_ai;" xmlns:graph="&ns_graphs;"
	 xmlns="http://www.w3.org/2000/svg" xmlns:xlink="http://www.w3.org/1999/xlink" x="0px" y="0px" viewBox="0 0 53.3546066 48"
	 style="enable-background:new 0 0 53.3546066 48;" xml:space="preserve">
<style type="text/css">
	.st0{fill:#FFFFFF;}
</style>
<metadata>
	<sfw  xmlns="&ns_sfw;">
		<slices></slices>
		<sliceSourceBounds  bottomLeftOrigin="true" height="48" width="53.3546066" x="0" y="0"></sliceSourceBounds>
	</sfw>
</metadata>
<g id="Inspo">
</g>
<path id="Work_x5C_" class="st0" d="M48.4987984,3.2012765c0.9123116,0,1.6545334,0.7422228,1.6545334,1.654566v38.2883148
	c0,0.9123421-0.7422218,1.6545677-1.6545334,1.6545677H4.8558426c-0.9123433,0-1.6545663-0.7422256-1.6545663-1.6545677V4.8558426
	c0-0.9123433,0.742223-1.654566,1.6545663-1.654566H48.4987984 M48.4987984,0H4.8558426C2.1740439,0,0,2.1740439,0,4.8558426
	v38.2883148C0,45.8260193,2.1740439,48,4.8558426,48h43.6429558c2.681797,0,4.8558083-2.1739807,4.8558083-4.8558426V4.8558426
	C53.3546066,2.1740439,51.1805954,0,48.4987984,0L48.4987984,0z M48.5369987,3.2012765
	c0.8912392,0,1.616333,0.7250936,1.616333,1.6163347s-0.7250938,1.6163349-1.616333,1.6163349H4.8176436
	c-0.8912735,0-1.6163673-0.7250943-1.6163673-1.6163349s0.7250938-1.6163347,1.6163673-1.6163347H48.5369987 M48.5369987,0
	H4.8176436C2.1569471,0,0,2.1569147,0,4.8176112s2.1569471,4.8176103,4.8176436,4.8176103h43.7193565
	c2.6606941,0,4.8176079-2.1569138,4.8176079-4.8176103S51.1976929,0,48.5369987,0L48.5369987,0z M18.5544033,34.8944893
	c-0.4095383,0-0.8193359-0.156311-1.1317005-0.4686737l-6.9155188-6.9152603
	c-0.3003798-0.3003788-0.4689369-0.7073116-0.4689369-1.1319599c0-0.4243889,0.1685572-0.831583,0.4689369-1.1317005
	l6.9835138-6.9835148c0.6247272-0.6252499,1.6386757-0.6252499,2.2634029,0c0.6252499,0.6249886,0.6252499,1.6384144,0,2.2634029
	l-5.851552,5.8518124l5.7835569,5.7832928c0.6252499,0.6252518,0.6252499,1.6386757,0.0002613,2.2636642
	C19.3737411,34.7381783,18.9639416,34.8944893,18.5544033,34.8944893z M34.7322083,34.8944893
	c-0.4095383,0-0.8193359-0.156311-1.1317024-0.4689369c-0.625248-0.6249886-0.625248-1.6384125,0-2.263401l5.8515511-5.8518124
	l-5.7835541-5.7832966c-0.625248-0.625248-0.625248-1.6386738-0.0002594-2.2636623
	c0.625248-0.6252499,1.6389351-0.6249886,2.2636604-0.0002613l6.9155197,6.9152584
	c0.3003807,0.3003788,0.4689369,0.7073116,0.4689369,1.1319618c0,0.4243889-0.1685562,0.831583-0.4689369,1.1316986
	l-6.9835129,6.9835148C35.5515442,34.7381783,35.1417465,34.8944893,34.7322083,34.8944893z M22.874876,34.8947525
	c-0.2415009,0-0.4866524-0.0547104-0.7172127-0.1706429c-0.7898979-0.3970337-1.1085148-1.3588753-0.7117424-2.1487732
	l6.9835148-13.8987713c0.3967724-0.7898998,1.358614-1.1090374,2.1487732-0.7117424
	c0.7898998,0.3970337,1.1085148,1.3588753,0.7117424,2.1487751l-6.9835148,13.8987694
	C24.0253353,34.5717049,23.4610462,34.8947525,22.874876,34.8947525z"/>
</svg>
