<?xml version="1.0" encoding="utf-8"?>
<!-- Generator: Adobe Illustrator 23.0.0, SVG Export Plug-In . SVG Version: 6.00 Build 0)  -->
<!DOCTYPE svg PUBLIC "-//W3C//DTD SVG 1.1//EN" "http://www.w3.org/Graphics/SVG/1.1/DTD/svg11.dtd" [
	<!ENTITY ns_extend "http://ns.adobe.com/Extensibility/1.0/">
	<!ENTITY ns_ai "http://ns.adobe.com/AdobeIllustrator/10.0/">
	<!ENTITY ns_graphs "http://ns.adobe.com/Graphs/1.0/">
	<!ENTITY ns_vars "http://ns.adobe.com/Variables/1.0/">
	<!ENTITY ns_imrep "http://ns.adobe.com/ImageReplacement/1.0/">
	<!ENTITY ns_sfw "http://ns.adobe.com/SaveForWeb/1.0/">
	<!ENTITY ns_custom "http://ns.adobe.com/GenericCustomNamespace/1.0/">
	<!ENTITY ns_adobe_xpath "http://ns.adobe.com/XPath/1.0/">
]>
<svg version="1.1" id="Layer_1" xmlns:x="&ns_extend;" xmlns:i="&ns_ai;" xmlns:graph="&ns_graphs;"
	 xmlns="http://www.w3.org/2000/svg" xmlns:xlink="http://www.w3.org/1999/xlink" x="0px" y="0px" viewBox="0 0 49.2104836 69"
	 enable-background="new 0 0 49.2104836 69" xml:space="preserve">
<metadata>
	<sfw  xmlns="&ns_sfw;">
		<slices></slices>
		<sliceSourceBounds  bottomLeftOrigin="true" height="69" width="49.2104836" x="146.2697601" y="205.0907135">
			</sliceSourceBounds>
	</sfw>
</metadata>
<g>
	<path d="M9.8449774,0.0203664c3.0239067-0.0374388,6.0478134-0.0115196,9.0717192-0.0129596
		c0.0072002,0.9460508,0.0216007,1.8921016-0.0129585,2.8381526c-2.0951347-0.0143998-4.1888313,0-6.282527,0.0129595
		c-0.0143995,1.3737175-0.0417585,2.7474353-0.0288,4.1211529c2.1023369,0.0129595,4.2061119,0.0331187,6.308445,0.0244789
		c0.0244789,0.7775764,0.0158405,1.5580316-0.0071983,2.337049c-3.0152674-0.0201597-6.0305338-0.0115204-9.0458012-0.0086412
		C9.8550568,6.2280149,9.860817,3.1249108,9.8449774,0.0203664z"/>
	<path d="M19.995224,0.0102867c3.0613441-0.0057598,6.1226921-0.0244792,9.1854763,0.0100797
		c-0.0115185,0.8942124-0.0028782,1.7869848-0.0028782,2.6811972c-2.2276115-0.0071995-4.456665,0.0028801-6.6842747,0.0287993
		c0.0028782,0.3513491,0.0028782,0.7026982,0,1.0540476c2.2247314,0.0359988,4.4480228,0.0403185,6.6713123,0.0532782
		c0.0086422,1.8330638,0.0043221,3.6646869,0.0158405,5.4963112c-3.0627842-0.0057602-6.1255703-0.0028801-9.1883564,0.0115194
		c-0.0158405-0.7401371-0.0172787-1.4788346,0.0043182-2.2189717c2.1224957,0.0057597,4.2464314,0.0086393,6.3689251-0.0086398
		c0.0129604-0.4766254,0.0187187-0.9546905,0.0172806-1.4313154c-2.1325741,0-4.2665901,0.0071993-6.3991642-0.0072002
		C19.9837036,3.7901702,19.9837036,1.8995085,19.995224,0.0102867z"/>
	<path d="M30.2059498,0.0261262c3.0555859,0,6.1126118,0,9.1681957,0c0.0129585,0.8985323,0.0259209,1.7970645-0.0028763,2.6941569
		c-2.2376938-0.0014398-4.4753838,0.0115199-6.7130737,0.0158396c0.0057564,0.3671889,0.0143967,0.7343774,0.0331154,1.1015661
		c2.2247314-0.0100796,4.4494629,0.0172796,6.6727562,0.0403187c0.0201607,1.8244233,0.0345573,3.6488476,0.0086365,5.4732718
		c-3.0627823-0.0086403-6.1255684-0.0086403-9.1883545,0.0057602c-0.0187187-0.737258-0.0244789-1.4773951,0.0072002-2.214653
		c2.1181736,0.0158396,4.2377911,0.01296,6.3574047-0.0071998c0.0057602-0.478065,0.0158386-0.95613,0.0115166-1.4327559
		c-2.126812,0.0201602-4.2550659,0.0086403-6.3833199,0.0014405C30.1771507,3.8117697,30.1915493,1.9182279,30.2059498,0.0261262z"
		/>
</g>
<g>
	<path fill="#0170BA" d="M0,13.19596c16.4039745-0.00144,32.8065071-0.0028791,49.2104836,0
		c-0.9028511,10.2020845-1.7913055,20.404171-2.7315979,30.6033745c-0.5587006,6.5186806-1.1346855,13.0373611-1.7423439,19.5517159
		c-3.5005341,0.92733-6.966507,1.9842606-10.4655991,2.9159088C31.0569611,67.2101364,27.8170624,68.0640259,24.6016426,69
		h-0.0950375c-3.059906-0.9100494-6.1500511-1.7106705-9.2099562-2.6207199
		c-3.6114092-0.9734116-7.1911383-2.0591354-10.8039875-3.0282288c-0.4708652-4.8828888-0.8956525-9.7686577-1.3146794-14.6544266
		C2.3874464,39.6695442,1.5277928,30.648222,0.7674963,21.6197014C0.5039845,18.902504,0.3153503,16.1766682,0,13.4652319V13.19596
		 M24.6822796,17.2206364c-0.0345592,1.9597797,0.025919,3.9209995-0.0345592,5.8793392
		c-5.6273479-0.0201588-11.2561331-0.0043201-16.8834801,0.00144c0.0964775,1.9021816,0.3513498,3.7914028,0.6134214,5.6777439
		c5.2356787,0.1943951,10.4785566-0.0071983,15.7142344,0.1497555c-4.5804977,2.0548172-9.2171545,3.990118-13.8178129,6.0017338
		C9.8795357,35.1063232,9.4576283,35.2388,9.1048393,35.4951134c0.0388784,2.0893745,0.3758278,4.1672325,0.5241442,6.252285
		c2.7906332-0.0100746,5.5798283-0.054718,8.3704615-0.0590401c2.2362518-0.0115166,4.4739437,0.033123,6.7101936-0.0158348
		c-0.1065578,3.43573,0.0331192,6.8757858-0.0719967,10.3115196c-1.504755-0.2231903-2.9907894-0.5587006-4.4897823-0.8250923
		c-1.1822033-0.2577515-2.3932056-0.3916664-3.5581303-0.7300568c-0.165596-1.6487541-0.2807922-3.3032608-0.4276676-4.9534492
		c-0.3369493-0.1036758-0.6940584-0.0935936-1.0425282-0.0993576c-1.6905069,0.0100822-3.3824549-0.0057602-5.0744028,0.0201569
		c0.1655951,3.1722221,0.4507055,6.340126,0.9359713,9.4821091c1.6674671,0.4348717,3.3378172,0.8610954,5.0024052,1.314682
		c2.5501633,0.6940575,5.1320019,1.2714844,7.6864834,1.9540215c0.3038311,0.0647926,0.6105404,0.1771088,0.92589,0.1511917
		c0.1699162,2.0864983,0.0388813,4.1859512,0.0705605,6.2782059c0.5889397-0.0950394,1.1678028-0.2404709,1.7365856-0.4161453
		c4.835371-1.3132401,9.6649818-2.6509552,14.4974747-3.9771576c0.2404709-1.9007416,0.352787-3.8144417,0.5428619-5.7195053
		c0.5025406-5.7915001,1.0094109-11.583004,1.5364342-17.3730621c0.6177368-6.6237965,1.1519623-13.2547913,1.7740211-19.8785877
		C38.0623436,17.2177563,31.3723125,17.1990376,24.6822796,17.2206364z"/>
</g>
<g>
	<path fill="#29A9DF" d="M24.6822796,17.2206364c6.690033-0.0215988,13.380064-0.0028801,20.0715389-0.0086403
		c-0.6220589,6.6237965-1.1562843,13.2547913-1.7740211,19.8785877c-0.5270233,5.7900581-1.0338936,11.581562-1.5364342,17.3730621
		c-0.1900749,1.9050636-0.3023911,3.8187637-0.5428619,5.7195053c-4.8324928,1.3262024-9.6621037,2.6639175-14.4974747,3.9771576
		c-0.5687828,0.1756744-1.147646,0.321106-1.7365856,0.4161453c-0.0316792-2.0922546,0.0993557-4.1917076-0.0705605-6.2782059
		c0.0431995-0.0086403,0.1310368-0.0259171,0.1742363-0.0345573c4.4969807-1.1289253,8.9637241-2.3716049,13.4506245-3.5408516
		c0.5673409-6.3646049,1.1966019-12.726326,1.5954742-19.1038933c-3.8158875,0.0201645-7.6332092,0.0086441-11.4490891,0.0244827
		c-0.5558243,0.0028801-1.1116467,0-1.6645889-0.0403175c2.0533752-1.0569305,4.2133083-1.8949814,6.3214035-2.8381538
		c2.02314-0.9172516,4.070755-1.7769051,6.1010933-2.676878c0.3916664-0.1799946,0.8092537-0.3297501,1.1534042-0.5975819
		c0.1353569-0.4967842,0.1281548-1.0166092,0.1814346-1.5249119c0.1166382-1.612751,0.3239899-3.2168617,0.4017448-4.8310528
		c-5.4041519-0.0431995-10.8083038-0.0057583-16.2138977-0.0345573
		C24.7081985,21.1416359,24.6477203,19.1804161,24.6822796,17.2206364z"/>
	<path fill="#29A9DF" d="M24.7096386,41.6725235c2.6091995-0.0446396,5.2198391,0.0259171,7.8304768,0.0086403
		c-0.1454353,2.6682358-0.3671875,5.3321533-0.5054245,8.0003929c-1.5997887,0.5227013-3.2240582,0.9647713-4.8368092,1.4485931
		c-0.8596535,0.2620735-1.7423458,0.4694252-2.5602398,0.8538933
		C24.7427578,48.5483093,24.6030807,45.1082535,24.7096386,41.6725235z"/>
</g>
<g>
	<path fill="#CFCFCF" d="M7.7642403,23.1014156c5.627347-0.0057602,11.2561321-0.0215988,16.8834801-0.00144
		c0.0734367,6.1918087-0.0187206,12.3836174,0.0619183,18.5725479c-2.2362499,0.0489578-4.4739418,0.0043182-6.7101936,0.0158348
		c-2.7906332,0.0043221-5.5798283,0.0489655-8.3704615,0.0590401c-0.1483164-2.0850525-0.4852657-4.1629105-0.5241442-6.252285
		c0.3527889-0.2563133,0.7746964-0.3887901,1.1692438-0.5644646c4.6006584-2.0116158,9.2373152-3.9469166,13.8178129-6.0017338
		c-5.2356777-0.1569538-10.4785557,0.0446396-15.7142344-0.1497555C8.1155901,26.8928185,7.8607178,25.0035973,7.7642403,23.1014156
		z"/>
	<path fill="#CFCFCF" d="M10.0451307,45.396244c1.6919479-0.0259171,3.3838959-0.0100746,5.0744028-0.0201569
		c0.3484697,0.005764,0.7055788-0.0043182,1.0425282,0.0993576c0.1468754,1.6501884,0.2620716,3.3046951,0.4276676,4.9534492
		c1.1649246,0.3383904,2.375927,0.4723053,3.5581303,0.7300568c1.4989929,0.2663918,2.9850273,0.601902,4.4897823,0.8250923
		c0.1439953,2.0908165-0.1079979,4.1960335,0.1324749,6.2796478c-0.0431995,0.0086403-0.1310368,0.0259171-0.1742363,0.0345573
		c-0.3153496,0.0259171-0.6220589-0.0863991-0.92589-0.1511917c-2.5544815-0.6825371-5.1363201-1.259964-7.6864834-1.9540215
		c-1.664588-0.4535866-3.334938-0.8798103-5.0024052-1.314682C10.4958363,51.7363701,10.2107258,48.5684662,10.0451307,45.396244z"
		/>
</g>
<g>
	<path fill="#FFFFFF" d="M24.6477203,23.0999756c5.4055939,0.0287991,10.8097458-0.0086422,16.2138977,0.0345573
		c-0.077755,1.6141911-0.2851067,3.2183018-0.4017448,4.8310528c-0.0532799,0.5083027-0.0460777,1.0281277-0.1814346,1.5249119
		c-0.3441505,0.2678318-0.7617378,0.4175873-1.1534042,0.5975819c-2.0303383,0.8999729-4.0779533,1.7596264-6.1010933,2.676878
		c-2.1080952,0.9431725-4.2680283,1.7812233-6.3214035,2.8381538c0.5529423,0.0403175,1.1087646,0.0431976,1.6645889,0.0403175
		c3.8158798-0.0158386,7.6332016-0.0043182,11.4490891-0.0244827c-0.3988724,6.3775673-1.0281334,12.7392883-1.5954742,19.1038933
		c-4.4869003,1.1692467-8.9536438,2.4119263-13.4506245,3.5408516c-0.2404728-2.0836143,0.0115204-4.1888313-0.1324749-6.2796478
		c0.817894-0.3844681,1.7005863-0.5918198,2.5602398-0.8538933c1.612751-0.4838219,3.2370205-0.9258919,4.8368092-1.4485931
		c0.138237-2.6682396,0.3599892-5.3321571,0.5054245-8.0003929c-2.6106377,0.0172768-5.2212772-0.0532799-7.8304768-0.0086403
		C24.6289997,35.483593,24.7211571,29.2917843,24.6477203,23.0999756z"/>
</g>
</svg>
