<?xml version="1.0" encoding="utf-8"?>
<!-- Generator: Adobe Illustrator 23.0.0, SVG Export Plug-In . SVG Version: 6.00 Build 0)  -->
<!DOCTYPE svg PUBLIC "-//W3C//DTD SVG 1.1//EN" "http://www.w3.org/Graphics/SVG/1.1/DTD/svg11.dtd" [
	<!ENTITY ns_extend "http://ns.adobe.com/Extensibility/1.0/">
	<!ENTITY ns_ai "http://ns.adobe.com/AdobeIllustrator/10.0/">
	<!ENTITY ns_graphs "http://ns.adobe.com/Graphs/1.0/">
	<!ENTITY ns_vars "http://ns.adobe.com/Variables/1.0/">
	<!ENTITY ns_imrep "http://ns.adobe.com/ImageReplacement/1.0/">
	<!ENTITY ns_sfw "http://ns.adobe.com/SaveForWeb/1.0/">
	<!ENTITY ns_custom "http://ns.adobe.com/GenericCustomNamespace/1.0/">
	<!ENTITY ns_adobe_xpath "http://ns.adobe.com/XPath/1.0/">
]>
<svg version="1.1" id="Layer_1" xmlns:x="&ns_extend;" xmlns:i="&ns_ai;" xmlns:graph="&ns_graphs;"
	 xmlns="http://www.w3.org/2000/svg" xmlns:xlink="http://www.w3.org/1999/xlink" x="0px" y="0px" viewBox="0 0 62 62"
	 enable-background="new 0 0 62 62" xml:space="preserve">
<metadata>
	<sfw  xmlns="&ns_sfw;">
		<slices></slices>
		<sliceSourceBounds  bottomLeftOrigin="true" height="62" width="62" x="1" y="1"></sliceSourceBounds>
	</sfw>
</metadata>
<g id="Inspo">
</g>
<g id="Work_x5C_">
	<path fill="#FFFFFF" d="M40.476059,15.8392754H21.5241776c-3.0767746,0-5.5800095,2.503294-5.5800095,5.5799503v18.9521198
		c0,3.0766525,2.5032349,5.5800095,5.5800095,5.5800095H40.476059c3.0765381,0,5.5797729-2.5033569,5.5797729-5.5800095V21.4192257
		C46.0558319,18.3425694,43.552597,15.8392754,40.476059,15.8392754z M42.3359833,40.3713455
		c0,1.0256271-0.8344116,1.8599815-1.8599243,1.8599815H21.5241776c-1.0257492,0-1.8601608-0.8343544-1.8601608-1.8599815
		V21.4192257c0-1.025631,0.8344116-1.8599834,1.8601608-1.8599834H40.476059c1.0255127,0,1.8599243,0.8343525,1.8599243,1.8599834
		V40.3713455z M53.3337555,25.056591h6.6502228C61.0974731,25.056591,62,24.1539459,62,23.0405102
		s-0.9025269-2.0160217-2.0160217-2.0160217h-6.6502228c-0.0177383,0-0.0340576,0.0047302-0.0515594,0.0052032V17.091898
		c0.0175018,0.000473,0.0338211,0.0052032,0.0515594,0.0052032h6.6502228C61.0974731,17.0971012,62,16.1945152,62,15.0810795
		s-0.9025269-2.0160809-2.0160217-2.0160809h-6.6502228c-0.0560532,0-0.1085587,0.0119438-0.1634293,0.0164375
		c-0.4361267-2.148468-2.1115723-3.8489838-4.244194-4.3288651c0.0014191-0.0292091,0.0087509-0.0567036,0.0087509-0.0862083
		v-6.650341C48.9348831,0.902586,48.0323563,0,46.9188614,0c-1.1132584,0-2.0160217,0.902586-2.0160217,2.0160217v6.5969486
		h-3.927269V2.0160217C40.9755707,0.902586,40.0728073,0,38.959549,0l0,0c-1.1134949,0-2.0160217,0.902586-2.0160217,2.0160217
		v6.5969486h-3.9275055V2.0160217C33.0160217,0.902586,32.1134949,0,31,0s-2.0160217,0.902586-2.0160217,2.0160217v6.5969486
		h-3.9275055V2.0160217C25.0564728,0.902586,24.1539459,0,23.040451,0l0,0c-1.1132584,0-2.0160217,0.902586-2.0160217,2.0160217
		v6.5969486h-3.927269V2.0160217C17.0971603,0.902586,16.194397,0,15.0811386,0
		c-1.1134949,0-2.0160217,0.902586-2.0160217,2.0160217v6.650341c0,0.0295048,0.0073318,0.0569401,0.0087509,0.0861492
		c-2.1326218,0.479763-3.8083038,2.180397-4.2444305,4.3289242c-0.0548706-0.0044346-0.1073761-0.0164375-0.1631927-0.0164375
		H2.0160217C0.9025269,13.0649986,0,13.9676437,0,15.0810795s0.9025269,2.0160217,2.0160217,2.0160217h6.6502228
		c0.0177383,0,0.0338211-0.0046711,0.0513229-0.0051441v3.9376755c-0.0175018-0.000473-0.0335846-0.0051441-0.0513229-0.0051441
		H2.0160217C0.9025269,21.0244884,0,21.9270744,0,23.0405102s0.9025269,2.0160809,2.0160217,2.0160809h6.6502228
		c0.0177383,0,0.0338211-0.0046711,0.0513229-0.0051441v3.9376163c-0.0175018-0.000473-0.0335846-0.0051441-0.0513229-0.0051441
		H2.0160217C0.9025269,28.9839191,0,29.8865643,0,31c0,1.1134338,0.9025269,2.0160217,2.0160217,2.0160217h6.6502228
		c0.0177383,0,0.0338211-0.0046692,0.0513229-0.0051422v3.9376755c-0.0175018-0.000473-0.0335846-0.005146-0.0513229-0.005146
		H2.0160217C0.9025269,36.943409,0,37.845993,0,38.9594307s0.9025269,2.0160789,2.0160217,2.0160789h6.6502228
		c0.0177383,0,0.0338211-0.0046692,0.0513229-0.0051422v3.9376144c-0.0175018-0.000473-0.0335846-0.0051422-0.0513229-0.0051422
		H2.0160217C0.9025269,44.9028397,0,45.8054848,0,46.9189224c0,1.1134338,0.9025269,2.0160217,2.0160217,2.0160217h6.6502228
		c0.073555,0,0.1430893-0.0140152,0.2145157-0.0216446c0.5002213,2.0577087,2.1399536,3.6720161,4.2134476,4.1300812
		c-0.0137177,0.0955505-0.0290909,0.1908035-0.0290909,0.2901993v6.6503372C13.0651169,61.0973549,13.9676437,62,15.0811386,62
		c1.1132584,0,2.0160217-0.9026451,2.0160217-2.0160828V53.33358c0-0.0534515-0.0115891-0.1035919-0.0158463-0.155983h3.9589615
		c-0.0040207,0.0523911-0.0158463,0.1025314-0.0158463,0.155983v6.6503372C21.0244293,61.0973549,21.9271927,62,23.040451,62l0,0
		c1.1134949,0,2.0160217-0.9026451,2.0160217-2.0160828V53.33358c0-0.0534515-0.0115891-0.1035919-0.0156097-0.155983h3.958725
		c-0.0040207,0.0523911-0.0156097,0.1025314-0.0156097,0.155983v6.6503372C28.9839783,61.0973549,29.8865051,62,31,62
		s2.0160217-0.9026451,2.0160217-2.0160828V53.33358c0-0.0534515-0.0115891-0.1035919-0.0156097-0.155983h3.958725
		c-0.0040207,0.0523911-0.0156097,0.1025314-0.0156097,0.155983v6.6503372C36.9435272,61.0973549,37.8460541,62,38.959549,62l0,0
		c1.1132584,0,2.0160217-0.9026451,2.0160217-2.0160828V53.33358c0-0.0534515-0.0118256-0.1035919-0.0158463-0.155983h3.9589615
		c-0.0042572,0.0523911-0.0158463,0.1025314-0.0158463,0.155983v6.6503372C44.9028397,61.0973549,45.805603,62,46.9188614,62
		c1.1134949,0,2.0160217-0.9026451,2.0160217-2.0160828V53.33358c0-0.0994568-0.0153732-0.1947098-0.0290909-0.2902603
		c2.073494-0.4581223,3.7129898-2.0723114,4.2132111-4.1300201c0.0714264,0.0076904,0.1409607,0.0216446,0.2147522,0.0216446
		h6.6502228C61.0974731,48.9349442,62,48.0323563,62,46.9189224c0-1.1134377-0.9025269-2.0160828-2.0160217-2.0160828h-6.6502228
		c-0.0177383,0-0.0340576,0.0047302-0.0515594,0.0052032v-3.9377365c0.0175018,0.000473,0.0338211,0.0052032,0.0515594,0.0052032
		h6.6502228C61.0974731,40.9755096,62,40.0728683,62,38.9594307s-0.9025269-2.0160217-2.0160217-2.0160217h-6.6502228
		c-0.0177383,0-0.0340576,0.0047302-0.0515594,0.0052032v-3.9377937c0.0175018,0.000473,0.0338211,0.0052032,0.0515594,0.0052032
		h6.6502228C61.0974731,33.0160217,62,32.1134338,62,31c0-1.1134357-0.9025269-2.0160809-2.0160217-2.0160809h-6.6502228
		c-0.0177383,0-0.0340576,0.0047302-0.0515594,0.0052032v-3.9377346
		C53.2996979,25.0518608,53.3160172,25.056591,53.3337555,25.056591z M49.5623474,47.5975876
		c0,1.025692-0.8344116,1.8600464-1.8601608,1.8600464H14.2975769c-1.0255127,0-1.8599243-0.8343544-1.8599243-1.8600464V14.1929798
		c0-1.025631,0.8344116-1.8599834,1.8599243-1.8599834h33.4046097c1.0257492,0,1.8601608,0.8343525,1.8601608,1.8599834V47.5975876z
		"/>
</g>
</svg>
