<?xml version="1.0" encoding="utf-8"?>
<!-- Generator: Adobe Illustrator 23.0.0, SVG Export Plug-In . SVG Version: 6.00 Build 0)  -->
<!DOCTYPE svg PUBLIC "-//W3C//DTD SVG 1.1//EN" "http://www.w3.org/Graphics/SVG/1.1/DTD/svg11.dtd" [
	<!ENTITY ns_extend "http://ns.adobe.com/Extensibility/1.0/">
	<!ENTITY ns_ai "http://ns.adobe.com/AdobeIllustrator/10.0/">
	<!ENTITY ns_graphs "http://ns.adobe.com/Graphs/1.0/">
	<!ENTITY ns_vars "http://ns.adobe.com/Variables/1.0/">
	<!ENTITY ns_imrep "http://ns.adobe.com/ImageReplacement/1.0/">
	<!ENTITY ns_sfw "http://ns.adobe.com/SaveForWeb/1.0/">
	<!ENTITY ns_custom "http://ns.adobe.com/GenericCustomNamespace/1.0/">
	<!ENTITY ns_adobe_xpath "http://ns.adobe.com/XPath/1.0/">
]>
<svg version="1.1" id="Layer_1" xmlns:x="&ns_extend;" xmlns:i="&ns_ai;" xmlns:graph="&ns_graphs;"
	 xmlns="http://www.w3.org/2000/svg" xmlns:xlink="http://www.w3.org/1999/xlink" x="0px" y="0px" viewBox="0 0 48.0000458 48"
	 enable-background="new 0 0 48.0000458 48" xml:space="preserve">
<metadata>
	<sfw  xmlns="&ns_sfw;">
		<slices></slices>
		<sliceSourceBounds  bottomLeftOrigin="true" height="48" width="48.0000458" x="7.9999771" y="8.0000305"></sliceSourceBounds>
	</sfw>
</metadata>
<g id="Inspo">
</g>
<g id="Work_x5C_">
	<path fill="#FFFFFF" d="M24.0000229,0C10.7451887,0,0,10.7451429,0,23.9999771C0,37.2548561,10.7451887,48,24.0000229,48
		s24.0000229-10.7451439,24.0000229-24.0000229C48.0000458,10.7451429,37.2548561,0,24.0000229,0z M24.0000229,45.1200218
		c-0.6446228,0-2.2824116-1.0840759-3.8668251-5.186924c-0.7776489-2.0138435-1.3828144-4.3656044-1.8081684-6.9281235
		c1.8200703,0.1704712,3.7191505,0.2629852,5.6749935,0.2629852s3.8549232-0.092514,5.6749935-0.2629852
		c-0.425354,2.5625191-1.030611,4.9142799-1.80826,6.9281235C26.2824345,44.0359459,24.6447372,45.1200218,24.0000229,45.1200218z
		 M24.0000229,30.3879375c-2.0874043,0-4.1203346-0.1134338-6.0690365-0.3188782
		c-0.2054443-1.9487476-0.3189697-3.9816322-0.3189697-6.0690823s0.1135254-4.1202888,0.3189697-6.0690365
		c1.9487019-0.2054443,3.9816322-0.3188782,6.0690365-0.3188782s4.1202431,0.1134338,6.0690365,0.3188782
		c0.2054443,1.9487476,0.3188782,3.9815865,0.3188782,6.0690365s-0.1134338,4.1203346-0.3188782,6.0690823
		C28.120266,30.2745037,26.0874271,30.3879375,24.0000229,30.3879375z M14.9950705,29.6749706
		c-2.5625639-0.425354-4.9143724-1.0305195-6.9281683-1.8082142c-4.1028481-1.5843678-5.1868334-3.2221107-5.1868334-3.8667793
		c0-0.6446228,1.0839853-2.2823658,5.1868334-3.8667793c2.0137959-0.7776489,4.3656044-1.3828144,6.9281683-1.8081684
		c-0.1704712,1.8200703-0.2629395,3.7191048-0.2629395,5.6749477S14.8245993,27.8548546,14.9950705,29.6749706z
		 M24.0000229,2.8799772c0.6447144,0,2.2824116,1.0840769,3.8667336,5.1869249
		c0.7776489,2.0138416,1.3828144,4.3656044,1.80826,6.9281225c-1.8201618-0.1704712-3.7191505-0.2629852-5.6749935-0.2629852
		s-3.8549232,0.092514-5.6749935,0.2629852c0.4254456-2.5625181,1.0305195-4.9142809,1.8081684-6.9281225
		C21.7176113,3.9640541,23.3554001,2.8799772,24.0000229,2.8799772z M33.0049744,18.3250294
		c2.5624733,0.425354,4.9142799,1.0305195,6.9281693,1.8081684c4.1028481,1.5844135,5.1868324,3.2221565,5.1868324,3.8667793
		c0,0.6446686-1.0839844,2.2824116-5.1868324,3.8667793c-2.0138893,0.7776947-4.365696,1.3828602-6.9281693,1.8082142
		c0.1704712-1.820116,0.2629395-3.7191505,0.2629395-5.6749935S33.1754456,20.1450996,33.0049744,18.3250294z
		 M44.5685539,19.2231636c-2.7329445-1.7510395-6.9242325-3.1228218-11.922924-3.8687944
		c-0.7459717-4.9987383-2.1177082-9.1900263-3.8688393-11.922924C36.5920143,5.2462053,42.7537956,11.4078932,44.5685539,19.2231636
		z M19.2231636,3.4314456c-1.7510395,2.7328973-3.1228676,6.9241853-3.8688402,11.922924
		c-4.998601,0.7459726-9.189889,2.1177549-11.9228325,3.8688402C5.2462511,11.4079847,11.407939,5.2462511,19.2231636,3.4314456z
		 M3.4314914,28.7768364c2.7329431,1.7510395,6.9241395,3.1228676,11.9228325,3.8688393
		c0.7459726,4.9986916,2.1178007,9.1899796,3.8688402,11.9228783C11.4080305,42.7537498,5.2462511,36.5920601,3.4314914,28.7768364z
		 M28.7767906,44.5685539c1.7511311-2.7328987,3.1228676-6.9241867,3.8688393-11.9228783
		c4.9986916-0.7459717,9.1899796-2.1177998,11.922924-3.8688393C42.7537041,36.5921059,36.5920143,42.7537956,28.7767906,44.5685539
		z"/>
</g>
</svg>
