<?xml version="1.0" encoding="utf-8"?>
<!-- Generator: Adobe Illustrator 23.0.0, SVG Export Plug-In . SVG Version: 6.00 Build 0)  -->
<!DOCTYPE svg PUBLIC "-//W3C//DTD SVG 1.1//EN" "http://www.w3.org/Graphics/SVG/1.1/DTD/svg11.dtd" [
	<!ENTITY ns_extend "http://ns.adobe.com/Extensibility/1.0/">
	<!ENTITY ns_ai "http://ns.adobe.com/AdobeIllustrator/10.0/">
	<!ENTITY ns_graphs "http://ns.adobe.com/Graphs/1.0/">
	<!ENTITY ns_vars "http://ns.adobe.com/Variables/1.0/">
	<!ENTITY ns_imrep "http://ns.adobe.com/ImageReplacement/1.0/">
	<!ENTITY ns_sfw "http://ns.adobe.com/SaveForWeb/1.0/">
	<!ENTITY ns_custom "http://ns.adobe.com/GenericCustomNamespace/1.0/">
	<!ENTITY ns_adobe_xpath "http://ns.adobe.com/XPath/1.0/">
]>
<svg version="1.1" id="Layer_1" xmlns:x="&ns_extend;" xmlns:i="&ns_ai;" xmlns:graph="&ns_graphs;"
	 xmlns="http://www.w3.org/2000/svg" xmlns:xlink="http://www.w3.org/1999/xlink" x="0px" y="0px" viewBox="0 0 97.1673889 53"
	 enable-background="new 0 0 97.1673889 53" xml:space="preserve">
<metadata>
	<sfw  xmlns="&ns_sfw;">
		<slices></slices>
		<sliceSourceBounds  bottomLeftOrigin="true" height="53" width="97.1673889" x="0" y="0"></sliceSourceBounds>
	</sfw>
</metadata>
<g>
	<path fill="#C7223C" d="M0,34.2776794c3.1272309,0,3.5678864-1.718399,3.5678864-3.259903
		c0-1.2335186-0.1761043-2.4670372-0.3522084-3.7005558c-0.1761043-1.2335186-0.3522084-2.4228134-0.3522084-3.6563339
		c0-4.0519753,2.6431417-5.7695827,6.3871322-5.7695827h0.9247446v2.4228153H9.3824825
		c-2.5989184,0-3.4794393,1.4088326-3.4794393,3.7874241c0,1.0139809,0.1318808,2.0706062,0.3079848,3.1272297
		c0.1761041,1.1024284,0.3087745,2.1590538,0.3087745,3.3483486c0.0434341,2.8192482-1.1900849,4.22966-3.1722441,4.7571831
		v0.0884476c1.9821591,0.4848785,3.2156782,1.9821587,3.1722441,4.801403c0,1.190876-0.1326704,2.2917252-0.3087745,3.3483505
		c-0.1761041,1.1008453-0.3079848,2.1148262-0.3079848,3.1714516c0,2.4670372,1.0131912,3.8332291,3.4794393,3.8332291h0.7928638V53
		H9.2506018c-3.656333,0-6.3871322-1.5857277-6.3871322-6.0349236c0-1.1892967,0.1761041-2.4228134,0.3522084-3.6121101
		c0.1761041-1.1892967,0.3522084-2.3785896,0.3522084-3.5678864c0-1.366188-0.4406555-3.2614822-3.5678864-3.2614822V34.2776794z"/>
</g>
<g>
	<path fill="#C7223C" d="M97.1673889,36.6136246c-3.1272278,0-3.5678864,1.718399-3.5678864,3.259903
		c0,1.2335167,0.1761093,2.4670372,0.352211,3.7005577c0.1761017,1.2335167,0.352211,2.4228134,0.352211,3.6563301
		C94.3039246,51.2823906,91.6607819,53,87.9167862,53h-0.9247437v-2.4228134h0.7928696
		c2.5989151,0,3.4794388-1.4088326,3.4794388-3.787426c0-1.0139809-0.1318817-2.0706062-0.307991-3.1272316
		c-0.1761017-1.1024246-0.3087692-2.15905-0.3087692-3.3483467c-0.0434341-2.8192444,1.1900864-4.22966,3.1722412-4.7571831
		v-0.0884438c-1.9821548-0.4848824-3.2156754-1.9821625-3.1722412-4.8014069c0-1.1908741,0.1326675-2.2917233,0.3087692-3.3483486
		c0.1761093-1.1008492,0.307991-2.11483,0.307991-3.1714535c0-2.4670391-1.0131912-3.8332272-3.4794388-3.8332272h-0.7928696
		V17.891304h0.9247437c3.6563339,0,6.3871384,1.5857277,6.3871384,6.0349236c0,1.1892967-0.1761093,2.4228153-0.352211,3.6121101
		c-0.1761017,1.1892967-0.352211,2.3785915-0.352211,3.5678864c0,1.366188,0.4406586,3.2614822,3.5678864,3.2614822V36.6136246z"/>
</g>
<path id="Work_x5C_" fill="#1A2858" d="M66.3057709,14.916049c1.3825989,2.6652727,2.1642303,5.6903143,2.1642303,8.8944845
	c0,3.141552-0.7513809,6.1109352-2.0838623,8.7378712l-3.0999603-1.3632221
	c1.1516418-2.2080498,1.8031082-4.7166977,1.8031082-7.374649c0-2.6775761-0.6611633-5.2036476-1.8288078-7.4235325
	L66.3057709,14.916049z M54.2236099,24.4877892l16.9192123,8.4598618l-0.7576904,1.5123482
	c-4.0671463,8.1183357-12.2270203,13.1613426-21.2956314,13.1613426c-13.1291504,0-23.8105316-10.6813812-23.8105316-23.8108082
	C25.2789669,10.6813812,35.96035,0,49.0895004,0c9.0686111,0,17.2284851,5.0430074,21.2956314,13.1613417l0.7576904,1.5126266
	l-16.9256401,8.4625673L54.2236099,24.4877892z M52.4277573,20.2516308l14.1158295-7.0578251
	c-3.6971016-6.0937023-10.2406349-9.8130922-17.4540863-9.8130922c-11.2649193,0-20.429821,9.1649027-20.429821,20.4298229
	c0,11.2651939,9.1649017,20.4300957,20.429821,20.4300957c7.2134514,0,13.7569847-3.7193947,17.4540863-9.8130951
	l-14.5053024-7.2527466L52.4277573,20.2516308z M49.0895004,30.1402912c-3.4902115,0-6.329483-2.8395443-6.329483-6.3297577
	s2.8392715-6.329483,6.329483-6.329483c3.4902153,0,6.329483,2.8392696,6.329483,6.329483
	S52.5797119,30.1402912,49.0895004,30.1402912z M49.0895004,20.861763c-1.6259766,0-2.9487686,1.3227921-2.9487686,2.9487705
	s1.3227921,2.9490452,2.9487686,2.9490452c1.6259804,0,2.9487686-1.3230667,2.9487686-2.9490452
	S50.7154808,20.861763,49.0895004,20.861763z M73.6467209,53H24.128952c-2.1093693,0-3.8255863-1.716217-3.8255863-3.8255882
	v-1.1081924c0-2.1093712,1.716217-3.8255882,3.8255863-3.8255882h49.5177689c2.1093674,0,3.8253098,1.716217,3.8253098,3.8255882
	v1.1081924C77.4720306,51.283783,75.7560883,53,73.6467209,53z M24.128952,47.6213417
	c-0.2412834,0-0.4448738,0.2035942-0.4448738,0.4448776v1.1081924c0,0.2412834,0.2035904,0.4448738,0.4448738,0.4448738h49.5177689
	c0.2410049,0,0.4445953-0.2035904,0.4445953-0.4448738v-1.1081924c0-0.2412834-0.2035904-0.4448776-0.4445953-0.4448776H24.128952z"
	/>
</svg>
