<?xml version="1.0" encoding="utf-8"?>
<!-- Generator: Adobe Illustrator 23.0.0, SVG Export Plug-In . SVG Version: 6.00 Build 0)  -->
<!DOCTYPE svg PUBLIC "-//W3C//DTD SVG 1.1//EN" "http://www.w3.org/Graphics/SVG/1.1/DTD/svg11.dtd" [
	<!ENTITY ns_extend "http://ns.adobe.com/Extensibility/1.0/">
	<!ENTITY ns_ai "http://ns.adobe.com/AdobeIllustrator/10.0/">
	<!ENTITY ns_graphs "http://ns.adobe.com/Graphs/1.0/">
	<!ENTITY ns_vars "http://ns.adobe.com/Variables/1.0/">
	<!ENTITY ns_imrep "http://ns.adobe.com/ImageReplacement/1.0/">
	<!ENTITY ns_sfw "http://ns.adobe.com/SaveForWeb/1.0/">
	<!ENTITY ns_custom "http://ns.adobe.com/GenericCustomNamespace/1.0/">
	<!ENTITY ns_adobe_xpath "http://ns.adobe.com/XPath/1.0/">
]>
<svg version="1.1" id="Layer_1" xmlns:x="&ns_extend;" xmlns:i="&ns_ai;" xmlns:graph="&ns_graphs;"
	 xmlns="http://www.w3.org/2000/svg" xmlns:xlink="http://www.w3.org/1999/xlink" x="0px" y="0px" viewBox="0 0 54.3162041 61"
	 enable-background="new 0 0 54.3162041 61" xml:space="preserve">
<metadata>
	<sfw  xmlns="&ns_sfw;">
		<slices></slices>
		<sliceSourceBounds  bottomLeftOrigin="true" height="61" width="54.3162041" x="9.341897" y="9.4969501"></sliceSourceBounds>
	</sfw>
</metadata>
<title>Elastic Search Color</title>
<path fill-rule="evenodd" clip-rule="evenodd" fill="#343741" d="M0,30.4970932
	c0.010539,2.5731468,0.3467308,5.134613,1.0005618,7.6233292h37.1160736c4.210247,0,7.6233292-3.4130821,7.6233292-7.6233292l0,0
	c0-4.210247-3.4130821-7.6233273-7.6233292-7.6233273H1.0386785C0.3719819,25.3608303,0.0229783,27.9223232,0,30.4970932z"/>
<path fill-rule="evenodd" clip-rule="evenodd" fill="#FEC514" d="M51.3526382,14.6024561
	c1.0675774-0.9769497,2.0583572-2.0346336,2.9635658-3.1636801C43.8341522-1.6886438,24.6948929-3.8331363,11.5674734,6.6489177
	C8.020442,9.4811697,5.152257,13.0713654,3.1732116,17.156271H44.844223
	C47.2576561,17.1537457,49.5815086,16.2418957,51.3526382,14.6024561z"/>
<path fill-rule="evenodd" clip-rule="evenodd" fill="#00BFB3" d="M44.844223,43.8379173H3.1732099
	c7.3243685,15.1180725,25.5175648,21.4361305,40.6356392,14.1117592c4.0849037-1.9790497,7.675106-4.8472366,10.5073547-8.3942642
	c-0.9052086-1.1290474-1.8959885-2.1867294-2.9635658-3.163681C49.5815086,44.7522926,47.2576561,43.8404427,44.844223,43.8379173z"
	/>
</svg>
