<?xml version="1.0" encoding="utf-8"?>
<!-- Generator: Adobe Illustrator 23.0.0, SVG Export Plug-In . SVG Version: 6.00 Build 0)  -->
<!DOCTYPE svg PUBLIC "-//W3C//DTD SVG 1.1//EN" "http://www.w3.org/Graphics/SVG/1.1/DTD/svg11.dtd" [
	<!ENTITY ns_extend "http://ns.adobe.com/Extensibility/1.0/">
	<!ENTITY ns_ai "http://ns.adobe.com/AdobeIllustrator/10.0/">
	<!ENTITY ns_graphs "http://ns.adobe.com/Graphs/1.0/">
	<!ENTITY ns_vars "http://ns.adobe.com/Variables/1.0/">
	<!ENTITY ns_imrep "http://ns.adobe.com/ImageReplacement/1.0/">
	<!ENTITY ns_sfw "http://ns.adobe.com/SaveForWeb/1.0/">
	<!ENTITY ns_custom "http://ns.adobe.com/GenericCustomNamespace/1.0/">
	<!ENTITY ns_adobe_xpath "http://ns.adobe.com/XPath/1.0/">
]>
<svg version="1.1" id="Layer_1" xmlns:x="&ns_extend;" xmlns:i="&ns_ai;" xmlns:graph="&ns_graphs;"
	 xmlns="http://www.w3.org/2000/svg" xmlns:xlink="http://www.w3.org/1999/xlink" x="0px" y="0px" viewBox="0 0 97.1673889 53"
	 enable-background="new 0 0 97.1673889 53" xml:space="preserve">
<metadata>
	<sfw  xmlns="&ns_sfw;">
		<slices></slices>
		<sliceSourceBounds  bottomLeftOrigin="true" height="53" width="97.1673889" x="911.8512573" y="514"></sliceSourceBounds>
	</sfw>
</metadata>
<g>
	<path fill="#C7223C" d="M0,34.2776794c3.1272309,0,3.5678864-1.718399,3.5678864-3.259903
		c0-1.2335186-0.1761043-2.4670372-0.3522084-3.7005558c-0.1761043-1.2335186-0.3522084-2.4228134-0.3522084-3.6563339
		c0-4.0519753,2.6431417-5.7695827,6.3871322-5.7695827h0.9247446v2.4228153H9.3824825
		c-2.5989184,0-3.4794393,1.4088326-3.4794393,3.7874241c0,1.0139809,0.1318808,2.0706062,0.3079848,3.1272297
		c0.1761041,1.1024284,0.3087745,2.1590538,0.3087745,3.3483486c0.0434341,2.8192482-1.1900849,4.22966-3.1722441,4.7571831
		v0.0884476c1.9821591,0.4848785,3.2156782,1.9821587,3.1722441,4.801403c0,1.190876-0.1326704,2.2917252-0.3087745,3.3483505
		c-0.1761041,1.1008453-0.3079848,2.1148262-0.3079848,3.1714516c0,2.4670372,1.0131912,3.8332291,3.4794393,3.8332291h0.7928638V53
		H9.2506018c-3.656333,0-6.3871322-1.5857277-6.3871322-6.0349236c0-1.1892967,0.1761041-2.4228134,0.3522084-3.6121101
		c0.1761041-1.1892967,0.3522084-2.3785896,0.3522084-3.5678864c0-1.366188-0.4406555-3.2614822-3.5678864-3.2614822V34.2776794z"/>
</g>
<g>
	<path fill="#C7223C" d="M97.1673889,36.6136246c-3.1272278,0-3.5678864,1.718399-3.5678864,3.259903
		c0,1.2335167,0.1761093,2.4670372,0.352211,3.7005577c0.1761017,1.2335167,0.352211,2.4228134,0.352211,3.6563301
		C94.3039246,51.2823906,91.6607819,53,87.9167862,53h-0.9247437v-2.4228134h0.7928696
		c2.5989151,0,3.4794388-1.4088326,3.4794388-3.787426c0-1.0139809-0.1318817-2.0706062-0.307991-3.1272316
		c-0.1761017-1.1024246-0.3087692-2.15905-0.3087692-3.3483467c-0.0434341-2.8192444,1.1900864-4.22966,3.1722412-4.7571831
		v-0.0884438c-1.9821548-0.4848824-3.2156754-1.9821625-3.1722412-4.8014069c0-1.1908741,0.1326675-2.2917233,0.3087692-3.3483486
		c0.1761093-1.1008492,0.307991-2.11483,0.307991-3.1714535c0-2.4670391-1.0131912-3.8332272-3.4794388-3.8332272h-0.7928696
		V17.891304h0.9247437c3.6563339,0,6.3871384,1.5857277,6.3871384,6.0349236c0,1.1892967-0.1761093,2.4228153-0.352211,3.6121101
		c-0.1761017,1.1892967-0.352211,2.3785915-0.352211,3.5678864c0,1.366188,0.4406586,3.2614822,3.5678864,3.2614822V36.6136246z"/>
</g>
<g>
	<path fill="#1A2858" d="M62.5583038,28.0527344c0,0.8576431-0.6950912,1.5527344-1.5527344,1.5527344
		s-1.5527344-0.6950912-1.5527344-1.5527344S60.1479263,26.5,61.0055695,26.5S62.5583038,27.1950912,62.5583038,28.0527344z"/>
	<path fill="#1A2858" d="M48.5836945,12.421875c3.4249115,0,6.2109375-2.786026,6.2109375-6.2109375S52.008606,0,48.5836945,0
		S42.372757,2.786026,42.372757,6.2109375S45.158783,12.421875,48.5836945,12.421875z M48.5836945,3.1054688
		c1.7124557,0,3.1054688,1.393013,3.1054688,3.1054688s-1.393013,3.1054688-3.1054688,3.1054688
		s-3.1054688-1.393013-3.1054688-3.1054688S46.8712387,3.1054688,48.5836945,3.1054688z"/>
	<path fill="#1A2858" d="M73.5309601,24.9472656h-3.5183182c-0.7529144-1.4759064-1.7108383-2.8248444-2.8596191-4.0270004
		l1.5721436-6.4757919c0.1124115-0.4629898,0.0064697-0.9514542-0.2879028-1.3258896s-0.7444229-0.5931931-1.2207565-0.5931931
		h-4.6582031c-2.4548569,0-4.7536316,1.190834-6.197998,3.126091l-10.8820801-0.0206223
		c-7.7778244,0-14.3571301,5.2259216-16.41329,12.3503036c-0.8758392,0.1746826-1.7520828,0.0125351-2.4823532-0.4771423
		c-0.8726044-0.5851059-1.3934174-1.541008-1.3934174-2.5567551v-1.5527344c0-0.8576431-0.6950912-1.5527344-1.5527344-1.5527344
		s-1.5527344,0.6950912-1.5527344,1.5527344v1.5527344c0,2.0533295,1.0351563,3.9732208,2.7694473,5.1361542
		c1.0666962,0.7153091,2.2805786,1.0780182,3.5231705,1.0780182c0.0311356,0,0.0622711-0.0016174,0.0930023-0.0020218
		c-0.0460968,0.5111084-0.071167,1.0282822-0.071167,1.5515213c0,1.9429398,0.324295,3.850296,0.9635849,5.6686935
		c1.0351563,2.9429169,2.8414211,5.5235291,5.2473507,7.5077133v5.5599213C34.6090851,52.3049088,35.3041763,53,36.1618195,53
		h7.7636719c0.8576431,0,1.5527344-0.6950912,1.5527344-1.5527344v-1.65625h9.3164063v1.65625
		C54.794632,52.3049088,55.4897232,53,56.3473663,53h7.7636719c0.8576431,0,1.5527344-0.6950912,1.5527344-1.5527344v-5.5348511
		l0.6113892-0.5551834c1.6894073-1.5345383,3.0306625-3.3501053,3.9914169-5.4022217l4.146286-2.8604279
		c0.4201279-0.2899246,0.6708298-0.7678757,0.6708298-1.2781754V26.5
		C75.0836945,25.6423569,74.3886032,24.9472656,73.5309601,24.9472656z M71.9782257,35.0012207l-3.8300781,2.6424789
		c-0.2381668,0.1641693-0.4253845,0.3914185-0.5410309,0.6562729c-0.7828369,1.7921143-1.9655838,3.4374466-3.4200592,4.7584839
		l-1.1200714,1.0173645c-0.3238907,0.2943726-0.5086823,0.7116699-0.5086823,1.1495895v4.6691208h-4.6582031v-1.65625
		c0-0.8576431-0.6950912-1.5527344-1.5527344-1.5527344h-12.421875c-0.8576431,0-1.5527344,0.6950912-1.5527344,1.5527344v1.65625
		h-4.6582031v-4.7605057c0-0.4884644-0.2296753-0.9482193-0.620285-1.2413788
		c-2.2239685-1.6708069-3.8850708-3.9335938-4.8029633-6.5433197c-0.5224285-1.4864197-0.7876873-3.0472412-0.7876873-4.6383896
		c0-7.7608414,6.2691631-13.9952316,13.9746075-13.9952316l11.7174835,0.0206223
		c0.5576096,0,1.0723572-0.2988205,1.3485336-0.7828369c0.8180161-1.4326401,2.3561935-2.3226318,4.014061-2.3226318h2.6833191
		l-1.3056717,5.3779602c-0.1386948,0.5268784,0.0048523,1.1160278,0.4322586,1.5215988c0,0.0004044,0,0.0004044,0.0004044,0.0004044
		c0.0004044,0.0004044,0.0012131,0.0012131,0.0020218,0.0020218c0,0,0,0,0.0004044,0.0004044
		c0.0008087,0.0004044,0.0012131,0.0012131,0.0020218,0.0020218c1.3481293,1.2692795,2.4443436,2.7876434,3.2340546,4.5866318
		c0.0052567,0.0117264,0.0125351,0.0274963,0.0125351,0.0274963c0.0004044,0.0008087,0.0008087,0.0016174,0.0008087,0.0024261
		c0.2810287,0.6085587,0.9045486,0.850769,1.0181732,0.850769c0.2228012,0.0667191,0.19207,0.0295181,3.339592,0.0295181V35.0012207
		z"/>
	<path fill="#1A2858" d="M53.2418976,21.8417969h-9.3164063c-0.8576431,0-1.5527344,0.6950912-1.5527344,1.5527344
		s0.6950912,1.5527344,1.5527344,1.5527344h9.3164063c0.8576431,0,1.5527344-0.6950912,1.5527344-1.5527344
		S54.0995407,21.8417969,53.2418976,21.8417969z"/>
</g>
</svg>
