<?xml version="1.0" encoding="utf-8"?>
<!-- Generator: Adobe Illustrator 23.0.0, SVG Export Plug-In . SVG Version: 6.00 Build 0)  -->
<!DOCTYPE svg PUBLIC "-//W3C//DTD SVG 1.1//EN" "http://www.w3.org/Graphics/SVG/1.1/DTD/svg11.dtd" [
	<!ENTITY ns_extend "http://ns.adobe.com/Extensibility/1.0/">
	<!ENTITY ns_ai "http://ns.adobe.com/AdobeIllustrator/10.0/">
	<!ENTITY ns_graphs "http://ns.adobe.com/Graphs/1.0/">
	<!ENTITY ns_vars "http://ns.adobe.com/Variables/1.0/">
	<!ENTITY ns_imrep "http://ns.adobe.com/ImageReplacement/1.0/">
	<!ENTITY ns_sfw "http://ns.adobe.com/SaveForWeb/1.0/">
	<!ENTITY ns_custom "http://ns.adobe.com/GenericCustomNamespace/1.0/">
	<!ENTITY ns_adobe_xpath "http://ns.adobe.com/XPath/1.0/">
]>
<svg version="1.1" id="Layer_1" xmlns:x="&ns_extend;" xmlns:i="&ns_ai;" xmlns:graph="&ns_graphs;"
	 xmlns="http://www.w3.org/2000/svg" xmlns:xlink="http://www.w3.org/1999/xlink" x="0px" y="0px" viewBox="0 0 70 70"
	 enable-background="new 0 0 70 70" xml:space="preserve">
<metadata>
	<sfw  xmlns="&ns_sfw;">
		<slices></slices>
		<sliceSourceBounds  bottomLeftOrigin="true" height="70" width="70" x="-7.5763102" y="-26.8180008"></sliceSourceBounds>
	</sfw>
</metadata>
<g id="Inspo">
</g>
<g>
	<circle fill="#F6F2ED" cx="35" cy="35" r="35"/>
	<g id="Work_x5C_">
		<path fill="#C6213B" d="M35,17.5c-9.6649837,0-17.5000172,7.835001-17.5000172,17.4999847
			C17.4999828,44.6650009,25.3350163,52.5,35,52.5s17.5000153-7.8349991,17.5000153-17.5000153
			C52.5000153,25.335001,44.6649818,17.5,35,17.5z M35,50.4000168c-0.4700394,0-1.664257-0.7904739-2.819561-3.7821312
			c-0.5670338-1.4684296-1.0083008-3.1832542-1.3184547-5.0517578C32.1891174,41.6904297,33.573864,41.7578888,35,41.7578888
			s2.8108826-0.0674591,4.1380157-0.191761c-0.310154,1.8685036-0.7514877,3.5833282-1.3185234,5.0517578
			C36.664257,49.6095428,35.4701042,50.4000168,35,50.4000168z M35,39.6578712
			c-1.5220642,0-3.0044098-0.0827141-4.4253387-0.2325172c-0.1498032-1.4209595-0.2325821-2.9032707-0.2325821-4.4253693
			s0.0827789-3.0043793,0.2325821-4.4253407C31.9955902,30.4248409,33.4779358,30.3421288,35,30.3421288
			s3.0043449,0.0827122,4.4253387,0.2325153c0.1498032,1.4209614,0.2325172,2.9032421,0.2325172,4.4253407
			s-0.0827141,3.0044098-0.2325172,4.4253693C38.0043449,39.5751572,36.5220642,39.6578712,35,39.6578712z M28.4338894,39.1380005
			c-1.868536-0.310154-3.5833969-0.7514229-5.0517902-1.3184891c-2.9916592-1.1552696-3.7820663-2.3494568-3.7820663-2.8195267
			c0-0.4700394,0.7904072-1.6642265,3.7820663-2.8195267c1.4683933-0.5670376,3.1832542-1.0083027,5.0517902-1.3184566
			c-0.1243019,1.3271351-0.1917267,2.7118473-0.1917267,4.1379833
			C28.2421627,36.4261169,28.3095875,37.810833,28.4338894,39.1380005z M35,19.5999832
			c0.4701042,0,1.664257,0.790472,2.8194923,3.7821331c0.5670357,1.4684258,1.0083046,3.1832523,1.3185234,5.0517559
			C37.8108139,28.3095703,36.426136,28.2421112,35,28.2421112s-2.8108826,0.0674591-4.1380157,0.191761
			c0.3102207-1.8685036,0.751421-3.5833302,1.3184547-5.0517559C33.335743,20.3904552,34.5299606,19.5999832,35,19.5999832z
			 M41.5661087,30.8620014c1.8684731,0.310154,3.5833321,0.7514191,5.0517921,1.3184566
			c2.9916611,1.1553001,3.7820663,2.3494873,3.7820663,2.8195267c0,0.4700699-0.7904053,1.664257-3.7820663,2.8195267
			c-1.4684601,0.5670662-3.1833191,1.0083351-5.0517921,1.3184891c0.1243019-1.3271675,0.1917267-2.7118835,0.1917267-4.1380157
			C41.7578354,33.5738487,41.6904106,32.1891365,41.5661087,30.8620014z M49.9978867,31.5168896
			c-1.9927711-1.2767982-5.0489197-2.2770576-8.6937981-2.8209953c-0.5439377-3.6449127-1.5441628-6.7010612-2.8210297-8.6937981
			C44.1816597,21.3253574,48.6746254,25.8182564,49.9978867,31.5168896z M31.5168743,20.0020962
			c-1.2768002,1.9927368-2.277092,5.0488853-2.8210297,8.6937981c-3.6448135,0.5439377-6.7009621,1.5441971-8.6937332,2.8210297
			C21.3253746,25.8183231,25.8182716,21.3253918,31.5168743,20.0020962z M20.0021133,38.4831085
			c1.9927692,1.2768021,5.048851,2.277092,8.6937313,2.8210297c0.5439377,3.6448784,1.5442314,6.7010269,2.8210297,8.6937675
			C25.8183384,48.6746101,21.3253746,44.1817093,20.0021133,38.4831085z M38.4830589,49.9979057
			c1.2768669-1.9927406,2.277092-5.0488892,2.8210297-8.6937675c3.6448784-0.5439377,6.7010269-1.5442276,8.6937981-2.8210297
			C48.6745605,44.1817436,44.1816597,48.6746445,38.4830589,49.9979057z"/>
	</g>
</g>
</svg>
