<?xml version="1.0" encoding="utf-8"?>
<!-- Generator: Adobe Illustrator 23.0.0, SVG Export Plug-In . SVG Version: 6.00 Build 0)  -->
<!DOCTYPE svg PUBLIC "-//W3C//DTD SVG 1.1//EN" "http://www.w3.org/Graphics/SVG/1.1/DTD/svg11.dtd" [
	<!ENTITY ns_extend "http://ns.adobe.com/Extensibility/1.0/">
	<!ENTITY ns_ai "http://ns.adobe.com/AdobeIllustrator/10.0/">
	<!ENTITY ns_graphs "http://ns.adobe.com/Graphs/1.0/">
	<!ENTITY ns_vars "http://ns.adobe.com/Variables/1.0/">
	<!ENTITY ns_imrep "http://ns.adobe.com/ImageReplacement/1.0/">
	<!ENTITY ns_sfw "http://ns.adobe.com/SaveForWeb/1.0/">
	<!ENTITY ns_custom "http://ns.adobe.com/GenericCustomNamespace/1.0/">
	<!ENTITY ns_adobe_xpath "http://ns.adobe.com/XPath/1.0/">
]>
<svg version="1.1" id="Layer_1" xmlns:x="&ns_extend;" xmlns:i="&ns_ai;" xmlns:graph="&ns_graphs;"
	 xmlns="http://www.w3.org/2000/svg" xmlns:xlink="http://www.w3.org/1999/xlink" x="0px" y="0px" viewBox="0 0 49.9704475 49"
	 enable-background="new 0 0 49.9704475 49" xml:space="preserve">
<metadata>
	<sfw  xmlns="&ns_sfw;">
		<slices></slices>
		<sliceSourceBounds  bottomLeftOrigin="true" height="49" width="49.9704475" x="0" y="0"></sliceSourceBounds>
	</sfw>
</metadata>
<g id="Inspo">
</g>
<path id="Work_x5C_" fill="#C71D3A" d="M8.1912069,30.7921925l-1.1516418,0.712923
	c-1.0403166,0.6440086-1.0403094,2.1572876,0.0000134,2.8012848l17.078476,10.572197
	c0.5312557,0.3288651,1.2028389,0.3288689,1.7340946,0.0000076l17.0787067-10.572197
	c1.0403328-0.6439972,1.0403404-2.1572914,0.0000114-2.8012981l-0.6604805-0.408865
	c-0.9527321-0.5897808-1.0513496-1.9380856-0.1945763-2.6602173v-0.0000038
	c0.5447502-0.4591408,1.3229294-0.5160599,1.928688-0.1410694l5.1857071,3.2101593
	c1.040329,0.6440029,1.0403252,2.1572971-0.0000076,2.8012943L25.85215,48.7533531
	c-0.5312557,0.3288651-1.2028408,0.3288612-1.7340946-0.0000038L0.7802466,34.3064041
	c-1.0403243-0.6439972-1.0403299-2.15728-0.0000103-2.8012867L6.4570622,27.9909
	c0.5672293-0.351141,1.2902403-0.3254986,1.8311687,0.0649433L8.28825,28.0558567
	C9.2393637,28.7423725,9.1885633,30.1747799,8.1912069,30.7921925z M43.7928925,19.7201271l5.3973045,3.3410912
	c1.040329,0.6439934,1.040329,2.1572819,0,2.8012753L25.8521423,40.3094444
	c-0.5312519,0.3288612-1.2028294,0.3288612-1.7340794-0.0000038L0.7802439,25.8624897
	c-1.0403191-0.6439953-1.0403191-2.1572723,0-2.8012676l5.5210819-3.4177494
	c0.6516724-0.4034081,1.4954715-0.3040733,2.0356464,0.2396412l0.0000153,0.0000153
	c0.7471113,0.7520084,0.599762,2.0036774-0.3015594,2.5616283l-0.9958467,0.6164646
	c-1.0403185,0.6439953-1.0403185,2.1572723,0,2.8012676l17.0784836,10.5721989
	c0.5312481,0.3288651,1.2028255,0.3288651,1.7340775,0.0000076L42.930851,25.8624954
	c1.040329-0.6439934,1.040329-2.1572857,0-2.8012791l-0.8720322-0.5398102
	c-0.9650078-0.5973682-1.0509911-1.9687977-0.168148-2.6820183V19.839386
	C42.4350433,19.3996067,43.1978607,19.3517818,43.7928925,19.7201271z M23.8900185,31.724617L1.3752735,17.7869492
	c-1.3139118-0.8133717-1.3139048-2.7246313,0.000013-3.5379934l22.5147457-13.937439
	c0.670969-0.4153541,1.5191708-0.415356,2.1901436-0.0000049l22.5149708,13.937439
	c1.3139305,0.8133602,1.3139381,2.7246342,0.0000153,3.5380039L26.0801868,31.7246208
	C25.4092102,32.1399841,24.5609932,32.1399803,23.8900185,31.724617z M7.6345997,17.7869511l16.2554169,10.0629082
	c0.6709766,0.4153671,1.5191956,0.4153709,2.1901741,0.0000076l16.2556324-10.0629082
	c1.3139229-0.8133717,1.3139114-2.7246456-0.0000153-3.5380049L26.0801735,4.1862617
	c-0.6709709-0.4153497-1.5191727-0.4153471-2.1901398,0.0000067L7.6346164,14.2489605
	C6.3207006,15.0623217,6.3206916,16.9735775,7.6345997,17.7869511z"/>
</svg>
