<?xml version="1.0" encoding="utf-8"?>
<!-- Generator: Adobe Illustrator 23.0.0, SVG Export Plug-In . SVG Version: 6.00 Build 0)  -->
<!DOCTYPE svg PUBLIC "-//W3C//DTD SVG 1.1//EN" "http://www.w3.org/Graphics/SVG/1.1/DTD/svg11.dtd" [
	<!ENTITY ns_extend "http://ns.adobe.com/Extensibility/1.0/">
	<!ENTITY ns_ai "http://ns.adobe.com/AdobeIllustrator/10.0/">
	<!ENTITY ns_graphs "http://ns.adobe.com/Graphs/1.0/">
	<!ENTITY ns_vars "http://ns.adobe.com/Variables/1.0/">
	<!ENTITY ns_imrep "http://ns.adobe.com/ImageReplacement/1.0/">
	<!ENTITY ns_sfw "http://ns.adobe.com/SaveForWeb/1.0/">
	<!ENTITY ns_custom "http://ns.adobe.com/GenericCustomNamespace/1.0/">
	<!ENTITY ns_adobe_xpath "http://ns.adobe.com/XPath/1.0/">
]>
<svg version="1.1" id="Layer_1" xmlns:x="&ns_extend;" xmlns:i="&ns_ai;" xmlns:graph="&ns_graphs;"
	 xmlns="http://www.w3.org/2000/svg" xmlns:xlink="http://www.w3.org/1999/xlink" x="0px" y="0px" viewBox="0 0 51.7753944 48"
	 enable-background="new 0 0 51.7753944 48" xml:space="preserve">
<metadata>
	<sfw  xmlns="&ns_sfw;">
		<slices></slices>
		<sliceSourceBounds  bottomLeftOrigin="true" height="48" width="51.7753944" x="0" y="0"></sliceSourceBounds>
	</sfw>
</metadata>
<g id="Inspo">
</g>
<path id="Work_x5C_" fill="#C71D3A" d="M41.6625557,13.5088749c1.2521667,2.4138308,1.9600601,5.153492,1.9600601,8.0553818
	c0,2.8451786-0.6804962,5.5344315-1.8872719,7.9135437l-2.8075142-1.2346153
	c1.0429993-1.9997444,1.633007-4.2717266,1.633007-6.6789284c0-2.4249744-0.5987892-4.712738-1.6562805-6.7231989
	L41.6625557,13.5088749z M30.7202225,22.1776199l15.3230591,7.6617603l-0.6862068,1.3696766
	c-3.6834526,7.3524551-11.0735321,11.9197044-19.2866116,11.9197044c-11.8905535,0-21.5642567-9.6737022-21.5642567-21.5645046
	C4.506206,9.6737041,14.1799097,0,26.0704632,0c8.2130795,0,15.603159,4.5672522,19.2866116,11.9197054l0.6862068,1.3699265
	l-15.3288822,7.6642122L30.7202225,22.1776199z M29.0937901,18.3410988l12.7841473-6.3919916
	c-3.34832-5.5188251-9.2745361-8.8873291-15.8074741-8.8873291c-10.2021904,0-18.5024796,8.3002892-18.5024796,18.5024796
	c0,10.2024384,8.3002892,18.5027275,18.5024796,18.5027275c6.532938,0,12.4591541-3.3685074,15.8074741-8.887331
	l-13.136879-6.5685253L29.0937901,18.3410988z M26.0704632,27.2968674c-3.1609478,0-5.7323627-2.5716629-5.7323627-5.7326107
	s2.5714149-5.7323618,5.7323627-5.7323618s5.7323608,2.571414,5.7323608,5.7323618S29.2314091,27.2968674,26.0704632,27.2968674z
	 M26.0704632,18.8936729c-1.4725838,0-2.6705837,1.198-2.6705837,2.6705837s1.198,2.6708336,2.6705837,2.6708336
	s2.6705837-1.1982498,2.6705837-2.6708336S27.543047,18.8936729,26.0704632,18.8936729z M48.3109627,48H3.4646831
	C1.5543109,48,0,46.4456902,0,44.5353165v-1.0036469c0-1.9103737,1.5543109-3.4646835,3.4646831-3.4646835h44.8462791
	c1.9103699,0,3.4644318,1.5543098,3.4644318,3.4646835v1.0036469C51.7753944,46.4456902,50.2213326,48,48.3109627,48z
	 M3.4646831,43.1287613c-0.2185204,0-0.402905,0.1843872-0.402905,0.4029083v1.0036469
	c0,0.2185211,0.1843846,0.4029045,0.402905,0.4029045h44.8462791c0.2182693,0,0.4026566-0.1843834,0.4026566-0.4029045v-1.0036469
	c0-0.2185211-0.1843872-0.4029083-0.4026566-0.4029083H3.4646831z"/>
</svg>
