<?xml version="1.0" encoding="utf-8"?>
<!-- Generator: Adobe Illustrator 23.0.0, SVG Export Plug-In . SVG Version: 6.00 Build 0)  -->
<!DOCTYPE svg PUBLIC "-//W3C//DTD SVG 1.1//EN" "http://www.w3.org/Graphics/SVG/1.1/DTD/svg11.dtd" [
	<!ENTITY ns_extend "http://ns.adobe.com/Extensibility/1.0/">
	<!ENTITY ns_ai "http://ns.adobe.com/AdobeIllustrator/10.0/">
	<!ENTITY ns_graphs "http://ns.adobe.com/Graphs/1.0/">
	<!ENTITY ns_vars "http://ns.adobe.com/Variables/1.0/">
	<!ENTITY ns_imrep "http://ns.adobe.com/ImageReplacement/1.0/">
	<!ENTITY ns_sfw "http://ns.adobe.com/SaveForWeb/1.0/">
	<!ENTITY ns_custom "http://ns.adobe.com/GenericCustomNamespace/1.0/">
	<!ENTITY ns_adobe_xpath "http://ns.adobe.com/XPath/1.0/">
]>
<svg version="1.1" id="Layer_1" xmlns:x="&ns_extend;" xmlns:i="&ns_ai;" xmlns:graph="&ns_graphs;"
	 xmlns="http://www.w3.org/2000/svg" xmlns:xlink="http://www.w3.org/1999/xlink" x="0px" y="0px" viewBox="0 0 53.3546104 48"
	 enable-background="new 0 0 53.3546104 48" xml:space="preserve">
<metadata>
	<sfw  xmlns="&ns_sfw;">
		<slices></slices>
		<sliceSourceBounds  bottomLeftOrigin="true" height="48" width="53.3546104" x="0" y="0"></sliceSourceBounds>
	</sfw>
</metadata>
<g id="Inspo">
</g>
<path id="Work_x5C_" fill="#C71D3A" d="M48.4987984,3.2012765c0.9123116,0,1.6545334,0.742223,1.6545334,1.654566v38.2883148
	c0,0.9123421-0.7422218,1.6545677-1.6545334,1.6545677H4.8558426c-0.912343,0-1.654566-0.7422256-1.654566-1.6545677V4.8558426
	c0-0.912343,0.742223-1.654566,1.654566-1.654566H48.4987984 M48.4987984,0H4.8558426C2.1740439,0,0,2.1740439,0,4.8558426
	v38.2883148C0,45.8260193,2.1740439,48,4.8558426,48h43.6429558c2.6818008,0,4.8558121-2.1739807,4.8558121-4.8558426V4.8558426
	C53.3546104,2.1740439,51.1805992,0,48.4987984,0L48.4987984,0z M48.5369987,3.2012765
	c0.8912392,0,1.616333,0.7250938,1.616333,1.6163347s-0.7250938,1.6163344-1.616333,1.6163344H4.8176436
	c-0.8912733,0-1.6163671-0.7250938-1.6163671-1.6163344s0.7250938-1.6163347,1.6163671-1.6163347H48.5369987 M48.5369987,0
	H4.8176436C2.1569474,0,0,2.1569147,0,4.8176112s2.1569474,4.8176112,4.8176436,4.8176112h43.7193565
	c2.6606941,0,4.8176117-2.1569147,4.8176117-4.8176112S51.1976929,0,48.5369987,0L48.5369987,0z M15.1463766,25.5569611
	c0-0.084446,0.0694952-0.1516151,0.1539049-0.154108c1.874052-0.0553322,2.1434364-1.1295967,2.1434364-2.0965443
	c0-0.7942562-0.1131344-1.5885143-0.2285805-2.3804607c-0.1131344-0.7942581-0.2262707-1.5608082-0.2262707-2.3550644
	c0-2.6090412,1.7016487-3.7149973,4.1121273-3.7149973h0.4402256c0.0858612,0,0.1554661,0.0696039,0.1554661,0.1554651v1.249876
	c0,0.0858612-0.0696049,0.1554661-0.1554661,0.1554661h-0.3547974c-1.6739426,0-2.2396202,0.9073925-2.2396202,2.4381828
	c0,0.6511059,0.0831203,1.3322277,0.1985645,2.0133476c0.1131363,0.708828,0.1962547,1.3899498,0.1962547,2.154192
	c0.0300159,1.8147831-0.7642403,2.7221756-2.0410538,3.0638905v0.0554142
	c1.2768135,0.3116989,2.0710697,1.2768135,2.0410538,3.0915985c0,0.7665501-0.0831184,1.475378-0.1962547,2.1541901
	c-0.1070328,0.6571808-0.1862793,1.2667274-0.197258,1.894886c-0.0251637,1.4398117,1.15308,2.614357,2.593111,2.6143684h0.0000019
	c0.0858612,0,0.1554642,0.069603,0.1554642,0.1554642v1.2475662c0,0.0858612-0.0696049,0.155468-0.1554661,0.155468h-0.4402256
	c-2.3527565,0-4.1121273-1.0205269-4.1121273-3.8835487c0-0.7665482,0.1131363-1.5608063,0.2262707-2.3250465
	c0.1154461-0.7665501,0.2285805-1.5307922,0.2285805-2.2973423c0-0.8568134-0.2694187-2.0356159-2.1437922-2.0963287
	c-0.0842628-0.0027294-0.1535482-0.069664-0.1535482-0.1539707L15.1463766,25.5569611z M21.5411663,37.9886208h-0.4402809
	c-2.9957256,0-4.6456013-1.5685959-4.6456013-4.4171257c0-0.7747879,0.1052494-1.546711,0.2321243-2.4030418
	c0.1096783-0.7281551,0.222744-1.479496,0.222744-2.2191143c0-0.746912-0.193306-1.5167503-1.6274719-1.5631237
	c-0.3759308-0.0127659-0.6697979-0.3147087-0.6697979-0.687252v-1.1421223c0-0.3748894,0.2954302-0.6768322,0.6726637-0.687254
	c1.352622-0.0398598,1.6246061-0.6278534,1.6246061-1.5633831c0-0.7737465-0.118536-1.5865707-0.2230053-2.303524
	l-0.0106812-0.0747681c-0.1135864-0.7966728-0.2211819-1.5493164-0.2211819-2.3571911
	c0-2.7000341,1.6933823-4.2485685,4.6456013-4.2485685h0.4402809c0.3798389,0,0.6890774,0.3092375,0.6890774,0.6890764v1.2499771
	c0,0.3798409-0.3092384,0.688818-0.6890774,0.688818h-0.3548298c-1.2434635,0-1.7058887,0.5160904-1.7058887,1.904665
	c0,0.5437069,0.0607014,1.1551476,0.1909618,1.9244652c0.1062927,0.665369,0.2037277,1.3932648,0.2037277,2.243082
	c0.0270939,1.6410198-0.5882549,2.5671692-1.3419418,3.0863876c0.8967113,0.6226444,1.3656483,1.6991138,1.3419418,3.1335411
	c0,0.6875134-0.0646095,1.3997765-0.2034664,2.2329216c-0.0919647,0.5645485-0.178978,1.1767693-0.1899204,1.8166084
	c-0.0096378,0.5442276,0.1972141,1.0600586,0.5822639,1.4518814c0.3926048,0.3993797,0.9172935,0.6195183,1.4771519,0.6195183
	c0.3798389,0,0.6890774,0.3092384,0.6890774,0.6890755v1.2476349
	C22.2302437,37.6796417,21.9210052,37.9886208,21.5411663,37.9886208z M15.6799746,26.3456974
	c1.4849672,0.1690769,2.2972708,1.0827236,2.2972708,2.6036415c0,0.8193378-0.1245289,1.6467514-0.2344685,2.37673
	c-0.1203613,0.812561-0.2204018,1.5435829-0.2204018,2.2454262c0,2.2542839,1.1705189,3.3500328,3.5785103,3.3500328h0.0622654
	v-0.5137444c-0.7047081-0.083889-1.3547077-0.4019852-1.8603783-0.9162521
	c-0.5872116-0.5978966-0.9027023-1.3857079-0.888113-2.2185936c0.0125046-0.709137,0.110199-1.3945656,0.2042465-1.9713593
	c0.1292191-0.7755699,0.1891384-1.4320812,0.1891384-2.0682716c0.0239677-1.4602184-0.5103588-2.2990952-1.6339836-2.5731621
	l-0.4069347-0.0995178v-0.8839474l0.3954716-0.1057701c0.7213802-0.1930466,1.6764488-0.6664124,1.6454468-2.5398159
	c0-0.7841663-0.0911827-1.4617805-0.1893978-2.0786934c-0.1399002-0.8248081-0.2052898-1.4927826-0.2052898-2.0977116
	c0-1.9635429,0.925108-2.9634209,2.749794-2.9717579v-0.4936867h-0.0622654c-2.3746433,0-3.5785103,1.0704784-3.5785103,3.1814766
	c0,0.7320633,0.1023846,1.4482346,0.2105007,2.2063484l0.0104218,0.0734673
	c0.1096783,0.7510815,0.2339478,1.6045456,0.2339478,2.4556675c0,1.5725021-0.7724438,2.4478512-2.2972708,2.6062469V26.3456974z
	 M15.3175907,25.9361591c-0.0005217,0-0.0010424,0-0.0015631,0C15.3165483,25.9361591,15.3170691,25.9361591,15.3175907,25.9361591z
	 M38.41045,26.7539864c0,0.084446-0.0694962,0.1516151-0.153904,0.154108
	c-1.874054,0.0553322-2.1434364,1.1295967-2.1434364,2.0965443c0,0.7942562,0.1131363,1.5885143,0.2285805,2.3804607
	c0.1131325,0.7942562,0.2262688,1.5608082,0.2262688,2.3550625c0,2.6090431-1.7016487,3.7150002-4.1121254,3.7150002h-0.4402275
	c-0.0858612,0-0.1554642-0.0696068-0.1554642-0.155468v-1.2498741c0-0.0858612,0.069603-0.1554642,0.1554642-0.1554642h0.3548012
	c1.6739388,0,2.2396164-0.9073944,2.2396164-2.4381866c0-0.651104-0.0831184-1.3322258-0.1985626-2.0133476
	c-0.1131363-0.708828-0.1962547-1.3899479-0.1962547-2.1541901c-0.0300179-1.814785,0.7642403-2.7221756,2.0410538-3.0638905
	v-0.0554142c-1.2768135-0.3116989-2.0710716-1.2768135-2.0410538-3.0915985c0-0.7665501,0.0831184-1.475378,0.1962547-2.1541901
	c0.1070328-0.6571808,0.1862793-1.2667274,0.197258-1.8948879c0.0251617-1.4398117-1.15308-2.6143532-2.5931091-2.6143665
	h-0.0000038c-0.0858612,0-0.1554642-0.069603-0.1554642-0.1554642v-1.2475681c0-0.0858612,0.069603-0.1554651,0.1554642-0.1554651
	h0.4402275c2.3527565,0,4.1121254,1.0205278,4.1121254,3.8835459c0,0.7665501-0.1131363,1.5608063-0.2262688,2.3250484
	c-0.1154442,0.7665501-0.2285805,1.5307903-0.2285805,2.2973404c0,0.8568153,0.2694168,2.0356178,2.1437912,2.0963306
	c0.0842628,0.0027294,0.1535492,0.0696621,0.1535492,0.1539707V26.7539864z M32.4559364,37.9886208h-0.4402809
	c-0.3798389,0-0.6890774-0.308979-0.6890774-0.6888161v-1.2499771c0-0.3798409,0.3092384-0.6890793,0.6890774-0.6890793h0.3548279
	c1.2434654,0,1.7058907-0.5160904,1.7058907-1.9046631c0-0.5434456-0.0607033-1.1548882-0.1909637-1.9242058
	c-0.1062927-0.6656303-0.2037277-1.3937855-0.2037277-2.2433434c-0.027092-1.6410179,0.5882568-2.5669079,1.3419418-3.0863857
	c-0.8967094-0.6226444-1.3656464-1.6988544-1.3419418-3.1332817c0-0.687252,0.0646095-1.3997765,0.2034683-2.2329216
	c0.0919647-0.5645485,0.178978-1.1767712,0.1899185-1.8166084c0.0096397-0.5442276-0.1972122-1.0600586-0.5822639-1.4518814
	c-0.3926048-0.3993778-0.9172897-0.6195183-1.47715-0.6195183c-0.3798389,0-0.6890774-0.3092384-0.6890774-0.6890774v-1.247633
	c0-0.3798389,0.3092384-0.6890764,0.6890774-0.6890764h0.4402809c2.9957237,0,4.6455994,1.568594,4.6455994,4.4171267
	c0,0.7745266-0.1052475,1.5467091-0.2321205,2.4033012c-0.1096802,0.7278938-0.2227478,1.4792366-0.2227478,2.2191143
	c0,0.746912,0.193306,1.5167503,1.6274719,1.5631237c0.375412,0.0117226,0.6697998,0.313406,0.6697998,0.687252v1.1418629
	c0,0.3738461-0.2946472,0.6757889-0.6711006,0.6875134c-1.354187,0.0398598-1.6261711,0.627594-1.6261711,1.5631237
	c0,0.7740059,0.1185379,1.5868301,0.2230072,2.3037834l0.0104218,0.0734653
	c0.1138458,0.7971935,0.2214394,1.5503597,0.2214394,2.3582325C37.1015358,36.4400864,35.4081535,37.9886208,32.4559364,37.9886208z
	 M32.3936691,36.9215279h0.0622673c2.3746452,0,3.5785103-1.0704765,3.5785103-3.1814766
	c0-0.7320633-0.1023865-1.4487534-0.210762-2.2073898l-0.0101624-0.0721645
	c-0.1096764-0.7510815-0.2339478-1.6045456-0.2339478-2.4559269c0-1.5725021,0.7724457-2.4475918,2.2972717-2.6059875v-0.4332466
	c-1.4854889-0.1698589-2.2972717-1.0832443-2.2972717-2.6036415c0-0.8198586,0.1245308-1.6470108,0.2344704-2.37673
	c0.1203613-0.8128223,0.2204018-1.5438442,0.2204018-2.2456856c0-2.2542858-1.1705208-3.3500347-3.5785103-3.3500347h-0.0622673
	v0.5140076c0.7047081,0.0838871,1.3547096,0.4019833,1.8603783,0.9162502
	c0.5872154,0.5978947,0.9027023,1.3857098,0.8881149,2.2185936c-0.0125046,0.7093964-0.110199,1.3945656-0.2042465,1.9710979
	c-0.1292191,0.7758312-0.1891403,1.4326019-0.1891403,2.0685329c-0.0239677,1.4602184,0.5103607,2.2990952,1.6339874,2.5731621
	l0.4069328,0.0995178v0.8839474l-0.3957329,0.105772c-0.7211189,0.1930447-1.6761894,0.666151-1.6451874,2.5395527
	c0,0.7841682,0.0911827,1.4620419,0.1893997,2.0789547c0.1399002,0.8248081,0.2052917,1.4927845,0.2052917,2.0974522
	c0,1.9635429-0.9251099,2.9634209-2.7497978,2.971756V36.9215279z M38.2392311,25.9913883c0.0002594,0,0.000782,0,0.0013008,0
	C38.2400131,25.9913883,38.2394905,25.9913883,38.2392311,25.9913883z"/>
</svg>
