<?xml version="1.0" encoding="utf-8"?>
<!-- Generator: Adobe Illustrator 23.0.0, SVG Export Plug-In . SVG Version: 6.00 Build 0)  -->
<!DOCTYPE svg PUBLIC "-//W3C//DTD SVG 1.1//EN" "http://www.w3.org/Graphics/SVG/1.1/DTD/svg11.dtd" [
	<!ENTITY ns_extend "http://ns.adobe.com/Extensibility/1.0/">
	<!ENTITY ns_ai "http://ns.adobe.com/AdobeIllustrator/10.0/">
	<!ENTITY ns_graphs "http://ns.adobe.com/Graphs/1.0/">
	<!ENTITY ns_vars "http://ns.adobe.com/Variables/1.0/">
	<!ENTITY ns_imrep "http://ns.adobe.com/ImageReplacement/1.0/">
	<!ENTITY ns_sfw "http://ns.adobe.com/SaveForWeb/1.0/">
	<!ENTITY ns_custom "http://ns.adobe.com/GenericCustomNamespace/1.0/">
	<!ENTITY ns_adobe_xpath "http://ns.adobe.com/XPath/1.0/">
]>
<svg version="1.1" id="Layer_1" xmlns:x="&ns_extend;" xmlns:i="&ns_ai;" xmlns:graph="&ns_graphs;"
	 xmlns="http://www.w3.org/2000/svg" xmlns:xlink="http://www.w3.org/1999/xlink" x="0px" y="0px" viewBox="0 0 76 61.0961227"
	 enable-background="new 0 0 76 61.0961227" xml:space="preserve">
<metadata>
	<sfw  xmlns="&ns_sfw;">
		<slices></slices>
		<sliceSourceBounds  bottomLeftOrigin="true" height="61.0961227" width="76" x="90.0000381" y="72.5531769"></sliceSourceBounds>
	</sfw>
</metadata>
<g>
	<path fill="#EA4335" d="M50.5434647,16.8680096l6.6063652-6.6063614l0.4402657-2.7817202
		C45.5515137-3.4667482,26.4146442-2.2255135,15.5623751,10.0698662c-3.0144701,3.4149542-5.2508307,7.6724396-6.4433775,12.0688648
		l2.3660946-0.3333912l13.2124271-2.1787663l1.0200634-1.0432205c5.8772354-6.4546585,15.814537-7.3230181,22.6005096-1.8311253
		L50.5434647,16.8680096z"/>
	<path fill="#4285F4" d="M66.5607986,21.9444542c-1.5185165-5.5919399-4.6359978-10.6189251-8.9706764-14.4643488
		l-9.2720032,9.2720041c3.9151917,3.1991253,6.1456146,8.0185966,6.0500183,13.0734901v1.645874
		c4.5573273,0,8.2522354,3.6946106,8.2522354,8.2519417c0,4.5576248-3.6949081,8.1596146-8.2522354,8.1596146H37.8408051
		l-1.6227188,1.7616539v9.8978157l1.6227188,1.5529518h16.5273323c11.854229,0.0923309,21.5388832-9.3497849,21.6312141-21.2040062
		C76.0551605,32.7061768,72.5125504,25.9700832,66.5607986,21.9444542"/>
	<path fill="#34A853" d="M21.3365059,61.0956039h16.5041809V47.8828812H21.3365059
		c-1.1759205-0.0003014-2.3147335-0.2529411-3.384079-0.7415962l-2.3414536,0.7184372l-6.6526747,6.6063652l-0.5795002,2.2485275
		C12.1096287,59.531662,16.6616154,61.1157875,21.3365059,61.0956039"/>
	<path fill="#FBBC05" d="M21.3365059,18.2356834C9.481987,18.3063393-0.0702668,27.9737816,0.0003895,39.8280029
		c0.0394844,6.6197243,3.1311417,12.8511314,8.3784094,16.8865547l9.5736284-9.5733299
		c-4.1535788-1.8765488-5.9992514-6.7645988-4.1227045-10.917881c1.8762512-4.1532822,6.764596-5.9989548,10.9175825-4.1227036
		c1.8302345,0.8267937,3.295908,2.2927666,4.1227055,4.1227036l9.5736275-9.5733318
		C34.3702164,21.3249645,28.0408382,18.2116375,21.3365059,18.2356834"/>
</g>
</svg>
