<?xml version="1.0" encoding="utf-8"?>
<!-- Generator: Adobe Illustrator 23.0.0, SVG Export Plug-In . SVG Version: 6.00 Build 0)  -->
<!DOCTYPE svg PUBLIC "-//W3C//DTD SVG 1.1//EN" "http://www.w3.org/Graphics/SVG/1.1/DTD/svg11.dtd" [
	<!ENTITY ns_extend "http://ns.adobe.com/Extensibility/1.0/">
	<!ENTITY ns_ai "http://ns.adobe.com/AdobeIllustrator/10.0/">
	<!ENTITY ns_graphs "http://ns.adobe.com/Graphs/1.0/">
	<!ENTITY ns_vars "http://ns.adobe.com/Variables/1.0/">
	<!ENTITY ns_imrep "http://ns.adobe.com/ImageReplacement/1.0/">
	<!ENTITY ns_sfw "http://ns.adobe.com/SaveForWeb/1.0/">
	<!ENTITY ns_custom "http://ns.adobe.com/GenericCustomNamespace/1.0/">
	<!ENTITY ns_adobe_xpath "http://ns.adobe.com/XPath/1.0/">
]>
<svg version="1.1" id="Layer_1" xmlns:x="&ns_extend;" xmlns:i="&ns_ai;" xmlns:graph="&ns_graphs;"
	 xmlns="http://www.w3.org/2000/svg" xmlns:xlink="http://www.w3.org/1999/xlink" x="0px" y="0px" viewBox="0 0 61 61"
	 enable-background="new 0 0 61 61" xml:space="preserve">
<metadata>
	<sfw  xmlns="&ns_sfw;">
		<slices></slices>
		<sliceSourceBounds  bottomLeftOrigin="true" height="61" width="61" x="1219.5" y="1219.5"></sliceSourceBounds>
	</sfw>
</metadata>
<path fill="#DC395F" d="M55.4702072,0H5.5297933C2.4757423,0,0,2.4757423,0,5.5297933v49.9404144
	C0,58.5242577,2.4757423,61,5.5297933,61h49.9404144C58.5242577,61,61,58.5242577,61,55.4702072V5.5297933
	C61,2.4757423,58.5242577,0,55.4702072,0"/>
<path fill="#FFFFFF" d="M20.3861523,19.1923637c2.0277748,0,3.7264805-1.5893364,3.7264805-3.6723919
	c0-2.081625-1.6987057-3.670723-3.7264805-3.670723s-3.7260036,1.589098-3.7260036,3.670723
	C16.6601486,17.602787,18.3583794,19.1923637,20.3861523,19.1923637 M12.6596451,38.8553314
	c-0.2189808,0.9316826-0.3288288,1.937706-0.3288288,2.7583466c0,3.2337151,1.7535124,5.3803902,5.4799919,5.3803902
	c3.0905094,0,5.5960369-1.8352394,7.4000626-4.798748l-1.1015739,4.4208298h6.1369324l3.5075016-14.0678864
	c0.876873-3.5618267,2.5755844-5.4106522,5.1514015-5.4106522c2.0275383,0,3.2878075,1.2609844,3.2878075,3.3426094
	c0,0.6030922-0.0548058,1.2600307-0.2740211,1.9727325l-1.8085556,6.4662361
	c-0.2740211,0.9316826-0.3831558,1.8638382-0.3831558,2.739994c0,3.0697784,1.8078423,5.3151016,5.5891228,5.3151016
	c3.2332382,0,5.8085823-2.0813866,7.2335014-7.0683746l-2.4109268-0.9307289
	c-1.2057037,3.3409424-2.2469902,3.9449844-3.0690651,3.9449844c-0.8220673,0-1.2605057-0.5475693-1.2605057-1.6429482
	c0-0.4932442,0.1100883-1.0405769,0.2740211-1.6996613l1.7539902-6.2996788
	c0.4382019-1.47925,0.6028519-2.7909889,0.6028519-3.9962158c0-4.7127266-2.8498459-7.1722641-6.302063-7.1722641
	c-3.2329979,0-6.5212784,2.9163227-8.1649437,5.9856262l1.2052269-5.5090637h-9.3701763l-1.3153114,4.8523579h4.3841381
	l-2.699728,10.8084393c-2.1199894,4.7127266-6.0142174,4.7892151-6.5029335,4.6798439
	c-0.8025322-0.1810913-1.3157902-0.4858551-1.3157902-1.5285721c0-0.6016579,0.1096096-1.4659042,0.3836346-2.5079079
	l4.1103516-16.3041573H12.4406643l-1.3153133,4.8523579h4.3288546l-2.794322,11.4170094"/>
</svg>
