<?xml version="1.0" encoding="utf-8"?>
<!-- Generator: Adobe Illustrator 23.0.0, SVG Export Plug-In . SVG Version: 6.00 Build 0)  -->
<!DOCTYPE svg PUBLIC "-//W3C//DTD SVG 1.1//EN" "http://www.w3.org/Graphics/SVG/1.1/DTD/svg11.dtd" [
	<!ENTITY ns_extend "http://ns.adobe.com/Extensibility/1.0/">
	<!ENTITY ns_ai "http://ns.adobe.com/AdobeIllustrator/10.0/">
	<!ENTITY ns_graphs "http://ns.adobe.com/Graphs/1.0/">
	<!ENTITY ns_vars "http://ns.adobe.com/Variables/1.0/">
	<!ENTITY ns_imrep "http://ns.adobe.com/ImageReplacement/1.0/">
	<!ENTITY ns_sfw "http://ns.adobe.com/SaveForWeb/1.0/">
	<!ENTITY ns_custom "http://ns.adobe.com/GenericCustomNamespace/1.0/">
	<!ENTITY ns_adobe_xpath "http://ns.adobe.com/XPath/1.0/">
]>
<svg version="1.1" id="Layer_1" xmlns:x="&ns_extend;" xmlns:i="&ns_ai;" xmlns:graph="&ns_graphs;"
	 xmlns="http://www.w3.org/2000/svg" xmlns:xlink="http://www.w3.org/1999/xlink" x="0px" y="0px"
	 viewBox="0 0 59.9468079 81.2113342" enable-background="new 0 0 59.9468079 81.2113342" xml:space="preserve">
<metadata>
	<sfw  xmlns="&ns_sfw;">
		<slices></slices>
		<sliceSourceBounds  bottomLeftOrigin="true" height="81.2113342" width="59.9468079" x="-3.6932952" y="-5.0000033">
			</sliceSourceBounds>
	</sfw>
</metadata>
<g id="Inspo">
</g>
<path fill="#E92D2F" stroke="#E92D2F" stroke-width="0.09375" stroke-miterlimit="10" d="M38.1158981,0.1644625
	c1.8543434,2.1111696,2.4662971,5.1298966,1.933342,7.8527274c-0.572258,3.0582085-2.2689972,5.7612295-4.2616844,8.0894537
	c-1.5980797,1.8743839-3.4331627,3.5317154-5.3468513,5.0706654c-2.2295914,1.7954617-4.4196815,3.7290993-5.8205585,6.2545471
	c-1.1838207,2.051939-1.4600277,4.577486-0.6510639,6.8069782c1.3218765,3.8276711,4.3998356,6.6688461,6.0769157,10.2795448
	c-1.8546333-1.637661-3.6698685-3.3344116-5.3667011-5.1298981c-1.775732-1.8941345-3.4528141-3.9066505-4.5576344-6.2742958
	c-0.7498169-1.6573544-1.0851727-3.590889-0.5130119-5.3468742c0.5721607-1.7954826,1.8546371-3.2358398,3.1371117-4.5774841
	c3.5712147-3.5712166,7.9712467-6.1953163,11.4633636-9.8256865c1.9337349-1.9927874,3.5318146-4.3801823,4.084034-7.122684
	C38.7471123,4.228919,38.530159,2.1572301,38.1158981,0.1644625L38.1158981,0.1644625z"/>
<path fill="#E92D2F" stroke="#E92D2F" stroke-width="0.09375" stroke-miterlimit="10" d="M35.1956444,22.6374149
	c3.8277702-2.8215008,8.3064117-4.6169662,12.8443909-5.9191113c-3.5907669,2.2886639-7.3395348,4.3800831-10.437439,7.3199081
	c-1.1244774,1.0851707-2.1899986,2.3282242-2.6832542,3.8474236c-0.3749504,1.124651-0.2169571,2.3676434,0.2369995,3.4331436
	c0.8285179,1.8940582,2.2292938,3.4330635,3.2948151,5.1693001c0.9075203,1.4797745,1.0655174,3.3739128,0.3749542,4.9720917
	c-1.0458679,2.3478966-3.0979004,4.064476-5.2285461,5.4258499c-0.2763062,0.1578064-0.5129089,0.4537582-0.8485641,0.4932632
	c1.4208221-1.2824783,2.5256462-3.0977097,2.4859505-5.0509987c-0.0393066-1.460022-0.8481712-2.7425003-1.7953873-3.78825
	c-1.9533825-2.3281631-3.5908699-5.2877197-3.255415-8.4248295C30.5197048,26.9780979,32.7686577,24.4525509,35.1956444,22.6374149
	L35.1956444,22.6374149z"/>
<path fill="#0774BA" stroke="#0774BA" stroke-width="0.09375" stroke-miterlimit="10" d="M48.770298,45.4456673
	c0.8285179-1.0061913,2.1502991-1.2627411,3.3541679-1.4205513c2.0913391-0.2762032,4.3206367,0.2564583,5.8990669,1.6968346
	c1.3025208,1.1640701,2.0323868,2.979229,1.7560844,4.7352905c-0.2959557,2.0321884-1.6574364,3.7290192-3.196167,5.0114937
	c-2.7819061,2.2294922-6.2150688,3.5317192-9.6482315,4.4000282c0.1973-0.2173271,0.4142532-0.4146347,0.6709099-0.572258
	c2.604248-1.4009743,5.1888542-3.0385551,7.102932-5.327301c1.1641731-1.4206009,2.0716896-3.2752571,1.6967354-5.1496429
	c-0.3946114-2.1703415-2.5056-3.7487717-4.6562881-3.8671532C50.7232971,44.853756,49.7568169,45.2483635,48.770298,45.4456673
	L48.770298,45.4456673z"/>
<path fill="#0774BA" stroke="#0774BA" stroke-width="0.09375" stroke-miterlimit="10" d="M9.1120539,47.2411308
	c3.6303692-1.5586815,7.5764437-2.564949,11.5422678-2.5056953c-2.3083935,0.6708069-4.6760397,1.2429733-6.8463802,2.2689896
	c-0.51301,0.276207-1.1049204,0.5326614-1.400877,1.0654221c-0.1579018,0.4143562,0.276206,0.6905632,0.5919123,0.8286324
	c1.3416252,0.552494,2.8214035,0.6313934,4.2617807,0.7695427c5.0508957,0.3353615,10.1216412,0.1380539,15.1529846-0.1776276
	c4.9718933-0.3156281,9.9044876-0.9865227,14.8174324-1.7757339c-1.0851707,0.512989-2.1899948,1.026001-3.1961632,1.6770821
	c-0.5133018,0.3551865-1.1445236,0.4538383-1.7167816,0.5919075c-6.0374146,1.3417053-12.2327309,1.7560616-18.3886471,1.8547173
	c-2.387394,0.0196724-4.7550392-0.0197525-7.1226845-0.1776352c-2.6438494-0.1775742-5.3074493-0.3748741-7.892148-1.0654373
	c-0.7497149-0.2170372-1.5389299-0.4537582-2.1308408-0.9865189c-0.2959557-0.2367058-0.2959557-0.7102966-0.0395002-0.9865189
	C7.3955708,47.9514427,8.3030891,47.6357346,9.1120539,47.2411308L9.1120539,47.2411308z"/>
<path fill="#0774BA" stroke="#0774BA" stroke-width="0.09375" stroke-miterlimit="10" d="M13.7684412,55.6660385
	c1.0260191-0.8089638,2.2492418-1.262722,3.4725657-1.6968346c-0.3946075,0.4735146-0.9471169,0.9273682-0.9865189,1.578434
	c-0.0197506,0.4143562,0.3157063,0.7300606,0.651062,0.9273682c0.6511612,0.3353539,1.3811264,0.4537582,2.1111908,0.5524101
	c3.7881718,0.3946037,7.615942,0.61166,11.443615,0.3551254c3.4921207-0.1775742,6.9649792-0.749733,10.4177952-1.3613968
	c0.9468193,0.887867,2.0716896,1.499527,3.2555122,2.0322876c-4.1634216,1.2232246-8.4447594,1.9336357-12.7461319,2.2689133
	c-4.0642853,0.2762833-8.1880112,0.2566376-12.2327385-0.3946075c-1.5980816-0.2959557-3.2357607-0.6312332-4.6957884-1.3810425
	c-0.5919113-0.315712-1.2627249-0.7300682-1.4402781-1.4206314C12.9003248,56.5341568,13.3343334,56.0014153,13.7684412,55.6660385
	L13.7684412,55.6660385z"/>
<path fill="#0774BA" stroke="#0774BA" stroke-width="0.09375" stroke-miterlimit="10" d="M16.0571842,64.268425
	c0.9076157-0.7298889,2.0321884-1.104847,3.1371098-1.4204521c-0.3551083,0.3352776-0.9865189,0.7495384-0.7103138,1.3217964
	c0.5327606,0.6905594,1.5192795,0.7695389,2.3084927,0.947197c3.3344154,0.4142609,6.7083282,0.6905594,10.0428391,0.4339294
	c2.5252571-0.1576233,5.0115929-0.6115875,7.47789-1.0454941c1.4204254,0.8285217,2.9002075,1.5387573,4.4192924,2.1703415
	c-2.3279533,1.0454941-4.8339424,1.7163849-7.3395462,2.1899948c-4.2223778,0.7495346-8.5827122,0.8481827-12.8247414,0.1776505
	c-1.8743858-0.3356323-3.788271-0.7695618-5.4851017-1.6971054c-0.6510639-0.374588-1.3416262-0.8088684-1.6178322-1.5387573
	C15.2482195,65.2352676,15.6033268,64.623703,16.0571842,64.268425L16.0571842,64.268425z"/>
<path fill="#0774BA" stroke="#0774BA" stroke-width="0.09375" stroke-miterlimit="10" d="M5.1068277,69.8522568
	c1.815135-0.6115646,3.6895199-1.1048279,5.603406-1.1641693c0.7694645-0.0196533,1.5586796,0.0196686,2.2294922,0.4142761
	C10.651082,69.2406921,8.362339,69.8125763,6.3104,70.8584213c-0.4538574,0.2566605-0.966867,0.5526123-1.1444206,1.0851746
	c0,0.6115799,0.6905632,0.8088837,1.1444206,1.0061874c2.8609037,1.065506,5.9191122,1.4007797,8.9180689,1.7167587
	c8.9379168,0.7495346,17.9347954,0.5522308,26.8728065-0.2566528c3.3738136-0.3749313,6.7676735-0.7498856,10.0428352-1.6770782
	c1.0454788-0.3552856,2.2293015-0.7102127,2.9198647-1.637764c0.41465-0.5522308,0.1383476-1.2427902-0.2759132-1.7164001
	c0.6705208,0.3749619,1.617733,0.8485641,1.4797745,1.7560806c-0.2566528,0.946846-1.2235184,1.4401016-2.0127335,1.8940353
	c-2.5252495,1.2824783-5.3075447,1.9337311-8.0697937,2.5056152c-8.0301094,1.5784378-16.2577133,1.9337158-24.4260693,1.6971207
	c-6.1559143-0.2173386-12.3117313-0.8092422-18.3887444-1.8547363c-1.0851703-0.2566376-2.3083944-0.4736099-3.097609-1.3221588
	c-0.5130094-0.5919113-0.0592503-1.4204483,0.4340091-1.8543549C1.9499681,71.0557327,3.5481479,70.4245148,5.1068277,69.8522568
	L5.1068277,69.8522568z"/>
<path fill="#0774BA" stroke="#0774BA" stroke-width="0.09375" stroke-miterlimit="10" d="M54.274765,76.5998993
	c1.9930725-0.6905594,4.1237259-1.4204483,5.6035004-2.9988785c-0.2562561,1.7164078-1.7360344,2.9002304-3.196167,3.6697769
	c-2.8019447,1.4601212-5.9387589,2.1310425-9.0563164,2.6832733c-6.590023,1.045845-13.278698,1.3021164-19.9671783,1.1838226
	c-4.5577374-0.1379776-9.1548729-0.3156357-13.633707-1.262825c-1.0654202-0.2959595-2.2097425-0.4932632-3.1371098-1.1244965
	c3.9855747,0.6709061,8.0303001,0.9472198,12.0750275,1.1048431c6.6490765,0.1973038,13.3180008-0.0589752,19.9276733-0.8878632
	C46.7182617,78.434967,50.5656853,77.7837296,54.274765,76.5998993L54.274765,76.5998993z"/>
</svg>
