<?xml version="1.0" encoding="utf-8"?>
<!-- Generator: Adobe Illustrator 23.0.0, SVG Export Plug-In . SVG Version: 6.00 Build 0)  -->
<!DOCTYPE svg PUBLIC "-//W3C//DTD SVG 1.1//EN" "http://www.w3.org/Graphics/SVG/1.1/DTD/svg11.dtd" [
	<!ENTITY ns_extend "http://ns.adobe.com/Extensibility/1.0/">
	<!ENTITY ns_ai "http://ns.adobe.com/AdobeIllustrator/10.0/">
	<!ENTITY ns_graphs "http://ns.adobe.com/Graphs/1.0/">
	<!ENTITY ns_vars "http://ns.adobe.com/Variables/1.0/">
	<!ENTITY ns_imrep "http://ns.adobe.com/ImageReplacement/1.0/">
	<!ENTITY ns_sfw "http://ns.adobe.com/SaveForWeb/1.0/">
	<!ENTITY ns_custom "http://ns.adobe.com/GenericCustomNamespace/1.0/">
	<!ENTITY ns_adobe_xpath "http://ns.adobe.com/XPath/1.0/">
]>
<svg version="1.1"
	 id="svg869" xmlns:x="&ns_extend;" xmlns:i="&ns_ai;" xmlns:graph="&ns_graphs;" inkscape:version="0.92.2 2405546, 2018-03-11" sodipodi:docname="Apache_kafka.svg" xmlns:cc="http://creativecommons.org/ns#" xmlns:dc="http://purl.org/dc/elements/1.1/" xmlns:inkscape="http://www.inkscape.org/namespaces/inkscape" xmlns:rdf="http://www.w3.org/1999/02/22-rdf-syntax-ns#" xmlns:sodipodi="http://sodipodi.sourceforge.net/DTD/sodipodi-0.dtd" xmlns:svg="http://www.w3.org/2000/svg"
	 xmlns="http://www.w3.org/2000/svg" xmlns:xlink="http://www.w3.org/1999/xlink" x="0px" y="0px" viewBox="0 0 38.7512665 61"
	 enable-background="new 0 0 38.7512665 61" xml:space="preserve">
<metadata  id="metadata875">
	<rdf:RDF>
		<cc:Work  rdf:about="">
			<dc:format>image/svg+xml</dc:format>
			<dc:type  rdf:resource="http://purl.org/dc/dcmitype/StillImage"></dc:type>
			<dc:title></dc:title>
		</cc:Work>
	</rdf:RDF>
	<sfw  xmlns="&ns_sfw;">
		<slices></slices>
		<sliceSourceBounds  bottomLeftOrigin="true" height="61" width="38.7512665" x="18.4492207" y="28.1564865"></sliceSourceBounds>
	</sfw>
</metadata>
<sodipodi:namedview  bordercolor="#666666" borderopacity="1" gridtolerance="10" guidetolerance="10" id="namedview871" inkscape:current-layer="svg869" inkscape:cx="37.5" inkscape:cy="83.914412" inkscape:pageopacity="0" inkscape:pageshadow="2" inkscape:window-height="1020" inkscape:window-maximized="1" inkscape:window-width="1920" inkscape:window-x="0" inkscape:window-y="0" inkscape:zoom="3.5128205" objecttolerance="10" pagecolor="#ffffff" showgrid="false">
	</sodipodi:namedview>
<g id="g922">
	
		<path id="path885" inkscape:connector-curvature="0" sodipodi:nodetypes="sscssssscsssssscsssssssssssssscssssscscsccsssssssssssssssss" d="
		M6.4543471,60.144413c-5.5982842-2.6693993-5.4271641-11.3833809,0.2740021-13.9530602
		c1.6275105-0.7335625,1.8327403-1.0798035,1.8436837-3.1103973c0.0107994-2.0053673-0.1800594-2.3498077-1.5599403-2.8150711
		c-2.1502767-0.7250252-5.114068-3.2205315-6.1695766-5.1947784c-1.1233547-2.1011391-1.1233547-7.0254993,0-9.1266403
		c1.0555091-1.9742413,4.0193005-4.4697475,6.1695766-5.1947765c1.3798809-0.4652653,1.5707474-0.8097019,1.5599403-2.8150711
		c-0.0109425-2.0305929-0.2161732-2.376832-1.8436837-3.1103983C0.9789552,12.2328043,0.8642956,3.4578233,6.5457549,0.8501471
		c6.5517983-3.0071502,13.5474968,2.4234025,11.6947994,9.0783291c-0.5878372,2.1115198-3.8996315,5.446044-5.4089174,5.446044
		c-0.6065321,0-0.8336201,0.6629629-0.8336201,2.4336748c0,2.2589016,0.1331005,2.4761658,1.8533773,3.0253029
		c1.0193567,0.3253937,2.5463085,1.2130928,3.3932247,1.9726658l1.5398502,1.3810387l1.8622627-1.0953979
		c1.6918507-0.9951591,1.8677311-1.3505459,1.9220142-3.8836994c0.0960484-4.4820395,3.3178959-7.7552767,7.6965389-7.8193035
		c6.509201-0.0951796,10.3624039,5.7466946,7.5591583,11.4605122c-1.9048843,3.8827-7.3111496,5.2477951-11.5840302,2.9249992
		c-1.9780293-1.0752831-2.2138176-0.7670345-3.9444923-0.3867741c-2.3447571,0.5151882-2.9912529-0.660841-1.2906456,4.0628281
		c0.6531544,1.81423-0.4563274,4.0580978-0.5284214,4.7805595c-0.0816593,0.8183212,0.6092052,1.0243607,1.9405403,1.318779
		c1.7301197,0.3826065,1.8449898,0.7668343,3.823019-0.3084488c4.2728806-2.3227959,9.6791458-0.957695,11.5840302,2.9249992
		c2.8032417,5.7138176-1.0499573,11.5556946-7.5591602,11.4605141c-4.3786449-0.0640259-7.6004906-3.3372612-7.6965389-7.8193054
		c-0.0542812-2.5331535-0.2301617-2.8885345-1.9220123-3.8836975l-1.8622627-1.0953941l-1.5398502,1.3810387
		c-0.8469162,0.7595711-2.3738689,1.6472702-3.3932257,1.9726639c-1.7202768,0.5491371-1.8533773,0.7663994-1.8533773,3.0252991
		c0,1.77071,0.2270889,2.4336739,0.8336201,2.4336739c1.5092859,0,4.8210812,3.3345299,5.4089184,5.4460487
		c1.0111885,3.6322136-0.9474106,7.837204-4.2772093,9.1828842C11.4514837,61.2851143,8.7519512,61.2399673,6.4543471,60.144413z
		 M12.9569998,56.000843c2.7545891-2.5030022,1.0259037-6.6911201-2.7618217-6.6911201
		c-3.6432972,0-5.2580137,4.5631599-2.3875217,6.7471046C9.7295876,57.5190773,11.3050108,57.5019493,12.9569998,56.000843z
		 M33.5957603,44.4366875c3.4318352-3.5629311-2.1085949-8.8413124-5.6672878-5.3992386
		c-1.3912621,1.3456688-1.491806,4.212635-0.1962929,5.5972481C29.0559311,46.0494919,32.1427002,45.9452553,33.5957603,44.4366875z
		 M12.7466011,35.6712341c2.0933933-1.0354881,3.2087278-2.8302727,3.2087278-5.1634464
		c0-5.3719463-6.3269491-7.6196785-9.8969374-3.5160198c-2.1445529,2.4651356-1.9783497,5.0475349,0.4777536,7.4231491
		C8.5795069,36.3913193,10.5038586,36.7805977,12.7466011,35.6712341z M33.4390221,21.8822041
		c2.6133652-2.3746738,0.8443527-6.5076838-2.7854214-6.5076838c-2.3960705,0-3.8630142,1.3907022-3.8630142,3.6622438
		C26.7905865,22.6537724,30.7329998,24.3410721,33.4390221,21.8822041z M13.2781429,10.5465899
		c2.2134199-1.8799534,0.2498484-6.7283802-2.7249365-6.7283802c-1.8601532,0-4.2446394,2.05217-4.2446394,3.6530755
		C6.308567,11.4081678,10.227685,13.1374712,13.2781429,10.5465899z"/>
	<path id="path906" inkscape:connector-curvature="0" fill="#FFFFFF" stroke="#FFFFFF" stroke-width="0.2846715" d="
		M9.283165,36.0645485c-1.5485959-0.5098534-3.5078192-2.262188-4.1906104-3.7480888
		c-0.5710106-1.2426395-0.5667882-2.545496,0.0120845-3.7286682c0.6205902-1.2684402,1.7493434-2.4243298,2.9396381-3.0103111
		c0.9226942-0.4542408,1.1245337-0.4951038,2.4454527-0.4951038c1.2413492,0,1.5574455,0.0551777,2.2938251,0.4004192
		c2.7530298,1.2907181,3.9063234,4.8606739,2.4797382,7.6759033c-0.4671049,0.9217873-1.6982813,2.0565414-2.7573414,2.5413933
		C11.6028814,36.1135368,9.9869766,36.2962685,9.283165,36.0645485z"/>
	<path id="path908" inkscape:connector-curvature="0" fill="#FFFFFF" stroke="#FFFFFF" stroke-width="0.2846715" d="
		M8.9434528,11.4794645c-1.4315348-0.5491829-2.3645234-1.8475761-2.4949212-3.4720583
		c-0.0919404-1.14538,0.2148075-1.8427625,1.216805-2.7663713c0.7901316-0.7283182,1.3160486-1.022017,2.2522011-1.2577429
		c1.0431118-0.2626586,1.8402023,0.0135386,2.7845383,0.9648614c1.6451998,1.657372,1.9069805,4.2281218,0.5582323,5.4819717
		C12.1371746,11.4742355,10.1738415,11.9514809,8.9434528,11.4794645z"/>
	<path id="path910" inkscape:connector-curvature="0" fill="#FFFFFF" stroke="#FFFFFF" stroke-width="0.2846715" d="
		M8.8580599,56.6017342c-2.6476536-1.3230476-3.2458448-4.158905-1.2898631-6.1148872
		c1.5126472-1.5126495,3.9030223-1.4923363,5.4901509,0.0466499c0.545681,0.529129,0.7932491,0.9184952,0.9734068,1.5309448
		c0.2968874,1.0092697,0.2977667,1.1273193,0.01548,2.0778809c-0.4433737,1.493-2.2217236,2.9226723-3.6354723,2.9226723
		C10.0151653,57.0649948,9.4447956,56.8949318,8.8580599,56.6017342z"/>
	<path id="path912" inkscape:connector-curvature="0" fill="#FFFFFF" stroke="#FFFFFF" stroke-width="0.2846715" d="
		M29.0927334,45.3493576c-1.3865032-0.4510841-2.1615295-1.6813812-2.1615295-3.4312592
		c0-3.4234352,3.5304756-5.0936661,6.1791363-2.9232903c1.2249718,1.0037727,1.7729187,2.8869019,1.222332,4.2007904
		C33.5801239,44.9914246,31.1114349,46.0061226,29.0927334,45.3493576z"/>
	<path id="path914" inkscape:connector-curvature="0" fill="#FFFFFF" stroke="#FFFFFF" stroke-width="0.2846715" d="
		M29.9334507,22.8668385c-2.7500267-0.4104614-4.0538616-4.1125927-2.1929493-6.2267017
		c1.7531567-1.9916897,5.5288048-1.3350744,6.5615921,1.1411133c0.2887154,0.6922169,0.3042374,2.0786037,0.0305824,2.731638
		C33.6490936,22.1441441,31.7826538,23.1428452,29.9334507,22.8668385z"/>
</g>
</svg>
