<?xml version="1.0" encoding="utf-8"?>
<!-- Generator: Adobe Illustrator 23.0.0, SVG Export Plug-In . SVG Version: 6.00 Build 0)  -->
<!DOCTYPE svg PUBLIC "-//W3C//DTD SVG 1.1//EN" "http://www.w3.org/Graphics/SVG/1.1/DTD/svg11.dtd" [
	<!ENTITY ns_extend "http://ns.adobe.com/Extensibility/1.0/">
	<!ENTITY ns_ai "http://ns.adobe.com/AdobeIllustrator/10.0/">
	<!ENTITY ns_graphs "http://ns.adobe.com/Graphs/1.0/">
	<!ENTITY ns_vars "http://ns.adobe.com/Variables/1.0/">
	<!ENTITY ns_imrep "http://ns.adobe.com/ImageReplacement/1.0/">
	<!ENTITY ns_sfw "http://ns.adobe.com/SaveForWeb/1.0/">
	<!ENTITY ns_custom "http://ns.adobe.com/GenericCustomNamespace/1.0/">
	<!ENTITY ns_adobe_xpath "http://ns.adobe.com/XPath/1.0/">
]>
<svg version="1.1" id="Layer_1" xmlns:x="&ns_extend;" xmlns:i="&ns_ai;" xmlns:graph="&ns_graphs;"
	 xmlns="http://www.w3.org/2000/svg" xmlns:xlink="http://www.w3.org/1999/xlink" x="0px" y="0px" viewBox="0 0 111.7455444 27"
	 enable-background="new 0 0 111.7455444 27" xml:space="preserve">
<metadata>
	<sfw  xmlns="&ns_sfw;">
		<slices></slices>
		<sliceSourceBounds  bottomLeftOrigin="true" height="27" width="111.7455444" x="1194.1287842" y="289.7079163">
			</sliceSourceBounds>
	</sfw>
</metadata>
<path fill-rule="evenodd" clip-rule="evenodd" fill="#E42E16" d="M65.4027328,1.3129784
	c0.3411255-0.6023789,0.8627548-1.1174564,1.5439224-1.3086462c0.307518-0.0056746,0.615036-0.0048016,0.9232101-0.0028373
	c0.4181747,0.1931541,0.7850571,0.495653,1.0118179,0.9000763c0.1796265,0.4055145,0.0827179,0.8302352-0.0095978,1.2422974
	c-0.1191711,0.2488086-0.2095261,0.5111489-0.2959518,0.7726164c-0.0728912,0.157232-0.1382904,0.3178282-0.1959915,0.4812481
	c-0.0702057,0.1575096-0.1342697,0.3176823-0.19207,0.4801571c-0.0696335,0.1578956-0.1336975,0.318193-0.1920624,0.4805937
	c-0.0691681,0.1584535-0.1335831,0.3189411-0.1931534,0.4812479c-0.0683975,0.1583405-0.1324463,0.3185258-0.1920624,0.4803758
	c-0.0684738,0.1583376-0.1325912,0.3185229-0.1922836,0.4803753c-0.0685272,0.1581755-0.1322861,0.3183732-0.1911926,0.4803753
	c-0.0692215,0.1579962-0.1332779,0.3182063-0.1920624,0.4803753c-0.0692978,0.1579938-0.1334305,0.3182039-0.1922836,0.4803753
	c-0.0692291,0.1579971-0.1332779,0.3182068-0.19207,0.4803753c-0.0692215,0.1579971-0.1332779,0.3182068-0.1920624,0.4803753
	c-0.0692978,0.1579933-0.1334229,0.3182039-0.1922836,0.4803753c-0.0686417,0.1582375-0.1326904,0.3184299-0.1920624,0.4803753
	c-0.0692978,0.1582899-0.1334229,0.3187904-0.1922836,0.4812489c-0.0695114,0.1574688-0.1332855,0.3174076-0.1911926,0.4795027
	c-0.0695801,0.1579857-0.1340027,0.3181953-0.1931534,0.4803753c-0.0689392,0.1582985-0.1326981,0.3188-0.1911926,0.4812479
	c-0.1135254,0.2559004-0.2135544,0.5175819-0.2996597,0.7839651c1.2113037-0.9096794,2.4018784-1.8512239,3.6498489-2.7111416
	c0.1276779-0.0680952,0.2575378-0.1353168,0.3863068-0.2047215c0.4244995-0.1737299,0.8876343-0.1420832,1.3352737-0.1113091
	c0.3171234,0.1815872,0.6176529,0.3987484,0.8031693,0.7215452c0.2344055,0.5899382,0.1307373,1.285511-0.2575378,1.7859659
	c-0.2429123,0.3035898-0.5368958,0.559165-0.8289261,0.8136482c-0.1346588,0.0903568-0.2651749,0.186388-0.3911057,0.288312
	c-0.6619644,0.4544039-1.2951126,0.9502745-1.9359055,1.4334869c0.1075974,0.1593256,0.214325,0.3208323,0.3208313,0.4812479
	c0.0632935,0.0990877,0.1268005,0.1970835,0.1931534,0.2950783c0.1462326,0.2640858,0.3103561,0.5168247,0.4803772,0.7665052
	c0.2036285,0.3662291,0.4408646,0.7110701,0.6744003,1.0587454c0.0894852,0.1604176,0.1815872,0.3199615,0.2815475,0.4757919
	c0.0663452,0.0969048,0.1326981,0.1949005,0.2027588,0.2920227c0.1872559,0.3457127,0.3852158,0.6907711,0.4947739,1.0720615
	c0.0700684,0.2815456-0.0499802,0.5582905-0.1019211,0.8311081c-0.2902756,0.4592037-0.6715698,0.8799953-1.1807556,1.0971584
	c-0.3505096,0.1143646-0.7032089,0.1307335-1.0508881-0.0028381c-0.2134476-0.1499386-0.4371567-0.2990074-0.575531-0.5255527
	c-0.4851761-0.7320213-0.9703598-1.4651337-1.4574966-2.1962814c-0.0643921-0.0971222-0.1276779-0.1931534-0.1920624-0.2891846
	c-0.0643921-0.0971222-0.1278992-0.1942444-0.19207-0.2891846c-0.0645981-0.0971222-0.1278915-0.1942463-0.1922836-0.2891846
	c-0.0643845-0.0971241-0.1296387-0.195118-0.1942444-0.2902775c-0.4081345-0.7060499-0.9068451-1.3536072-1.3219604-2.0537634
	c0.0087318,0.0305548,0.0250969,0.0929756,0.0327339,0.1237497c-0.0855522,0.1564875-0.1593246,0.3188677-0.2228355,0.4851761
	c-0.0672226,0.1593256-0.1307335,0.3199606-0.1874809,0.4823399c-0.0698433,0.1575785-0.1353149,0.3179951-0.1929359,0.4801559
	c-0.0695152,0.157835-0.1332932,0.3181381-0.1911926,0.4805946c-0.0703278,0.1573467-0.1341095,0.3175354-0.1911888,0.4801559
	c-0.3430939,0.8090649-0.6167831,1.6497765-1.055912,2.4145355c-0.3612099,0.400713-0.7254753,0.8511868-1.2739449,0.9895592
	c-0.2431374,0.0316448-0.482338,0.1632538-0.730278,0.0940666c-0.1959953-0.0488892-0.3937263-0.0816269-0.5927773-0.1124001
	c-0.2891884-0.2507744-0.6340256-0.4899788-0.747303-0.8760681c-0.240078-0.54105,0.0825005-1.1030521,0.2313499-1.6216221
	c0.0702744-0.1586685,0.1375008-0.3182125,0.1979561-0.4805946c0.066349-0.1593246,0.1316071-0.3188667,0.1903191-0.4801559
	c0.0672264-0.1586685,0.1335716-0.3190861,0.1931572-0.4805946c0.0661316-0.1584511,0.1324806-0.3188677,0.1920662-0.4801559
	c0.0672226-0.1597624,0.1316032-0.3190861,0.1920624-0.4814672c0.0683098-0.1575785,0.1318245-0.3179951,0.1911926-0.4795017
	c0.0682297-0.1583366,0.1322708-0.3184443,0.1920624-0.4801559c0.06744-0.1597624,0.1326981-0.3190861,0.1922836-0.4814672
	c0.0683098-0.1575785,0.1326981-0.3179951,0.1920624-0.4803753c0.0683136-0.1575794,0.1327019-0.3179951,0.1922836-0.4803753
	c0.0683136-0.1575794,0.1327019-0.3179951,0.1920662-0.4795027c0.0683098-0.158452,0.1326981-0.3188667,0.1920624-0.4812479
	c0.06744-0.158453,0.1326981-0.3179951,0.1922836-0.4803753c0.0683136-0.158453,0.1326981-0.3179951,0.1920662-0.4803762
	c0.0683098-0.158452,0.1326981-0.3179951,0.1922836-0.4803753c0.0683098-0.158452,0.1326981-0.3179951,0.1920624-0.4803753
	c0.0683098-0.158452,0.1326981-0.3190861,0.1911926-0.4803753c0.0691833-0.158452,0.1335716-0.3190861,0.1920624-0.4803753
	c0.0683098-0.158452,0.1326981-0.3190861,0.1922836-0.4812489c0.0683098-0.1575785,0.1335716-0.3182135,0.1920662-0.4803753
	c0.0683098-0.1575785,0.1326981-0.318213,0.1922836-0.4803753c0.0683098-0.1575789,0.1324768-0.3179951,0.1920624-0.4803753
	c0.0683098-0.1575789,0.1326981-0.3179951,0.1920624-0.4803753c0.0683136-0.1575789,0.1326981-0.3179951,0.1914139-0.4803753
	c0.133831-0.3179064,0.2618904-0.6382093,0.3841248-0.9607511c0.0694046-0.1586699,0.1335716-0.3179951,0.1931572-0.4803753
	c0.0683136-0.1586699,0.1326981-0.3179951,0.1920624-0.4803753c0.0683136-0.1586699,0.1326981-0.3179951,0.1914139-0.4803753
	c0.0681-0.1586699,0.1335678-0.3179951,0.1920624-0.4803755c0.0683136-0.1586699,0.1335754-0.3179948,0.1920624-0.4803753
	c0.0683136-0.1575789,0.1335754-0.3179948,0.1914139-0.4803753c0.1460114-0.3478956,0.2861328-0.6984103,0.4177399-1.0519806
	V1.3129784z M5.8289857,2.4234507c1.1076355-0.3812883,2.2920947-0.3544433,3.446219-0.2976973
	c0.1881332,0.0373211,0.3745222,0.0864282,0.566803,0.1047614c0.6368628,0.1920629,1.2556105,0.4399984,1.8311443,0.7769814
	c0.7232914,0.5286095,1.3747768,1.171365,1.8176126,1.9570763c0.1075993,0.2874393,0.2239285,0.5718231,0.3334913,0.8579535
	c0.1564865,0.6602159,0.1353168,1.3394198,0.1161108,2.012949c-0.0632935,0.7501364-0.2900581,1.4727726-0.5063477,2.1903896
	c-0.1135969,0.2507248-0.2111349,0.508419-0.2920227,0.7715244c-0.1516857,0.3007526-0.2564478,0.6235495-0.4234114,0.9166641
	c0.2968245-0.3902369,0.6722202-0.7101965,1.0000362-1.073369c0.5349379-0.6445017,1.1595802-1.2067223,1.7272568-1.8224144
	c0.6678534-0.8031721,1.472991-1.481503,2.1349516-2.2905674c1.2008305-1.1748567,2.2779102-2.4680071,3.5134411-3.6094716
	c0.1986103-0.1265867,0.3956928-0.2575388,0.5916843-0.3900185c0.492815-0.2776179,1.0598373-0.2671418,1.6085262-0.219126
	c0.4293041,0.2123601,0.8529339,0.5246806,1.0249176,0.9895599c0.1593246,0.3623004,0.0883923,0.7658508,0.0883923,1.1480119
	c-0.1420841,0.2586298-0.2691078,0.5257721-0.41119,0.784184c-0.0683136,0.0969043-0.1344433,0.1959915-0.1988297,0.2959514
	c-0.399622,0.4033318-0.735075,0.8655925-1.1501942,1.2547379c-0.4714279,0.4908519-0.9712257,0.958787-1.403368,1.4863052
	c-0.6503944,0.6925173-1.3557873,1.3363638-1.965807,2.0655479c-0.4880142,0.5052557-0.9875965,0.9980726-1.4699364,1.5092211
	c-0.5159492,0.6235495-1.1174564,1.1691828-1.6726933,1.7571564c0.0595837,0.1298609,0.1191673,0.2595034,0.1796227,0.3891449
	c0.1134911,0.3583717,0.2276382,0.7167425,0.3815079,1.0607109c0.120039,0.3544436,0.2296028,0.7136869,0.3841248,1.0567818
	c0.1200409,0.3546619,0.2298222,0.7136879,0.3843441,1.0567837c0.1200409,0.3546619,0.2296028,0.7139053,0.3843441,1.0559082
	c0.1200409,0.3555336,0.2296028,0.7147789,0.3841267,1.0567837c0.1193848,0.35466,0.2317848,0.7130318,0.3834724,1.0559082
	c0.0855541,0.2632122,0.1739464,0.5275173,0.2979145,0.7771988c0.0104752,0.0443058,0.0305557,0.1316051,0.0414696,0.1748219
	c0.1132717,0.2891846,0.2045021,0.587101,0.3254147,0.874321c0.0530338,0.1298599,0.1134911,0.2566662,0.1767845,0.3823795
	c0.3094826,0.4757919,0.8963661,0.7014656,1.4459267,0.7099762c28.4074039-0.0008717,56.8148041,0.001091,85.2230759-0.0008717
	c0.2564468-0.0028381,0.5004578,0.0940666,0.7560272,0.1152382c0.200798,0.1019249,0.4026794,0.2027569,0.6063156,0.2998791
	c0.1632462,0.1824608,0.2880936,0.391983,0.4081268,0.605217c0.0162506,0.3723469,0.0147247,0.7452564-0.0045776,1.1174564
	c-0.0432129,0.1008339-0.0835953,0.2016678-0.1191635,0.3055553c-0.2344055,0.4129353-0.5831757,0.7453346-0.9865036,0.9921799
	c-0.4066086,0.1230946-0.8090668,0.3007507-1.2375031,0.3131924c-28.6976776,0.001091-57.3951378,0-86.092598,0.001091
	c-0.3476791,0.0104752-0.6783314-0.1239681-1.0271015-0.1104355c-0.3553143-0.1346626-0.7359505-0.2230568-1.0519791-0.4439278
	c-0.4092255-0.241169-0.6416664-0.6687279-0.9136086-1.0404129c-0.1152363-0.2298203-0.2315655-0.4574585-0.3430939-0.687933
	c-0.0748615-0.1931553-0.1505947-0.3863087-0.2420425-0.5726967c-0.0130033-0.057724-0.0264626-0.115345-0.0403757-0.1728573
	c-0.2073402-0.5486889-0.3987494-1.1047955-0.6215858-1.6486835c-0.1220026-0.3564091-0.2287283-0.7195816-0.3939466-1.0596218
	l-0.0421228-0.1730728c-0.1134911-0.2920227-0.2029762-0.5927773-0.3324003-0.8771591
	c-0.0855551-0.2612495-0.1750393-0.5216255-0.2883129-0.7715263c-0.1200399-0.3544445-0.2306929-0.7136879-0.3852167-1.0556908
	c-0.120039-0.3546619-0.2315664-0.7130337-0.3834705-1.0550365c-0.0864286-0.2632122-0.1746025-0.5264263-0.2976971-0.7752361
	l-0.0423412-0.1739464c-0.113492-0.2920227-0.2027578-0.5927763-0.3323994-0.8771591
	c-0.0855551-0.2612486-0.1748209-0.5216246-0.2891855-0.7715254c-0.1353168-0.4179554-0.2824192-0.8319817-0.4554949-1.2353134
	c-0.0216694,0.1241503-0.044733,0.2480536-0.0691862,0.371685c-0.0807543,0.1564884-0.1505947,0.3179951-0.2112694,0.4832115
	c-0.0678225,0.1583538-0.1312857,0.3185387-0.1903172,0.4803753c-0.0686865,0.1580381-0.1330223,0.3179331-0.192935,0.4795017
	c-0.0682306,0.1583366-0.1322737,0.3184443-0.1920633,0.4801559c-0.0684252,0.1585732-0.1329021,0.3188219-0.1933727,0.4805956
	c-0.0687408,0.1586094-0.132143,0.3194771-0.1900988,0.482338c-0.1778755,0.3764877-0.3304348,0.7638874-0.4775372,1.152813
	c-0.0699883,0.1577415-0.1344118,0.3178921-0.1931543,0.4801579c-0.0697508,0.1579876-0.1341724,0.3182755-0.1931534,0.4805927
	c-0.0693817,0.157856-0.1334391,0.3179989-0.1920633,0.4801579c-0.069747,0.1576195-0.1341686,0.3175449-0.1931534,0.4795017
	c-0.0690565,0.1577702-0.13311,0.3176842-0.1920633,0.4795017c-0.0691862,0.1593246-0.1335707,0.3188667-0.1920633,0.4823399
	c-0.0818443,0.1863861-0.1549597,0.3756142-0.2298203,0.5648384c-0.0624208,0.1296425-0.1248407,0.2595043-0.186389,0.3891449
	c-0.3033714,0.4919415-0.6464653,0.9723186-1.144083,1.28442c-0.0480161,0.0261917-0.1423011,0.0787888-0.1894441,0.105854
	c-0.3736491,0.099741-0.7492633,0.266922-1.1440835,0.2045021c-0.1634717-0.034483-0.3230143-0.0796623-0.4871411-0.1065083
	c-0.287221-0.1623802-0.5572004-0.355751-0.7830925-0.5975761c-0.0701189-0.1385612-0.1431036-0.2756538-0.2189078-0.41119
	c-0.0903568-0.6514854,0.0392857-1.3007889,0.3142848-1.8937836c0.0689678-0.1575794,0.1342258-0.3169041,0.193809-0.4792843
	c0.0691862-0.1586685,0.1335707-0.3179951,0.1920624-0.4803734c0.0694051-0.1586704,0.1337895-0.3179951,0.1922812-0.4803753
	c0.0691862-0.1575794,0.1344438-0.3171234,0.1931543-0.4795017c0.0686412-0.1578712,0.132689-0.3176994,0.1920624-0.4792843
	c0.0683136-0.159544,0.1335711-0.3190861,0.1931543-0.4803753c0.0672221-0.1595421,0.1326981-0.3190842,0.1920629-0.4803734
	c0.0683131-0.1586704,0.1326976-0.3190861,0.1931539-0.4803753c0.0672221-0.1586685,0.1326981-0.3190861,0.1903167-0.4823399
	c0.2468443-0.5342827,0.4544029-1.0855904,0.669601-1.6334066c0.0691862-0.1584511,0.1353164-0.3179951,0.1942449-0.4801569
	c0.0680952-0.1586704,0.1333528-0.3182135,0.1920633-0.4805937c0.0691862-0.157361,0.1335707-0.3179951,0.1920633-0.4792833
	c0.0691862-0.158453,0.1344442-0.3179951,0.1931534-0.4803762c0.0680952-0.158452,0.1335707-0.3179951,0.1920633-0.4803753
	c0.0683126-0.158452,0.1335707-0.3179951,0.1931534-0.4803753c0.0672216-0.158452,0.1326981-0.3179951,0.1920633-0.4795017
	c0.0683126-0.158452,0.1326981-0.3188677,0.1920624-0.4812479C9.2586155,9.8711243,9.501749,9.1947575,9.6852999,8.4991846
	c0.1364079-0.5041652,0.2123604-1.0644207,0.019206-1.5631294c-0.3007517-0.520752-0.8051357-0.9096799-1.3931093-1.0460877
	c-0.61482-0.0866466-1.2575755-0.0392857-1.8311448,0.2160707c-0.129642,0.0595832-0.2584119,0.1220036-0.3823795,0.1920624
	C5.1063476,6.9216499,4.2562513,7.8911309,4.008316,9.0622778C3.9210148,9.3379316,3.9563715,9.6330099,3.9101019,9.9163027
	c0.0261905,0.3852167,0.0491071,0.7743626,0.2450981,1.119421c0.2724624,0.4578285,0.6751809,0.8240747,1.1567421,1.051981
	c0.1988287,0.0864277,0.3978758,0.1756935,0.6071806,0.2363682c0.29461,0.1519413,0.5618458,0.3519068,0.7907314,0.5916843
	c0.0220432,0.0519438,0.0654755,0.1567049,0.0864282,0.2084322c0.0403767,0.1019239,0.0818448,0.2029753,0.1259317,0.3035898
	c0.139246,0.9118614-0.4843035,1.7650137-1.2942414,2.1214209c-0.7387872,0.214325-1.5476336,0.1759119-2.2894762-0.0076399
	c-0.1569667-0.0744104-0.3171787-0.1417723-0.4801571-0.2018852c-0.1606843-0.101552-0.3247595-0.1976385-0.4919426-0.2880936
	c-0.7562474-0.512023-1.3029716-1.2567024-1.7602119-2.0330286c-0.0921029-0.2304754-0.1785312-0.4631338-0.284384-0.6868429
	c-0.2542633-0.8887272-0.3697193-1.8110657-0.3033703-2.7353668c0.1276781-0.7184896,0.2265468-1.4524746,0.4965261-2.140409
	C0.618845,7.2330976,0.7070194,7.0032763,0.7993404,6.7756386c0.135317-0.2219634,0.2719436-0.4439273,0.3967844-0.6715651
	c0.1307336-0.1911898,0.259503-0.38238,0.3863082-0.576407c0.6340256-0.811902,1.3747768-1.5408676,2.2250912-2.1270959
	c0.0979955-0.0654759,0.1968646-0.1316066,0.2939873-0.1999199C4.4790893,2.9950559,4.864306,2.8049576,5.2514877,2.6185694
	C5.4457331,2.5589862,5.6377959,2.4926374,5.8289857,2.4234507z M103.6356735,5.0416164
	c0.4832077-0.1911898,1.0068054-0.1739483,1.516861-0.1394639c0.3094864,0.1471028,0.5746613,0.3651376,0.8025208,0.6198392
	c0.0218277,0.0508528,0.0661316,0.1545234,0.0872955,0.2064672c0.0392838,0.1027975,0.0827179,0.2064676,0.1287689,0.308392
	c0.0279388,0.3112292-0.0375366,0.6139464-0.1163254,0.9136081c-0.0707932,0.1929741-0.1364441,0.3877978-0.1968689,0.5842643
	c-0.1575699,0.3103561-0.3103485,0.6244221-0.4284286,0.9520206c-0.0547867,0.0940666-0.1086884,0.1883516-0.1623764,0.2824192
	c0.3993988,0.0711508,0.8079681,0.0501986,1.2123947,0.0768251c0.1008301,0.0423412,0.2047195,0.0818453,0.3103561,0.1182938
	c0.2632065,0.1691465,0.5523987,0.3564072,0.6368561,0.6809492c0.1798477,0.4037685,0.0711517,0.8522787-0.0248795,1.2625952
	c-0.2383347,0.5495615-0.7599564,0.8588266-1.2874756,1.0838451c-0.6992874,0.1708927-1.41996,0.1025791-2.1327667,0.1141462
	l-0.0355759,0.2191267c-0.0807571,0.158452-0.1508179,0.3219233-0.2123566,0.4888878
	c-0.0680084,0.1583242-0.1313934,0.3185902-0.1901016,0.4805927c-0.0690536,0.1579943-0.1331024,0.3181267-0.1920624,0.4801579
	c-0.0691376,0.1581345-0.1332626,0.3184118-0.1922836,0.4805937c-0.0690536,0.1579933-0.13311,0.3181248-0.1920624,0.4801559
	c-0.0693054,0.1583614-0.1334381,0.3189344-0.1922836,0.4814672c-0.0695114,0.1574669-0.1332855,0.3174067-0.1911926,0.4795017
	c-0.0697784,0.1576786-0.1345596,0.3175211-0.194252,0.4792833c-0.0709305,0.1652184-0.1372833,0.3324013-0.189003,0.5043831
	c-0.031868,0.0327377-0.0960312,0.0960312-0.1278992,0.1287689c0.8367844,0.0355759,1.6842651-0.0759525,2.5066376,0.1180744
	c0.1959915,0.0990887,0.3928528,0.1979561,0.5899353,0.2990074c0.107605,0.1700191,0.2180328,0.3380756,0.3273849,0.5072212
	c-0.0017471,0.3863068,0.0702744,0.7944412-0.0892715,1.1595783c-0.0768204,0.2064686-0.2103882,0.3841267-0.3273773,0.5676765
	c-0.2518616,0.1846428-0.5046005,0.3688488-0.7859344,0.505476c-0.8110275,0.2171612-1.658287,0.1075974-2.486557,0.1344433
	c-0.8348236-0.0305557-1.687973,0.0894833-2.5035858-0.1344433c-0.5063477-0.2200012-0.9483109-0.5764065-1.1866455-1.0847187
	c-0.0499802-0.4015865-0.2055893-0.8127747-0.0469208-1.2113075c0.0807495-0.4496002,0.2717209-0.8610077,0.4474182-1.2778721
	c0.0674362-0.1586704,0.1318207-0.3179951,0.1903152-0.4803753c0.0683136-0.1586695,0.1335678-0.3179951,0.1931534-0.4803743
	c0.0672302-0.1586695,0.1316071-0.3179951,0.1911926-0.4803743c0.0683136-0.1586695,0.1326981-0.3179951,0.1920624-0.4803743
	c0.0683136-0.1586695,0.1326981-0.3179951,0.1914139-0.4803743c0.2660522-0.6235495,0.4880142-1.2663059,0.7732697-1.8822165
	c-0.6416626,0.0414677-1.4219208-0.0951586-1.7438354-0.725255c-0.0440903-0.2498999-0.1556244-0.4947796-0.1093521-0.7523184
	c0.037323-0.1970825,0.085556-0.391983,0.1056366-0.5908117c0.2372437-0.5091848,0.6783295-0.8686476,1.1873016-1.0858088
	c0.5554581-0.1708927,1.1377563-0.1209126,1.710228-0.1477575c0.3230209-0.1270237,0.3190918-0.5890656,0.4794998-0.8686476
	c0.0681-0.1575789,0.1324844-0.3179951,0.19207-0.4801574c0.068306-0.1586704,0.1335678-0.318213,0.1931534-0.4805932
	c0.0683136-0.158452,0.1335678-0.3199592,0.1892242-0.484086c0.0942917-0.1942453,0.1903229-0.3871813,0.2863541-0.5805535
	c0.2708511-0.3169036,0.5667953-0.613728,0.8963623-0.8701754L103.6356735,5.0416164z M29.3641071,8.6547976
	c0.467062-0.0458326,0.9378338-0.0152769,1.4055519-0.0017452c0.4057312,0.1420832,0.8110294,0.2843838,1.1838036,0.5013275
	c0.3852177,0.3422213,0.7494831,0.7139063,0.9915257,1.1750755c0.1124001,0.4408712,0.2536087,0.8887262,0.2084312,1.3498964
	c-0.0643845,0.5235882-0.2381134,1.024044-0.41119,1.5199146c-0.5216255,1.1894808-0.9875946,2.4038401-1.4583683,3.6134014
	c0.8636265,0.025753,1.7379475-0.0759525,2.5871754,0.1124001c0.3134117,0.1353188,0.5822983,0.3457127,0.8031693,0.605217
	c0.1999207,0.4939079,0.1154556,1.0308094-0.0229149,1.5284271c-0.2499008,0.3134098-0.5360298,0.5967045-0.8810883,0.8031712
	c-0.2007942,0.0606747-0.3994064,0.1287689-0.5927773,0.2106133c-1.5224323,0.0438137-3.0457973,0.0443974-4.5682583,0.0017471
	c-0.3219261-0.1708908-0.6656742-0.3160305-0.9367428-0.5648384c-0.1968651-0.2151985-0.325634-0.4803753-0.4631348-0.7331123
	c-0.0144043-0.2103958-0.0364475-0.4197006-0.0903568-0.6224575c0.0615463-0.1999207,0.0798798-0.4083519,0.0903568-0.6159115
	c0.0144062-0.0220432,0.0443058-0.0672207,0.0595837-0.0894833c0.0443058-0.1612892,0.0971241-0.3197403,0.1451397-0.4801579
	c0.1420822-0.3151569,0.268013-0.6379528,0.3908901-0.9607506c0.0691872-0.1586685,0.1346645-0.3179941,0.1931534-0.4803743
	c0.0691872-0.1586695,0.1335716-0.3179951,0.1920643-0.4803743c0.0694027-0.1575785,0.1346626-0.3171225,0.1931534-0.4784107
	c0.0683136-0.159544,0.1326981-0.3199606,0.1931534-0.4814672c0.0683136-0.158452,0.1326981-0.3179951,0.1920624-0.4792843
	c0.2018852-0.3967838,0.3027172-0.8302345,0.2566662-1.2759075c-0.1527767-0.1615086-0.3286896-0.2959518-0.5179157-0.4103165
	c-0.132473-0.0093889-0.2647533-0.0212498-0.3967838-0.0355749c-0.7916031-0.0661316-1.3996582,0.5275173-1.8224125,1.1240044
	c-0.111311,0.1826782-0.2143269,0.3710308-0.3151588,0.560256c-0.7542839,1.7091408-1.4018402,3.4636793-2.1078892,5.1937723
	c-0.1253853,0.1940956-0.242403,0.3934708-0.3507328,0.597578c-0.3217049,0.381506-0.7023392,0.713686-1.1739845,0.893528
	c-0.1719837,0.0211716-0.3411293,0.0536919-0.5083122,0.0940685c-0.2496796,0.0683136-0.4888859-0.0632954-0.733984-0.092104
	c-0.3112297-0.1326981-0.5716057-0.3487682-0.7887669-0.6045589c-0.0296822-0.052599-0.0912304-0.1582336-0.1209126-0.2112713
	c-0.0731144-0.5484695-0.0106945-1.1019611,0.2160702-1.6080894c0.0711498-0.1575794,0.1374989-0.3182144,0.1968651-0.4803753
	c0.0683136-0.1586685,0.1326981-0.3182125,0.1911888-0.4803734c0.0683136-0.1586704,0.1326981-0.3179951,0.1920624-0.4803753
	c0.0683136-0.1586685,0.1326981-0.3179951,0.1922798-0.4803743c0.0683136-0.1586695,0.1326981-0.3179951,0.1911907-0.4803743
	c0.0691853-0.1586695,0.1335697-0.3179951,0.1920624-0.4803753c0.0694199-0.1578283,0.1332626-0.3180532,0.1914063-0.4803743
	c0.5792446-1.4411259,1.164381-2.8813782,1.7272568-4.3292704c0.0632935-0.1276779,0.1268063-0.2553558,0.1911907-0.3832521
	c0.2595024-0.4179554,0.6514854-0.7099781,1.0934486-0.9144812c0.5063477-0.0202971,1.0345192-0.0875196,1.5168591,0.110218
	c0.3162479,0.1920633,0.5630932,0.46597,0.7534103,0.7813463c0.1353188-0.0971231,0.2736893-0.1903172,0.4103165-0.2854748
	c0.2640858-0.1451387,0.5168247-0.3083916,0.7809086-0.4524384c0.3727741-0.1346626,0.7486057-0.2691069,1.1392822-0.3422213
	L29.3641071,8.6547976z M40.4262695,8.7634888c0.7514458-0.1702375,1.5255928-0.1403379,2.2914391-0.1143646
	c0.4247208,0.0480156,0.8359108,0.1739483,1.2403336,0.3083916c0.4120636,0.1844234,0.7887688,0.4332323,1.1615448,0.6859703
	c0.2305717,0.2234402,0.4575844,0.4505243,0.6809502,0.6811676c0.1250572,0.1988287,0.2557907,0.3928556,0.3902359,0.58601
	c0.0988693,0.1931534,0.1959877,0.3871813,0.2959518,0.5794621c0.1287689,0.4081335,0.2248001,0.8271799,0.3007545,1.2479715
	c0.0248795,0.3812885,0.008728,0.7638865,0.0124397,1.1460476c0.0259743,0.4862671-0.1652184,0.9446001-0.2151947,1.4230099
	c-0.1048927,0.2890749-0.202919,0.5805979-0.2939873,0.8743219c-0.4766655,1.0912666-1.1270599,2.1203289-2.0367393,2.9014587
	c-0.5331917,0.3852158-1.1115646,0.704958-1.7477722,0.884798c-1.1065445,0.1959915-2.2384033,0.1228771-3.358696,0.1124001
	c-0.7695618-0.0807533-1.5736046-0.2171631-2.2010841-0.7062664c-0.58601-0.5072212-1.0567818-1.1355724-1.3640823-1.8475132
	c-0.0310097-0.0986652-0.064045-0.196682-0.0990868-0.2939873c-0.3487701-1.2815838-0.2776184-2.6430464,0.0979958-3.9102249
	c0.0739899-0.1593246,0.1392479-0.3236694,0.195118-0.4899778c0.1229935-0.2600298,0.2517929-0.5172682,0.3863106-0.7715254
	c0.5521812-0.9057512,1.292057-1.6803322,2.1356087-2.3191586c0.0988693-0.066349,0.1979561-0.1324797,0.2959518-0.1999197
	c0.3142853-0.1708927,0.6340256-0.3304358,0.9559517-0.4869232c0.2928925-0.0923214,0.5860062-0.1883516,0.8760643-0.2911491
	L40.4262695,8.7634888z M51.1876831,9.1947575c0.6071815-0.251646,1.229641-0.5041656,1.8915977-0.5495625
	c0.776329-0.0209522,1.5718613-0.0709324,2.3106499,0.2134523c0.5849152,0.2516451,1.1288033,0.6032515,1.5574532,1.0796976
	c0.69841,0.9214649,0.8876305,2.1550322,0.5879745,3.2589569c-0.0740547,0.1563873-0.1410522,0.3160191-0.200798,0.4784117
	c-0.0683098,0.1008329-0.1335716,0.2036295-0.1970863,0.307519c-0.1296387,0.1335707-0.2612457,0.2651768-0.3908882,0.3987494
	c-0.1326981,0.0661306-0.2640839,0.1353178-0.3950386,0.205595c-0.6311874,0.2468433-1.420826,0.1324797-1.859951-0.4142456
	c-0.2027588-0.417737-0.0807533-0.8924379-0.1564865-1.3335276c-0.0327377-0.1717644-0.0462723-0.3468046-0.0539093-0.5216246
	c-0.1228752-0.231349-0.3103561-0.4631338-0.587101-0.4967451c-0.3668823-0.0087299-0.7645416-0.0604563-1.0864639,0.159543
	c-0.4572411,0.2160711-0.7675972,0.6235495-1.0482674,1.0279722c-0.0777779,0.1232672-0.1539536,0.2475367-0.2285118,0.372777
	c-0.1586723,0.3361101-0.3027153,0.687933-0.3230133,1.0635471c-0.1516876,0.5967045-0.0517273,1.2759085,0.3238869,1.7715616
	c0.4035492,0.4207916,1.0214233,0.493906,1.5670547,0.5890636c1.249939,0.0211716,2.5016212-0.0019646,3.7526436,0.0096035
	c0.3217049,0.034483,0.6368637,0.1248398,0.9500542,0.2073402c0.1730766,0.1270237,0.3439636,0.2566662,0.5043831,0.4015846
	c0.0261917,0.0539093,0.0787888,0.1625996,0.1047668,0.2173805c0.0250969,0.1900997,0.0702744,0.3775787,0.1067276,0.566803
	c-0.0519447,0.2852573-0.1134911,0.5696411-0.2018814,0.8472614c-0.1104393,0.1307316-0.2141037,0.2662678-0.314064,0.4044209
	c-0.1353188,0.0971241-0.2671432,0.1979561-0.3959122,0.3018456c-0.0469246,0.0259724-0.1420822,0.0768242-0.1892281,0.1025791
	c-0.3507309,0.1182938-0.7023354,0.2557926-1.0799141,0.2287292c-1.8060455-0.0008736-3.6131821,0.0375385-5.4185715-0.0240078
	c-0.1305161-0.0488892-0.2640877-0.0825005-0.3987465-0.1141472c-0.1895828-0.0829811-0.3821335-0.1589832-0.577282-0.2278557
	c-0.2707329-0.1697445-0.5315323-0.3548355-0.7811279-0.5543633c-0.2756538-0.2189083-0.4554939-0.5272999-0.6936073-0.7811298
	c-0.170311-0.3169022-0.3330269-0.6378269-0.4880142-0.9624977c-0.5142059-1.525589-0.3699417-3.2022104,0.1959877-4.6924438
	c0.1265869-0.2584114,0.2536125-0.5168238,0.390892-0.7695608c0.104763-0.1556149,0.1988297-0.3169041,0.2911491-0.4792843
	c0.5467262-0.7387867,1.2019234-1.3998756,1.9435463-1.9424534c0.1987534-0.1117973,0.3945198-0.2288227,0.587101-0.3509521
	L51.1876831,9.1947575z M77.2084885,8.6578541c0.9974136-0.0539083,2.0262604-0.0846825,2.9695435,0.3005342
	c0.9640427,0.4252424,1.7678909,1.1460094,2.295372,2.0581284c0.0414658,0.0938492,0.084465,0.1872616,0.1276779,0.2815466
	c0.0587082,0.165,0.1250534,0.3284712,0.200798,0.4877958c0.3919754,1.3450947,0.2450943,2.785347-0.1940308,4.101634
	c-0.0748596,0.1584511-0.1412125,0.3208313-0.1959915,0.4869232c-0.1527863,0.3247604-0.3131943,0.6447201-0.4812469,0.9607506
	c-0.5198822,0.8494415-1.1886139,1.6131096-2.0406723,2.1406269c-0.1931534,0.0971222-0.3852158,0.1942463-0.5774994,0.291151
	c-0.1996994,0.0604553-0.3976517,0.1265869-0.5916824,0.2007923c-1.1021729,0.1948986-2.2281494,0.1209126-3.3425446,0.1143646
	c-0.3188705,0.0161495-0.6198425-0.1163292-0.9376144-0.1134911c-0.3121033-0.1172028-0.6427612-0.1942444-0.9291-0.3688488
	c-0.5390854-0.3219223-0.951149-0.8079739-1.3228378-1.3038445c-0.1346588-0.2544823-0.2623367-0.5111485-0.391983-0.7675953
	c-0.3959045-1.1298981-0.3902283-2.3549528-0.1931534-3.5210791c0.0421219-0.1316061,0.0728989-0.2662687,0.1047668-0.400712
	c0.0661316-0.1920633,0.1296387-0.3852167,0.1892242-0.5792437c0.1855164-0.3882723,0.3747406-0.7743626,0.5812073-1.1519413
	c0.0672226-0.0971222,0.1344452-0.195118,0.2016678-0.2920227c0.0999603-0.1278963,0.1970901-0.2584124,0.2883148-0.3928556
	c0.4832153-0.5161695,0.9675217-1.0406313,1.5487289-1.4489832c0.0979996-0.0654755,0.1951218-0.1316061,0.2931137-0.1999197
	c0.7416229-0.4293041,1.5504684-0.7435894,2.3979416-0.8839254V8.6578541z M87.4943237,8.7626162
	c0.5916824-0.1914082,1.3411636-0.253828,1.8330994,0.1997013c0.2324448,0.1855154,0.3753967,0.4487286,0.5100632,0.7071409
	c0.022049,0.4120626,0.0096054,0.8252153-0.1191635,1.2211275c-0.1416092,0.3166313-0.2723465,0.6380157-0.391983,0.9635878
	c-0.0711441,0.1575785-0.1353149,0.3179951-0.1931534,0.4803753c-0.0700912,0.1575222-0.133873,0.3177748-0.1911926,0.4803753
	c-0.1346588,0.3175669-0.2627258,0.637886-0.3841324,0.9607506c-0.0702744,0.1575794-0.1355286,0.3179941-0.1931534,0.4803753
	c-0.0702667,0.1581602-0.1334,0.3193941-0.1892242,0.4832125c-0.047142,0.1019249-0.0923233,0.2047224-0.1375046,0.307518
	c-0.028801,0.0903568-0.0584869,0.1804962-0.0894852,0.2699785c-0.0316391,0.0960321-0.0622025,0.1920624-0.0938416,0.2872219
	c-0.0357971,0.0951576-0.0731125,0.1903172-0.1097794,0.2852573c-0.0835953,0.2479362-0.106514,0.5139866,0.0386276,0.7464256
	c0.2324448,0.2173805,0.558075,0.1818047,0.8520584,0.1818047c0.4430542,0.0240078,0.8703995-0.140337,1.2615051-0.3354568
	c0.4419632-0.2957325,0.7887726-0.7243814,0.9376144-1.2392416c0.0663452-0.1593246,0.1307297-0.3199596,0.1903152-0.4823389
	c0.0672302-0.1584511,0.1316071-0.3179951,0.19207-0.4803743c0.0672226-0.158452,0.1315994-0.3188677,0.1920624-0.4803753
	c0.0674362-0.158453,0.1318207-0.3188677,0.1922836-0.4803753c0.0672226-0.158453,0.1316071-0.3188677,0.1920624-0.4801579
	c0.0674362-0.1597605,0.1316071-0.3190861,0.1920624-0.4814663c0.0665665-0.1586704,0.1318283-0.3179951,0.1914139-0.4795027
	c0.0672226-0.158452,0.1335678-0.3188677,0.1931534-0.4801569c0.0672226-0.1597614,0.1316071-0.3210506,0.1881332-0.4853945
	c0.1473618-0.3272333,0.3079758-0.6483316,0.4814682-0.9624968c0.0672226-0.0990868,0.1324768-0.1990471,0.1979599-0.29988
	c0.2948608-0.347023,0.6744003-0.605216,1.0807877-0.8071012c0.375618-0.026845,0.7540588-0.0316467,1.1305466-0.0019636
	c0.308609,0.149066,0.5737915,0.3662291,0.8014297,0.6198387c0.0220413,0.0508537,0.0663452,0.1536503,0.0883865,0.205595
	c0.038414,0.1017056,0.0816269,0.2036295,0.1268082,0.3044634c0.0547791,0.6244221-0.2296066,1.2038841-0.4111938,1.7859659
	c-0.0720139,0.1575785-0.1383667,0.3179951-0.1979523,0.4803753c-0.0683594,0.1582441-0.1321182,0.3184366-0.1911926,0.4803753
	c-0.0692215,0.1579971-0.1332779,0.3182068-0.1920624,0.4803753c-0.0690079,0.1579332-0.1334229,0.3178339-0.193161,0.4795017
	c-0.0682297,0.1584082-0.1322784,0.3185902-0.1920624,0.4803743c-0.0696945,0.1581039-0.1328278,0.3190212-0.1892242,0.4823399
	c-0.3199615,0.7128143-0.6023865,1.4420004-0.8782501,2.1722746c0.9635925,0.0218258,1.948349-0.0942841,2.8822479,0.2095222
	c0.1787491,0.1728573,0.3900146,0.3321838,0.4862671,0.5713863c0.0545654,0.1815872,0.0709381,0.373867,0.1220016,0.5582924
	c-0.068306,0.3027172-0.0942841,0.6139469-0.1951218,0.9088058c-0.1815872,0.2843857-0.4140244,0.5294838-0.7042999,0.7034302
	c-0.1324768,0.065258-0.2640839,0.1305161-0.3939438,0.1986122c-0.620491,0.1876965-1.273941,0.1259327-1.9127731,0.1374989
	c-0.8607864-0.0065479-1.7215805,0.0192051-2.5814972-0.0240078c-0.3612137-0.1623821-0.659996-0.4216652-0.9155731-0.718708
	c-0.0056763-0.0412502-0.0183411-0.1248417-0.0251007-0.1660919c-0.1984177,0.1963596-0.401825,0.3876133-0.6100159,0.5735703
	c-0.1316071,0.0624199-0.2621231,0.1259327-0.390892,0.1892242c-0.1027985,0.0364475-0.2038422,0.0759525-0.3027115,0.1182938
	c-1.1999588,0.0458317-2.402977,0.0432129-3.6027069-0.001091c-0.1027985-0.0414696-0.2047195-0.0785713-0.307518-0.1134911
	c-0.3880539-0.1746025-0.776329-0.3736496-1.0759888-0.6820412c-0.3112259-0.2996616-0.5024185-0.6927376-0.6870651-1.0768604
	c-0.1392441-0.465971-0.1364059-0.9531116-0.1075974-1.4343605c0.0923233-0.4554939,0.2518616-0.8935289,0.4037704-1.332655
	c0.0720215-0.1575785,0.1372833-0.3179951,0.1968689-0.4803743c0.0680923-0.1584511,0.1324768-0.3179951,0.191185-0.4803743
	c0.0681-0.158452,0.1333542-0.3179951,0.1929398-0.4803753c0.0672226-0.158452,0.1326981-0.3179951,0.1920624-0.4803753
	c0.0683136-0.158452,0.1326981-0.3179951,0.1922836-0.4803753c0.0683136-0.158452,0.1326981-0.3179951,0.1920624-0.4801569
	c0.0683136-0.1586704,0.1326981-0.3182135,0.19207-0.4805937c0.068306-0.158452,0.1326981-0.3179951,0.1922836-0.4801569
	c0.0672226-0.1586704,0.1326981-0.3182135,0.1931534-0.4797211c0.0672226-0.1604166,0.1326981-0.3208323,0.1872635-0.4860506
	c0.1230927-0.259284,0.2527313-0.5159502,0.3823776-0.7726164c0.280571-0.4364376,0.6515121-0.8075991,1.0877762-1.0884285
	L87.4943237,8.7626162z M40.3985481,12.2507381c0.3428764-0.2392054,0.7444611-0.3784513,1.1576157-0.4275579
	c0.2324409-0.0056744,0.4524384,0.0855551,0.6820412,0.1075993c0.385437,0.186388,0.6947021,0.5043831,0.8915672,0.8819609
	c0.2891846,1.0068016,0.0750771,2.1310244-0.5187874,2.990943c-0.2304764,0.3623018-0.5495644,0.6667643-0.9347801,0.8577356
	c-0.6503944,0.2710686-1.4007492,0.2623405-2.053978,0.0050201c-0.2584152-0.186388-0.5342865-0.3939476-0.6438484-0.7062683
	c-0.2496796-0.7560282-0.0979958-1.5871372,0.2459717-2.290349c0.2767448-0.5543633,0.6630516-1.06071,1.174202-1.4190817
	L40.3985481,12.2507381z M76.9836807,12.0250645c0.3967819-0.1250591,0.8252106-0.2922411,1.2403336-0.1355352
	c0.5187912,0.0759525,0.8992004,0.4987087,1.1288071,0.9424181c0.229599,0.7898579,0.1259308,1.6467209-0.200798,2.3942366
	c-0.0720215,0.1335716-0.1468887,0.2662697-0.2256699,0.3950377c-0.0643921,0.0949402-0.1268082,0.1898813-0.1894531,0.28613
	c-0.1869812,0.2883959-0.4389648,0.528945-0.7357254,0.7023382c-0.3402557,0.1883526-0.7246094,0.2151985-1.1010971,0.2671432
	c-0.5840378-0.0423412-1.2903061-0.140337-1.6006699-0.711071c-0.4360657-0.7830915-0.2171631-1.7379494,0.1462326-2.504673
	c0.3417892-0.6763659,0.8481293-1.2959871,1.5380325-1.6360254L76.9836807,12.0250645z M108.5230103,16.6452656
	c0.482338-0.3055534,1.045433-0.3623009,1.603508-0.3066444c0.1047592,0.0414677,0.2112656,0.0798798,0.3208313,0.1154556
	c0.4461899,0.2222786,0.8205338,0.5660534,1.0799179,0.9917431c0.2422638,0.5417042,0.2939835,1.1480122,0.0988693,1.7139416
	c-0.0691833,0.1305141-0.1353149,0.2632122-0.1986084,0.3956928c-0.2182541,0.2459717-0.4537506,0.4747009-0.6938248,0.6966648
	c-0.5870972,0.3024998-1.2999115,0.3092651-1.9167023,0.0988693c-0.0480118-0.027935-0.1451416-0.0816269-0.1931534-0.1084728
	c-0.520752-0.3238869-0.8817444-0.8627548-1.0068054-1.461422c-0.0174561-0.2765274-0.0056763-0.5552368,0-0.8328552
	c0.0414658-0.1027966,0.0807495-0.206686,0.1200333-0.3103561c0.061554-0.1316051,0.1259384-0.2623405,0.1892319-0.3928566
	c0.1951218-0.2038479,0.3939438-0.4037666,0.5967026-0.5995407V16.6452656z"/>
</svg>
