<?xml version="1.0" encoding="utf-8"?>
<!-- Generator: Adobe Illustrator 23.0.0, SVG Export Plug-In . SVG Version: 6.00 Build 0)  -->
<!DOCTYPE svg PUBLIC "-//W3C//DTD SVG 1.1//EN" "http://www.w3.org/Graphics/SVG/1.1/DTD/svg11.dtd" [
	<!ENTITY ns_extend "http://ns.adobe.com/Extensibility/1.0/">
	<!ENTITY ns_ai "http://ns.adobe.com/AdobeIllustrator/10.0/">
	<!ENTITY ns_graphs "http://ns.adobe.com/Graphs/1.0/">
	<!ENTITY ns_vars "http://ns.adobe.com/Variables/1.0/">
	<!ENTITY ns_imrep "http://ns.adobe.com/ImageReplacement/1.0/">
	<!ENTITY ns_sfw "http://ns.adobe.com/SaveForWeb/1.0/">
	<!ENTITY ns_custom "http://ns.adobe.com/GenericCustomNamespace/1.0/">
	<!ENTITY ns_adobe_xpath "http://ns.adobe.com/XPath/1.0/">
]>
<svg version="1.1" xmlns:x="&ns_extend;" xmlns:i="&ns_ai;" xmlns:graph="&ns_graphs;"
	 xmlns="http://www.w3.org/2000/svg" xmlns:xlink="http://www.w3.org/1999/xlink" x="0px" y="0px" viewBox="0 0 63.1284218 42"
	 enable-background="new 0 0 63.1284218 42" xml:space="preserve">
<metadata>
	<sfw  xmlns="&ns_sfw;">
		<slices></slices>
		<sliceSourceBounds  bottomLeftOrigin="true" height="42" width="63.1284218" x="2289.435791" y="-405"></sliceSourceBounds>
	</sfw>
</metadata>
<g id="Inspo">
</g>
<g id="Work_x5C_">
	<g>
		<path fill="#FFFFFF" d="M18.0148506,42c-0.418211,0-0.8333321-0.1380653-1.174633-0.4067802L0.7233738,28.8986549
			C0.2665549,28.5388222,0,27.9893417,0,27.4077396s0.2665549-1.1310825,0.7233738-1.4909153l16.1168442-12.6945629
			c0.5707912-0.4500246,1.348526-0.5337276,2.0027142-0.2165184c0.6541862,0.3175182,1.0693073,0.9806623,1.0693073,1.7074337
			v4.3890457l25.2016411,0.000309c1.0479965,0,1.8976974,0.8497009,1.8976974,1.8976974v2.3764458l11.1523743-8.7842655
			L47.0115776,5.8081427v2.3767557c0,1.0479965-0.8497009,1.8976974-1.8976974,1.8976974H31.7191086V6.2872h11.4970741V1.8978466
			c0-0.7267714,0.4151192-1.3899156,1.0693092-1.7071252c0.6538773-0.3178274,1.4316101-0.2335058,2.0027122,0.2162091
			l16.1168442,12.694562c0.4568176,0.3598337,0.7233734,0.9093132,0.7233734,1.4909163
			c0,0.5816021-0.2665558,1.1310825-0.7233734,1.4909153L46.2882042,28.7778873
			c-0.5714111,0.4497147-1.348835,0.5337276-2.0027122,0.2162094c-0.6541901-0.3172092-1.0693092-0.9803543-1.0693092-1.7071247
			v-4.3890457l-25.2016411-0.000309c-1.0479965,0-1.8976974-0.8497009-1.8976974-1.8976974v-2.3764477L4.9644694,27.4077396
			l11.1523743,8.7842655v-2.3767548c0-1.0479965,0.8497009-1.8976974,1.8976974-1.8976974h13.3947716v3.7953949H19.9122391
			v4.3893547c0,0.7267723-0.4151211,1.3899155-1.0693073,1.7074318C18.5797729,41.9372978,18.2965393,42,18.0148506,42z"/>
	</g>
</g>
</svg>
