<?xml version="1.0" encoding="utf-8"?>
<!-- Generator: Adobe Illustrator 23.0.0, SVG Export Plug-In . SVG Version: 6.00 Build 0)  -->
<!DOCTYPE svg PUBLIC "-//W3C//DTD SVG 1.1//EN" "http://www.w3.org/Graphics/SVG/1.1/DTD/svg11.dtd" [
	<!ENTITY ns_extend "http://ns.adobe.com/Extensibility/1.0/">
	<!ENTITY ns_ai "http://ns.adobe.com/AdobeIllustrator/10.0/">
	<!ENTITY ns_graphs "http://ns.adobe.com/Graphs/1.0/">
	<!ENTITY ns_vars "http://ns.adobe.com/Variables/1.0/">
	<!ENTITY ns_imrep "http://ns.adobe.com/ImageReplacement/1.0/">
	<!ENTITY ns_sfw "http://ns.adobe.com/SaveForWeb/1.0/">
	<!ENTITY ns_custom "http://ns.adobe.com/GenericCustomNamespace/1.0/">
	<!ENTITY ns_adobe_xpath "http://ns.adobe.com/XPath/1.0/">
]>
<svg version="1.1" id="Layer_1" xmlns:x="&ns_extend;" xmlns:i="&ns_ai;" xmlns:graph="&ns_graphs;"
	 xmlns="http://www.w3.org/2000/svg" xmlns:xlink="http://www.w3.org/1999/xlink" x="0px" y="0px"
	 viewBox="0 0 52.5602188 71.2113342" enable-background="new 0 0 52.5602188 71.2113342" xml:space="preserve">
<metadata>
	<sfw  xmlns="&ns_sfw;">
		<slices></slices>
		<sliceSourceBounds  bottomLeftOrigin="true" height="71.2113342" width="52.5602188" x="0.0000007" y="-0.0000035">
			</sliceSourceBounds>
	</sfw>
</metadata>
<g id="Inspo">
</g>
<path fill="#E92D2F" stroke="#E92D2F" stroke-width="0.09375" stroke-miterlimit="10" d="M33.4160194,0.1644625
	c1.625412,1.8505315,2.1618156,4.4965758,1.6946564,6.8832545c-0.501606,2.6806517-1.9888725,5.0499668-3.735548,7.0907555
	c-1.4007874,1.6429796-3.0093174,3.0957022-4.6867466,4.4446573c-1.9543343,1.573801-3.8740425,3.2687168-5.1019726,5.4823818
	c-1.0376701,1.7986126-1.2797775,4.0123634-0.5706844,5.96661c1.1586819,3.3551197,3.8566456,5.8455334,5.3266792,9.0104656
	c-1.6256676-1.435482-3.2167988-2.9227562-4.7041454-4.4965782c-1.5565071-1.6602898-3.0265408-3.4243488-3.9949646-5.499691
	c-0.6572456-1.4527416-0.9512005-3.1475697-0.4496765-4.6867657c0.501524-1.5738182,1.6256695-2.8363533,2.7498131-4.0123634
	c3.1303253-3.1303253,6.9871426-5.4304628,10.0481358-8.6126385c1.6950016-1.7467642,3.095787-3.8394189,3.5798302-6.2433405
	C33.9693069,3.7271345,33.7791367,1.9112093,33.4160194,0.1644625L33.4160194,0.1644625z"/>
<path fill="#E92D2F" stroke="#E92D2F" stroke-width="0.09375" stroke-miterlimit="10" d="M30.8562908,19.8629761
	c3.3552074-2.4731674,7.2809277-4.0469694,11.2586651-5.1883564c-3.1474648,2.0061131-6.4334221,3.8393326-9.1488686,6.4162159
	c-0.985651,0.9511986-1.9196262,2.0407887-2.3519878,3.3724327c-0.328661,0.9858055-0.1901703,2.0753422,0.2077408,3.0092983
	c0.7262325,1.660223,1.954073,3.0092297,2.8880482,4.5311146c0.7954788,1.2970886,0.9339714,2.9573822,0.3286629,4.3582535
	c-0.916748,2.058033-2.7154427,3.5626907-4.5830479,4.7559929c-0.2421913,0.1383247-0.4495869,0.3977394-0.743803,0.4323654
	c1.2454147-1.1241455,2.2138386-2.7152748,2.1790447-4.4274178c-0.0344543-1.2797737-0.7434597-2.4039192-1.5737362-3.3205643
	c-1.7122231-2.0407372-3.1475506-4.6349144-2.8535099-7.3847275C26.7576275,23.6677723,28.7289314,21.4540215,30.8562908,19.8629761
	L30.8562908,19.8629761z"/>
<path fill="#0774BA" stroke="#0774BA" stroke-width="0.09375" stroke-miterlimit="10" d="M42.7550621,39.8553963
	c0.7262306-0.8819695,1.8848305-1.1068497,2.9400711-1.2451744c1.833149-0.2421036,3.7872276,0.2247963,5.1707878,1.4873466
	c1.141716,1.020359,1.7814751,2.6114235,1.5392838,4.1506882c-0.2594185,1.7812996-1.4528122,3.2686462-2.8015785,4.3927917
	c-2.4384613,1.9542465-5.4477768,3.0957031-8.4570923,3.8568153c0.1729431-0.1904984,0.3631134-0.3634453,0.5880814-0.5016098
	c2.2827377-1.2280159,4.5482559-2.6634254,6.2260284-4.6696091c1.0204468-1.2452202,1.8159256-2.8709068,1.4872627-4.5138855
	c-0.3458939-1.9023972-2.1962662-3.2859612-4.08144-3.3897285C44.4669495,39.3365593,43.6197891,39.6824493,42.7550621,39.8553963
	L42.7550621,39.8553963z"/>
<path fill="#0774BA" stroke="#0774BA" stroke-width="0.09375" stroke-miterlimit="10" d="M7.9928956,41.4291954
	c3.1821761-1.3662491,6.6410794-2.2482872,10.1172981-2.1963501c-2.023407,0.5879936-4.098752,1.0895195-6.0011482,1.9888687
	c-0.4496756,0.2421074-0.9685106,0.4668999-1.2279291,0.9338875c-0.1384077,0.3632011,0.2421064,0.6053085,0.518836,0.7263336
	c1.175993,0.4842834,2.4730816,0.5534439,3.7356339,0.6745377c4.42733,0.2939568,8.872057,0.1210098,13.2822475-0.1557007
	c4.3580799-0.2766609,8.6817112-0.864727,12.9881191-1.5565071c-0.9511986,0.4496574-1.9196243,0.899334-2.8015747,1.4700356
	c-0.4499321,0.3113365-1.0032234,0.3978081-1.5048332,0.5188332c-5.2920551,1.1760635-10.722517,1.5392647-16.1184444,1.6257401
	c-2.0926533,0.0172424-4.1679974-0.0173149-6.2433405-0.1557045c-2.3174477-0.1556511-4.6522083-0.3285942-6.917809-0.9339027
	c-0.6571574-0.1902428-1.3489385-0.3977394-1.867774-0.864727c-0.259418-0.2074814-0.259418-0.6226044-0.0346236-0.864727
	C6.4883242,42.051815,7.283803,41.7750854,7.9928956,41.4291954L7.9928956,41.4291954z"/>
<path fill="#0774BA" stroke="#0774BA" stroke-width="0.09375" stroke-miterlimit="10" d="M12.0744209,48.8139915
	c0.8993502-0.7090912,1.9715576-1.1068306,3.0438528-1.4873466c-0.34589,0.4150543-0.8301888,0.8128777-0.8647261,1.383564
	c-0.017312,0.3632011,0.2767296,0.6399307,0.5706844,0.8128777c0.5707712,0.2939529,1.2106171,0.3977394,1.8505497,0.484211
	c3.3204975,0.34589,6.675703,0.5361481,10.0308247,0.3112831c3.0609951-0.1556511,6.1051044-0.6571732,9.1316471-1.1933212
	c0.8299294,0.7782516,1.8159256,1.3143997,2.8535957,1.7813873c-3.6494179,1.0722084-7.402195,1.6949158-11.1725349,1.9888
	c-3.562521,0.2421761-7.177145,0.2249527-10.7225227-0.34589c-1.4007883-0.2594185-2.8362856-0.5533028-4.1160622-1.2105446
	c-0.518836-0.2767334-1.1068325-0.6399345-1.2624655-1.2452431C11.3134794,49.5749359,11.6939068,49.1079636,12.0744209,48.8139915
	L12.0744209,48.8139915z"/>
<path fill="#0774BA" stroke="#0774BA" stroke-width="0.09375" stroke-miterlimit="10" d="M14.0806026,56.3543549
	c0.7955647-0.6397781,1.7813015-0.9684448,2.7498131-1.2450867c-0.3112679,0.2938843-0.864728,0.6570015-0.6226215,1.1586113
	c0.4669876,0.6053085,1.3317146,0.6745377,2.0234947,0.8302574c2.9227581,0.3631172,5.8801384,0.6053085,8.8029823,0.3803596
	c2.2134953-0.1381645,4.3928776-0.5360794,6.5546951-0.91642c1.2450638,0.7262344,2.5421562,1.3487854,3.8736992,1.9023972
	c-2.0405502,0.91642-4.2371597,1.5044861-6.4334297,1.9196243c-3.7010956,0.6570015-7.5231171,0.7434731-11.2414398,0.1557198
	c-1.6429806-0.2941971-3.3205833-0.6745567-4.80793-1.487587c-0.5706854-0.3283386-1.175992-0.7090073-1.4180984-1.3487854
	C13.3715105,57.2018356,13.6827774,56.6657753,14.0806026,56.3543549L14.0806026,56.3543549z"/>
<path fill="#0774BA" stroke="#0774BA" stroke-width="0.09375" stroke-miterlimit="10" d="M4.482142,61.2488251
	c1.5910444-0.5360603,3.234024-0.9684258,4.9116282-1.0204468c0.674469-0.0172272,1.36625,0.0172424,1.9542465,0.3631325
	c-2.0060959,0.121254-4.0122781,0.6225357-5.8108916,1.5392647c-0.3978257,0.224968-0.8475008,0.4843864-1.0031343,0.9511986
	c0,0.5360794,0.6053085,0.7090225,1.0031343,0.8819695c2.5077062,0.93396,5.1883578,1.2278442,7.8170733,1.5048141
	c7.8344707,0.6569977,15.720623,0.4840546,23.5551758-0.224968c2.9572945-0.3286438,5.9321594-0.6573105,8.8029823-1.4700356
	c0.9164047-0.3114204,1.9540787-0.6225319,2.5593872-1.4355659c0.3634567-0.4840546,0.1212654-1.0893631-0.2418518-1.5045013
	c0.5877419,0.3286667,1.4180145,0.7438011,1.2970886,1.5392799c-0.224968,0.8299484-1.0724678,1.26231-1.7642479,1.6602058
	c-2.2134933,1.1241455-4.6522942,1.6949997-7.0735245,2.1962814c-7.0387383,1.3835678-14.2505894,1.6949844-21.4105053,1.4875946
	c-5.3959255-0.190506-10.7917652-0.7093353-16.1185303-1.6257553c-0.9511988-0.2249527-2.0234075-0.4151382-2.7151883-1.1589279
	c-0.4496749-0.518837-0.0519354-1.2450829,0.3804277-1.6254234C1.7150184,62.3037224,3.1158922,61.7504349,4.482142,61.2488251
	L4.482142,61.2488251z"/>
<path fill="#0774BA" stroke="#0774BA" stroke-width="0.09375" stroke-miterlimit="10" d="M47.5799637,67.1634293
	c1.7470169-0.6053085,3.614624-1.2450867,4.9117126-2.6286469c-0.2246208,1.5045013-1.5217094,2.5421753-2.8015785,3.216713
	c-2.456028,1.2798615-5.2055817,1.8679504-7.9382553,2.352005c-5.7764397,0.9167328-11.6393509,1.1413651-17.5020943,1.037674
	c-3.9950523-0.1209412-8.024641-0.2766647-11.9505329-1.1069183c-0.9338865-0.2594223-1.9369345-0.4323654-2.7498121-0.985672
	c3.4935284,0.5880814,7.0389051,0.8302765,10.5842829,0.9684448c5.8282032,0.1729431,11.6738033-0.0516968,17.4674683-0.7782516
	C40.9563637,68.7719421,44.3287964,68.2011032,47.5799637,67.1634293L47.5799637,67.1634293z"/>
</svg>
