<?xml version="1.0" encoding="utf-8"?>
<!-- Generator: Adobe Illustrator 23.0.0, SVG Export Plug-In . SVG Version: 6.00 Build 0)  -->
<!DOCTYPE svg PUBLIC "-//W3C//DTD SVG 1.1//EN" "http://www.w3.org/Graphics/SVG/1.1/DTD/svg11.dtd" [
	<!ENTITY ns_extend "http://ns.adobe.com/Extensibility/1.0/">
	<!ENTITY ns_ai "http://ns.adobe.com/AdobeIllustrator/10.0/">
	<!ENTITY ns_graphs "http://ns.adobe.com/Graphs/1.0/">
	<!ENTITY ns_vars "http://ns.adobe.com/Variables/1.0/">
	<!ENTITY ns_imrep "http://ns.adobe.com/ImageReplacement/1.0/">
	<!ENTITY ns_sfw "http://ns.adobe.com/SaveForWeb/1.0/">
	<!ENTITY ns_custom "http://ns.adobe.com/GenericCustomNamespace/1.0/">
	<!ENTITY ns_adobe_xpath "http://ns.adobe.com/XPath/1.0/">
]>
<svg version="1.1" id="layer" xmlns:x="&ns_extend;" xmlns:i="&ns_ai;" xmlns:graph="&ns_graphs;"
	 xmlns="http://www.w3.org/2000/svg" xmlns:xlink="http://www.w3.org/1999/xlink" x="0px" y="0px" viewBox="0 0 30.9459209 69"
	 enable-background="new 0 0 30.9459209 69" xml:space="preserve">
<metadata>
	<sfw  xmlns="&ns_sfw;">
		<slices></slices>
		<sliceSourceBounds  bottomLeftOrigin="true" height="72.4772263" width="67.8269577" x="28.5078678" y="294.75">
			</sliceSourceBounds>
	</sfw>
</metadata>
<g>
	<g>
		<path id="SVGID_1_" fill="#C2BFBF" d="M14.1183958,8.6721354c-2.8907108,0.7540932-3.5191259,48.0109291-2.052824,49.6867027
			c3.3934422,0.670311,3.1420765,10.0127449,3.1420765,10.0127449L17.0510006,69c0,0-0.3770504-4.9016418,0.1675777-7.2477188
			c0.5446281-2.3460846,3.3096542-3.7704887,3.3096542-3.7704887c-2.6812401-36.3643036-4.7759571-48.9326096-6.242259-49.3096581
			H14.1183958z"/>
	</g>
</g>
<g>
	<g>
		<defs>
			<path id="SVGID_2_" d="M15.9198542,44.7431755c0,0-1.4244089,13.6156616,2.136611,15.2495384
				c0,0,16.0874329-10.5992661,12.3169403-32.593811C26.7285976,11.395256,18.1821499,6.1584682,17.2604752,4.1475382
				c-1.0054646-1.4244053-2.052824-3.9380665-2.052824-3.9380665L15.9198542,44.7431755z"/>
		</defs>
		<clipPath id="SVGID_3_">
			<use xlink:href="#SVGID_2_"  overflow="visible"/>
		</clipPath>
		
			<linearGradient id="SVGID_4_" gradientUnits="userSpaceOnUse" x1="-661.4957275" y1="-160.0145874" x2="-659.7489014" y2="-160.0145874" gradientTransform="matrix(8.5332003 33.1259003 -35.6422005 5.7143998 -42.0144081 22826.9902344)">
			<stop  offset="0" style="stop-color:#49A547"/>
			<stop  offset="1" style="stop-color:#409143"/>
		</linearGradient>
		<polygon clip-path="url(#SVGID_3_)" fill="url(#SVGID_4_)" points="33.3897972,-2.8488107 48.9744987,57.6047325 
			15.2914391,63.0091019 -0.29326,2.555558 		"/>
	</g>
</g>
<g>
	<g>
		<defs>
			<path id="SVGID_5_" d="M13.6575584,3.393445C11.5628405,5.0273218,0.921676,13.9508266,0.0418945,32.1329727
				C0,32.6357079,0,33.1384354,0,33.5992737c0,17.260479,14.2440796,26.9799576,14.2440796,26.9799576
				c1.0473595-2.4298668,2.1366119-14.2859726,1.7595615-27.105648C15.9198523,30.1639328,16.0455341,2.0109236,15.1238604,0
				C15.0819674,1.3825148,14.9981775,1.9690396,13.6575584,3.393445"/>
		</defs>
		<clipPath id="SVGID_6_">
			<use xlink:href="#SVGID_5_"  overflow="visible"/>
		</clipPath>
		
			<linearGradient id="SVGID_7_" gradientUnits="userSpaceOnUse" x1="-621.6816406" y1="-142.3712006" x2="-619.9348145" y2="-142.3712006" gradientTransform="matrix(14.9349003 -3.3934 4.6669002 13.9447002 9947.1933594 -91.7026215)">
			<stop  offset="0" style="stop-color:#42A347"/>
			<stop  offset="0.329" style="stop-color:#4AA74A"/>
			<stop  offset="0.8483999" style="stop-color:#61B251"/>
			<stop  offset="1" style="stop-color:#69B654"/>
		</linearGradient>
		<polygon clip-path="url(#SVGID_6_)" fill="url(#SVGID_7_)" points="-18.852457,4.2732286 15.2914391,-3.477226 
			35.2750435,56.2641182 1.1730423,64.0145721 		"/>
	</g>
</g>
</svg>
