<?xml version="1.0" encoding="utf-8"?>
<!-- Generator: Adobe Illustrator 23.0.0, SVG Export Plug-In . SVG Version: 6.00 Build 0)  -->
<!DOCTYPE svg PUBLIC "-//W3C//DTD SVG 1.1//EN" "http://www.w3.org/Graphics/SVG/1.1/DTD/svg11.dtd" [
	<!ENTITY ns_extend "http://ns.adobe.com/Extensibility/1.0/">
	<!ENTITY ns_ai "http://ns.adobe.com/AdobeIllustrator/10.0/">
	<!ENTITY ns_graphs "http://ns.adobe.com/Graphs/1.0/">
	<!ENTITY ns_vars "http://ns.adobe.com/Variables/1.0/">
	<!ENTITY ns_imrep "http://ns.adobe.com/ImageReplacement/1.0/">
	<!ENTITY ns_sfw "http://ns.adobe.com/SaveForWeb/1.0/">
	<!ENTITY ns_custom "http://ns.adobe.com/GenericCustomNamespace/1.0/">
	<!ENTITY ns_adobe_xpath "http://ns.adobe.com/XPath/1.0/">
]>
<svg version="1.1" id="Layer_1" xmlns:x="&ns_extend;" xmlns:i="&ns_ai;" xmlns:graph="&ns_graphs;"
	 xmlns="http://www.w3.org/2000/svg" xmlns:xlink="http://www.w3.org/1999/xlink" x="0px" y="0px" viewBox="0 0 51.1635933 56"
	 enable-background="new 0 0 51.1635933 56" xml:space="preserve">
<metadata>
	<sfw  xmlns="&ns_sfw;">
		<slices></slices>
		<sliceSourceBounds  bottomLeftOrigin="true" height="56" width="51.1635933" x="1503.854248" y="1303.7619629">
			</sliceSourceBounds>
	</sfw>
</metadata>
<g transform="matrix(.569 0 0 .569 199.451 -82.735)">
	
		<linearGradient id="SVGID_1_" gradientUnits="userSpaceOnUse" x1="-5883.5234375" y1="-14736.3632813" x2="-5849.3701172" y2="-14756.5439453" gradientTransform="matrix(0.1187368 0 0 0.1187368 362.8934937 1983.8417969)">
		<stop  offset="0" style="stop-color:#909CA9"/>
		<stop  offset="1" style="stop-color:#EDEDEE"/>
	</linearGradient>
	<path fill="url(#SVGID_1_)" d="M-293.7574463,191.3491058l-19.7095337,6.4358673l-17.1470337,7.5678711l-4.7971191,1.2664642
		c-1.2217407,1.1620941-2.5027771,2.3390961-3.8882751,3.5308838c-1.5195313,1.3108978-2.9347839,2.5028839-4.0224915,3.3667603
		c-1.206604,0.953537-2.9943542,2.7412109-3.9030151,3.8732147c-1.3557739,1.698288-2.4283447,3.5008698-2.8901978,4.8865204
		c-0.819458,2.5028839-0.4170227,5.0353699,1.1620789,7.3744812c2.026062,2.9793701,6.063385,6.0183716,10.770874,8.0891571
		c2.3986816,1.0579529,6.4358521,2.4135132,9.474884,3.173172c5.0501404,1.2812958,14.8230896,2.6667938,20.2009888,2.8755035
		c1.0873718,0.0446625,2.5474854,0.0446625,2.6069031,0c0.1193542-0.0747375,0.9536133-1.6686096,1.9221191-3.6498718
		c3.3072815-6.7487793,5.6908264-13.0802917,6.9868164-18.4880219c0.7746582-3.2773285,1.385376-7.6424103,1.7874756-12.811676
		c0.1044922-1.4451447,0.1489868-6.2868652,0.0596313-7.9257355c-0.1341858-2.6815033-0.3725586-4.8564148-0.7446899-6.9868164
		c-0.0596313-0.3129272-0.0747375-0.5960236-0.0447998-0.6108704c0.0594482-0.0446625,0.2381897-0.1042175,2.6665344-0.8045959
		l-0.491394-1.1618195v-0.000351h0.0002747L-293.7574463,191.3491058z M-298.2565002,193.9861603
		c0.178772,0,0.6553345,4.5734558,0.7744446,7.4638062c0.0299683,0.6107178,0.0148315,1.0129547-0.0148315,1.0129547
		c-0.1190491,0-2.5177307-1.4151154-4.2306519-2.4877014c-1.4898682-0.9386292-4.3203125-2.8158112-4.7671814-3.1733246
		c-0.1492615-0.1042175-0.1344299-0.1190491,1.0873718-0.5363159
		C-303.336792,195.5652618-298.4203186,193.9861603-298.2565002,193.9861603z M-308.2975159,197.2935028
		c0.1341858,0,0.4765625,0.1934509,1.2960205,0.7001038c3.0688171,1.9217682,7.2402954,4.2458954,9.0279846,5.0206757
		c0.5510864,0.238327,0.6105042,0.1488037-0.6555176,1.013031c-2.7113953,1.847229-6.0933533,3.6646423-10.2348938,5.4971008
		c-0.7298584,0.3277588-1.3405762,0.5809174-1.3554077,0.5809174c-0.0296936,0,0.0594177-0.3722076,0.1784668-0.8192291
		c0.9981995-3.7097778,1.5643921-7.4638672,1.5943604-10.4732056c0.0148315-1.4898529,0.0148315-1.4898529,0.1489868-1.5343018
		C-308.3274536,197.2935028-308.3126221,197.2935028-308.2975159,197.2935028L-308.2975159,197.2935028z M-310.3681946,198.0829926
		c0.0890808,0.0892334,0.0296631,3.4264679-0.0895996,4.3351288c-0.2681274,2.1751251-0.6852417,4.2011108-1.3703308,6.4806671
		c-0.1639099,0.5508118-0.3131104,1.0129547-0.3425903,1.0426331c-0.059906,0.0744019-2.1008606-1.9218445-2.7712097-2.6964874
		c-1.1621094-1.3408356-2.0706482-2.6816254-2.7410583-3.9925385c-0.3426819-0.6704254-0.8788757-1.9812622-0.8342896-2.0260468
		c0.2383118-0.1638489,8.089447-3.2028503,8.1490479-3.1433563H-310.3681946z M-320.1114197,201.9116211
		c0.0148315,0,0.0296936,0,0.0447998,0.0148315c0.0296631,0.0298157,0.1341553,0.2682648,0.2235413,0.5363312
		c0.4765625,1.2961273,1.5490112,3.2029877,2.4729309,4.4246521c1.013031,1.3408508,2.3390503,2.770874,3.4411621,3.7094269
		c0.3577271,0.2979584,0.6852722,0.5809174,0.7298584,0.6257172c0.0895691,0.089447,0.1193237,0.0744019-2.309082,0.9981842
		c-2.8153381,1.0725861-5.8844299,2.1451721-9.4003296,3.2773285c-0.8398743,0.2707672-1.6789856,0.5439148-2.517334,0.8194275
		c-0.1343079,0.0447845-0.0895081-0.0298157,0.297821-0.6404724c1.7429504-2.7263641,4.3946228-8.0745239,5.884491-11.8585663
		c0.2532959-0.6555176,0.5065002-1.3108978,0.5513-1.4598999c0.0596313-0.2087097,0.1339722-0.2831116,0.3275452-0.3874664
		C-320.260437,201.9415741-320.1560059,201.9116211-320.1114197,201.9116211L-320.1114197,201.9116211z M-323.0906677,203.1481171
		c0.0445862,0.029953-0.71521,1.6238251-1.4601135,3.0838013c-1.4451294,2.8155975-3.024231,5.5867462-5.1396484,8.9535217
		c-0.3575134,0.5809021-0.7000427,1.1173706-0.7448425,1.1769257c-0.0744019,0.1043549-0.1043396,0.0744019-0.3426514-0.3873138
		c-0.5065002-0.9981842-0.9237976-2.27948-1.1471863-3.4564209c-0.2235413-1.1620941-0.178772-3.1880035,0.074585-4.4393463
		c0.1934509-0.923584,0.178772-0.9086761,0.6256409-1.1322174c1.9068604-0.9682922,8.074585-3.8585052,8.1342468-3.7989502
		H-323.0906677z M-297.3924866,204.1911011v0.6256256c0,3.3221741-0.3574829,7.8807983-0.8791199,11.2031097
		c-0.089386,0.5809174-0.1641235,1.0574799-0.178772,1.0726013c0,0-0.4319458-0.1190643-0.9384766-0.26828
		c-2.2345581-0.7002411-4.6629028-1.7281647-6.8529358-2.9346466c-1.445282-0.7896271-3.5456543-2.0858917-3.4859619-2.1455231
		c0.0146484-0.0147552,0.6404724-0.3425293,1.3703308-0.7299194c2.9202881-1.5194702,5.7207947-3.1582031,8.1491394-4.7820129
		c0.9088135-0.6108704,2.2791138-1.5939484,2.5774231-1.8622131L-297.3924866,204.1911011L-297.3924866,204.1911011z
		 M-334.338562,208.6004944c0.0595703,0,0.0446472,0.1191864-0.0447388,0.6555176
		c-0.0596313,0.3874512-0.1340027,1.1025391-0.1636353,1.5939331c-0.1194458,2.1751251,0.2383118,3.7841797,1.3109131,5.9889221
		c0.2979431,0.6108551,0.5364685,1.1173706,0.5213318,1.1321411c-0.1043396,0.0895081-9.9663391,2.9797974-13.0652466,3.8288422
		c-0.923584,0.2531433-1.7279053,0.4766846-1.7877808,0.491394c-0.1040955,0.029953-0.1190796,0.0151062-0.0744019-0.2383881
		c0.3425903-2.1897583,2.0112-5.0501404,4.3351135-7.4636688c1.5494385-1.6088409,2.7860107-2.5473175,4.9014282-3.7542114
		c1.5195313-0.8638763,3.858429-2.1598053,4.0372009-2.219574
		C-334.3682556,208.6004944-334.3534241,208.6004944-334.338562,208.6004944L-334.338562,208.6004944z M-311.0982666,212.7569427
		c0.0148315-0.0148315,0.372345,0.1789703,0.8043213,0.4321289c3.1881409,1.8473511,7.6275635,3.5606232,11.4113464,4.4394836
		l0.342865,0.0746155l-0.4768372,0.2678528c-1.9812622,1.1025391-8.4915161,3.813797-15.1505737,6.3018341
		c-0.9685364,0.3573761-1.9218445,0.7150879-2.1008911,0.7894897c-0.1787415,0.0744019-0.3426514,0.1191864-0.3426514,0.1043549
		c0-0.0151215,0.2683411-0.5364685,0.6107178-1.1769409c1.8622131-3.4860229,3.7394714-7.7317963,4.6928711-10.6815491
		c0.1194458-0.2830505,0.1937256-0.5362091,0.2088318-0.551239V212.7569427z M-313.46698,213.531723
		c0.0151062,0.0151825-0.1042175,0.3277588-0.2532959,0.6852722c-1.29599,3.1433563-2.9945679,6.5700226-5.1694946,10.4134979
		c-0.5510864,0.9833374-1.0130005,1.7729645-1.0281067,1.7729645c-0.0146484,0-0.461731-0.2683411-0.9979858-0.5960388
		c-3.1584778-1.9367371-5.9591064-4.3202972-7.7913513-6.6294556l-0.26828-0.3277588l1.3555603-0.3724823
		c4.8566895-1.3257294,8.9831238-2.7558899,13.0801697-4.5137482
		C-313.9586487,213.7255249-313.4818115,213.531723-313.46698,213.531723z M-298.7481689,218.6713867
		C-298.7481689,218.6713867-298.7332458,218.6862946-298.7481689,218.6713867
		c0.0148315,0.3426666-0.7449646,3.4116211-1.3707275,5.631134c-0.5213623,1.8622131-0.9685059,3.3223114-1.7876587,5.8993988
		c-0.3575134,1.1324921-0.670166,2.0707703-0.6852722,2.0707703c-0.0148315,0-0.1042175-0.0148315-0.1936035-0.0444489
		c-4.4244995-0.8047333-8.3872986-1.9219818-12.1116943-3.4116211c-1.0429993-0.4172821-2.5326538-1.0877075-2.6220093-1.1621094
		c-0.0296936-0.0300903,0.8642273-0.4469452,1.9963684-0.9386139c6.7783813-2.9646149,13.8099976-6.3315125,16.2232971-7.7763824
		c0.2829895-0.1788177,0.5065308-0.2681274,0.5513306-0.2681274H-298.7481689z M-332.7294922,219.8334808
		c0.0298157,0.0296783-1.8622131,2.7560425-4.5140991,6.4654846c-0.923584,1.2961273-1.9961853,2.8155975-2.3983459,3.3816681
		c-0.4022827,0.5661469-1.013031,1.4600525-1.3556824,1.9963837l-0.6259766,0.9683685l-0.6704407-0.5660858
		c-0.7896118-0.6556396-2.1600037-2.0559235-2.770813-2.8306427c-1.2812805-1.5938721-2.1451721-3.2773132-2.4878235-4.8116302
		c-0.1639099-0.71521-0.1639099-1.072937-0.0151062-1.1173706c0.2233887-0.0595703,4.2011108-0.9981995,7.9257202-1.8624115
		c2.0707703-0.4765625,4.4690857-1.0426331,5.3331909-1.2512054
		C-333.4447327,219.9971313-332.7443542,219.8334808-332.7294922,219.8334808L-332.7294922,219.8334808z M-330.8227234,220.5634766
		l0.4765625,0.5362549c2.1455383,2.3985291,4.3354187,4.1716461,6.9871826,5.7206421
		c0.4768372,0.2683411,0.834259,0.5065155,0.8043213,0.521698c-0.1040039,0.0744019-9.2066956,3.3068695-13.4226379,4.7669067
		c-2.3685608,0.8342133-4.320282,1.5045624-4.3349915,1.5045624c-0.0148315,0-0.1490173-0.0892334-0.2982178-0.1935883
		l-0.2680054-0.1937256l0.4319763-0.6255646c1.4002991-2.026123,3.1584778-4.2457581,6.9871216-8.8639984l2.6366882-3.173172
		V220.5634766z M-318.9342651,229.0698395c0.0146179-0.0147705,0.6701355,0.2234039,1.4745483,0.521698
		c1.9369202,0.7298431,3.4710999,1.1915588,5.5271912,1.7130585c2.5326233,0.640686,6.1973267,1.2663879,8.3576355,1.4450684
		c0.3277588,0.0296783,0.5065002,0.0596313,0.4468689,0.1043549c-0.1044922,0.0596313-2.2941895,0.7896271-3.9031677,1.2961273
		c-2.5625916,0.8043213-10.3836975,3.1134033-16.7597656,4.9459381c-1.1769409,0.3426056-2.1900635,0.6257019-2.2496033,0.6404724
		c-0.1488037,0.029953-0.640625-0.1043549-0.640625-0.1639099c0-0.0296173,0.3575134-0.491394,0.7896423-0.9979858
		c2.1450806-2.562439,4.2756348-5.4226837,6.0484619-8.134079
		C-319.351593,229.6954803-318.9342651,229.0847626-318.9342651,229.0698395L-318.9342651,229.0698395z M-321.556488,229.144516
		c0.0148315,0.0148315-1.0427551,1.7130585-2.8898621,4.6329498c-0.7897339,1.236496-1.6687317,2.6368408-1.9816589,3.1285248
		c-0.2979431,0.4766846-0.7448425,1.2217255-0.9979858,1.6387177l-0.4320984,0.7598724l-0.2234192-0.0596313
		c-0.5364685-0.1490021-4.3054504-1.4750061-5.3036499-1.8771667c-1.2365723-0.491684-2.5177307-1.0874329-3.4712524-1.5939484
		c-1.1916504-0.640686-2.6813049-1.5942078-2.5622559-1.6238251c0.0297546-0.0148315,2.0707703-0.5662689,4.5287476-1.236496
		c6.525238-1.7730255,10.1452332-2.800827,12.5141602-3.5456543c0.4320984-0.1340942,0.8044434-0.2384491,0.8192749-0.2233276
		V229.144516z M-303.0089722,233.4943542h0.0148315c0.0596313,0.1491394-2.3536072,6.8529968-3.2329407,8.9683533
		c-0.1933899,0.4766998-0.2676392,0.5960999-0.3721313,0.5809174c-0.2532959-0.0146332-3.7540894-0.5063019-5.8847046-0.8192291
		c-3.7092896-0.5660706-9.9365845-1.6537628-11.5007019-2.0111389l-0.3575134-0.0744019l2.2194214-0.5068665
		c4.767395-1.0725861,7.0615845-1.6534882,9.385498-2.368576c2.9349365-0.8938293,5.8401184-2.0112152,8.7747803-3.3816681
		C-303.5006409,233.673111-303.1132507,233.5092621-303.0089722,233.4943542L-303.0089722,233.4943542z"/>
	
		<linearGradient id="SVGID_2_" gradientUnits="userSpaceOnUse" x1="-5882.1762695" y1="-15404.8105469" x2="-5854.6958008" y2="-15404.8105469" gradientTransform="matrix(0.1187368 0 0 0.1187368 362.8934937 1983.8417969)">
		<stop  offset="0" style="stop-color:#939FAB"/>
		<stop  offset="1" style="stop-color:#DCDEE1"/>
	</linearGradient>
	<path fill="url(#SVGID_2_)" d="M-314.0776978,145.4049835c-0.3277588-0.0444489-5.6165771,1.8624115-9.0279846,3.2477112
		c-4.6034851,1.8773193-8.1786804,3.6651306-10.3836365,5.2141418c-0.8192139,0.5812531-1.8473511,1.6090393-2.0109863,2.0112
		c-0.0595703,0.1490173-0.0895081,0.3277588-0.0895081,0.5065155l1.9963684,1.8920288l4.7521973,1.5195313l11.3073425,2.026123
		l12.9309387,2.2197723l0.1341553-1.1173096c-0.0445862,0-0.0745239-0.0148315-0.1188354-0.0148315l-1.698761-0.2682648
		l-0.3424072-0.610733c-1.7579956-3.0987701-3.6946716-6.9423828-4.8268127-9.5345764
		c-0.8788452-2.0112-1.7131958-4.3349915-2.1751099-6.0036011c-0.2532959-1.013031-0.2829895-1.0726013-0.4466248-1.0874329
		v-0.000351h-0.0003357V145.4049835z M-314.3163757,146.1649933h0.0153198
		c0.0146484,0.0146942,0.0742798,0.4321136,0.1339722,0.9234467c0.2530212,2.0859528,0.71521,4.096817,1.4450684,6.2719421
		c0.5510864,1.6388092,0.5510864,1.5494995-0.089386,1.3556976c-1.5195313-0.4170074-8.3276672-1.5939331-13.2587585-2.2792053
		c-0.7896118-0.1043549-1.4600525-0.2085724-1.4600525-0.2234039c-0.0595703-0.0595703,3.5604248-1.9517212,5.1545105-2.6964111
		C-320.3347473,148.5782928-314.7332764,146.2393951-314.3163757,146.1649933L-314.3163757,146.1649933z M-328.6775513,152.839035
		l0.5812683,0.1934509c3.1580505,1.0727997,11.0982666,2.5924072,15.4784241,2.9499054
		c0.4914551,0.0447235,0.9088135,0.0895233,0.9234314,0.0895233c0.0148315,0.0148315-0.4020081,0.2383118-0.9384766,0.4914551
		c-2.1152344,1.0577545-4.4393616,2.3538818-6.0483398,3.352066c-0.4765625,0.297821-0.9088135,0.5363312-0.9682312,0.5363312
		c-0.0596313,0-0.372345-0.0596313-0.7001038-0.1043549l-0.5958862-0.0895081l-1.4895935-1.4600525
		c-2.6220093-2.5473328-4.677948-4.5137482-5.4675598-5.2587738L-328.6775513,152.839035z M-329.2732239,153.3007507
		l2.1005249,2.6220856c1.1469727,1.4450684,2.309021,2.8602448,2.5625,3.1729736
		c0.2530212,0.3130493,0.461731,0.5664063,0.4468994,0.5812531c-0.0596313,0.0446472-3.0389404-0.5364685-4.6183167-0.8938293
		c-1.6238098-0.3725586-2.2941895-0.5513153-3.2922974-0.8640289l-0.8194275-0.2682648v-0.2087097
		c0.0148315-0.9981842,1.2812805-2.4878387,3.4264526-4.0072327L-329.2732239,153.3007507L-329.2732239,153.3007507z
		 M-311.4260254,156.8762207c0.0596924,0,0.1339722,0.1340332,0.3127136,0.5362701
		c0.5065308,1.1172333,2.085968,4.126709,2.4729309,4.7076111c0.1195374,0.1938782,0.3277588,0.2087097-1.7725525-0.1339569
		c-5.0501404-0.8195648-6.6741638-1.0874329-6.6741638-1.1172333c0-0.0148468,0.1489868-0.1192017,0.3426514-0.2235565
		c1.5643311-0.8638763,3.1433716-1.9664154,4.5438538-3.1433563c0.3426819-0.2831116,0.6555176-0.551239,0.7149353-0.5960236
		C-311.4708252,156.8762207-311.4408569,156.8613892-311.4260254,156.8762207L-311.4260254,156.8762207z"/>
	
		<radialGradient id="SVGID_3_" cx="-22649.9804688" cy="-9223.7197266" r="36.485672" gradientTransform="matrix(-0.114022 -0.0171274 0.0346396 -0.228044 -2569.6914063 -2310.3540039)" gradientUnits="userSpaceOnUse">
		<stop  offset="0" style="stop-color:#EE352C"/>
		<stop  offset="1" style="stop-color:#A91D22"/>
	</radialGradient>
	<path fill="url(#SVGID_3_)" d="M-335.3963623,155.6694794c0,0-0.3275757,0.5216217-0.0147705,1.2963257
		c0.1938477,0.4765625,0.7598572,1.0574799,1.4003296,1.6535034c0,0,6.6293945,6.4654694,7.4338989,7.389267
		c3.6646423,4.2307739,5.2587891,8.4021454,5.4078064,14.1526642c0.089386,3.6945953-0.6109924,6.9422455-2.3538818,10.71138
		c-3.0986938,6.7635498-9.638855,14.2272797-19.7244568,22.510376l1.4750977-0.491684
		c0.9533997-0.71521,2.2495422-1.4747467,5.2885437-3.1433563c7.0166321-3.843811,14.9124146-7.3744812,24.5959167-11.0094452
		c13.9437561-5.2440948,36.8713989-11.3820038,49.9214172-13.3780365l1.355896-0.2087097l-0.2087097-0.3277588
		c-1.1915588-1.8473663-2.0112-2.9943542-2.9945374-4.2159576c-2.8601379-3.5456543-6.3310547-6.4207458-10.5770874-8.8044434
		c-5.8398132-3.2624054-13.3931274-5.8098755-22.9571228-7.7019043c-1.8025513-0.3577118-5.7653503-1.0429077-8.9831848-1.5345154
		c-6.8231812-1.0574646-11.2328491-1.7875977-16.0893555-2.6218719c-1.7428589-0.2980804-4.3501892-0.7448883-6.0782776-1.1172333
		c-0.8938293-0.1938629-2.6069031-0.5960236-3.9476929-1.0578156c-1.0725708-0.4173431-2.6220703-0.8344879-2.9498291-2.1007996
		V155.6694794z M-331.5525513,159.3940277c0.014679-0.0147095,0.2529907,0.0743866,0.5660706,0.1787415
		c0.5660706,0.1934662,1.29599,0.4170074,2.1602783,0.6555176c0.6538391,0.1798553,1.3093567,0.3536377,1.9664307,0.5213623
		c0.8938293,0.2233276,1.6385803,0.4319611,1.6534119,0.4319611c0.1044922,0.1043549,1.6091919,4.9159241,2.1157227,6.7632904
		c0.1933594,0.7003784,0.3426514,1.2961273,0.3277588,1.2961273c-0.0153198,0.0151215-0.1789856-0.2383118-0.3725586-0.5809174
		c-1.7430725-3.0689545-4.499115-6.1824951-7.6872864-8.685379c-0.4169312-0.2976837-0.7298279-0.5658722-0.7298279-0.580719
		V159.3940277z M-324.2229919,161.4200745c0.0745239,0,0.4022827,0.0447235,0.8043213,0.1340332
		c2.5326233,0.5660706,7.0764771,1.4301605,9.9813843,1.9218292c0.4916687,0.0744019,0.8791199,0.1639862,0.8791199,0.1935883
		c0,0.029953-0.1789551,0.1340332-0.4024963,0.2533569c-0.491394,0.2531586-2.4729309,1.4299622-3.1282654,1.8769836
		c-1.6537476,1.1024017-3.1433411,2.2941742-4.2160645,3.3667603c-0.4319763,0.4321136-0.8045959,0.7896271-0.8045959,0.7896271
		s-0.0891113-0.2531586-0.1639099-0.5662231c-0.5359802-2.0707703-1.6535034-5.1397247-2.6665344-7.2997437
		c-0.1639099-0.3425293-0.2980652-0.6554413-0.2980652-0.6851196
		C-324.2380981,161.434906-324.2380981,161.4200745-324.2229919,161.4200745L-324.2229919,161.4200745z M-311.3218079,163.8781738
		c0.089386,0.0296631,0.2383728,0.5362549,0.5362549,1.6534882c0.5513,2.1602936,0.8045959,4.5736694,0.7152405,6.8231964
		c-0.0299683,0.6257019-0.0596313,1.2066193-0.0895996,1.2812805l-0.0445862,0.1488037l-0.7746277-0.2531433
		c-1.5940857-0.5065155-4.1861572-1.2664642-6.4057922-1.8920288c-1.26651-0.3426666-2.2941589-0.6555176-2.2941589-0.685257
		c0-0.0895233,1.8473511-1.9367523,2.6368408-2.6368561C-315.5378723,166.9915771-311.4559631,163.833374-311.3218079,163.8781738
		L-311.3218079,163.8781738z M-310.2938843,164.0269623c0.0447998-0.0444489,6.1676941,1.013031,8.9535217,1.5494232
		c2.0709229,0.4021606,5.0801086,1.0279388,5.2587891,1.1025391c0.089386,0.0296783-0.2235413,0.2084351-1.2217102,0.6553192
		c-3.9328613,1.7729645-6.8529358,3.3667603-9.7576599,5.3036499c-0.7597961,0.5065002-1.4004822,0.9235687-1.4153137,0.9235687
		s-0.0297546-0.4319-0.0297546-0.9533844c0-2.8304443-0.5661316-5.6908417-1.6091919-8.1042023
		C-310.2193909,164.2654877-310.3087769,164.0420837-310.2938843,164.0269623z M-294.4578247,167.1556244
		c0.0447998,0.0446472-0.1489868,1.2514801-0.3277588,1.9664154c-0.5362549,2.2197876-1.9812317,5.5123596-3.7538757,8.6108551
		c-0.3131104,0.551239-0.5960999,0.9981842-0.6260986,1.013031c-0.02948,0.0148315-0.4317932-0.2087097-0.8937073-0.4768372
		c-1.7280273-1.013031-3.694458-1.9664307-5.8398438-2.8603973c-0.5956726-0.2531433-1.1172485-0.461853-1.1321411-0.491394
		c-0.1044922-0.0895081,4.6926575-3.2626953,7.2252808-4.7822266
		C-297.7947693,168.9135437-294.5174255,167.0959167-294.4578247,167.1556244L-294.4578247,167.1556244z M-293.3256531,167.3343048
		c0.1341553,0,2.8455505,0.7449646,4.2605896,1.1621094c3.5010681,1.0429077,7.5232849,2.5176544,10.1452942,3.7094269
		l1.0873718,0.491806l-0.759552,0.1786194c-6.4057617,1.4747467-11.8881531,3.1733093-17.1769104,5.3184814
		c-0.4320374,0.1787567-0.8194275,0.3277588-0.8489075,0.3277588c-0.0299683,0,0.1190491-0.3425903,0.3127136-0.7598572
		c1.5940857-3.3816833,2.6220093-6.9124298,2.8750305-9.9218903c0.0151672-0.2831116,0.0595398-0.5064545,0.1043396-0.5064545
		H-293.3256531z M-320.3198547,173.5317841c0.0446167-0.0447845,2.115448,0.4469604,3.2327576,0.7595367
		c1.6982727,0.4768982,5.3033752,1.6834564,5.3033752,1.7729645c0,0.0148315-0.4020996,0.3574982-0.8786621,0.7747803
		c-1.9515686,1.6238251-3.8288269,3.3368225-6.0784912,5.5119476c-0.6704407,0.6408081-1.2363586,1.1621552-1.2660522,1.1621552
		c-0.0299377,0-0.0445862-0.0895844-0.0299377-0.2086945c0.3425903-2.5028839,0.2683411-5.7206573-0.2084351-8.9832001
		C-320.2901611,173.9039917-320.3347473,173.5466309-320.3198547,173.5317841z M-276.8040771,173.5765839
		c0.02948,0.0296021-0.9535828,1.5789642-1.5792236,2.4578094c-0.8937073,1.2811584-2.2050781,2.9797974-5.1696777,6.7041321
		c-1.5639343,1.9662933-3.322113,4.186203-3.9028931,4.9310303c-0.5961609,0.7448273-1.0875549,1.3703918-1.1026917,1.3703918
		c-0.0148315,0-0.2082214-0.2679901-0.4169312-0.5956879c-1.6686096-2.5028839-3.664978-4.6928406-6.0336914-6.6592712
		c-0.4468689-0.3725433-0.9382629-0.7747803-1.1022034-0.8939667c-0.1639099-0.1191254-0.2980652-0.2383118-0.2980652-0.2531433
		c0-0.0445862,2.5323486-1.1323547,4.4544678-1.9068604c3.3669128-1.3706818,7.954834-3.0093384,11.3964844-4.0671539
		c1.8026428-0.5660095,3.7244873-1.1172333,3.754425-1.0872955V173.5765839z M-275.657074,173.8743134
		c0.0594177-0.0147705,0.4171448,0.1639862,0.8491821,0.4170074c3.6201782,2.0707703,7.1655884,4.7375641,9.9665527,7.478775
		c0.7894592,0.7747803,2.7410583,2.800827,2.7110901,2.8156586c0,0-0.6852417,0.0595703-1.489563,0.1190643
		c-6.2718811,0.4768982-14.3014832,1.8025665-22.0185852,3.6647034c-0.5213318,0.1190491-0.9830627,0.2234192-1.0130005,0.2234192
		c-0.02948,0,0.5513-0.5809174,1.2814026-1.2810211c4.5287476-4.3649597,6.5996399-7.1210022,9.0426331-12.037323
		C-275.9848328,174.5448151-275.6867371,173.9191132-275.657074,173.8743134
		C-275.6719055,173.8743134-275.6719055,173.8743134-275.657074,173.8743134L-275.657074,173.8743134z M-308.8339539,177.2711792
		c0.2086792,0.0444336,2.1453552,0.9535217,3.6052856,1.6833038c1.3407593,0.6701508,3.3520508,1.7430115,3.4562683,1.8322601
		c0.0148315,0.0148315-0.7003784,0.3873138-1.578949,0.8194275c-2.8009644,1.4003448-5.1993713,2.7260895-7.7023315,4.245697
		c-0.7149963,0.4321136-1.3109131,0.7898254-1.3257446,0.7898254c-0.0596313,0-0.0447693-0.059906,0.3575134-0.7898254
		c1.3408508-2.4429779,2.4132996-5.3629303,3.024292-8.2084961c0.0593567-0.2234039,0.1190796-0.3722076,0.1636353-0.3722076
		L-308.8339539,177.2711792z M-310.7707214,177.62854c0.0447998,0.0447845-0.4617004,1.8770447-0.7744141,2.8752289
		c-0.6110229,1.8920288-1.638855,4.2606812-2.6368713,6.0484161c-0.2386475,0.4169312-0.5960693,1.0277863-0.7897339,1.3703918
		l-0.372345,0.5958862l-0.8342896-0.804245c-0.9682312-0.9386292-1.7579956-1.5196075-2.770813-2.0411682
		c-0.4024963-0.2083588-0.71521-0.3873138-0.71521-0.4169312c0-0.1191864,2.5474854-2.4282684,4.499054-4.096817
		c1.4002686-1.2067566,4.3500366-3.5754089,4.3946228-3.5307465V177.62854z M-298.9268494,182.5001526l0.730072,0.4765625
		c1.6681213,1.0876923,3.634552,2.5326233,5.1395264,3.7988739c0.8489075,0.7000275,2.4875488,2.1751251,2.8155823,2.5326233
		l0.1784973,0.1938782l-1.2064209,0.3425293c-6.8231812,1.8918152-12.0968933,3.5752563-18.2496338,5.8398438
		c-0.6852722,0.2531433-1.2663269,0.4617157-1.3111267,0.4617157c-0.0890808,0-0.1638489,0.0744019,1.3708191-1.3409271
		c3.9330444-3.6197815,7.4188538-7.6125946,10.0111389-11.5008545L-298.9268494,182.5001526L-298.9268494,182.5001526z
		 M-302.0405273,183.2747955c0.0296936,0.0296783-2.0112,2.9048309-3.2329407,4.528717
		c-1.4598999,1.9367523-4.0521545,5.1843262-5.8398438,7.2996063c-0.7446899,0.8791351-1.3851624,1.6090546-1.4151001,1.6240387
		c-0.0447998,0.0148315-0.0596313-0.2085724-0.0596313-0.551239c0-1.8027802-0.461731-3.7245483-1.2663269-5.3631439
		c-0.3426819-0.685257-0.4022827-0.8491669-0.3275452-0.9235687c0.282959-0.2533722,4.618103-2.7263641,7.3591614-4.2011108
		c1.8473206-0.9832153,4.7371826-2.4431152,4.7822266-2.4133148V183.2747955z M-320.8712158,187.8930359
		c0.0447998,0,0.3874512,0.1786041,0.7748413,0.3873138c0.9533997,0.521347,1.8025818,1.1023407,2.5623169,1.7281799
		c0.0296936,0.0296783-0.3575134,0.3426666-0.8640137,0.7148743c-1.4153442,1.0130157-3.5604858,2.6369781-4.8117065,3.6351624
		c-1.3113098,1.0428467-1.3556824,1.0725861-1.2068787,0.8491821c0.9833374-1.5046997,1.4747314-2.3538666,1.9963684-3.4412994
		c0.461731-0.9682312,0.9234314-2.1154327,1.2511902-3.1136169
		C-321.0499573,188.2207947-320.9008789,187.8930359-320.8712158,187.8930359L-320.8712158,187.8930359z M-315.8505249,191.8258667
		c0.0742493-0.0146942,0.1639099,0.1192017,0.565918,0.7152252c0.8491821,1.266037,1.5046997,2.9645996,1.6688232,4.335144
		l0.02948,0.2980804l-2.0406799,0.7896118c-3.6501465,1.4151154-7.0167847,2.8155975-9.2963867,3.8582306
		c-0.6404114,0.2980804-1.757782,0.8342743-2.4876404,1.1920624c-0.730072,0.3722076-1.3259583,0.655304-1.3259583,0.6404724
		c0-0.0148468,0.461731-0.3575134,1.0278015-0.7747803c4.4546814-3.232605,8.3129578-6.7783966,11.2030334-10.3239136
		c0.3129272-0.3725586,0.5960999-0.7152252,0.6256409-0.7300568L-315.8505249,191.8258667L-315.8505249,191.8258667z
		 M-318.1596375,192.3920898c0.0596313,0.0595551-1.6386414,1.9812622-2.8006897,3.1581268
		c-2.8752136,2.9349976-5.7207031,5.2293091-9.2515259,7.4640045c-0.4468689,0.282959-0.8490295,0.5361176-0.8938293,0.5660706
		c-0.1043701,0.0595551,0.0296631-0.0895081,1.5791016-1.7729645c0.9833374-1.0577545,1.7280884-1.9515839,2.5772705-3.0538483
		c0.5660706-0.7298584,0.6704407-0.834198,1.4899292-1.4154663
		C-323.2694092,195.7588501-318.2192688,192.3323822-318.1596375,192.3920898z"/>
</g>
</svg>
