<?xml version="1.0" encoding="utf-8"?>
<!-- Generator: Adobe Illustrator 23.0.0, SVG Export Plug-In . SVG Version: 6.00 Build 0)  -->
<!DOCTYPE svg PUBLIC "-//W3C//DTD SVG 1.1//EN" "http://www.w3.org/Graphics/SVG/1.1/DTD/svg11.dtd" [
	<!ENTITY ns_extend "http://ns.adobe.com/Extensibility/1.0/">
	<!ENTITY ns_ai "http://ns.adobe.com/AdobeIllustrator/10.0/">
	<!ENTITY ns_graphs "http://ns.adobe.com/Graphs/1.0/">
	<!ENTITY ns_vars "http://ns.adobe.com/Variables/1.0/">
	<!ENTITY ns_imrep "http://ns.adobe.com/ImageReplacement/1.0/">
	<!ENTITY ns_sfw "http://ns.adobe.com/SaveForWeb/1.0/">
	<!ENTITY ns_custom "http://ns.adobe.com/GenericCustomNamespace/1.0/">
	<!ENTITY ns_adobe_xpath "http://ns.adobe.com/XPath/1.0/">
]>
<svg version="1.1" id="Layer_1" xmlns:x="&ns_extend;" xmlns:i="&ns_ai;" xmlns:graph="&ns_graphs;"
	 xmlns="http://www.w3.org/2000/svg" xmlns:xlink="http://www.w3.org/1999/xlink" x="0px" y="0px" viewBox="0 0 58.0258713 51"
	 enable-background="new 0 0 58.0258713 51" xml:space="preserve">
<metadata>
	<sfw  xmlns="&ns_sfw;">
		<slices></slices>
		<sliceSourceBounds  bottomLeftOrigin="true" height="51" width="58.0258713" x="226.9880066" y="230.4959106">
			</sliceSourceBounds>
	</sfw>
</metadata>
<path fill="#FFFFFF" d="M27.5182724,19.516016c-0.1792946,2.0806923-0.0544529,4.2012291,0.3917904,6.3022861
	c0.143877,0.7711849,0.8243084,1.3781261,1.6632252,1.3816681h0.0066414h0.0004425h4.102066
	c6.6405067,0,12.6621208-2.6761246,16.5198174-7.3417473c3.1909828-3.8599072,4.8776741-8.562273,4.8776741-13.5984364V1.6999705
	C55.0799294,0.7610024,54.3189278,0,53.3799591,0h-4.5598183c-4.3822937,0-8.5689125,1.3223468-12.0821838,3.7346227
	C33.4039764,1.3183625,29.3550377,0,25.1954212,0h-2.8602886c-0.9389668,0-1.6999702,0.7610025-1.6999702,1.6999705v2.8602889
	C20.6351624,10.3645077,23.1324368,15.7614708,27.5182724,19.516016z M51.6799889,3.399941v2.8598461
	c0,4.2357602-1.4170837,8.1890774-4.0985222,11.43186c-3.209137,3.8815994-8.2745171,6.1079407-13.8972588,6.1083832
	l7.2979202-7.2979202c0.6640511-0.6640511,0.6640511-1.7402563,0-2.4043074c-0.6640511-0.6636086-1.7402573-0.6636086-2.4043083,0
	l-7.7313232,7.7317667c-0.1137753-4.2362022,1.2727623-8.3882914,3.9936028-11.7541447
	c3.4295998-4.2424006,8.5250854-6.6754832,13.9800415-6.6754832H51.6799889z M24.0351028,3.399941h1.1603184
	c3.1360912,0,6.1947117,0.90488,8.7982349,2.5769606c-0.6339493,0.6118121-1.2351379,1.2652383-1.7978096,1.961164
	c-0.1155434,0.142992-0.2288761,0.287755-0.3404369,0.433404l-1.0735474-1.0735493
	c-0.6636086-0.6636086-1.7398148-0.6636086-2.4038658,0c-0.6640511,0.6640511-0.6640511,1.7402563,0,2.4043074l1.5901814,1.5901804
	c-0.7233734,1.3466959-1.2953415,2.7593536-1.7114811,4.21451c-2.7097702-2.9762764-4.2215939-6.838397-4.2215939-10.9462166
	V3.399941z"/>
<path fill="#FFFFFF" d="M57.9986534,29.2089462c-0.1394501-1.3710442-0.7981873-2.6128197-1.8553581-3.4968929
	c-2.116993-1.769474-5.2650375-1.5901814-7.1620102,0.4033012l-7.7344246,8.0602512
	c-0.6494408-2.0696259-2.5853691-3.575695-4.8670502-3.575695h-9.5583496
	c-0.6034012-0.3731956-4.0422993-4.6620789-10.3228931-4.0334454c-3.0386972,0.3041363-5.7732592,1.7274189-7.7879896,4.0334454
	H1.6999705C0.7610024,30.5999107,0,31.3613567,0,32.299881v17.0001488C0,50.2389984,0.7610025,51,1.6999705,51h39.6894417
	c0.5104332,0,0.9938622-0.2293205,1.3165932-0.6250916c0,0,14.1721725-17.362278,14.1766014-17.3675919
	C57.7410011,31.9293423,58.137661,30.5804329,57.9986534,29.2089462z M54.2281723,30.8823547L40.5823669,47.6000595H3.399941
	V33.9998512h6.1163526c0.5268135,0,1.0345907-0.2514534,1.3537779-0.6715775
	c1.4741936-1.9412403,3.5934019-3.1409588,5.9671631-3.3786888c4.7802811-0.4785595,7.2607327,2.9970818,8.2196217,3.6266022
	c0.3103333,0.2731476,0.70965,0.4236641,1.1231327,0.4236641h10.1998215c0.9371986,0,1.6999702,0.7627754,1.6999702,1.6999702
	c0,0.8083725-0.5670967,1.4848213-1.3241158,1.6570282c-1.28339,0.0774727-5.833025,0.0261192-10.575676,0.042942
	c-0.9389687,0-1.6999702,0.7614479-1.6999702,1.6999741c0,0.9389648,0.7610016,1.6999702,1.6999702,1.6999702
	c10.6420784-0.0088539,10.2476349,0.0225754,10.7261925-0.0270081c1.5822144,0.1633568,3.1484871-0.4161377,4.2446136-1.5861931
	L51.4391594,28.464323c0.6693649-0.7038937,1.7778854-0.766758,2.5233917-0.143877
	C54.7368355,28.9676743,54.8523827,30.0912476,54.2281723,30.8823547z"/>
</svg>
