<?xml version="1.0" encoding="utf-8"?>
<!-- Generator: Adobe Illustrator 23.0.0, SVG Export Plug-In . SVG Version: 6.00 Build 0)  -->
<!DOCTYPE svg PUBLIC "-//W3C//DTD SVG 1.1//EN" "http://www.w3.org/Graphics/SVG/1.1/DTD/svg11.dtd" [
	<!ENTITY ns_extend "http://ns.adobe.com/Extensibility/1.0/">
	<!ENTITY ns_ai "http://ns.adobe.com/AdobeIllustrator/10.0/">
	<!ENTITY ns_graphs "http://ns.adobe.com/Graphs/1.0/">
	<!ENTITY ns_vars "http://ns.adobe.com/Variables/1.0/">
	<!ENTITY ns_imrep "http://ns.adobe.com/ImageReplacement/1.0/">
	<!ENTITY ns_sfw "http://ns.adobe.com/SaveForWeb/1.0/">
	<!ENTITY ns_custom "http://ns.adobe.com/GenericCustomNamespace/1.0/">
	<!ENTITY ns_adobe_xpath "http://ns.adobe.com/XPath/1.0/">
]>
<svg version="1.1" id="Layer_1" xmlns:x="&ns_extend;" xmlns:i="&ns_ai;" xmlns:graph="&ns_graphs;"
	 xmlns="http://www.w3.org/2000/svg" xmlns:xlink="http://www.w3.org/1999/xlink" x="0px" y="0px" viewBox="0 0 100.1279297 68"
	 enable-background="new 0 0 100.1279297 68" xml:space="preserve">
<metadata>
	<sfw  xmlns="&ns_sfw;">
		<slices></slices>
		<sliceSourceBounds  bottomLeftOrigin="true" height="68" width="100.1279297" x="1170.5220947" y="789.0463867">
			</sliceSourceBounds>
	</sfw>
</metadata>
<path fill="#5D87A1" d="M24.0724545,61.948288h-3.8635082c-0.1366215-6.5213013-0.5128937-12.6521454-1.1280708-18.3970146
	h-0.0343418L13.1642952,61.948288h-2.9414921L4.3756547,43.5512733H4.3420591
	c-0.4337583,5.5156708-0.7070029,11.6480064-0.820482,18.3970146H0c0.226958-8.2070618,0.7973387-15.9012299,1.7089024-23.0832443
	h4.7885103L12.07057,55.8264046h0.0343418L17.71241,38.8650436h4.5817108
	C23.297514,47.2774086,23.8902912,54.9723244,24.0724545,61.948288 M40.8277588,44.9174995
	c-1.5730247,8.5363007-3.6484947,14.7388153-6.2241631,18.6105385C32.5968094,66.5083466,30.3981571,68,28.0039024,68
	c-0.638319,0-1.4259529-0.1926193-2.3591671-0.5748596v-2.0582962c0.4561558,0.0656967,0.9914474,0.1030273,1.6066227,0.1030273
	c1.1183662,0,2.0172367-0.3075943,2.702589-0.9242554c0.8197346-0.751049,1.2296028-1.5954247,1.2296028-2.5293884
	c0-0.6405563-0.3195343-1.9500427-0.9571056-3.9329338L25.9866638,44.916748h3.7955685l3.0430279,9.8472824
	c0.683857,2.2359848,0.9690475,3.7970619,0.8548241,4.6862297c1.6641083-4.4443436,2.826519-9.2903366,3.4887276-14.534256h3.658947
	v0.0014915V44.9174995z"/>
<path fill="#F8981D" d="M92.2553406,61.948288H81.2807465V38.8650436h3.6917953v20.2417946h7.2827988V61.948288z
	 M78.4079285,62.5059776l-4.2435074-2.0941315c0.3762665-0.309082,0.7361221-0.6435432,1.0601273-1.0310135
	c1.8037186-2.1187668,2.7033386-5.2521286,2.7033386-9.4023247c0-7.6366806-2.9967346-11.4568863-8.9924545-11.4568863
	c-2.9400024,0-5.2334671,0.9690475-6.8736839,2.9078941c-1.8022232,2.1202583-2.7018433,5.2424278-2.7018433,9.3702202
	c0,4.0576134,0.7973404,7.0341949,2.3927612,8.9222755c1.459549,1.7103958,3.6596947,2.5667152,6.6019325,2.5667152
	c1.0974655,0,2.1045914-0.1343842,3.0221252-0.4053879l5.5246277,3.2162323L78.4079285,62.5059776z M64.6613083,57.3292542
	c-0.9347076-1.5035973-1.4020615-3.9180107-1.4020615-7.2469711c0-5.8120575,1.7656403-8.7214508,5.3006592-8.7214508
	c1.8477631,0,3.2020416,0.6958046,4.0680618,2.0844307c0.9332199,1.5058327,1.4028091,3.8985939,1.4028091,7.1812744
	c0,5.8598366-1.767128,8.7901344-5.2999115,8.7901344c-1.8485107,0.0007439-3.2027893-0.6928215-4.0695648-2.0874138
	 M57.7510452,55.5501709c0,1.9575119-0.7182007,3.5633888-2.1531143,4.8213577
	c-1.436409,1.2527504-3.3625565,1.8806114-5.776226,1.8806114c-2.2576332,0-4.446579-0.7211876-6.5653496-2.1560974
	l0.9921951-1.9821472c1.8231316,0.9130592,3.4738007,1.3669739,4.9557457,1.3669739
	c1.3908615,0,2.4778709-0.3083344,3.2662506-0.9197769c0.787632-0.6136818,1.257225-1.4744797,1.257225-2.5629807
	c0-1.3714485-0.9563599-2.5435677-2.7108002-3.5253105c-1.6178207-0.8884201-4.8534622-2.7458916-4.8534622-2.7458916
	c-1.7536964-1.2781296-2.6316643-2.6503296-2.6316643-4.9109497c0-1.8709068,0.6547394-3.3812218,1.9649773-4.5301971
	c1.3117294-1.15345,3.0042076-1.7283134,5.0789299-1.7283134c2.142662,0,4.0904617,0.5741119,5.8449097,1.7103958
	l-0.8899155,1.9828911c-1.5006104-0.6375694-2.9818077-0.956356-4.442852-0.956356
	c-1.1833153,0-2.0971146,0.2844429-2.7324524,0.8555756c-0.6405602,0.5688858-1.0354958,1.2967911-1.0354958,2.1896896
	c0,1.3647385,0.9765129,2.5517845,2.7787399,3.5529366c1.6394691,0.8899155,4.9557419,2.7794876,4.9557419,2.7794876
	c1.7984886,1.2758904,2.6966171,2.6353951,2.6966171,4.8780937"/>
<path fill="#5D87A1" d="M96.8900528,31.1335468c-2.232254-0.0567379-3.960556,0.1679764-5.4111481,0.7816582
	c-0.4188309,0.1672306-1.0847702,0.1672306-1.1430054,0.6965504c0.2262039,0.2239723,0.2523346,0.5853081,0.4486847,0.8943901
	c0.334465,0.5576897,0.9175415,1.3079948,1.4498444,1.6991997c0.5845718,0.4479408,1.1713715,0.891407,1.7865524,1.2818642
	c1.0847702,0.6711693,2.3143768,1.0616226,3.371521,1.7305527c0.615921,0.3889656,1.2281113,0.8921547,1.8447723,1.3109779
	c0.3031158,0.2232285,0.4972153,0.5853081,0.8906555,0.7249222v-0.0851097
	c-0.1971054-0.2508469-0.2530899-0.613678-0.4464569-0.8928986l-0.8376465-0.8077888
	c-0.809288-1.0870094-1.8149185-2.0359001-2.8996887-2.8153267c-0.8928986-0.6151733-2.8459244-1.4513359-3.2080154-2.4801102
	l-0.0567398-0.056736c0.6136856-0.0574875,1.3415833-0.2799644,1.9246597-0.4509239
	c0.9488907-0.250103,1.8141632-0.193367,2.7876968-0.4434662c0.4479446-0.1119881,0.8921585-0.2523403,1.3415833-0.3904591
	v-0.2515926c-0.5046768-0.5024414-0.8645325-1.1698799-1.39534-1.6446991
	c-1.4199753-1.2266159-2.9847946-2.4263592-4.6018677-3.4304981c-0.8660278-0.5591831-1.9799042-0.9190311-2.9019241-1.3945923
	c-0.332222-0.1679783-0.8921509-0.2508469-1.0877533-0.5300655c-0.5001984-0.6136818-0.7816544-1.4214725-1.1444931-2.1478863
	c-0.8062973-1.5327129-1.589447-3.2334023-2.2852554-4.8542061c-0.5031891-1.0870094-0.8092804-2.1725245-1.4229584-3.1781559
	c-2.8742981-4.7407284-5.9957199-7.6120434-10.79319-10.4303522c-1.0310135-0.5868046-2.2576294-0.8369055-3.5678635-1.144495
	L67.440033,2.7138085c-0.4464493-0.1956027-0.8936386-0.726414-1.2833557-0.9772637
	c-1.5916901-1.0033921-5.689621-3.1781552-6.8602486-0.3068404c-0.7540359,1.8149152,1.1153831,3.599221,1.7574272,4.5197449
	c0.4740753,0.6390643,1.088501,1.3662271,1.4199791,2.0918922c0.1963501,0.4740715,0.2515945,0.9772606,0.4479446,1.4782114
	c0.4464493,1.2273636,0.863781,2.5928421,1.4505882,3.7380838c0.3060989,0.5838194,0.6398163,1.1975002,1.0310135,1.7260733
	c0.2239685,0.309082,0.613678,0.4457035,0.6987839,0.9496384c-0.3889618,0.5554495-0.4195709,1.3938494-0.6427917,2.0911455
	c-1.0033951,3.1512794-0.6114426,7.0551033,0.8107758,9.370966c0.4449539,0.6972961,1.5065765,2.2322464,2.9265594,1.6439533
	c1.257225-0.5016937,0.9787521-2.0911503,1.3400879-3.4849968c0.0828705-0.3367004,0.0283737-0.5576897,0.1956024-0.7786732
	v0.0545006c0.3889694,0.7801704,0.781662,1.5319633,1.1422577,2.3143749
	c0.8652725,1.3654804,2.3718567,2.7884445,3.6268463,3.7343502c0.6681747,0.5046844,1.1974945,1.3677197,2.0344086,1.676054
	v-0.083622h-0.0552444c-0.1694717-0.2500992-0.4173355-0.3620872-0.6398163-0.5561962
	c-0.5031891-0.5024414-1.0601273-1.116127-1.450592-1.6730652c-1.1691284-1.5625763-2.2038803-3.2923832-3.1221619-5.0774345
	c-0.4494324-0.866024-0.8369064-1.8126774-1.1989899-2.677206c-0.1687241-0.3337154-0.1687241-0.8369045-0.4486923-1.0048847
	c-0.4195709,0.6129341-1.0310135,1.1437492-1.3371124,1.8948002c-0.5308075,1.2012348-0.5860596,2.6786957-0.7831497,4.2151451
	l-0.1097488,0.0537529c-0.8884277-0.2232285-1.1975021-1.1422539-1.5349503-1.9224205
	c-0.8354187-1.9813995-0.975769-5.1617966-0.2508469-7.4477959c0.1941071-0.5845661,1.0339966-2.4256115,0.6987839-2.9825525
	c-0.1679764-0.5337992-0.7264099-0.8376541-1.0325089-1.2579737c-0.359848-0.528573-0.7540359-1.1975012-1.0048904-1.7843056
	c-0.6689301-1.5610809-1.0056305-3.2908888-1.7260666-4.8512235c-0.3367004-0.72716-0.9212723-1.4797034-1.3945999-2.1493807
	c-0.5315552-0.7525434-1.116127-1.2826087-1.5364418-2.1747615c-0.1388588-0.3068404-0.3337173-0.808537-0.1104965-1.1422535
	c0.0545006-0.2239709,0.1679802-0.3075866,0.390461-0.36358c0.3613396-0.305348,1.3938446,0.0828695,1.7559319,0.250847
	c1.0340042,0.418081,1.8985329,0.808537,2.76157,1.3938496c0.3904572,0.2799642,0.8092804,0.8100293,1.3102264,0.9496386h0.5868073
	c0.8906631,0.1941071,1.8948059,0.0537519,2.7332077,0.3060942c1.4774551,0.4748206,2.8160629,1.171371,4.0165482,1.9231682
	c3.652977,2.3166127,6.66539,5.6082463,8.6990509,9.5396919c0.3337173,0.6405592,0.4755707,1.2273645,0.7801666,1.8955469
	c0.5875549,1.3677197,1.3139725,2.7623158,1.8970413,4.1009178c0.5860596,1.3102341,1.1444931,2.6480885,1.9813995,3.7365913
	c0.4173355,0.58531,2.0941315,0.8921528,2.8459244,1.1989956c0.5561981,0.2501011,1.4222183,0.4725819,1.923912,0.7794189
	c0.9488907,0.5845642,1.8940582,1.2557335,2.7862015,1.898531c0.4442139,0.3344631,1.8403015,1.031765,1.923172,1.5901966
	 M68.4412003,6.8968492C68.05616,6.892848,67.6722946,6.9400468,67.2996979,7.0372047v0.0559936h0.0537491
	c0.2247238,0.445703,0.6151733,0.7547846,0.8936462,1.1437488c0.2247162,0.4471951,0.4195709,0.8906603,0.6398163,1.3371096
	l0.0537491-0.0552473c0.3934402-0.2784719,0.5890427-0.7249212,0.5890427-1.3945951
	c-0.1694641-0.1970954-0.1956024-0.3897104-0.3367004-0.5853128c-0.1642456-0.2792182-0.526329-0.4180808-0.7517929-0.6420522"/>
<path fill="#F8981D" d="M99.5463562,61.9445572h0.5778503v-2.8280144h-0.8667679l-0.7070084,1.9298859l-0.7682266-1.9298859
	h-0.8346634v2.8280144h0.5457458v-2.1516228h0.0306091l0.8048019,2.1516228h0.4158478l0.8018188-2.1516228v2.1516228H99.5463562z
	 M94.8914795,61.9445572h0.6114426v-2.3487091h0.8003311v-0.4800453h-2.2456818v0.4800453h0.832428l0.0014954,2.3487091H94.8914795z
	"/>
</svg>
