<?xml version="1.0" encoding="utf-8"?>
<!-- Generator: Adobe Illustrator 23.0.0, SVG Export Plug-In . SVG Version: 6.00 Build 0)  -->
<!DOCTYPE svg PUBLIC "-//W3C//DTD SVG 1.1//EN" "http://www.w3.org/Graphics/SVG/1.1/DTD/svg11.dtd" [
	<!ENTITY ns_extend "http://ns.adobe.com/Extensibility/1.0/">
	<!ENTITY ns_ai "http://ns.adobe.com/AdobeIllustrator/10.0/">
	<!ENTITY ns_graphs "http://ns.adobe.com/Graphs/1.0/">
	<!ENTITY ns_vars "http://ns.adobe.com/Variables/1.0/">
	<!ENTITY ns_imrep "http://ns.adobe.com/ImageReplacement/1.0/">
	<!ENTITY ns_sfw "http://ns.adobe.com/SaveForWeb/1.0/">
	<!ENTITY ns_custom "http://ns.adobe.com/GenericCustomNamespace/1.0/">
	<!ENTITY ns_adobe_xpath "http://ns.adobe.com/XPath/1.0/">
]>
<svg version="1.1" id="Layer_1" xmlns:x="&ns_extend;" xmlns:i="&ns_ai;" xmlns:graph="&ns_graphs;"
	 xmlns="http://www.w3.org/2000/svg" xmlns:xlink="http://www.w3.org/1999/xlink" x="0px" y="0px" viewBox="0 0 107.9392929 43"
	 enable-background="new 0 0 107.9392929 43" xml:space="preserve">
<metadata>
	<sfw  xmlns="&ns_sfw;">
		<slices></slices>
		<sliceSourceBounds  bottomLeftOrigin="true" height="43" width="107.9392929" x="1197.3682861" y="1866.8417969">
			</sliceSourceBounds>
	</sfw>
</metadata>
<g>
	
		<linearGradient id="SVGID_1_" gradientUnits="userSpaceOnUse" x1="-907.1833496" y1="1259.2797852" x2="-907.1833496" y2="1259.2149658" gradientTransform="matrix(445.3906555 0 0 -794.2871094 404098.125 1000230.375)">
		<stop  offset="0" style="stop-color:#0994DC"/>
		<stop  offset="0.35001" style="stop-color:#66CEF5"/>
		<stop  offset="0.35001" style="stop-color:#66CEF5"/>
		<stop  offset="0.84616" style="stop-color:#127BCA"/>
		<stop  offset="0.84616" style="stop-color:#127BCA"/>
		<stop  offset="1" style="stop-color:#127BCA"/>
	</linearGradient>
	<path fill="url(#SVGID_1_)" d="M37.4892693,8.7815847c3.8897209,11.8958178,5.3634338,33.1169472,16.7388725,33.1169472
		c0.8658867,0,1.7411232-0.0848885,2.6193237-0.2521248C46.506855,39.2354927,45.2810249,18.2452679,38.9714737,7.3753605
		c-0.5033112,0.4590507-0.997612,0.9278812-1.4826241,1.4062243"/>
	
		<linearGradient id="SVGID_2_" gradientUnits="userSpaceOnUse" x1="-907.2608032" y1="1259.2385254" x2="-907.2608032" y2="1259.1737061" gradientTransform="matrix(467.4706726 0 0 -814.5214844 424166.9375 1025676.1875)">
		<stop  offset="0" style="stop-color:#0E76BC"/>
		<stop  offset="0.36" style="stop-color:#36AEE8"/>
		<stop  offset="0.36" style="stop-color:#36AEE8"/>
		<stop  offset="0.84616" style="stop-color:#00ADEF"/>
		<stop  offset="0.84616" style="stop-color:#00ADEF"/>
		<stop  offset="1" style="stop-color:#00ADEF"/>
	</linearGradient>
	<path fill="url(#SVGID_2_)" d="M38.9714699,7.3753605c6.3099709,10.8699093,7.5353775,31.8601322,17.875988,34.2710495
		c0.8124123-0.148983,1.6265182-0.3747978,2.4423218-0.6596069C50.008194,36.4395981,47.4427757,16.056345,40.2766762,6.2437592
		c-0.4423294,0.3688893-0.8774757,0.7463026-1.3052025,1.1320262"/>
	<path fill="#14559A" d="M48.0629082,0.9104626c-0.8641968,0-1.7411194,0.0848913-2.6210213,0.2521271
		c-2.3018265,0.4337946-4.6401596,1.4249007-6.9971657,2.9245057c0.643898,0.6354113,1.2563896,1.3625059,1.8328018,2.1562395
		c2.3973312-1.989428,4.7789574-3.459321,7.152092-4.3430395c0.8660545-0.3240569,1.7586555-0.5721669,2.6677094-0.7415257
		c-0.665123-0.1673258-1.3485756-0.2507433-2.03442-0.2483071"/>
	
		<linearGradient id="SVGID_3_" gradientUnits="userSpaceOnUse" x1="-907.8078613" y1="1259.0351563" x2="-907.8078613" y2="1259.0860596" gradientTransform="matrix(443.8768921 0 0 -825.1953125 403014.6875 1038990.5625)">
		<stop  offset="0" style="stop-color:#1C63B7"/>
		<stop  offset="0.5" style="stop-color:#33BDF2"/>
		<stop  offset="1" style="stop-color:#33BDF2;stop-opacity:0.42"/>
	</linearGradient>
	<path fill="url(#SVGID_3_)" d="M66.5352554,36.7948685c0.9888382-0.7900047,1.9411774-1.6246414,2.8540497-2.5013237
		C65.4367676,22.4529057,64.022049,0.9282882,52.5668182,0.9282882c-0.8192024,0-1.6456184,0.0764022-2.4703369,0.2292066
		C60.5308952,3.7526219,61.8675117,26.454258,66.5356827,36.7948685"/>
	<path fill="#3092C4" d="M50.0969048,1.1579207c-0.6651573-0.1671038-1.3486023-0.2503774-2.03442-0.2478826l4.5047569,0.0165538
		c-0.8192024,0-1.6456184,0.0764022-2.4703369,0.2309045"/>
	<path fill="#1969BC" d="M66.3353424,39.3101997c-0.4477997-0.427002-0.8731155-0.8956032-1.291626-1.3956146
		c-1.9270287,1.3642006-3.8464203,2.3990288-5.7543564,3.072216c0.6809769,0.334465,1.4020805,0.5801125,2.1456223,0.7309151
		c0.6015701,0.1218109,1.2139359,0.1823921,1.8277092,0.1808167c2.1405373,0,3.8328438-0.2533989,5.2738762-0.9444122
		c-0.7937317-0.4287033-1.5208282-0.9847412-2.2012329-1.6439209"/>
	
		<linearGradient id="SVGID_4_" gradientUnits="userSpaceOnUse" x1="-907.678833" y1="1259.0919189" x2="-907.678833" y2="1259.0270996" gradientTransform="matrix(439.5605774 0 0 -845.6835938 399036.78125 1064787.375)">
		<stop  offset="0" style="stop-color:#166AB8"/>
		<stop  offset="0.39999" style="stop-color:#36AEE8"/>
		<stop  offset="0.39999" style="stop-color:#36AEE8"/>
		<stop  offset="0.84616" style="stop-color:#0798DD"/>
		<stop  offset="0.84616" style="stop-color:#0798DD"/>
		<stop  offset="1" style="stop-color:#0798DD"/>
	</linearGradient>
	<path fill="url(#SVGID_4_)" d="M47.4287682,1.901993c9.3456841,4.8880415,10.1580963,27.0243015,17.6153755,36.0125961
		c0.5074921-0.3585396,1.0043182-0.7319374,1.4898376-1.1197166C61.8658066,26.4542599,60.5308914,3.7509284,50.0985985,1.1574984
		c-0.9096298,0.1712223-1.8028603,0.4203044-2.6698341,0.7444967"/>
	
		<linearGradient id="SVGID_5_" gradientUnits="userSpaceOnUse" x1="-907.3266602" y1="1259.0957031" x2="-907.3266602" y2="1259.0308838" gradientTransform="matrix(569.8339844 0 0 -899.2382813 517078.1875 1132221.375)">
		<stop  offset="0" style="stop-color:#124379"/>
		<stop  offset="0.39" style="stop-color:#1487CB"/>
		<stop  offset="0.39" style="stop-color:#1487CB"/>
		<stop  offset="0.7802299" style="stop-color:#165197"/>
		<stop  offset="0.7802299" style="stop-color:#165197"/>
		<stop  offset="1" style="stop-color:#165197"/>
	</linearGradient>
	<path fill="url(#SVGID_5_)" d="M40.2766762,6.2437592c7.1656761,9.8125858,9.7315178,30.1954155,19.0131035,34.743042
		c1.9079323-0.6731873,3.8277512-1.7080154,5.754364-3.072216C57.5868645,28.9262905,56.7744522,6.7900324,47.4287682,1.901991
		c-2.3727112,0.8820208-4.7547646,2.3519139-7.152092,4.341342"/>
	
		<linearGradient id="SVGID_6_" gradientUnits="userSpaceOnUse" x1="-906.0284424" y1="1259.8208008" x2="-905.9849854" y2="1259.8208008" gradientTransform="matrix(189.6386566 0 0 -301.9628906 171847.265625 380431.3125)">
		<stop  offset="0" style="stop-color:#33BDF2;stop-opacity:0.698"/>
		<stop  offset="1" style="stop-color:#1DACD8"/>
	</linearGradient>
	<path fill="url(#SVGID_6_)" d="M32.9042892,8.4950771c-1.1231098,2.5395231-2.2704182,5.87745-3.6575413,10.2344971
		c2.758543-3.8863239,5.508173-7.2352877,8.2425213-9.9475641c-0.3764915-1.157918-0.7809982-2.2254262-1.2169151-3.1770577
		c-1.1738205,0.9021187-2.298008,1.8670435-3.3676376,2.8905492"/>
	<path fill="#2B74B1" d="M37.2681274,4.8723402C36.93256,5.1111703,36.6008759,5.3554068,36.273201,5.6049523
		c0.4359169,0.9512072,0.8383026,2.0187154,1.2152176,3.1766324c0.4857292-0.4774561,0.9798698-0.9462724,1.4822044-1.4062243
		c-0.5293007-0.9096103-1.0917015-1.7496099-1.7024994-2.5030203"/>
	<path fill="#125A9E" d="M38.4442978,4.0875201c-0.3978691,0.2528639-0.7901573,0.5143914-1.1765976,0.7843957
		c0.6112213,0.7534103,1.1731987,1.59341,1.7046165,2.5047188c0.4267998-0.3871856,0.8619728-0.7650409,1.3052025-1.1332989
		c-0.575985-0.7933092-1.1884766-1.5208282-1.8328018-2.1562395"/>
	
		<linearGradient id="SVGID_7_" gradientUnits="userSpaceOnUse" x1="-908.302002" y1="1258.9862061" x2="-908.302002" y2="1259.0286865" gradientTransform="matrix(772.8809204 0 0 -963.6633911 702100.4375 1213278.625)">
		<stop  offset="0" style="stop-color:#136AB4"/>
		<stop  offset="0.6" style="stop-color:#59CAF5;stop-opacity:0.549"/>
		<stop  offset="1" style="stop-color:#59CAF5;stop-opacity:0.235"/>
	</linearGradient>
	<path fill="url(#SVGID_7_)" d="M102.1921539,0.0046723c-5.285759,20.3845272-16.3258743,36.7570877-25.5820007,40.8849297
		h-0.0169754c-0.1685104,0.0764008-0.3353195,0.1460114-0.5000076,0.213501
		c-0.0229187,0.0140038-0.0437164,0.0157051-0.0611191,0.0237694c-0.0483856,0.0195236-0.0933838,0.0348053-0.1421967,0.0543289
		c-0.0229187,0.0135803-0.0432968,0.0182533-0.0640945,0.0263138c-0.0781021,0.0280151-0.1544952,0.0513611-0.2309036,0.0819206
		c-0.0331116,0.0140076-0.0640945,0.0224991-0.0955048,0.033535c-0.037529,0.0144272-0.0757828,0.0268936-0.1146088,0.0373497
		c-0.0348053,0.0135803-0.0713043,0.0237694-0.1112061,0.0390511c-0.0331039,0.0135841-0.0679092,0.0195236-0.0988922,0.0331078
		c-0.0679169,0.0195274-0.1298904,0.0360794-0.1977997,0.0594254c-0.0280151,0-0.0539093,0.0152817-0.0831985,0.0229225
		c-0.0420151,0.0135803-0.0891342,0.0233421-0.1341248,0.0360756c-0.030983,0.0135841-0.0568771,0.0182533-0.0899811,0.0250435
		c-0.0466919,0.0135803-0.0988998,0.0263138-0.1460114,0.0373497l-0.177002,0.0390511
		c0.4239197,0.156292,0.8724899,0.2350769,1.3243027,0.2326012c8.7769089,0,17.6259842-15.7286606,32.2684631-41.8849487h-5.7492599
		l0.002121,0.004669V0.0046723z"/>
	
		<linearGradient id="SVGID_8_" gradientUnits="userSpaceOnUse" x1="-906.0919189" y1="1259.0252686" x2="-906.0484619" y2="1259.0252686" gradientTransform="matrix(703.3397827 0 0 -968.3691406 637290.5 1219223.25)">
		<stop  offset="0" style="stop-color:#05A1E6;stop-opacity:0.247"/>
		<stop  offset="1" style="stop-color:#05A1E6"/>
	</linearGradient>
	<path fill="url(#SVGID_8_)" d="M27.3409386,1.7377284c0.0055199,0,0.0127335-0.0135826,0.015707-0.0135826
		c0.0072155,0,0.0178261,0,0.0212231-0.0135827h0.0110378c0.0483875-0.0169783,0.09338-0.0360788,0.1421909-0.0543305
		c0.0127335,0,0.0191002,0,0.0280151-0.0135826c0.01231,0,0.0241947-0.0140071,0.0365028-0.0157049
		c0.0517845-0.0165539,0.1039944-0.0360788,0.1528053-0.0539061h0.0080624
		c0.1163025-0.0348054,0.2241135-0.0781,0.3365955-0.1184233c0.0161285,0,0.0314083-0.0135826,0.0505104-0.0135826
		c0.0466919-0.0152805,0.0955029-0.0318344,0.1443138-0.0428702C28.3104,1.3841559,28.3328972,1.3841559,28.353693,1.3769401
		c0.0500851-0.014856,0.0988998-0.0318342,0.1455898-0.0428702c0.021225,0,0.0398998-0.0140071,0.055603-0.0152805
		c0.1612911-0.0445679,0.3213139-0.0861647,0.4826069-0.1247902c0.0224972,0,0.0415974-0.014007,0.0657902-0.0152804
		c0.04669-0.0135827,0.0904083-0.0212228,0.1409206-0.0280142c0.0207996-0.0135826,0.0449924-0.0135826,0.0691872-0.0207983
		c0.04669-0.0135827,0.0921078-0.0152805,0.1426163-0.0263164h0.0326843
		c0.0976276-0.0199493,0.1965237-0.0360788,0.2937241-0.0543303h0.059c0.04669-0.0135827,0.0882874-0.0152805,0.1354027-0.0237696
		c0.025465,0,0.0517845-0.0135826,0.0764027-0.0135826c0.043293,0,0.0865898-0.0140071,0.1298828-0.0195251
		c0.0229206,0,0.0449944,0,0.0713081-0.014007c0.102293-0.0135826,0.207983-0.0191006,0.3157978-0.0275897
		c-0.3103085-0.0311953-0.6219349-0.047485-0.9338036-0.0488125C19.7525101,0.9019731,6.1342463,19.2414684,0,42.9915123h1.1821116
		c1.9631115-3.5009193,3.7267284-6.8129539,5.3396635-9.9220963C10.8177004,16.2469292,19.5682964,4.7747154,27.3413696,1.7351838"
		/>
	<path fill="#0D82CA" d="M32.9047165,8.4950771c1.0694695-1.02352,2.1935158-1.9884453,3.3672142-2.8905492
		c-0.2386894-0.530993-0.5063591-1.0484772-0.8017998-1.5501156C34.56604,5.1516328,33.7396202,6.5994539,32.9047165,8.4950771"/>
	<path fill="#0D82CA" d="M33.7166977,1.8769501c0.6451721,0.5416065,1.2237091,1.2861034,1.753006,2.1787357
		c0.1668091-0.2050126,0.3353195-0.3943202,0.5101967-0.5713186c-0.7343102-0.6854973-1.527195-1.2479022-2.3884163-1.6715097
		c0.0348053,0.0191005,0.0696106,0.0348053,0.10569,0.0500859c0,0,0.0135841,0.0135826,0.0195236,0.0135826"/>
	
		<linearGradient id="SVGID_9_" gradientUnits="userSpaceOnUse" x1="-905.7720337" y1="1259.0888672" x2="-905.7720337" y2="1259.1469727" gradientTransform="matrix(479.0137024 0 0 -720.9277344 433894.125 907752.75)">
		<stop  offset="0" style="stop-color:#318ED5"/>
		<stop  offset="1" style="stop-color:#38A7E4"/>
	</linearGradient>
	<path fill="url(#SVGID_9_)" d="M6.5209188,33.071537C15.5338287,15.7040482,19.8038616,4.7123203,27.3409386,1.7368795
		C19.5695648,4.7785349,10.8172693,16.2507477,6.5213451,33.071537"/>
	<path fill="#127BCA" d="M35.9794769,3.4839427c-0.1753006,0.1786962-0.3416862,0.3663061-0.5101967,0.5713184
		c0.2956161,0.5016785,0.5638351,1.0189991,0.8034935,1.5496912c0.3276787-0.2494035,0.6593628-0.4934974,0.9949265-0.7321877
		c-0.3964424-0.4924641-0.8269043-0.9565413-1.2882271-1.3888221"/>
	
		<linearGradient id="SVGID_10_" gradientUnits="userSpaceOnUse" x1="-905.819519" y1="1259.8613281" x2="-905.819519" y2="1259.9343262" gradientTransform="matrix(445.3515625 0 0 -557.890625 403427.6875 702905.6875)">
		<stop  offset="0" style="stop-color:#05A1E6"/>
		<stop  offset="1" style="stop-color:#05A1E6;stop-opacity:0.549"/>
	</linearGradient>
	<path fill="url(#SVGID_10_)" d="M10.6126804,42.915535c-0.055604,0.0140038-0.111207,0.0140038-0.1634159,0.0195236h-0.0309858
		c-0.0471144,0-0.0959263,0.0140038-0.1392212,0.0140038h-0.0224953c-0.1129065,0.0135841-0.2241135,0.0135841-0.331501,0.0220757
		H9.890255c9.1219978-0.2551003,13.2914333-4.8222542,15.3610821-11.4463234
		c1.5726128-5.0217457,2.8638096-9.2523041,3.9958363-12.8020344c-3.8209591,5.3778667-7.6588936,11.7884331-11.5176296,18.9698162
		c-1.8608179,3.4610176-4.6902456,4.9067154-7.1172886,5.2165718"/>
	
		<linearGradient id="SVGID_11_" gradientUnits="userSpaceOnUse" x1="-906.0515747" y1="1259.2601318" x2="-906.0515747" y2="1259.3035889" gradientTransform="matrix(512.890625 0 0 -791.9335938 464727.125 997293.375)">
		<stop  offset="0" style="stop-color:#1959A6"/>
		<stop  offset="0.5" style="stop-color:#05A1E6"/>
		<stop  offset="0.5" style="stop-color:#05A1E6"/>
		<stop  offset="0.91759" style="stop-color:#7EC5EA"/>
		<stop  offset="1" style="stop-color:#7EC5EA"/>
	</linearGradient>
	<path fill="url(#SVGID_11_)" d="M10.6126804,42.9121361c2.4266176-0.3090019,5.2560453-1.7530022,7.1168633-5.2165718
		c3.8587341-7.1792583,7.6987934-13.5915222,11.5155048-18.9693871c1.3888226-4.35917,2.5348549-7.6953983,3.6596642-10.2349224
		c-7.6083832,7.2420769-15.246479,19.2839108-22.2924576,34.4174881"/>
	<path fill="#05A1E6" d="M6.5209188,33.0719604c-1.6129346,3.1087189-3.3765516,6.4207535-5.3396635,9.9220963h3.4385228
		c0.4342451-3.3419228,1.0691042-6.6547089,1.9011407-9.9203987"/>
	
		<linearGradient id="SVGID_12_" gradientUnits="userSpaceOnUse" x1="-906.2209473" y1="1259.0079346" x2="-906.2302246" y2="1259.0465088" gradientTransform="matrix(709.7363281 0 0 -966.8455811 643201 1217307)">
		<stop  offset="0" style="stop-color:#165096"/>
		<stop  offset="1" style="stop-color:#0D82CA"/>
	</linearGradient>
	<path fill="url(#SVGID_12_)" d="M30.2539845,0.9872892c-0.0280151,0-0.048811,0.0135827-0.0730057,0.0135827
		c-0.0415955,0.014007-0.0848904,0.014007-0.1286106,0.0182515c-0.0254669,0-0.0500851,0-0.0764027,0.0140071
		c-0.04669,0.0135826-0.089983,0.014856-0.1354008,0.0237696c-0.0207996,0-0.0415974,0-0.059,0.0135826
		c-0.0988998,0.0165538-0.1960983,0.0348054-0.2928753,0.0513593h-0.0331097
		c-0.0505123,0.0140071-0.0959263,0.0212228-0.1426163,0.0280141c-0.0241947,0.0135827-0.0483875,0.0135827-0.0713081,0.0191007
		c-0.0466919,0.014007-0.0933819,0.0195249-0.1387997,0.0280141c-0.0241928,0.0135826-0.043293,0.0135826-0.0657902,0.014856
		c-0.161293,0.0390501-0.3213158,0.0806469-0.4826069,0.1252148c-0.0169792,0-0.0348072,0.0135826-0.055603,0.0165538
		c-0.0483875,0.0135826-0.0955029,0.0275897-0.1460133,0.0428702c-0.0207996,0.0140071-0.0449944,0.0140071-0.0657902,0.0195249
		c-0.0483685,0.0133876-0.0964813,0.0276802-0.1443138,0.0428702c-0.0186768,0-0.0343819,0.0135827-0.0517845,0.0135827
		c-0.111208,0.0415968-0.2207165,0.0836179-0.3353214,0.117999c-0.0483875,0.0152805-0.1005955,0.0348054-0.1528053,0.0530571
		c-0.0207996,0.0135826-0.0394745,0.0169783-0.0636692,0.0263163c-0.048811,0.0152805-0.0976257,0.0348054-0.1426163,0.0526326
		c-0.0169792,0.0140071-0.0348053,0.0152804-0.04669,0.0224962c-7.537075,2.97544-11.8075333,13.9667425-20.8200188,31.3342342
		C5.6970611,36.3448257,5.0623317,39.6577988,4.6291161,43h0.4826074c1.3591094,0,1.7428184-0.0140076,3.3065162-0.0140076
		h1.5157347c0.1073875-0.0135803,0.2185946-0.0135803,0.3310757-0.0224953h0.0212231
		c0.04669,0,0.09338-0.0135803,0.1387968-0.0135803h0.0331078c0.0500851,0,0.1073875-0.0135841,0.1629915-0.0195236
		c7.0459795-15.1335754,14.68365-27.1754093,22.2924576-34.4174881c0.8361816-1.8951983,1.6609001-3.3430195,2.5637207-4.4385419
		c-0.5280266-0.8922079-1.1061363-1.6384022-1.7517319-2.1800091c0,0-0.0174026,0-0.0186768-0.014007
		c-0.0369263-0.014856-0.0713081-0.0331076-0.107811-0.0509348c-0.0365028-0.0199494-0.0679131-0.0352299-0.1061134-0.0543303
		C33.457531,1.7601414,33.4228249,1.743425,33.3890228,1.724998c-0.0449944-0.0140071-0.0814972-0.033532-0.1213989-0.0513593
		c-0.0331078-0.014007-0.0623932-0.0280141-0.0955009-0.0415968C33.1048965,1.605945,33.038372,1.5780625,32.9726295,1.548424
		c-0.0297127-0.0135826-0.0573044-0.0212228-0.0848923-0.0318342c-0.0504951-0.0183841-0.1004601-0.0382001-0.1498299-0.0594239
		c-0.0241966-0.0140071-0.0517845-0.0169783-0.0797997-0.0267408c-0.0708847-0.0237696-0.1404953-0.0488125-0.2062874-0.0708842
		h-0.0174026c-0.0797997-0.0263164-0.1578979-0.0458413-0.2393951-0.0679132
		c-0.0191002-0.014007-0.0348053-0.014007-0.0539055-0.0169781c-0.0713081-0.0191007-0.1337051-0.0382011-0.2011909-0.0564528
		c-0.0169792,0-0.0331097-0.0140071-0.04669-0.0140071c-0.166008-0.0425271-0.3334923-0.0790541-0.5021324-0.1095097
		c-0.0169792,0-0.0343819-0.0140071-0.0517845-0.0140071c-0.071846-0.0142783-0.1441936-0.0258881-0.216898-0.0348054
		c-0.0178261-0.0135826-0.0280151-0.0135826-0.043293-0.0135826c-0.0854797-0.0130999-0.1712399-0.0242801-0.2572212-0.0335321
		h-0.0449944c-0.0696125-0.0135826-0.1337051-0.014856-0.1977978-0.0220718
		c-0.1095123,0.0135826-0.213501,0.019525-0.3162212,0.0292875"/>
	
		<linearGradient id="SVGID_13_" gradientUnits="userSpaceOnUse" x1="-909.8494263" y1="1259.1641846" x2="-909.8494263" y2="1259.1989746" gradientTransform="matrix(319.9902039 0 0 -558.8476563 291227.0625 703700.5625)">
		<stop  offset="0" style="stop-color:#05A1E6"/>
		<stop  offset="0.87363" style="stop-color:#0495D6"/>
		<stop  offset="1" style="stop-color:#0495D6"/>
	</linearGradient>
	<path fill="url(#SVGID_13_)" d="M81.5453186,11.2896986c-1.7339096,5.554862-3.1384354,10.1372957-4.3604431,13.9077444
		c4.7581635-6.5476665,9.4450073-14.7846727,13.9081726-24.2899532c-5.2059631,1.6350067-7.9836121,5.3778648-9.5477295,10.3822079"
		/>
	
		<linearGradient id="SVGID_14_" gradientUnits="userSpaceOnUse" x1="-908.6791992" y1="1259.0339355" x2="-908.692627" y2="1258.986084" gradientTransform="matrix(588.5742798 0 0 -940.6542969 534918.5 1184313.875)">
		<stop  offset="0" style="stop-color:#38A7E4;stop-opacity:0.329"/>
		<stop  offset="0.96153" style="stop-color:#0E88D3"/>
		<stop  offset="0.96153" style="stop-color:#0E88D3"/>
		<stop  offset="1" style="stop-color:#0E88D3"/>
	</linearGradient>
	<path fill="url(#SVGID_14_)" d="M77.3359756,40.5423965c-0.2427902,0.1239395-0.4860001,0.2415161-0.7258224,0.3472061
		c9.2561264-4.1278419,20.2962418-20.5004044,25.5820007-40.8849297h-1.0713272
		C88.9771194,21.6977997,85.0712738,36.2201538,77.3359756,40.5423965"/>
	<path fill="#079AE1" d="M71.2921448,38.7202034c2.0136185-2.4580269,3.6541367-6.6363792,5.8935699-13.5227604
		c-2.5832367,3.5484562-5.1834641,6.598175-7.7858047,9.0859165c0,0.0135803,0,0.0135803-0.0135803,0.0220718
		c0.5674973,1.7012215,1.1905975,3.2025223,1.9007111,4.4143486"/>
	<path fill="#1969BC" d="M71.2921448,38.7202034c-0.6855011,0.8361816-1.4113235,1.4737129-2.2186432,1.9457092
		c-0.177002,0.1027184-0.35569,0.1994972-0.5377808,0.2886314c0.8758316,0.4742851,1.834404,0.7764206,2.8239059,0.8900833
		c0.1528091,0.0152817,0.3039169,0.0292892,0.4618073,0.0403252h0.0280151c0.0708847,0,0.1455917,0,0.2219849,0.0135803h0.7534103
		c0.0275879,0,0.0564499,0,0.084465-0.0135803c0.0539093,0,0.1107864,0,0.1663895-0.0140038h0.0823441
		c0.0568771,0,0.119278-0.0135841,0.180397-0.0195274h0.0135803c0.0182495,0,0.0377808-0.0135803,0.055603-0.0135803
		c0.0636673-0.0140038,0.1307297-0.0195236,0.1927032-0.0292854h0.0572968
		c0.0704575-0.0135841,0.1438904-0.0224991,0.2164688-0.0360794h0.0352325
		c0.1455841-0.0280151,0.2877731-0.0551796,0.4320984-0.0916862c-1.1944199-0.4371872-2.1944427-1.4686165-3.0552368-2.9372368"/>
	<path fill="#1E5CB3" d="M54.2281418,41.8985329c0.8663139,0,1.7411194-0.0848885,2.6197433-0.2533989
		c0.8124084-0.1472855,1.6265182-0.3735199,2.4423218-0.6579094c0.680378,0.3341293,1.4007339,0.5797653,2.1435051,0.7309151
		c0.6023026,0.1216965,1.2153664,0.1821365,1.8298378,0.1803932H54.2281418z"/>
	<path fill="#1E5CB3" d="M63.2635498,41.8985329c2.1388321,0,3.83284-0.2533989,5.2717514-0.9444122
		c0.8759232,0.4745827,1.8346329,0.7770081,2.8243332,0.890934c0.1528015,0.0148544,0.3039093,0.028862,0.4618073,0.0398979
		h0.0280151c0.0708847,0,0.1455841,0,0.2219849,0.0140076h0.2597656h-9.0736046h0.0059471V41.8985329z"/>
	<path fill="#1D60B5" d="M72.3363037,41.8985329h0.4949188c0.0292892,0,0.0568771,0,0.0848923-0.0135803
		c0.0539017,0,0.1107864,0,0.1685104-0.0140038h0.0819168c0.0568771,0,0.119278-0.0135841,0.1786957-0.0191002h0.0152817
		c0.0182495,0,0.0360794-0.0135841,0.0543289-0.0135841c0.0636673-0.0140038,0.1303177-0.0195236,0.1922836-0.0297089
		c0.021225,0,0.0377808,0,0.0598526-0.0135841c0.0708847-0.0135803,0.14431-0.0207977,0.2173157-0.0343819h0.0348053
		c0.1455917-0.0280151,0.2877808-0.055603,0.4316711-0.0916824c0.4239349,0.1562538,0.8724976,0.2350388,1.3243027,0.2326012
		l-3.3362274,0.0135803L72.3363037,41.8985329z"/>
	<path fill="#175FAB" d="M69.3918457,34.3058548V34.291851c-0.9127045,0.8767014-1.8648987,1.7113419-2.8536224,2.5013199
		c-0.4863205,0.3873024-0.9835587,0.7606926-1.4911194,1.1197166c0.4180908,0.5000114,0.843399,0.9686089,1.291626,1.3960381
		c0.680397,0.6591835,1.4074936,1.2147942,2.2008057,1.6434975c0.1808167-0.0891342,0.3607864-0.1859131,0.5365143-0.288208
		c0.8085861-0.4719925,1.5344162-1.1091042,2.2199097-1.9457092c-0.7096939-1.2118225-1.3327942-2.7131233-1.9007187-4.4143486"/>
	
		<linearGradient id="SVGID_15_" gradientUnits="userSpaceOnUse" x1="-908.3243408" y1="1259.0286865" x2="-908.3243408" y2="1258.984375" gradientTransform="matrix(686.3376465 0 0 -958.1151733 623503.375 1206294.375)">
		<stop  offset="0" style="stop-color:#168CD4"/>
		<stop  offset="0.5" style="stop-color:#1C87CC"/>
		<stop  offset="1" style="stop-color:#154B8D"/>
	</linearGradient>
	<path fill="url(#SVGID_15_)" d="M97.7289963,0.0046723h-5.3910294c-0.2911758,0.0140071-0.5742874,0.0237696-0.8535843,0.0415967
		c-0.1320038,0.2831126-0.2674026,0.5662251-0.3977127,0.8510355c-4.4627304,9.5052795-9.1495819,17.7422829-13.9077454,24.2899513
		c-2.2377319,6.8859596-3.8795319,11.0643082-5.893158,13.5223351c0.8608017,1.4686203,1.8625183,2.5013237,3.0531158,2.9389381
		c0.0348053-0.0140076,0.0628204-0.0140076,0.0938034-0.021225h0.0195236c0.0207977,0,0.0432968-0.0135803,0.0657959-0.0135803
		c0.0483856-0.0140076,0.1005936-0.0224991,0.1494064-0.0373535c0.030983-0.0140038,0.0568771-0.0152817,0.0882874-0.0254669
		c0.0454102-0.0135803,0.0921021-0.0233421,0.1337051-0.0343819c0.0280075-0.0140038,0.055603-0.0182495,0.0831909-0.0237694
		c0.0696106-0.0224953,0.1320038-0.0390511,0.1982193-0.059845c0.030983-0.0135841,0.0640945-0.0254669,0.0988998-0.033535
		c0.0382004-0.0135803,0.0764008-0.0233459,0.1112061-0.0398979c0.0398941-0.0140076,0.0797958-0.021225,0.1146011-0.0360794
		c0.030983-0.0140076,0.0636673-0.0224953,0.0933838-0.0348053c0.0781021-0.0280151,0.1545029-0.0513611,0.232605-0.0819206
		c0.021225,0,0.0420151-0.0195236,0.0645142-0.0237694c0.0466843-0.0195236,0.0955048-0.0348053,0.1421967-0.055603
		c0.0169754-0.0140076,0.0381927-0.0152817,0.0606995-0.0224953c0.1634064-0.0679169,0.3314972-0.1375237,0.5-0.213501h0.0174103
		c0.2445984-0.1088829,0.4860687-0.2246628,0.7241135-0.3472061c7.7365723-4.3222427,11.6428528-18.8445988,23.7865448-40.5377235
		h-3.3918304l0.0042419-0.0016978L97.7289963,0.0046723z"/>
	<path fill="#7DCBEC" d="M30.5702038,0.9580017c0.0191002,0,0.0365028,0,0.0551796,0.0135826
		c0.0471134,0,0.0942287,0,0.1409187,0.0152804h0.0466919c0.0853138,0.0135826,0.1702061,0.0212229,0.2572212,0.0335321
		c0.0157051,0,0.0297108,0,0.043293,0.0135827c0.0713081,0.0135826,0.1443138,0.0254673,0.216898,0.0360788
		c0.015707,0,0.0365028,0.014007,0.0539055,0.014007c0.166811,0.0331076,0.337019,0.0679132,0.5000114,0.1107832
		c0.0152817,0,0.0314083,0.014007,0.0449924,0.014007c0.0696125,0.0165539,0.1320057,0.0373522,0.2016163,0.0568773
		c0.021225,0,0.0360794,0.0135826,0.0551796,0.0169783c0.0819206,0.0207983,0.1583214,0.0415968,0.2376938,0.0679131
		c0.0038223,0,0.0084877,0,0.0178261,0.0135827c0.0679169,0.0207983,0.1371002,0.0471146,0.2079849,0.0708842
		c0.0284386,0.0135826,0.0543289,0.0195251,0.0802231,0.0263163c0.0488091,0.0212228,0.1027145,0.0415968,0.1494064,0.0611218
		c0.0275917,0,0.0551796,0.0195249,0.0848923,0.029712c0.0640907,0.0288631,0.1315804,0.0551792,0.1977959,0.0827689
		c0.0348053,0.0140071,0.0640945,0.029712,0.0976257,0.0420213c0.0382004,0.0195249,0.0776749,0.0373521,0.1192741,0.0509347
		c0.0348053,0.0169783,0.0730057,0.0348053,0.1061134,0.0500859c0.0365028,0.0199494,0.0708847,0.0348053,0.1061134,0.0543303
		c0.8607979,0.4236078,1.65411,0.9877105,2.3884163,1.6719344c0.2629471-0.2768672,0.5459785-0.5339382,0.8467941-0.7691154
		c-1.6057243-1.1392412-3.4245186-1.7886598-5.5234547-1.7886598c-0.2432137,0-0.486002,0.0140071-0.7326126,0.0322587"/>
	<path fill="#5EC5ED" d="M35.9794769,3.4839427c0.4613228,0.4322829,0.8917847,0.8963597,1.2882271,1.3888218
		c0.3859901-0.2709312,0.7782974-0.5327511,1.1765938-0.7852445c-0.4995766-0.5030966-1.0413246-0.9624808-1.6193047-1.373117
		c-0.3007927,0.2347267-0.5834351,0.4918292-0.8455162,0.7691154"/>
	
		<linearGradient id="SVGID_16_" gradientUnits="userSpaceOnUse" x1="-906.5864868" y1="1253.0039063" x2="-906.555542" y2="1253.1019287" gradientTransform="matrix(316.9921875 0 0 41.5039063 287412.75 -52005.5507813)">
		<stop  offset="0" style="stop-color:#97D6EE"/>
		<stop  offset="0.7032899" style="stop-color:#55C1EA"/>
		<stop  offset="1" style="stop-color:#55C1EA"/>
	</linearGradient>
	<path fill="url(#SVGID_16_)" d="M30.5697784,0.9575775c0.2461853-0.0207983,0.489399-0.029712,0.7326107-0.029712
		c2.0985126,0,3.9177341,0.6494187,5.5234547,1.786962c1.6944275-1.3370382,3.7424316-1.8039403,6.5875664-1.8039403H29.6355515
		C29.9538937,0.9108872,30.2641716,0.9299878,30.5697784,0.9575775"/>
	
		<linearGradient id="SVGID_17_" gradientUnits="userSpaceOnUse" x1="-907.0275879" y1="1255.1612549" x2="-906.9976807" y2="1255.1132813" gradientTransform="matrix(258.515564 0 0 73.0859375 234518.34375 -91730.75)">
		<stop  offset="0" style="stop-color:#7ACCEC"/>
		<stop  offset="1" style="stop-color:#3FB7ED"/>
	</linearGradient>
	<path fill="url(#SVGID_17_)" d="M43.4134102,0.910887c-2.8451347,0-4.8931351,0.4669024-6.5875664,1.8039403
		c0.5772285,0.4109356,1.118515,0.8701496,1.6180267,1.3726928c2.3587036-1.4996052,4.6953354-2.4928336,6.9992867-2.9266284
		c0.8633499-0.1641825,1.740078-0.2478764,2.6188965-0.2500048h-4.6486511H43.4134102z"/>
	
		<linearGradient id="SVGID_18_" gradientUnits="userSpaceOnUse" x1="-908.5853271" y1="1259.067749" x2="-908.5853271" y2="1259.0148926" gradientTransform="matrix(508.2520752 0 0 -787.4511719 461870.8125 991456.625)">
		<stop  offset="0" style="stop-color:#1DA7E7"/>
		<stop  offset="1" style="stop-color:#37ABE7;stop-opacity:0"/>
	</linearGradient>
	<path fill="url(#SVGID_18_)" d="M77.1848679,25.20084c1.2237091-3.7734203,2.6248474-8.354578,4.3621445-13.9111395
		c1.566246-5.0064654,4.3379517-8.7488985,9.5439072-10.3822069c0.1375275-0.2797168,0.2674103-0.5679229,0.4011154-0.8506109
		c-8.4865875,0.508499-12.4531326,4.8256469-14.4493561,11.218812c-3.4907303,11.1615105-5.6053696,18.3967972-7.6414948,23.0072422
		C72.0018311,31.7973194,74.6020584,28.7454777,77.1848679,25.20084"/>
	<path d="M89.6358795,38.9252167H88.674057v2.9894485h-0.3921967v-2.9894485h-0.9656372v-0.3556938h2.3192368v0.3556938H89.6358795z
		 M93.5735626,41.9138145h-0.3904953v-2.2462234c0-0.1769981,0.0135803-0.3938942,0.0318298-0.6494179
		c-0.0403214,0.1528053-0.0734329,0.2589188-0.1039886,0.3268318l-1.1388168,2.5688095h-0.1910019l-1.1417923-2.5497055
		c-0.0339584-0.0708847-0.0670624-0.1859169-0.1031418-0.3455086h-0.0135803
		c0.0135803,0.134552,0.0182495,0.3522987,0.0182495,0.6545105v2.2411308h-0.3752213v-3.3451424h0.5174103l1.0259171,2.3345108
		c0.0776749,0.1753006,0.1264877,0.3107033,0.1511078,0.4011116h0.0148621
		c0.0679092-0.1842117,0.1239395-0.3213158,0.161293-0.4117241l1.0471344-2.3238983h0.4927902v3.3447151h-0.0025482H93.5735626z"/>
</g>
</svg>
