<?xml version="1.0" encoding="utf-8"?>
<!-- Generator: Adobe Illustrator 23.0.0, SVG Export Plug-In . SVG Version: 6.00 Build 0)  -->
<!DOCTYPE svg PUBLIC "-//W3C//DTD SVG 1.1//EN" "http://www.w3.org/Graphics/SVG/1.1/DTD/svg11.dtd" [
	<!ENTITY ns_extend "http://ns.adobe.com/Extensibility/1.0/">
	<!ENTITY ns_ai "http://ns.adobe.com/AdobeIllustrator/10.0/">
	<!ENTITY ns_graphs "http://ns.adobe.com/Graphs/1.0/">
	<!ENTITY ns_vars "http://ns.adobe.com/Variables/1.0/">
	<!ENTITY ns_imrep "http://ns.adobe.com/ImageReplacement/1.0/">
	<!ENTITY ns_sfw "http://ns.adobe.com/SaveForWeb/1.0/">
	<!ENTITY ns_custom "http://ns.adobe.com/GenericCustomNamespace/1.0/">
	<!ENTITY ns_adobe_xpath "http://ns.adobe.com/XPath/1.0/">
]>
<svg version="1.1" id="Layer_1" xmlns:x="&ns_extend;" xmlns:i="&ns_ai;" xmlns:graph="&ns_graphs;"
	 xmlns="http://www.w3.org/2000/svg" xmlns:xlink="http://www.w3.org/1999/xlink" x="0px" y="0px" viewBox="0 0 62.0939827 70"
	 enable-background="new 0 0 62.0939827 70" xml:space="preserve">
<metadata>
	<sfw  xmlns="&ns_sfw;">
		<slices></slices>
		<sliceSourceBounds  bottomLeftOrigin="true" height="70" width="62.0939827" x="267.9076538" y="37.6808243"></sliceSourceBounds>
	</sfw>
</metadata>
<path fill="#689F63" d="M31.0592136,70c-0.937418,0-1.8684082-0.2459106-2.6902485-0.7191086l-8.5632076-5.0697327
	c-1.2789936-0.7152672-0.6549072-0.9682274-0.2330723-1.1139717c1.7053242-0.5971146,2.0513973-0.7319603,3.8716431-1.7656746
	c0.1913376-0.1091576,0.4417419-0.0706177,0.6375675,0.0449486l6.5785847,3.9037437
	c0.2375603,0.128418,0.5746498,0.128418,0.7948799,0l25.6504402-14.8059921
	c0.2375603-0.1348381,0.3916512-0.4109192,0.3916512-0.693428V20.181654c0-0.2953529-0.1540909-0.5585918-0.396801-0.706274
	L31.4604836,4.6822271c-0.2375603-0.1412549-0.5521755-0.1412549-0.7897358,0L5.035717,19.4753799
	c-0.2484746,0.1412544-0.4064236,0.4173374-0.4064236,0.6998463v29.5991421c0,0.2825089,0.1540985,0.5521736,0.3980761,0.6870117
	l7.0241785,4.0578461c3.8138599,1.906929,6.1445446-0.3402939,6.1445446-2.6003609V22.7049694
	c0-0.4173374,0.3274479-0.738369,0.7447968-0.738369h3.2488403c0.4045029,0,0.738369,0.3210316,0.738369,0.738369v29.2267399
	c0,5.085144-2.7737198,8.0065384-7.5956144,8.0065384c-1.4831657,0-2.6517267,0-5.9134111-1.6051598l-6.7288246-3.8780632
	C1.0273058,53.4919319,0,51.694149,0,49.7743874V20.1752472c0-1.9261913,1.0273058-3.7239723,2.6902485-4.6742239
	L28.3663788,0.6886098c1.6244202-0.9181464,3.7817535-0.9181464,5.3933296,0l25.6440277,14.8188305
	c1.6565132,0.9566784,2.6902466,2.7480316,2.6902466,4.6742229v29.5991287c0,1.9197769-1.0337143,3.7111282-2.6902466,4.6742249
	L33.7597084,69.2674332c-0.8218384,0.4751205-1.7528305,0.7191086-2.7030907,0.7191086"/>
<path fill="#689F63" d="M38.9822769,49.6042099c-11.2232704,0-13.5764389-5.1519203-13.5764389-9.4730072
	c0-0.4109192,0.3313084-0.738369,0.7428665-0.738369h3.3130512c0.3659801,0,0.6741676,0.2664528,0.7319508,0.6279373
	c0.5008087,3.3759689,1.9904022,5.0787277,8.7770119,5.0787277c5.4061737,0,7.7047615-1.2212029,7.7047615-4.0880241
	c0-1.6501083-0.6549072-2.876442-9.0531006-3.6982841c-7.0241795-0.693428-11.3645248-2.2408028-11.3645248-7.8588619
	c0-5.1750317,4.3660336-8.2569389,11.6791382-8.2569389c8.2119904,0,12.2826843,2.8507633,12.7963371,8.9760475
	c0.0192604,0.2118816-0.057785,0.4173374-0.1990395,0.5714359c-0.1412544,0.1476727-0.3402939,0.2375603-0.5457573,0.2375603
	h-3.3323135c-0.3467102,0-0.6484795-0.2439861-0.7191086-0.5778522c-0.802578-3.5506115-2.7416153-4.687067-8.0129509-4.687067
	c-5.9005661,0-6.5875702,2.0546017-6.5875702,3.5955601c0,1.8684082,0.8089981,2.414156,8.7705917,3.4671383
	c7.8845406,1.0465698,11.6277733,2.5233078,11.6277733,8.0643196c0,5.5859528-4.661377,8.7898521-12.7899055,8.7898521"/>
</svg>
