<?xml version="1.0" encoding="utf-8"?>
<!-- Generator: Adobe Illustrator 23.0.0, SVG Export Plug-In . SVG Version: 6.00 Build 0)  -->
<!DOCTYPE svg PUBLIC "-//W3C//DTD SVG 1.1//EN" "http://www.w3.org/Graphics/SVG/1.1/DTD/svg11.dtd" [
	<!ENTITY ns_extend "http://ns.adobe.com/Extensibility/1.0/">
	<!ENTITY ns_ai "http://ns.adobe.com/AdobeIllustrator/10.0/">
	<!ENTITY ns_graphs "http://ns.adobe.com/Graphs/1.0/">
	<!ENTITY ns_vars "http://ns.adobe.com/Variables/1.0/">
	<!ENTITY ns_imrep "http://ns.adobe.com/ImageReplacement/1.0/">
	<!ENTITY ns_sfw "http://ns.adobe.com/SaveForWeb/1.0/">
	<!ENTITY ns_custom "http://ns.adobe.com/GenericCustomNamespace/1.0/">
	<!ENTITY ns_adobe_xpath "http://ns.adobe.com/XPath/1.0/">
]>
<svg version="1.1"
	 id="svg26" xmlns:x="&ns_extend;" xmlns:i="&ns_ai;" xmlns:graph="&ns_graphs;" inkscape:version="0.92.3 (2405546, 2018-03-11)" sodipodi:docname="apple_objectivec-ar21.svg" xmlns:cc="http://creativecommons.org/ns#" xmlns:dc="http://purl.org/dc/elements/1.1/" xmlns:inkscape="http://www.inkscape.org/namespaces/inkscape" xmlns:rdf="http://www.w3.org/1999/02/22-rdf-syntax-ns#" xmlns:sodipodi="http://sodipodi.sourceforge.net/DTD/sodipodi-0.dtd" xmlns:svg="http://www.w3.org/2000/svg"
	 xmlns="http://www.w3.org/2000/svg" xmlns:xlink="http://www.w3.org/1999/xlink" x="0px" y="0px" viewBox="0 0 57 57"
	 enable-background="new 0 0 57 57" xml:space="preserve">
<metadata  id="metadata30">
	<rdf:RDF>
		<cc:Work  rdf:about="">
			<dc:format>image/svg+xml</dc:format>
			<dc:type  rdf:resource="http://purl.org/dc/dcmitype/StillImage"></dc:type>
			<dc:title>Simpler &amp;amp; easier</dc:title>
		</cc:Work>
	</rdf:RDF>
	<sfw  xmlns="&ns_sfw;">
		<slices></slices>
		<sliceSourceBounds  bottomLeftOrigin="true" height="57" width="57" x="-8.1210976" y="4.3862576"></sliceSourceBounds>
	</sfw>
</metadata>
<sodipodi:namedview  bordercolor="#666666" borderopacity="1" gridtolerance="10" guidetolerance="10" id="namedview28" inkscape:current-layer="svg26" inkscape:cx="55.090043" inkscape:cy="23.287362" inkscape:pageopacity="0" inkscape:pageshadow="2" inkscape:window-height="1001" inkscape:window-maximized="1" inkscape:window-width="1920" inkscape:window-x="-9" inkscape:window-y="-9" inkscape:zoom="8" objecttolerance="10" pagecolor="#ffffff" showgrid="false">
	</sodipodi:namedview>
<title  id="title6">Simpler &amp;amp; easier</title>
<g>
	<path fill="#2D7CEE" d="M48.5399361,57H8.4600649C3.7876999,57,0,53.2122993,0,48.5399361V8.4600649
		C0,3.7876999,3.7876999,0,8.4600649,0h40.0798721C53.2122993,0,57,3.7876999,57,8.4600649v40.0798721
		C57,53.2122993,53.2122993,57,48.5399361,57z"/>
	<g transform="matrix(0.65762897,0,0,0.65762897,34.875476,4.8752901)">
		<g id="Layer_1-2">
			<path id="path12" inkscape:connector-curvature="0" fill="#FFFFFF" d="M-27.5031166,35.6198502
				c0,7.7386246-3.8823395,12.1498299-9.1478653,12.1498299s-8.7706337-4.9626083-8.7706337-11.7505417
				c0-7.0921555,3.678009-12.0927944,9.0535583-12.0927944S-27.5031166,29.1361351-27.5031166,35.6198502z M-41.7436104,35.9620972
				c0,4.6964188,1.949028,8.4231262,5.2969589,8.4231262s5.2655239-3.8027649,5.2655239-8.5942497
				c0-4.3541679-1.7761326-8.461153-5.2655239-8.461153s-5.3283958,3.9738903-5.3283958,8.7273464L-41.7436104,35.9620972z"/>
			<path id="path14" inkscape:connector-curvature="0" fill="#FFFFFF" d="M-24.5481377,24.7249298
				c1.6714783-0.3491764,3.3649845-0.5209541,5.0611897-0.5133743c1.9054546-0.2251282,3.8207836,0.2875309,5.4698572,1.4640656
				c1.2590027,0.8970242,2.017087,2.5491581,1.980463,4.3161373c-0.0463839,2.3126888-1.3136845,4.3286381-3.1435957,5.000639l0,0
				c2.2416639,0.5516396,3.8519678,2.9368973,3.8509064,5.7041473c0.0240622,1.8423195-0.6542044,3.5955086-1.8390007,4.7534561
				c-1.3517475,1.4450455-3.5994205,2.1485634-7.0730915,2.1485634c-1.4289913,0.0084991-2.8569794-0.0931168-4.2752914-0.3042297
				L-24.5481377,24.7249298z M-21.0901794,33.8325539h1.7761307c2.40485,0,3.7565966-1.3689995,3.7565966-3.3274212
				s-1.3517466-3.1562939-3.5679827-3.1562939c-0.6632938-0.0274162-1.3271275,0.0299416-1.9804668,0.1711254
				L-21.0901794,33.8325539z M-21.0901794,44.4422607c0.6108723,0.0762329,1.2249813,0.1079788,1.8390045,0.0950699
				c2.2319508,0,4.2124195-1.0267487,4.2124195-3.8027649s-1.9175968-3.8027649-4.3224449-3.8027649h-1.7289791V44.4422607z"/>
			<path id="path16" inkscape:connector-curvature="0" fill="#FFFFFF" d="M-4.4605541,24.4207077h3.4736724v15.0019073
				c0,6.3696251-2.5463114,8.4991798-6.2871928,8.4991798c-1.0004454-0.0100174-1.9929886-0.215477-2.9392614-0.6084404
				l0.424387-3.3844604c0.6975002,0.2635689,1.4227085,0.404438,2.1533613,0.4183083
				c1.9804635,0,3.1435966-1.1028061,3.1435966-5.0957069L-4.4605541,24.4207077z"/>
			<path id="path18" inkscape:connector-curvature="0" fill="#FFFFFF" d="M8.8997307,36.9127884v2.9091148H1.6694613v-2.9091148
				H8.8997307z"/>
			<path id="path20" inkscape:connector-curvature="0" fill="#FFFFFF" d="M25.7808456,46.7999802
				c-1.5627193,0.7537498-3.2385597,1.1035004-4.9197292,1.0267448c-6.0514212,0-9.7294292-4.5823288-9.7294292-11.5984268
				c-0.2798538-6.3966827,3.7799568-11.8566647,9.0678444-12.1952c0.3722687-0.0238342,0.7453728-0.0213833,1.1174068,0.0073395
				c1.6150665-0.0809212,3.225029,0.2696381,4.715395,1.0267487l-0.7701836,3.3464298
				c-1.182188-0.6086674-2.4561672-0.9130039-3.740881-0.893652c-3.8823433,0-6.6801424,2.9471397-6.6801424,8.4991817
				c0,5.0576744,2.4677229,8.3280563,6.6487055,8.3280563c1.2971725,0.022644,2.585022-0.2682533,3.7880344-0.8556252
				L25.7808456,46.7999802z"/>
		</g>
	</g>
</g>
</svg>
