<?xml version="1.0" encoding="utf-8"?>
<!-- Generator: Adobe Illustrator 23.0.0, SVG Export Plug-In . SVG Version: 6.00 Build 0)  -->
<!DOCTYPE svg PUBLIC "-//W3C//DTD SVG 1.1//EN" "http://www.w3.org/Graphics/SVG/1.1/DTD/svg11.dtd" [
	<!ENTITY ns_extend "http://ns.adobe.com/Extensibility/1.0/">
	<!ENTITY ns_ai "http://ns.adobe.com/AdobeIllustrator/10.0/">
	<!ENTITY ns_graphs "http://ns.adobe.com/Graphs/1.0/">
	<!ENTITY ns_vars "http://ns.adobe.com/Variables/1.0/">
	<!ENTITY ns_imrep "http://ns.adobe.com/ImageReplacement/1.0/">
	<!ENTITY ns_sfw "http://ns.adobe.com/SaveForWeb/1.0/">
	<!ENTITY ns_custom "http://ns.adobe.com/GenericCustomNamespace/1.0/">
	<!ENTITY ns_adobe_xpath "http://ns.adobe.com/XPath/1.0/">
]>
<svg version="1.1"
	 id="svg115845" xmlns:x="&ns_extend;" xmlns:i="&ns_ai;" xmlns:graph="&ns_graphs;" xmlns:svg="http://www.w3.org/2000/svg"
	 xmlns="http://www.w3.org/2000/svg" xmlns:xlink="http://www.w3.org/1999/xlink" x="0px" y="0px" viewBox="0 0 127.6446304 16"
	 enable-background="new 0 0 127.6446304 16" xml:space="preserve">
<metadata>
	<sfw  xmlns="&ns_sfw;">
		<slices></slices>
		<sliceSourceBounds  bottomLeftOrigin="true" height="16" width="127.6446304" x="267.6008606" y="39.0728226">
			</sliceSourceBounds>
	</sfw>
</metadata>
<g id="layer1" transform="translate(-702.6538,-712.5837)">
	<g id="g16337">
		<path id="path16197" fill="#F80000" d="M755.7877808,722.9931641h8.1327515l-4.300293-6.9185791l-7.8925781,12.5090942h-3.592041
			l9.5999756-15.026062c0.4174194-0.6071167,1.1130371-0.973938,1.8846436-0.973938
			c0.7461548,0,1.4418335,0.354126,1.8466187,0.9486084l9.6379395,15.0513916h-3.5921021l-1.6948853-2.7952881h-8.2340088
			L755.7877808,722.9931641z M793.1000366,725.7883911v-13.0529175h-3.0482178v14.3304443
			c0,0.3920898,0.1517944,0.7715454,0.442688,1.062439s0.6829834,0.4553223,1.1130371,0.4553223h13.9004517l1.7960205-2.7952881
			H793.1000366z M742.6715698,723.4484863c2.9597168,0,5.362915-2.3905029,5.362915-5.3501587
			c0-2.9597168-2.4031982-5.362854-5.362915-5.362854h-13.335083v15.8482056h3.0469971v-13.0529785h10.0856934
			c1.416687,0,2.5549927,1.151001,2.5549927,2.567627c0,1.4165649-1.1383057,2.5675659-2.5549927,2.5675659l-8.5931396-0.0126343
			l9.0990601,7.9304199h4.4269409l-6.1217651-5.1351929H742.6715698z M710.5792847,728.5836792
			c-4.375061,0-7.9254761-3.5415039-7.9254761-7.9177856s3.550415-7.9304199,7.9254761-7.9304199h9.2116089
			c4.3762817,0,7.9241333,3.5541382,7.9241333,7.9304199s-3.5478516,7.9177856-7.9241333,7.9177856H710.5792847z
			 M719.5859985,725.7883911c2.8345337,0,5.130188-2.2893066,5.130188-5.1224976s-2.2956543-5.1351929-5.130188-5.1351929
			h-8.8031616c-2.8331909,0-5.130127,2.302002-5.130127,5.1351929s2.296936,5.1224976,5.130127,5.1224976H719.5859985z
			 M777.4667969,728.5836792c-4.3762817,0-7.9303589-3.5415039-7.9303589-7.9177856s3.5540771-7.9304199,7.9303589-7.9304199
			h10.9407349l-1.7833862,2.7952271h-8.9549561c-2.8331909,0-5.1351318,2.302002-5.1351318,5.1351929
			s2.3019409,5.1224976,5.1351318,5.1224976h10.991272l-1.7960205,2.7952881H777.4667969z M814.7411499,725.7883911
			c-2.3399048,0-4.3256836-1.5683594-4.9328613-3.7312012h13.02771l1.7960205-2.7952271h-14.8237305
			c0.6071777-2.1502075,2.5929565-3.7312622,4.9328613-3.7312622h8.9423218l1.8086548-2.7952271h-10.9533691
			c-4.3762817,0-7.9304199,3.5541382-7.9304199,7.9304199s3.5541382,7.9177856,7.9304199,7.9177856h9.397644l1.7960205-2.7952881
			H814.7411499"/>
		<path id="path16199" fill="#F80000" d="M827.1237793,714.4176636c0-0.7715454,0.6196899-1.3912964,1.3912964-1.3912964
			c0.7842407,0,1.4039307,0.619751,1.4039307,1.3912964c0,0.7841797-0.6196899,1.4039307-1.4039307,1.4039307
			C827.7434692,715.8215942,827.1237793,715.2018433,827.1237793,714.4176636z M828.5150757,716.2137451
			c0.9865112,0,1.7833862-0.796875,1.7833862-1.7834473c0-0.9865112-0.796875-1.7833862-1.7833862-1.7833862
			c-0.973999,0-1.770752,0.796875-1.770752,1.7833862C826.7443237,715.4168701,827.5410767,716.2137451,828.5150757,716.2137451z
			 M828.350647,713.3678589c0.2781982,0,0.3920898,0.0126343,0.5186157,0.0632324
			c0.3540649,0.1138306,0.3920288,0.4300537,0.3920288,0.5565186c0,0.0253296,0,0.088562-0.0253296,0.1644287
			c-0.0126343,0.0759277-0.0631714,0.2276611-0.2402954,0.3414917c-0.0252686,0.0126953-0.0379028,0.0253296-0.088501,0.0505981
			l0.4553833,0.8221436h-0.442749l-0.4047241-0.7589111h-0.2781982v0.7589111h-0.3921509v-1.9984131H828.350647z
			 M828.4898071,714.2785645c0.1264038-0.0126953,0.2529297-0.0126953,0.3287964-0.1265259
			c0.0379028-0.0505981,0.0506592-0.1011963,0.0506592-0.177063c0-0.1011963-0.0632935-0.1896973-0.1518555-0.2402954
			c-0.088562-0.0379639-0.177063-0.0379639-0.3667603-0.0379639h-0.1137695v0.5818481H828.4898071"/>
	</g>
</g>
</svg>
