<?xml version="1.0" encoding="utf-8"?>
<!-- Generator: Adobe Illustrator 23.0.0, SVG Export Plug-In . SVG Version: 6.00 Build 0)  -->
<!DOCTYPE svg PUBLIC "-//W3C//DTD SVG 1.1//EN" "http://www.w3.org/Graphics/SVG/1.1/DTD/svg11.dtd" [
	<!ENTITY ns_extend "http://ns.adobe.com/Extensibility/1.0/">
	<!ENTITY ns_ai "http://ns.adobe.com/AdobeIllustrator/10.0/">
	<!ENTITY ns_graphs "http://ns.adobe.com/Graphs/1.0/">
	<!ENTITY ns_vars "http://ns.adobe.com/Variables/1.0/">
	<!ENTITY ns_imrep "http://ns.adobe.com/ImageReplacement/1.0/">
	<!ENTITY ns_sfw "http://ns.adobe.com/SaveForWeb/1.0/">
	<!ENTITY ns_custom "http://ns.adobe.com/GenericCustomNamespace/1.0/">
	<!ENTITY ns_adobe_xpath "http://ns.adobe.com/XPath/1.0/">
]>
<svg version="1.1" id="Layer_1" xmlns:x="&ns_extend;" xmlns:i="&ns_ai;" xmlns:graph="&ns_graphs;"
	 xmlns="http://www.w3.org/2000/svg" xmlns:xlink="http://www.w3.org/1999/xlink" x="0px" y="0px" viewBox="0 0 70 70"
	 enable-background="new 0 0 70 70" xml:space="preserve">
<metadata>
	<sfw  xmlns="&ns_sfw;">
		<slices></slices>
		<sliceSourceBounds  bottomLeftOrigin="true" height="70" width="70" x="0" y="0"></sliceSourceBounds>
	</sfw>
</metadata>
<g id="Inspo">
</g>
<g>
	<circle fill="#F6F2ED" cx="35" cy="35" r="35"/>
	<g id="surface1_1_">
		<path fill="#C6213B" d="M49.1100578,40.8175087l2.4187126-2.4189835c1.5312881-1.5310135,1.5315552-4.0225563,0.0002708-5.5543823
			c-0.4698792-0.4696083-1.0341644-0.7994957-1.6370201-0.9823742c0.4930725-0.6697521,0.7598419-1.4759903,0.7598419-2.3232269
			c0-1.0489998-0.4086494-2.0354214-1.1506882-2.7771912c-0.7415009-0.7417717-1.7279243-1.1504211-2.7771912-1.1504211
			c-0.0439682,0-0.0879364,0.0008106-0.1319008,0.0021591c0.034256-1.04846-0.3476906-2.1085186-1.1463737-2.9074726
			c-0.798687-0.7984161-1.8600922-1.1809006-2.9069328-1.1461048c0.0013466-0.0436974,0.0021553-0.0879345,0.0021553-0.1319008
			c0-1.0492687-0.4086456-2.0354195-1.1504173-2.7771912c-1.5310173-1.5310154-4.0225601-1.5312843-5.5543823,0
			l-0.8361778,0.8361797l-0.8359108-0.8359089C33.4222717,17.9086494,32.4358521,17.5,31.3865833,17.5
			c-1.0489998,0-2.0351505,0.4086494-2.7769222,1.1501503c-0.798954,0.798954-1.18009,1.8592834-1.1452942,2.9085522
			c-0.0442371-0.0016193-0.0884743-0.0032368-0.1327095-0.0032368c-1.0489998,0-2.0354214,0.4083786-2.7777309,1.1501503
			c-0.7986851,0.7992229-1.179821,1.8595524-1.1450253,2.9085522c-0.0445061-0.0016193-0.0887432-0.0032387-0.1332493-0.0032387
			c-1.0489998,0-2.0354195,0.4086494-2.7766514,1.1501503c-0.7420406,0.7417717-1.1506901,1.7281933-1.1506901,2.777462
			c0,0.8469677,0.2664986,1.6532059,0.7598438,2.3226871c-0.6117592,0.1844978-1.1725368,0.5184326-1.637291,0.982914
			c-1.5275097,1.5280495-1.5310154,4.0117683-0.0102501,5.5435944c0.0037766,0.0040436,0.0075531,0.0078201,0.0113297,0.0118675
			l2.4222202,2.4216805c0.0032368,0.0035057,0.0067425,0.0070114,0.0102482,0.0105209
			c0.1453876,0.1456566,0.3007545,0.2775574,0.4636745,0.397049l-0.7164154,0.7164154
			c-0.6967258,0.6967239-1.0516968,1.6459236-0.9990978,2.6728058c0.0501709,0.985878,0.4744625,1.9250984,1.1941166,2.6447487
			l4.0970039,4.0972748C25.7038059,52.1199417,26.7018261,52.5,27.7001152,52.5s1.9965782-0.3800583,2.756422-1.1399002
			l1.9043293-1.9045982c0.8688164,0.1863861,1.7538147,0.2810631,2.6396255,0.2810631
			c0.8849983,0,1.7702713-0.0941353,2.6388168-0.2805252l1.9037895,1.9040604
			C40.3032112,52.1199417,41.3012314,52.5,42.2995186,52.5c0.9980202-0.0002708,1.9965782-0.3800583,2.756424-1.1399002
			l4.0972748-4.0972748c1.5196838-1.5196877,1.6923141-3.8199844,0.3846397-5.1279297l-0.8725929-0.8725929l0.4304962-0.4307671
			C49.1006165,40.8269501,49.1052017,40.8223648,49.1100578,40.8175087z M30.1085777,20.1493378
			c0.341486-0.341486,0.7954483-0.5294914,1.2782745-0.5294914s0.9367905,0.1880054,1.2782745,0.5294914l3.2441025,3.2441006
			c0.7048187,0.7050877,0.7048187,1.8520012,0,2.556818c-0.3414841,0.341486-0.7954483,0.5294895-1.2780037,0.5294895h-0.0002708
			c-0.4828262-0.0002689-0.9365196-0.1880035-1.2780037-0.5294895c-0.0005417-0.0005379-0.0010796-0.0010777-0.0013504-0.0013485
			l-3.2422123-3.2422142c-0.0026989-0.002697-0.005125-0.005394-0.0080929-0.007822
			C29.4037609,21.9929752,29.406189,20.8514576,30.1085777,20.1493378z M26.0482578,26.7564945
			c-0.6999626-0.7053566-0.6983433-1.8487625,0.0045853-2.551693c0.3417549-0.3414841,0.7959881-0.5294895,1.2788143-0.5294895
			c0.4822865,0,0.9357109,0.1877365,1.277195,0.5289497c0.0002689,0,0.0005398,0.0002708,0.0005398,0.0005398
			c0.0013485,0.0010796,0.0024261,0.0021591,0.0035057,0.0032368l3.2403259,3.2403259
			c0.0018883,0.0021591,0.0043163,0.0043163,0.0064735,0.0064735l0.8051586,0.8051605
			c0.3414841,0.3414841,0.5297585,0.7954483,0.5297585,1.2785435c0,0.4828243-0.1880035,0.9367886-0.5294876,1.2780037
			c-0.3414841,0.3414841-0.7954483,0.5294895-1.2782745,0.5294895s-0.9367886-0.1880054-1.2780037-0.5294895
			c-0.0043163-0.0043163-0.0086327-0.0083618-0.0129471-0.0124073l-0.7949104-0.7951794
			c-0.0010777-0.0010796-0.0021572-0.0021572-0.0032368-0.0035057l-3.2446404-3.2441025l-0.0002708-0.0002708
			C26.0512257,26.7594624,26.0496063,26.757843,26.0482578,26.7564945z M21.998188,28.2599983
			c0.3412151-0.3412151,0.7949085-0.5292206,1.2777348-0.5292206c0.4828243,0,0.9367886,0.1880054,1.2782726,0.5294895
			l3.247879,3.247879c0.7013111,0.7050877,0.6999626,1.8493023-0.0032368,2.5530415
			c-0.3414841,0.3412132-0.7957172,0.5292206-1.2785435,0.5292206s-0.9367905-0.1880074-1.2780037-0.5294914
			c-0.0043163-0.0040436-0.0083618-0.0083618-0.0126781-0.0124054l-3.2214451-3.221447
			c-0.0035057-0.0035057-0.0070133-0.0072823-0.0102501-0.010519c-0.3414841-0.3414841-0.5294895-0.7951794-0.5294895-1.2780037
			C21.4681587,29.0557156,21.6564331,28.6017513,21.998188,28.2599983z M19.9808388,36.9106674
			c-0.0040455-0.0043144-0.008091-0.0083618-0.0121365-0.0124092c-0.7034702-0.7048149-0.7029305-1.8506508,0.0013485-2.5549278
			c0.3414841-0.3414841,0.7954483-0.5294914,1.2782726-0.5294914c0.4828262,0,0.9370594,0.1880074,1.2785454,0.5297623
			l2.4330082,2.4327393c0.7048187,0.7048149,0.7048187,1.8517303,0.0002708,2.5565453
			c-0.341486,0.3414879-0.7954483,0.5294914-1.2780056,0.5294914h-0.0002689c-0.0887432,0-0.1764069-0.0064735-0.262722-0.0188828
			c-0.0064735-0.0013466-0.0129471-0.0021553-0.0194206-0.0032349c-0.3722343-0.0579948-0.7158775-0.2300835-0.9885788-0.4995499
			c-0.002697-0.0029678-0.0056648-0.0056648-0.0083618-0.0086327L19.9808388,36.9106674z M32.3034134,47.2639046
			c-0.0091743-0.0024261-0.018074-0.0035057-0.0269737-0.0056648c-0.0213089-0.0051231-0.0423508-0.0099792-0.0636597-0.0137558
			c-0.0156441-0.002697-0.0312881-0.0045853-0.0472031-0.0067444c-0.0175323-0.0021553-0.0350647-0.0043144-0.0528679-0.0056648
			c-0.0186119-0.0016174-0.0372238-0.0024261-0.0558357-0.002697c-0.0151062-0.0005379-0.0299416-0.0008087-0.0450439-0.0005379
			c-0.0199623,0.0002708-0.0396519,0.0013466-0.0593433,0.0029678c-0.0142956,0.0010757-0.0285912,0.0021553-0.0428867,0.0037766
			c-0.0194206,0.0021553-0.0385723,0.0051231-0.057724,0.0083618c-0.0151043,0.0024261-0.0299397,0.005394-0.0450459,0.0086288
			c-0.0175323,0.0037766-0.0347958,0.0078239-0.0520592,0.0126801c-0.0164528,0.0043144-0.0329075,0.0091705-0.0493603,0.0142937
			c-0.0153751,0.005127-0.0302105,0.0105209-0.0453167,0.0159149c-0.0175323,0.0067444-0.0350647,0.0134888-0.0520573,0.0210381
			c-0.0137577,0.0059357-0.0275135,0.0124092-0.0410004,0.0188828c-0.0172634,0.0083618-0.034256,0.0169945-0.0509796,0.0264359
			c-0.0137577,0.0075493-0.0272446,0.0156441-0.0407314,0.0240059c-0.0151043,0.0094414-0.0304794,0.0188789-0.0453148,0.029129
			c-0.0151043,0.0105209-0.0299397,0.0215797-0.0445061,0.0329094c-0.0121384,0.0091705-0.0240059,0.0183411-0.0358753,0.0280533
			c-0.0172615,0.0145645-0.0337162,0.0296707-0.0499001,0.0453148c-0.0062046,0.0059319-0.0129471,0.0110588-0.0191517,0.0172615
			l-2.3226871,2.3226891c-0.6934891,0.6934891-1.8215199,0.6934891-2.5150089,0l-4.0970039-4.0970039
			c-0.3479595-0.3479576-0.5526886-0.793293-0.5761547-1.2542686c-0.0213089-0.4199753,0.1138287-0.7984161,0.3811359-1.0654526
			l1.4635811-1.4638519c0.0223885,0.0002708,0.0447769,0.0016174,0.0674343,0.0016174c0,0,0,0,0.0002689,0
			c1.0487309,0,2.0348816-0.4086456,2.7769222-1.1504173c1.1353149-1.1355858,1.4279766-2.7987709,0.8793354-4.2073288
			c0.7369156-0.155365,1.4142208-0.5195084,1.9596252-1.064373c0.622818-0.6233559,0.9923553-1.4058571,1.1080704-2.217762
			c0.3166695,0.081192,0.6454773,0.123539,0.9807568,0.123539c0,0,0,0,0.0002708,0
			c1.0487289,0,2.0348778-0.4083786,2.7769203-1.1501503c0.7417717-0.7417698,1.1504211-1.7281914,1.1504211-2.7771893
			c0-0.3347416-0.0420799-0.6630096-0.1227303-0.9791393c0.8361778-0.1186829,1.6086998-0.5022449,2.2164116-1.1104984
			c1.5312843-1.5310154,1.5312843-4.0225563,0.0002708-5.5541115l-0.9095459-0.9095478l0.8361778-0.835907
			c0.7050858-0.7048187,1.8520012-0.7048187,2.5565491-0.0002708c0.3414841,0.3414841,0.5294876,0.7954483,0.5294876,1.2782745
			c0,0.4828243-0.1880035,0.9367886-0.5294876,1.2782745c-0.2068901,0.2068863-0.3104668,0.4782391-0.3104668,0.7495918
			c0,0.2710838,0.1033096,0.5424385,0.3104668,0.7493248c0.4140396,0.4140434,1.0848732,0.4140434,1.4989166,0
			c0.7045479-0.7045479,1.8514595-0.7048168,2.5565453,0c0.7048187,0.7050877,0.7045479,1.8519993-0.000267,2.556818
			c-0.2068863,0.2068863-0.3104668,0.4782391-0.3104668,0.7493229c0,0.2713528,0.1033096,0.5424366,0.3104668,0.7493248
			c0.4140434,0.4140415,1.0848732,0.4140415,1.4989166,0.0002689c0.3414841-0.3414841,0.7957191-0.5294895,1.2785416-0.5297604
			c0.4828262,0,0.9367905,0.1880054,1.2780075,0.5294914c0.3417511,0.341753,0.5297585,0.7957172,0.5297585,1.2785435
			c0,0.4763508-0.1831512,0.9246502-0.5160027,1.2642479c-0.0048561,0.0048542-0.0097122,0.0094395-0.0142975,0.0142956
			l-1.5199547,1.5202255c-0.3784409,0.378437-0.4153938,0.9796791-0.0860481,1.4015427l0.0544891,0.0698624
			c0.328537,0.4210548,0.9192543,0.5316467,1.3778038,0.2584076c0.7107544-0.4234848,1.6162529-0.3099289,2.2021179,0.2756691
			c0.7048187,0.7050858,0.7048187,1.8519974,0,2.5568161l-2.4327393,2.4324684
			c-0.0045853,0.0048561-0.0094414,0.0097122-0.0140266,0.0145683l-5.2217979,5.2217979
			C39.7416229,47.1883774,35.8876495,48.2211952,32.3034134,47.2639046z M48.0392113,43.633812
			c0.4647522,0.465023,0.2851105,1.4606133-0.3846436,2.1303673l-4.0972748,4.0970039
			c-0.6934891,0.6934891-1.8215179,0.6934891-2.515007,0l-1.127491-1.127491
			c1.4654694-0.625515,2.8076706-1.5283203,3.9456825-2.6663322l3.3058701-3.3061409L48.0392113,43.633812z"/>
	</g>
</g>
</svg>
