<?xml version="1.0" encoding="utf-8"?>
<!-- Generator: Adobe Illustrator 23.0.0, SVG Export Plug-In . SVG Version: 6.00 Build 0)  -->
<!DOCTYPE svg PUBLIC "-//W3C//DTD SVG 1.1//EN" "http://www.w3.org/Graphics/SVG/1.1/DTD/svg11.dtd" [
	<!ENTITY ns_extend "http://ns.adobe.com/Extensibility/1.0/">
	<!ENTITY ns_ai "http://ns.adobe.com/AdobeIllustrator/10.0/">
	<!ENTITY ns_graphs "http://ns.adobe.com/Graphs/1.0/">
	<!ENTITY ns_vars "http://ns.adobe.com/Variables/1.0/">
	<!ENTITY ns_imrep "http://ns.adobe.com/ImageReplacement/1.0/">
	<!ENTITY ns_sfw "http://ns.adobe.com/SaveForWeb/1.0/">
	<!ENTITY ns_custom "http://ns.adobe.com/GenericCustomNamespace/1.0/">
	<!ENTITY ns_adobe_xpath "http://ns.adobe.com/XPath/1.0/">
]>
<svg version="1.1" id="Layer_1" xmlns:x="&ns_extend;" xmlns:i="&ns_ai;" xmlns:graph="&ns_graphs;"
	 xmlns="http://www.w3.org/2000/svg" xmlns:xlink="http://www.w3.org/1999/xlink" x="0px" y="0px" viewBox="0 0 71.8571777 74"
	 enable-background="new 0 0 71.8571777 74" xml:space="preserve">
<metadata>
	<sfw  xmlns="&ns_sfw;">
		<slices></slices>
		<sliceSourceBounds  bottomLeftOrigin="true" height="74" width="71.8571777" x="180.3041534" y="185.7025909">
			</sliceSourceBounds>
	</sfw>
</metadata>
<g id="orginal">
</g>
<g id="Layer_x0020_3">
	<g>
		<path d="M53.7027779,53.8726807c0.4707222-3.9214745,0.3296585-4.4965439,3.2505264-3.8613281l0.7415619,0.065136
			c2.245945,0.1021843,5.1839333-0.3612289,6.9099693-1.1631012c3.7156067-1.7240448,5.9188538-4.6025505,2.2550888-3.8462029
			c-8.3572044,1.7240448-8.9317741-1.1057739-8.9317741-1.1057739c8.8247643-13.0936756,12.5137825-29.714859,9.3295479-33.7833786
			C58.5726776-0.9194243,43.5391235,4.3283129,43.2875595,4.4645615l-0.0800858,0.0147882
			c-1.651268-0.3426156-3.4992676-0.5473213-5.5752335-0.5808849c-3.7818985-0.0621428-6.651598,0.9914589-8.8284206,2.6425614
			c0,0-26.8190727-11.0491104-25.5713997,13.8953791c0.2653527,5.3063927,7.6061702,40.1526718,16.3614826,29.6274605
			c3.2000179-3.8486938,6.292532-7.1028786,6.292532-7.1028786c1.5356255,1.0202065,3.3741531,1.5406113,5.3024044,1.3536835
			l0.1490421-0.1271133c-0.04669,0.4778671-0.0260849,0.9452667,0.0596504,1.4985733
			c-2.255085,2.5200996-1.5924492,2.9625778-6.1017838,3.8907356c-4.5621738,0.9402809-1.8818951,2.614315-0.1324253,3.0518074
			c2.1214924,0.5305367,7.0292702,1.2820663,10.3462639-3.360363l-0.1320915,0.5297089
			c0.8847847,0.7078285,0.8249664,5.0875587,0.9504166,8.2167969c0.1256142,3.1294022,0.3351402,6.0496063,0.9730148,7.7713318
			c0.6378784,1.7213821,1.3905716,6.1561127,7.3168945,4.8860092c4.9529724-1.061409,8.7398605-2.5890579,9.0849686-16.7996368"/>
		<path d="M42.6854782,74c-2.6937218,0.0001602-4.4528122-1.0465927-5.522934-2.0565186
			c-1.6078644-1.5176392-2.2401199-3.454895-2.6179466-4.6124802c-0.059227-0.181572-0.1151276-0.3529205-0.1568298-0.4655304
			c-0.7576027-2.0446701-1.0133286-4.967186-1.1641541-8.7260017c-0.0223083-0.555912-0.0389404-1.1501198-0.0558167-1.7564926
			c-0.0103836-0.3736916-0.0224724-0.8066101-0.0380516-1.2594833c-2.5471172,1.1166916-5.532589,1.3161125-8.7199974,0.5192375
			c-1.425478-0.3564911-2.9033661-1.0770988-3.8227463-2.1829185c-2.5386009,2.1102257-4.9509611,1.8001442-6.2797298,1.3571663
			c-2.3722-0.7913551-4.4852667-2.9950447-6.4600039-6.7369881c-1.3926196-2.6388779-2.7387509-6.0739784-4.001236-10.2100563
			C1.6494817,30.673502,0.2542657,23.0855293,0.1295668,20.5915508C-0.2633524,12.7365761,1.8610722,7.1123881,6.4437771,3.8753278
			c3.7843723-2.6733594,8.9581184-3.4948142,15.3778-2.4407556c2.7294216,0.4480884,5.0927773,1.1501181,6.5657177,1.6478589
			c2.6598911-1.5784916,5.7731438-2.3463998,9.2961121-2.290338c1.8798141,0.0304243,3.6711922,0.194553,5.337307,0.4884919
			c1.7891083-0.5547762,5.2195053-1.3262542,9.1264648-1.2784679c7.3247032,0.0874596,13.3959274,2.9440947,17.5571518,8.2612
			c2.8485184,3.6397152,1.7897568,10.8179741,0.3999786,16.1989307c-1.5572357,6.0291958-4.2623215,12.4341908-7.5887032,18.0508327
			c0.8812485-0.0249863,2.0889702-0.1526871,3.7166252-0.4885712c4.0599747-0.8380852,5.1867294,1.5494461,5.4349899,2.3013725
			c1.2585144,3.8099289-4.0864258,6.6315155-5.7546463,7.4056702c-2.110714,0.9805527-5.547924,1.5767059-8.358963,1.4485207
			l-0.1301346-0.0087624l-0.5051231-0.0443001c-0.0150909,0.1281891-0.0300179,0.2568626-0.0446243,0.382618
			c-0.0217438,0.1864395-0.0444603,0.3819656-0.0687981,0.5867386c-0.188549,7.2434082-1.2307625,11.8403091-3.3742523,14.8924713
			c-2.2674599,3.2283783-5.4018898,4.1295853-8.1618156,4.7210388C44.3253059,73.912056,43.4661255,74,42.6854782,74z
			 M37.3181534,47.3720398c1.7732048,1.418499,1.9260597,4.0059433,2.0607376,8.8379631
			c0.0162239,0.5802498,0.0319633,1.148819,0.0532188,1.6803932c0.063446,1.5789795,0.2117538,5.2771072,0.7821083,6.81633
			c0.0842133,0.2273331,0.1585312,0.4551468,0.2373886,0.6965942c0.6436958,1.9727936,0.9102936,2.7894592,3.5152626,2.2311096
			c2.2973137-0.4923019,3.4746933-0.9292755,4.3789825-2.2166672c1.3532715-1.9268684,2.1105499-5.8365898,2.2510719-11.6207695
			l3.104084,0.0754509l-3.0828285-0.370121c0.0300179-0.2506943,0.0576019-0.4874344,0.0835648-0.7108727
			c0.2695198-2.3156509,0.4824066-4.1446762,2.1350517-5.3256226c1.043026-0.7449493,2.2158623-0.8447418,3.2334099-0.7517624
			c-0.8395462-0.855938-1.1053352-1.7337799-1.1867905-2.134407l-0.2588081-1.275383l0.7272606-1.0792084
			c3.8501701-5.7125397,7.0298729-12.7357578,8.7240524-19.2688618c1.7287521-6.6664009,1.2416382-10.1979675,0.735054-10.8637314
			c-6.9046021-8.8225479-18.9199944-5.221046-20.2442207-4.7874804l-0.2318726,0.1256728l-1.1629372,0.2142677l-0.5956688-0.1236444
			c-1.5113144-0.3135724-3.1917076-0.4873557-4.9942818-0.5164819c-2.7977333-0.047462-5.0555382,0.6119738-6.9007092,2.0115705
			l-1.4167976,1.074585l-1.6441269-0.6773653c-3.2154789-1.3143282-12.6538143-3.9617257-17.600069-0.4573374
			c-2.7245531,1.9302769-3.9643211,5.74053-3.6849861,11.3249645c0.0966277,1.9329529,1.4094954,9.1893425,3.5746479,16.1681805
			c2.9750051,9.5896454,5.6005783,12.2531891,6.3466625,12.4699707c0.0933819-0.0391045,0.4239922-0.2114296,0.9488316-0.8423042
			c3.2283783-3.8827858,6.2997684-7.1204147,6.4289303-7.2562294l1.7977085-1.891819l2.1735897,1.4443016
			c0.7480316,0.4970093,1.5696487,0.7866478,2.4138203,0.8557739l5.1580067-4.3970795l-0.7475433,7.6574211
			c-0.0141983,0.1449013-0.020771,0.3438377,0.0377235,0.7212601l0.2248154,1.4520874l-0.9798203,1.0949478
			c-0.0088463,0.0098991-0.0176086,0.0197983-0.026371,0.0295334l2.4100075,1.1121483L37.3181534,47.3720398z"/>
	</g>
	<g>
		<path fill="#336791" d="M66.8607559,45.0668602c-8.358036,1.7240448-8.9326057-1.1057739-8.9326057-1.1057739
			c8.8247643-13.0945034,12.5137825-29.7160225,9.3302116-33.7840462
			c-8.6850243-11.096797-23.7192497-5.8487267-23.9701424-5.7124782l-0.0807533,0.0144553
			c-1.651268-0.3427815-3.4992638-0.5469887-5.5762291-0.5808847c-3.7818985-0.0619764-6.6505985,0.9914587-8.8274212,2.6422288
			c0,0-26.8195705-11.0486116-25.5722313,13.8957109c0.265353,5.3067245,7.6060038,40.1530037,16.3616486,29.6277924
			c3.2001858-3.8486938,6.2922001-7.1028786,6.2922001-7.1028786c1.5357895,1.0202065,3.3743172,1.5406113,5.3017387,1.3536835
			l0.1497078-0.1271133c-0.046524,0.4778671-0.0252552,0.9452667,0.0599823,1.4985733
			c-2.2555809,2.5200996-1.5927811,2.9625778-6.1017857,3.8907356c-4.5625057,0.9402809-1.8822269,2.614315-0.1322632,3.0518074
			c2.1214943,0.5305367,7.0296059,1.2820663,10.3459358-3.360363l-0.1322632,0.5297089
			c0.8837891,0.7078285,1.5043869,4.6043777,1.4003716,8.1365433c-0.1040154,3.5323296-0.1734695,5.9573936,0.5228958,7.8515854
			c0.6963615,1.8941879,1.3903999,6.1561127,7.3178864,4.8860092c4.9529724-1.061409,7.5196037-3.8119736,7.8766747-8.4000664
			c0.2533875-3.2618294,0.8267975-2.7796402,0.863018-5.6958618l0.4599228-1.3805962
			c0.5303726-4.4216042,0.08424-5.8480644,3.1357193-5.184597l0.7415581,0.0651321
			c2.245945,0.1021843,5.1854324-0.3612289,6.9106407-1.1631012c3.7149353-1.7240448,5.9181824-4.6025505,2.255249-3.8462029
			L66.8607559,45.0668602z"/>
	</g>
	<g>
		<path fill="#FFFFFF" d="M42.9816093,72.0744247c-4.9874687,0.0004883-6.5664482-3.947525-7.2126579-5.5626831
			c-0.9467239-2.3677444-1.1524734-11.2182007-0.9364204-18.9391441c0.0159836-0.5718155,0.4912491-1.0154419,1.0641212-1.0063553
			c0.5717316,0.0160637,1.022171,0.492466,1.0062714,1.0641212c-0.2406349,8.5987854,0.0986557,16.3852844,0.7890816,18.1122513
			c1.0699615,2.6745758,2.6934013,5.0142441,7.2789459,4.0317383c4.4227943-0.9482651,5.9959297-2.5405426,6.7329292-6.815033
			c0.5635376-3.2658615,1.6784439-12.5664368,1.8163681-14.4039001c0.042675-0.5703506,0.5416336-0.9971046,1.110199-0.9550781
			c0.5701942,0.042675,0.9979172,0.5398483,0.9550781,1.1102028c-0.1436005,1.9143753-1.25494,11.2068367-1.8407059,14.6007233
			c-0.8744354,5.071682-3.1347542,7.372242-8.339817,8.4882851C44.5188866,71.9894028,43.7132492,72.0744247,42.9816093,72.0744247z
			"/>
	</g>
	<g>
		<path fill="#FFFFFF" d="M16.1993351,52.9634514c-0.4811897,0-0.9179192-0.0884361-1.2963972-0.2146759
			c-3.2344637-1.0787201-6.3082066-6.3232155-9.1359587-15.5873604c-2.1484396-7.0387135-3.5094991-14.3883228-3.6290057-16.7777214
			C1.7827804,13.2824278,3.6152134,8.2559347,7.5844836,5.4438405c7.8419948-5.5557942,21.0129395-0.2734938,21.5697441-0.0458393
			c0.5294647,0.2163773,0.7832432,0.8209682,0.5668659,1.3503504c-0.2163773,0.5293012-0.8210506,0.7831612-1.3504314,0.566865
			c-0.1517162-0.0617414-12.6882954-5.0750914-19.592411-0.1788135C5.4272823,9.5127401,3.889194,13.934967,4.2064986,20.2801704
			c0.1003594,2.0063782,1.3695784,9.1612701,3.5413837,16.2765732c2.5100417,8.2233124,5.3567786,13.4089012,7.8103538,14.227356
			c0.3765306,0.1254311,1.521699,0.5075569,3.179862-1.4860001c3.1857853-3.8328094,6.1124363-6.8921089,6.1416435-6.9224548
			c0.3958397-0.4131203,1.0513-0.4267502,1.4641781-0.0309906c0.412878,0.3955956,0.4268322,1.051136,0.0310726,1.4640961
			c-0.0287189,0.0300179-2.907341,3.039505-6.0443668,6.8135719C18.8255577,52.4315529,17.3792286,52.9634514,16.1993351,52.9634514
			z"/>
	</g>
	<g>
		<path fill="#FFFFFF" d="M57.8687248,44.8934746c-0.1990967,0-0.4003029-0.0572777-0.577816-0.1768646
			c-0.4742928-0.3196564-0.5995598-0.9633522-0.2800674-1.4376488c8.9033585-13.2117538,12.0411911-29.1582832,9.3734283-32.567585
			c-3.3580246-4.2908754-8.1006393-6.533752-14.0962448-6.6662393c-4.434803-0.098737-7.9828377,1.0366154-8.5663376,1.2358737
			C43.673172,5.3052683,43.6220589,5.3259568,43.568512,5.342751c-0.6274681,0.1967435-1.110363-0.1481462-1.2927475-0.5521803
			c-0.2154846-0.4776201-0.0386162-1.0425379,0.4097137-1.313679c0.3873215-0.2342262,4.4651451-1.5621842,9.3437386-1.5073395
			c6.6917114,0.0709901,12.2195168,2.6525085,15.9861183,7.4653835c2.541687,3.2480936,0.864212,11.1555624,0.0249939,14.4045477
			c-1.8041992,6.9853287-5.1982498,14.4927387-9.3117714,20.5970631
			C58.5284843,44.7333221,58.2015266,44.8934746,57.8687248,44.8934746z"/>
	</g>
	<g>
		<path fill="#FFFFFF" d="M58.3258209,51.0182457c-1.5389023,0.0001602-2.9202423-0.2172699-3.7472954-0.7126579
			c-0.8711891-0.5216751-1.0375099-1.2348213-1.0592537-1.6135406c-0.2261925-3.9710579,1.8997726-4.7580299,3.0789375-5.0979691
			c-0.1499329-0.2151604-0.3474045-0.4616394-0.5507202-0.715744c-0.6636543-0.8291626-1.5726509-1.9650002-2.2745972-3.6664848
			c-0.1072578-0.260273-0.448658-0.8724899-0.8439293-1.5812531c-2.1558228-3.8660698-6.6415749-11.9106503-3.7421036-16.0554085
			c1.3328247-1.9052067,3.9619675-2.6684093,7.8275528-2.2754097c-0.5140495-1.5270538-1.8020897-4.3582954-4.1806984-7.1692533
			c-2.7602501-3.2617235-7.6514969-7.1760683-15.27882-7.3010921c-3.8712616-0.0639315-7.0484486,1.1241565-9.4340343,3.5301876
			c-5.3477745,5.3935318-5.1664448,15.208642-5.164011,15.3071337c0.0142784,0.5714893-0.4372177,1.0467587-1.008707,1.0614433
			c-0.5651608,0.0093288-1.0466747-0.4361629-1.0617657-1.0076523c-0.0115204-0.4374599-0.2133751-10.7825193,5.7565937-16.8120403
			c2.7990322-2.826941,6.4832058-4.2222385,10.9460011-4.1500311c8.320343,0.1364629,13.675663,4.3660841,16.7031593,7.8902683
			c3.299614,3.8410826,4.9183464,8.0841722,5.0518875,9.5022669c0.1069336,1.1372986-0.7670135,1.3515663-0.8669701,1.3722553
			l-0.3735275,0.0085182c-2.6083717-0.4179878-5.978569-0.543335-7.2195549,1.2306824
			c-2.155983,3.0817738,2.0555458,10.6343746,3.8539009,13.8594265c0.4621239,0.8285942,0.7958984,1.4273453,0.9497261,1.8000603
			c0.5890121,1.4280739,1.3586235,2.3896446,1.9770088,3.162178c0.5500679,0.6871834,1.0269585,1.2831726,1.2023659,1.9911232
			c0.0905418,0.1466866,1.2403374,1.7123604,7.7264633,0.3738556c1.7042465-0.3521118,2.7299118-0.0418663,3.0485916,0.921814
			c0.6154633,1.8619652-2.7784271,4.005455-4.65905,4.8787537C63.3087463,50.5267525,60.6393623,51.0182457,58.3258209,51.0182457z
			 M55.5827675,48.4923019c0.2518311,0.2054253,1.3217926,0.53936,3.4240685,0.4408684
			c1.9033432-0.0894089,3.9067993-0.5062599,5.1039734-1.0620117c1.3923798-0.6466179,2.3743896-1.3667374,2.9481506-1.9031792
			c-0.0154114,0.0030823-0.0309906,0.0061684-0.04673,0.0094109c-4.2543678,0.8781662-7.2682343,0.7577667-8.9578743-0.3574638
			c-0.1054726-0.0696106-0.2018547-0.1406822-0.2898026-0.2122383c-0.141655,0.0494881-0.2883415,0.0905418-0.4387589,0.1328926
			C56.3689308,45.809288,55.4644775,46.0630646,55.5827675,48.4923019z"/>
	</g>
	<g>
		<path fill="#FFFFFF" d="M28.1520939,53.957634c-1.0518684,0-2.154768-0.1414948-3.2997742-0.428051
			c-0.3287449-0.0821037-3.2123966-0.8564224-3.1740208-2.6998863c0.0351295-1.6873703,2.4424591-2.1835709,3.3486958-2.3704987
			c3.1862736-0.6560249,3.3922653-0.9175949,4.3821487-2.1741562c0.2934513-0.3727188,0.6587868-0.8364639,1.157177-1.3931885
			c1.656702-1.8536873,3.2190495-1.2060966,3.8863544-0.9296036c1.0468369,0.4338913,1.919323,1.480484,2.2774391,2.7315331
			c0.3240356,1.1319427,0.1685905,2.2229958-0.4377861,3.0719566C34.3224602,52.52388,31.498682,53.9573097,28.1520939,53.957634z
			 M23.9729366,50.9260788c0.3004303,0.2047768,0.8125305,0.4519043,1.3818302,0.5942078
			c2.7634964,0.6913986,6.611393,0.738945,9.25214-2.958374c0.3128395-0.4381104,0.2170258-1.0014877,0.1320801-1.2982635
			c-0.1799507-0.6284447-0.6236572-1.1992836-1.0792084-1.3879967c-0.5620804-0.2330093-0.8720818-0.3616829-1.5496902,0.3970566
			c-0.0002441,0.000164-0.0004082,0.0003242-0.0006485,0.0006485c-0.4548244,0.5080452-0.7834053,0.9252243-1.073288,1.2932358
			c-1.2641087,1.6049385-1.8428173,2.1494942-5.5912495,2.9212151
			C24.6704235,50.6474762,24.223877,50.8079529,23.9729366,50.9260788z M31.3378792,45.5826073h0.0016232H31.3378792z"/>
	</g>
	<g>
		<path fill="#FFFFFF" d="M31.1888409,46.5743561c-0.5026093,0-0.9438-0.3665504-1.022337-0.8786545
			c-0.0210934-0.1375961-0.0358601-0.2758446-0.0448647-0.4149055c-2.4342651-0.0650673-4.7779884-1.1179886-6.5615807-2.978981
			c-2.2757339-2.3743896-3.3114567-5.663456-2.8414631-9.0238342c0.5056915-3.6162682,0.3163319-6.8094349,0.214674-8.5249577
			c-0.0283966-0.4790821-0.0489216-0.8252697-0.0473804-1.0665531c0.0021095-0.3157635,0.0077076-1.1541748,2.7368031-2.5376263
			c0.9605961-0.4869518,2.8863297-1.3363152,4.9915257-1.5542336c3.5113659-0.3636322,5.8275852,1.20261,6.5213375,4.4102993
			c1.8517456,8.5643082,0.1456337,12.3550911-1.1002197,15.1230469c-0.2307396,0.5124283-0.4485779,0.9966202-0.6222801,1.4639359
			l-0.1544724,0.4147415c-0.6523781,1.7491951-1.2159157,3.259861-1.0448112,4.3749275
			c0.0866508,0.5653229-0.301321,1.0939751-0.8666439,1.1806259C31.2939873,46.5704613,31.2410088,46.5743561,31.1888409,46.5743561
			z M22.9650421,23.9881153c0.0078697,0.1730537,0.0209312,0.392189,0.0356979,0.6423168
			c0.105957,1.7873249,0.3031883,5.1141968-0.2309818,8.9344292c-0.3814793,2.7282028,0.4515781,5.3902855,2.2856331,7.3038521
			c1.4423542,1.5049858,3.3391228,2.3378792,5.2887917,2.3438835c0.2240849-0.9197044,0.5853615-1.8880882,0.9738998-2.9298172
			l0.1533394-0.4118195c0.198122-0.5330353,0.4298325-1.0480576,0.6752567-1.5930977
			c1.1905212-2.6452065,2.6722221-5.9371109,0.964489-13.8351669c-0.3299599-1.5255947-1.1235085-2.4122791-2.4260712-2.710762
			C27.8309765,21.0779343,23.8286858,23.2225609,22.9650421,23.9881153z M22.8397751,24.1159782L22.8397751,24.1159782
			L22.8397751,24.1159782z"/>
	</g>
	<g>
		<path fill="#FFFFFF" d="M28.6649113,23.5445385c-0.0478535,0.3387947,0.6202641,1.2428532,1.4914246,1.3636494
			c0.8696651,0.121294,1.6140499-0.5852051,1.6612377-0.9236679c0.0471878-0.3387928-0.6200962-0.7119827-1.4915924-0.8332767
			c-0.8701649-0.1214619-1.6148796,0.0553303-1.6609058,0.3932953H28.6649113z"/>
		<path fill="#FFFFFF" d="M30.3450756,25.2663403c-0.078373,0.000082-0.1572342-0.0051918-0.2364178-0.0162258
			c-0.5470676-0.0758572-1.0996532-0.4205036-1.477808-0.921814c-0.1336231-0.1771107-0.3512173-0.5204582-0.3078938-0.8310299
			c0.0161457-0.1172333,0.0761833-0.2876091,0.2703304-0.4346199c0.3451328-0.2612438,1.0272846-0.3582764,1.7804279-0.2532921
			c0.9240856,0.1285934,1.8771362,0.5661354,1.7857819,1.2227306
			C32.0863991,24.5562782,31.2572346,25.2663403,30.3450756,25.2663403z M29.012167,23.6100445
			c0.0529804,0.2315483,0.5478802,0.8669682,1.1915779,0.956295c0.6490498,0.0904617,1.186058-0.4230995,1.2647552-0.6098652
			c-0.0749645-0.1099319-0.4738064-0.3636303-1.190115-0.4633408C29.5723801,23.39464,29.1216946,23.5247746,29.012167,23.6100445z"
			/>
	</g>
	<g>
		<path fill="#FFFFFF" d="M55.1543274,22.8538227c0.0471916,0.3387947-0.6200943,1.2428551-1.4914246,1.3636513
			c-0.8703346,0.121294-1.6147118-0.5852051-1.6624031-0.9236679c-0.0460281-0.3387947,0.6214256-0.7119827,1.4919243-0.8332767
			s1.6147118,0.0553284,1.6619034,0.3934593V22.8538227z"/>
		<path fill="#FFFFFF" d="M53.4675102,24.4035892c-0.8573952,0.000082-1.5814095-0.6845856-1.6378784-1.0856991
			c-0.0702591-0.5156708,0.7713966-0.9074554,1.6390152-1.0283394c0.8690796-0.1208057,1.7848892,0.0258808,1.8566093,0.5405769
			l0.000164-0.0000801c0.0321274,0.2313862-0.1434402,0.5871468-0.4473572,0.9063187
			c-0.1994209,0.2094803-0.6193581,0.5727863-1.1914978,0.6520519
			C53.6128998,24.3987217,53.5397186,24.4035892,53.4675102,24.4035892z M54.0321846,22.5939541
			c-0.1551208,0-0.327446,0.0111961-0.515831,0.0374832c-0.9091568,0.126646-1.3652802,0.4886551-1.3448334,0.6390724
			c0.0326157,0.2317924,0.6878319,0.8834381,1.4675026,0.7760201c0.4682922-0.0649052,0.8207245-0.3712559,0.9889908-0.5481224
			c0.262867-0.2760906,0.367363-0.5334396,0.3555183-0.6207371l0,0
			C54.9668198,22.7587318,54.6259041,22.5939541,54.0321846,22.5939541z"/>
	</g>
	<g>
		<path fill="#FFFFFF" d="M56.4088478,42.3725624c-0.1981239,0-0.3981934-0.0567932-0.575222-0.1752434
			c-0.4752655-0.3181953-0.6024818-0.9614067-0.2842827-1.4366722c2.0232544-3.0216599,1.6516724-6.1133308,1.2922592-9.1031837
			c-0.1541481-1.2827682-0.3134918-2.6092663-0.2721138-3.8852177c0.0418625-1.3110828,0.2083435-2.3911858,0.3691483-3.435751
			c0.1896858-1.2314129,0.368824-2.3945122,0.2945061-3.7714729c-0.0308304-0.5710831,0.4071159-1.0590878,0.9782829-1.0899181
			c0.5708389-0.0287209,1.0590858,0.407198,1.0899162,0.978281c0.0858383,1.5915546-0.1182899,2.9167538-0.3156013,4.1983852
			c-0.1515503,0.9836369-0.3082962,2.000782-0.3461037,3.1871643c-0.0363464,1.118803,0.1067696,2.3101349,0.2584839,3.5714035
			c0.3853722,3.2076893,0.8223457,6.8433475-1.6278191,10.5026989
			C57.0705566,42.2112732,56.7427864,42.3725624,56.4088478,42.3725624z"/>
	</g>
	<g>
		<path fill="none" stroke="#FFFFFF" stroke-width="3" stroke-linecap="round" stroke-linejoin="round" d="M0,10.0080576"/>
	</g>
</g>
</svg>
