<?xml version="1.0" encoding="utf-8"?>
<!-- Generator: Adobe Illustrator 23.0.0, SVG Export Plug-In . SVG Version: 6.00 Build 0)  -->
<!DOCTYPE svg PUBLIC "-//W3C//DTD SVG 1.1//EN" "http://www.w3.org/Graphics/SVG/1.1/DTD/svg11.dtd" [
	<!ENTITY ns_extend "http://ns.adobe.com/Extensibility/1.0/">
	<!ENTITY ns_ai "http://ns.adobe.com/AdobeIllustrator/10.0/">
	<!ENTITY ns_graphs "http://ns.adobe.com/Graphs/1.0/">
	<!ENTITY ns_vars "http://ns.adobe.com/Variables/1.0/">
	<!ENTITY ns_imrep "http://ns.adobe.com/ImageReplacement/1.0/">
	<!ENTITY ns_sfw "http://ns.adobe.com/SaveForWeb/1.0/">
	<!ENTITY ns_custom "http://ns.adobe.com/GenericCustomNamespace/1.0/">
	<!ENTITY ns_adobe_xpath "http://ns.adobe.com/XPath/1.0/">
]>
<svg version="1.1" id="Capa_1" xmlns:x="&ns_extend;" xmlns:i="&ns_ai;" xmlns:graph="&ns_graphs;"
	 xmlns="http://www.w3.org/2000/svg" xmlns:xlink="http://www.w3.org/1999/xlink" x="0px" y="0px" viewBox="0 0 58 58"
	 enable-background="new 0 0 58 58" xml:space="preserve">
<metadata>
	<sfw  xmlns="&ns_sfw;">
		<slices></slices>
		<sliceSourceBounds  bottomLeftOrigin="true" height="58" width="58" x="227" y="227"></sliceSourceBounds>
	</sfw>
</metadata>
<g>
	<g>
		<path fill="#FFFFFF" d="M50.8407364,30.6992188h5.4600449C57.2392044,30.6992188,58,29.9384212,58,29V12.6195316
			c0-0.9384222-0.7607956-1.6992188-1.6992188-1.6992188H41.6195297V7.1593752C41.6195297,3.211637,38.4077835,0,34.4601555,0
			s-7.1593742,3.21175-7.1593742,7.1593752v3.7609377H12.6195316c-0.9384222,0-1.6992188,0.7607975-1.6992188,1.6992188v14.6812496
			H7.1593752C3.21175,27.3007813,0,30.5125294,0,34.4601593c0,3.9476242,3.21175,7.1593742,7.1593752,7.1593742h3.7609377
			v14.6812477C10.9203129,57.2392044,11.6811104,58,12.6195316,58H29c0.9384212,0,1.6992188-0.7607956,1.6992188-1.6992188
			v-5.4601593c0-2.0738373,1.6872139-3.7609367,3.7609406-3.7609367s3.7609367,1.6872101,3.7609367,3.7609367v5.4601593
			C38.221096,57.2392044,38.9818954,58,39.9203148,58h16.3804665C57.2392044,58,58,57.2392044,58,56.3007813V39.920311
			c0-0.9384193-0.7607956-1.6992188-1.6992188-1.6992188h-5.4600449c-2.0739517,0-3.7610474-1.6872101-3.7610474-3.7609367
			C47.079689,32.3864326,48.7667847,30.6992188,50.8407364,30.6992188z M50.8407364,41.6195297h3.7608261v12.9820328H41.6195297
			v-3.7609406c0-3.9477348-3.2117462-7.1593742-7.1593742-7.1593742s-7.1593742,3.2116394-7.1593742,7.1593742v3.7609406H14.3187504
			V39.920311c0-0.9384193-0.7607975-1.6992188-1.6992188-1.6992188H7.1593752c-2.0738397,0-3.7609377-1.6872101-3.7609377-3.7609367
			s1.687211-3.7609406,3.7609377-3.7609406h5.4601564c0.9384222,0,1.6992188-0.7607975,1.6992188-1.6992188V14.3187504H29
			c0.9384212,0,1.6992188-0.7607975,1.6992188-1.6992188V7.1593752c0-2.0738397,1.6872139-3.7609377,3.7609406-3.7609377
			s3.7609367,1.687211,3.7609367,3.7609377v5.4601564c0,0.9384222,0.7607994,1.6992188,1.6992188,1.6992188h14.6812477v12.9820309
			h-3.7608261c-3.9478493,0-7.1594849,3.2117481-7.1594849,7.1593781
			C43.6812515,38.4077835,46.8928871,41.6195297,50.8407364,41.6195297z"/>
	</g>
</g>
</svg>
