<?xml version="1.0" encoding="utf-8"?>
<!-- Generator: Adobe Illustrator 23.0.0, SVG Export Plug-In . SVG Version: 6.00 Build 0)  -->
<!DOCTYPE svg PUBLIC "-//W3C//DTD SVG 1.1//EN" "http://www.w3.org/Graphics/SVG/1.1/DTD/svg11.dtd" [
	<!ENTITY ns_extend "http://ns.adobe.com/Extensibility/1.0/">
	<!ENTITY ns_ai "http://ns.adobe.com/AdobeIllustrator/10.0/">
	<!ENTITY ns_graphs "http://ns.adobe.com/Graphs/1.0/">
	<!ENTITY ns_vars "http://ns.adobe.com/Variables/1.0/">
	<!ENTITY ns_imrep "http://ns.adobe.com/ImageReplacement/1.0/">
	<!ENTITY ns_sfw "http://ns.adobe.com/SaveForWeb/1.0/">
	<!ENTITY ns_custom "http://ns.adobe.com/GenericCustomNamespace/1.0/">
	<!ENTITY ns_adobe_xpath "http://ns.adobe.com/XPath/1.0/">
]>
<svg version="1.1" id="Layer_2_1_" xmlns:x="&ns_extend;" xmlns:i="&ns_ai;" xmlns:graph="&ns_graphs;"
	 xmlns="http://www.w3.org/2000/svg" xmlns:xlink="http://www.w3.org/1999/xlink" x="0px" y="0px" viewBox="0 0 76.3579712 68"
	 enable-background="new 0 0 76.3579712 68" xml:space="preserve">
<metadata>
	<sfw  xmlns="&ns_sfw;">
		<slices></slices>
		<sliceSourceBounds  bottomLeftOrigin="true" height="68" width="76.3579712" x="382.8210449" y="264.8500061">
			</sliceSourceBounds>
	</sfw>
</metadata>
<path fill="#61DAFB" d="M76.3579712,34.007782c0-5.0583649-6.3346329-9.8521404-16.0466919-12.8249016
	c2.2412491-9.8988352,1.2451363-17.7743206-3.1439705-20.2957211c-1.011673-0.5914402-2.1945496-0.8715952-3.4863853-0.8715952
	v3.4708169c0.71595,0,1.2918243,0.1400781,1.7743225,0.404669c2.1167259,1.2140083,3.0350189,5.836575,2.3190689,11.7821026
	c-0.1711998,1.4630337-0.4513664,3.0038929-0.7937698,4.5758762c-3.0505791-0.7470837-6.3813248-1.322958-9.8832703-1.6964989
	c-2.1011658-2.8793774-4.2801552-5.4941635-6.4747086-7.7821016c5.0739326-4.7159543,9.8365784-7.299612,13.0739365-7.299612V0l0,0
	c-4.2801552,0-9.8832703,3.0505838-15.5486412,8.342412c-5.6653671-5.2607012-11.2684822-8.2801561-15.5486374-8.2801561v3.470818
	c3.2217922,0,8,2.5680938,13.0739326,7.2529197c-2.1789894,2.2879381-4.3579788,4.8871593-6.4280148,7.7665367
	c-3.5175114,0.3735409-6.8482513,0.9494171-9.8988361,1.7120628c-0.357975-1.5564194-0.6225681-3.0661469-0.8093395-4.5136194
	c-0.7315197-5.9455252,0.1712074-10.5680943,2.2723751-11.7976665c0.4669247-0.2801561,1.0739288-0.404669,1.7898827-0.404669
	V0.077821l0,0c-1.3073921,0-2.4902725,0.2801562-3.5175114,0.8715952
	c-4.3735418,2.5214019-5.354085,10.3813248-3.0972757,20.2490292C6.3035026,24.1867733,0,28.964983,0,34.007782
	c0,5.0583687,6.3346305,9.8521423,16.0466938,12.8249054c-2.2412453,9.8988342-1.2451372,17.7743149,3.1439705,20.295723
	C20.2023373,67.7198486,21.3852177,68,22.6926098,68c4.2801571,0,9.8832684-3.0505829,15.5486393-8.3424149
	c5.6653709,5.2606964,11.2684822,8.2801514,15.548645,8.2801514c1.3073959,0,2.4902725-0.2801514,3.5175056-0.8715973
	c4.373539-2.5214005,5.3540878-10.3813171,3.0972786-20.2490273C70.0544662,43.8443642,76.3579712,39.0505867,76.3579712,34.007782z
	 M56.0933762,23.6264591c-0.5758781,2.007782-1.2918282,4.0778217-2.1011696,6.1478596
	c-0.6381302-1.2451363-1.3073959-2.4902725-2.0389099-3.7354088c-0.7159576-1.2451363-1.4785995-2.4591446-2.2412453-3.6420231
	C51.9221687,22.7237358,54.0544662,23.1284065,56.0933762,23.6264591z M48.9649696,40.2023354
	c-1.2140045,2.1011658-2.4591408,4.0933838-3.7509727,5.9455261c-2.3190651,0.2023354-4.6692619,0.3112869-7.0350227,0.3112869
	c-2.3501968,0-4.7003899-0.1089516-7.003891-0.2957191c-1.2918282-1.8521423-2.5525284-3.8287964-3.7665405-5.9143982
	c-1.1828804-2.0389137-2.2568092-4.1089478-3.2373524-6.1945534c0.964983-2.0856018,2.0544777-4.1712036,3.2217922-6.2101154
	c1.2140064-2.1011677,2.4591427-4.0933857,3.7509747-5.9455242c2.319067-0.2023354,4.66926-0.311285,7.0350208-0.311285
	c2.3501968,0,4.7003937,0.1089497,7.0038948,0.2957191c1.2918243,1.8521385,2.5525284,3.8287945,3.7665367,5.9144001
	c1.1828804,2.0389118,2.2568092,4.1089478,3.2373543,6.1945496C51.2062187,36.0778198,50.1322861,38.1634293,48.9649696,40.2023354z
	 M53.9922066,38.1789894c0.8404694,2.0856018,1.5564194,4.1712036,2.1478577,6.1945496
	c-2.0389061,0.4980583-4.1867676,0.9182892-6.4124527,1.2451363c0.7626457-1.1984444,1.5252914-2.4280167,2.2412453-3.6887169
	C52.6848183,40.6848259,53.3540764,39.4241257,53.9922066,38.1789894z M38.2101097,54.7859955
	c-1.4474678-1.4941635-2.8949432-3.1595306-4.3268471-4.980545c1.4007797,0.0622559,2.8326874,0.1089516,4.2801552,0.1089516
	c1.4630356,0,2.9105072-0.0311317,4.3268471-0.1089516C41.089489,51.6264648,39.6420135,53.291832,38.2101097,54.7859955z
	 M26.6303368,45.6186829c-2.2101173-0.3268509-4.342411-0.7315216-6.3813229-1.2295723
	c0.5758781-2.007782,1.2918262-4.0778236,2.1011677-6.1478615c0.638134,1.2451363,1.3073921,2.4902725,2.0389118,3.7354088
	S25.8676929,44.4358025,26.6303368,45.6186829z M38.1322899,13.2295713c1.4474678,1.4941645,2.8949432,3.1595335,4.3268471,4.980546
	c-1.4007797-0.0622559-2.8326874-0.1089497-4.280159-0.1089497c-1.4630318,0-2.9105072,0.0311279-4.3268471,0.1089497
	C35.2529106,16.3891048,36.7003784,14.7237358,38.1322899,13.2295713z M26.6147766,22.3968868
	c-0.7626438,1.1984425-1.5252895,2.4280167-2.2412434,3.688715c-0.7159538,1.2451363-1.3852139,2.4902706-2.0233479,3.7354069
	c-0.8404655-2.0856018-1.5564194-4.1712074-2.1478577-6.1945534C22.2412357,23.1439686,24.3890934,22.7237358,26.6147766,22.3968868
	z M12.5291729,41.8832703c-5.509728-2.350193-9.0739317-5.4319038-9.0739317-7.8754883
	c0-2.4435806,3.5642016-5.5408554,9.0739317-7.8754864c1.338522-0.5758743,2.8015566-1.0894947,4.3112869-1.5719852
	c0.8871613,3.0505848,2.0544758,6.2256813,3.5019455,9.4785995c-1.4319096,3.2373505-2.5836601,6.3968887-3.4552555,9.4319077
	C15.3462896,42.9883308,13.883255,42.4591446,12.5291729,41.8832703z M20.9027119,64.1245193
	c-2.1167316-1.2140083-3.0350189-5.8365784-2.3190651-11.7821045c0.1712074-1.4630356,0.4513607-3.003891,0.7937756-4.5758743
	c3.0505848,0.7470779,6.3813229,1.3229561,9.8832703,1.6964951c2.1011677,2.8793793,4.2801552,5.4941635,6.4747086,7.7821045
	c-5.0739307,4.71595-9.8365784,7.2996063-13.0739307,7.2996063C21.9610767,64.5291901,21.3696384,64.3891144,20.9027119,64.1245193z
	 M57.8210068,52.264595c0.7315178,5.9455261-0.1712036,10.5680923-2.2723694,11.7976608
	c-0.4669266,0.280159-1.0739365,0.4046707-1.7898827,0.4046707c-3.2217941,0-8-2.5680923-13.0739326-7.2529182
	c2.1789894-2.287941,4.357975-4.8871574,6.4280128-7.7665367c3.5175133-0.373539,6.8482513-0.9494171,9.8988304-1.7120628
	C57.3696404,49.3073959,57.6497955,50.8171234,57.8210068,52.264595z M63.8132248,41.8832703
	c-1.3385162,0.5758781-2.8015556,1.0894966-4.3112869,1.5719872c-0.8871613-3.0505829-2.0544777-6.2256813-3.5019455-9.4785995
	c1.4319077-3.2373524,2.5836563-6.3968887,3.4552574-9.4319077c1.5408592,0.4824905,3.0038872,1.011673,4.3735352,1.5875473
	c5.5097313,2.350193,9.0739326,5.4319096,9.0739326,7.8754845C72.8871536,36.4513664,69.3229446,39.5486412,63.8132248,41.8832703z"
	/>
<path fill="#61DAFB" d="M22.5836449,0.0622547L22.5836449,0.0622547L22.5836449,0.0622547z"/>
<circle fill="#61DAFB" cx="38.163414" cy="34.0077858" r="7.112843"/>
<path fill="#61DAFB" d="M53.6653633,0.0155616L53.6653633,0.0155616L53.6653633,0.0155616z"/>
</svg>
