<?xml version="1.0" encoding="utf-8"?>
<!-- Generator: Adobe Illustrator 23.0.0, SVG Export Plug-In . SVG Version: 6.00 Build 0)  -->
<!DOCTYPE svg PUBLIC "-//W3C//DTD SVG 1.1//EN" "http://www.w3.org/Graphics/SVG/1.1/DTD/svg11.dtd" [
	<!ENTITY ns_extend "http://ns.adobe.com/Extensibility/1.0/">
	<!ENTITY ns_ai "http://ns.adobe.com/AdobeIllustrator/10.0/">
	<!ENTITY ns_graphs "http://ns.adobe.com/Graphs/1.0/">
	<!ENTITY ns_vars "http://ns.adobe.com/Variables/1.0/">
	<!ENTITY ns_imrep "http://ns.adobe.com/ImageReplacement/1.0/">
	<!ENTITY ns_sfw "http://ns.adobe.com/SaveForWeb/1.0/">
	<!ENTITY ns_custom "http://ns.adobe.com/GenericCustomNamespace/1.0/">
	<!ENTITY ns_adobe_xpath "http://ns.adobe.com/XPath/1.0/">
]>
<svg version="1.1" id="Layer_1" xmlns:x="&ns_extend;" xmlns:i="&ns_ai;" xmlns:graph="&ns_graphs;"
	 xmlns="http://www.w3.org/2000/svg" xmlns:xlink="http://www.w3.org/1999/xlink" x="0px" y="0px" viewBox="0 0 70.0049973 60"
	 enable-background="new 0 0 70.0049973 60" xml:space="preserve">
<metadata>
	<sfw  xmlns="&ns_sfw;">
		<slices></slices>
		<sliceSourceBounds  bottomLeftOrigin="true" height="60" width="70.0049973" x="689.2451782" y="693.8865356">
			</sliceSourceBounds>
	</sfw>
</metadata>
<path fill="#A42122" d="M67.260788,46.2648048c-3.7357063,1.9473877-23.0883217,9.9042702-27.208271,12.0518532
	c-4.1202927,2.1492462-6.4088402,2.1282959-9.6635513,0.5723038c-3.2547131-1.5560379-23.8490982-9.87463-27.5589008-11.6484261
	c-1.8543613-0.8856964-2.8291118-1.6340065-2.8291118-2.3404579v-7.0759926c0,0,26.8111782-5.8367252,31.1398544-7.3897209
	c4.3285294-1.5527992,5.8298073-1.6088333,9.5133095-0.2593651c3.6839943,1.3494701,25.70895,5.323101,29.3493767,6.6564255
	c0,0-0.0016174,6.3197861-0.0016174,6.975605C70.0023651,44.5070076,69.1624451,45.2746506,67.260788,46.2648048z"/>
<path fill="#D82F27" d="M67.260788,39.1871948c-3.7357063,1.9466019-23.0883217,9.9043159-27.208271,12.0518532
	c-4.1202927,2.1484146-6.4088402,2.1274643-9.6635513,0.5714226c-3.2551079-1.5551033-23.8490524-9.87537-27.5588551-11.6475945
	c-3.7098513-1.7730103-3.7875721-2.9938736-0.1432736-4.420475c3.6439056-1.4274368,24.1253395-9.4633121,28.4544106-11.0163593
	c4.3280849-1.5521603,5.829855-1.6090794,9.5133114-0.2592182c3.6838455,1.3492756,22.9207649,9.0066032,26.5612907,10.3399773
	C70.8567581,36.1410141,70.9965439,37.2397575,67.260788,39.1871948z"/>
<path fill="#A42122" d="M67.260788,34.7264824c-3.7357063,1.9473915-23.0883217,9.9043159-27.208271,12.0527344
	c-4.1202927,2.147583-6.4088402,2.1266785-9.6635513,0.570591C27.133812,45.7946548,6.5398674,37.4752235,2.8300655,35.7022133
	c-1.8543613-0.8864822-2.8291118-1.6331673-2.8291118-2.3396759v-7.077219c0,0,26.8111782-5.8364315,31.1398544-7.3894768
	c4.3285294-1.5526047,5.8298073-1.6090794,9.5133095-0.2596092c3.6839943,1.3492737,25.70895,5.3225117,29.3493767,6.6560841
	c0,0-0.0016174,6.3196869-0.0016174,6.976387C70.0023651,32.9678993,69.1624451,33.7354431,67.260788,34.7264824z"/>
<path fill="#D82F27" d="M67.260788,27.6482334c-3.7357063,1.9471951-23.0883217,9.9041233-27.208271,12.0524921
	c-4.1202927,2.148365-6.4088402,2.1266785-9.6635513,0.5714264c-3.2551079-1.5551567-23.8490524-9.8756199-27.5588551-11.6481876
	c-3.7098513-1.7728119-3.7875721-2.9932861-0.1432736-4.4209671c3.6439056-1.4265537,24.1253395-9.4626255,28.4544067-11.0152292
	c4.3280849-1.5526037,5.829855-1.6090794,9.5133076-0.2596092c3.6838455,1.3492241,22.9207687,9.0057688,26.5612831,10.3395872
	C70.8567581,24.6019058,70.9965439,25.7009888,67.260788,27.6482334z"/>
<path fill="#A42122" d="M67.260788,22.7595634c-3.7357063,1.9471951-23.0883217,9.9045677-27.208271,12.0528831
	c-4.1202927,2.148365-6.4088402,2.1266823-9.6635513,0.571476c-3.2551079-1.5552521-23.8490524-9.875618-27.5588551-11.6482315
	c-1.8543613-0.8864822-2.8291118-1.6338081-2.8291118-2.3398247v-7.0768251c0,0,26.8111782-5.8364801,31.1398525-7.3890843
	c4.3285275-1.5530457,5.8298092-1.6090794,9.5133114-0.2596583c3.6839943,1.3492727,25.7089577,5.3225126,29.3493843,6.6560841
	c0,0-0.0016174,6.3197355-0.0016174,6.9759455C70.0023651,21.0011787,69.1624451,21.7685242,67.260788,22.7595634z"/>
<path fill="#D82F27" d="M67.260788,15.6815119c-3.7357063,1.9471941-23.0883217,9.9045172-27.208271,12.0527353
	c-4.1202927,2.1477776-6.4088402,2.1266289-9.6635513,0.5712776c-3.2547131-1.5556946-23.8490982-9.8750267-27.5589008-11.6478405
	c-3.7098513-1.7728615-3.7875721-2.9937286-0.1432736-4.4209671C6.3307428,10.8094769,26.8121777,2.7744353,31.1412449,1.221439
	c4.3280849-1.5530454,5.829855-1.609079,9.5133076-0.2594135c3.6838455,1.3494699,22.9207687,9.0060148,26.5612831,10.3397818
	C70.8567581,12.6349878,70.9965439,13.7346601,67.260788,15.6815119z"/>
<polygon fill="#FFFFFF" points="44.1753082,8.8669434 38.109539,9.4964151 36.7513351,12.7637377 34.558075,9.1178694 
	27.5540104,8.488348 32.7802048,6.6035662 31.2123909,3.7105703 36.1051331,5.6240563 40.7184906,4.1137967 39.4714699,7.1055145 
	"/>
<polygon fill="#FFFFFF" points="36.3891754,24.7182407 25.0684624,20.0228443 41.2903595,17.5333214 "/>
<ellipse fill="#FFFFFF" cx="20.6942043" cy="14.0436802" rx="8.6702042" ry="3.3607934"/>
<polygon fill="#791514" points="51.3437386,9.7598515 60.9442902,13.553998 51.3517876,17.3440247 "/>
<polygon fill="#AD2524" points="40.7225151,13.961298 51.3437386,9.7598515 51.3517876,17.3440247 50.3105507,17.7513218 "/>
</svg>
