<?xml version="1.0" encoding="utf-8"?>
<!-- Generator: Adobe Illustrator 23.0.0, SVG Export Plug-In . SVG Version: 6.00 Build 0)  -->
<!DOCTYPE svg PUBLIC "-//W3C//DTD SVG 1.1//EN" "http://www.w3.org/Graphics/SVG/1.1/DTD/svg11.dtd" [
	<!ENTITY ns_extend "http://ns.adobe.com/Extensibility/1.0/">
	<!ENTITY ns_ai "http://ns.adobe.com/AdobeIllustrator/10.0/">
	<!ENTITY ns_graphs "http://ns.adobe.com/Graphs/1.0/">
	<!ENTITY ns_vars "http://ns.adobe.com/Variables/1.0/">
	<!ENTITY ns_imrep "http://ns.adobe.com/ImageReplacement/1.0/">
	<!ENTITY ns_sfw "http://ns.adobe.com/SaveForWeb/1.0/">
	<!ENTITY ns_custom "http://ns.adobe.com/GenericCustomNamespace/1.0/">
	<!ENTITY ns_adobe_xpath "http://ns.adobe.com/XPath/1.0/">
]>
<svg version="1.1" xmlns:x="&ns_extend;" xmlns:i="&ns_ai;" xmlns:graph="&ns_graphs;"
	 xmlns="http://www.w3.org/2000/svg" xmlns:xlink="http://www.w3.org/1999/xlink" x="0px" y="0px" viewBox="0 0 42.2866478 59"
	 enable-background="new 0 0 42.2866478 59" xml:space="preserve">
<metadata>
	<sfw  xmlns="&ns_sfw;">
		<slices></slices>
		<sliceSourceBounds  bottomLeftOrigin="true" height="59" width="42.2866211" x="199.8566895" y="-413.5"></sliceSourceBounds>
	</sfw>
</metadata>
<g id="Inspo">
</g>
<g id="Work_x5C_">
	<g>
		<path fill="#C71E3A" d="M10.9431896,12.2676392c0.5141602,0.3654785,1.1383667,0.5853271,1.8157349,0.5853271h16.7686157
			c0.6774902,0,1.3017578-0.2198486,1.815918-0.5853271c0.296814-0.1964111,0.5509033-0.4505615,0.7472515-0.7473755
			c0.3653564-0.5140991,0.585083-1.1382446,0.585083-1.8155518V6.598877c0-0.6773071-0.2197266-1.3013916-0.585083-1.8154907
			c-0.1964703-0.296936-0.4507427-0.5511475-0.7476788-0.7476196c-0.5140991-0.3652344-1.1381836-0.585022-1.8154907-0.585022
			h-4.8013916C24.6472301,1.536377,23.0768566,0,21.1432018,0c-1.9332886,0-3.5037231,1.536377-3.5826416,3.4507446h-4.8016357
			c-0.6771851,0-1.3012695,0.2197876-1.8153076,0.585022c-0.2969971,0.1964722-0.5513306,0.4506836-0.7478027,0.7478027
			C9.8305798,5.2976074,9.6109142,5.9216919,9.6109142,6.598877v3.105835c0,0.6771851,0.2196655,1.3012695,0.5848999,1.8153687
			C10.3921642,11.8170776,10.6463146,12.071167,10.9431896,12.2676392z"/>
		<path fill="#C71E3A" d="M29.3866711,25.1673584L18.0867443,36.46698l-5.1864014-5.1866455
			c-0.6881714-0.6881714-1.8043213-0.6884766-2.4924927,0c-0.6884766,0.6882935-0.6884766,1.8041992-0.0003052,2.4924927
			l6.4328003,6.4329224c0.3307495,0.3304443,0.7788086,0.5162354,1.2463989,0.5162354
			c0.4672852,0,0.9156494-0.185791,1.2460938-0.5162354l12.5460815-12.5458984c0.6884136-0.6882935,0.6884136-1.8041992,0-2.4924927
			C31.1912975,24.4790649,30.0748425,24.4790649,29.3866711,25.1673584z"/>
		<path fill="#C71E3A" d="M36.2541008,5.8236084V9.446167c1.4552612,0.4893188,2.5076294,1.8636475,2.5076294,3.4816895v38.8722534
			c0,2.0263672-1.6485596,3.6749878-3.6749878,3.6749878H7.1999035c-2.0264282,0-3.674988-1.6486206-3.674988-3.6749878V12.9278564
			c0-1.5710449,0.9927981-2.9110718,2.3824465-3.435791V5.8459473c-3.3591921,0.6092529-5.9073486,3.5470581-5.9073486,7.0819092
			v38.8722534C0.0000132,55.7764893,3.2235239,59,7.1999035,59h27.8868389c3.9763794,0,7.1998901-3.2235107,7.1998901-7.1998901
			V12.9278564C42.2866325,9.3491211,39.6751213,6.3815308,36.2541008,5.8236084z"/>
	</g>
</g>
</svg>
