<?xml version="1.0" encoding="utf-8"?>
<!-- Generator: Adobe Illustrator 23.0.0, SVG Export Plug-In . SVG Version: 6.00 Build 0)  -->
<!DOCTYPE svg PUBLIC "-//W3C//DTD SVG 1.1//EN" "http://www.w3.org/Graphics/SVG/1.1/DTD/svg11.dtd" [
	<!ENTITY ns_extend "http://ns.adobe.com/Extensibility/1.0/">
	<!ENTITY ns_ai "http://ns.adobe.com/AdobeIllustrator/10.0/">
	<!ENTITY ns_graphs "http://ns.adobe.com/Graphs/1.0/">
	<!ENTITY ns_vars "http://ns.adobe.com/Variables/1.0/">
	<!ENTITY ns_imrep "http://ns.adobe.com/ImageReplacement/1.0/">
	<!ENTITY ns_sfw "http://ns.adobe.com/SaveForWeb/1.0/">
	<!ENTITY ns_custom "http://ns.adobe.com/GenericCustomNamespace/1.0/">
	<!ENTITY ns_adobe_xpath "http://ns.adobe.com/XPath/1.0/">
]>
<svg version="1.1" id="Layer_1" xmlns:x="&ns_extend;" xmlns:i="&ns_ai;" xmlns:graph="&ns_graphs;"
	 xmlns="http://www.w3.org/2000/svg" xmlns:xlink="http://www.w3.org/1999/xlink" x="0px" y="0px" viewBox="0 0 26.1233425 25"
	 enable-background="new 0 0 26.1233425 25" xml:space="preserve">
<metadata>
	<sfw  xmlns="&ns_sfw;">
		<slices></slices>
		<sliceSourceBounds  bottomLeftOrigin="true" height="25" width="26.1233425" x="0" y="0"></sliceSourceBounds>
	</sfw>
</metadata>
<g id="Inspo">
</g>
<g id="Work_x5C_">
	<path fill="#C7223C" d="M15.8476648,9.6027746c0.0303335,0.087266,0.1117725,0.1464348,0.2041407,0.1483173l7.8482761,0.1599474
		c0.2093849,0.0042677,0.2958355,0.2703362,0.1289463,0.3968611l-6.255373,4.7424765
		c-0.0736217,0.0558157-0.1047287,0.1515532-0.0779762,0.2399826l2.27314,7.5135708
		c0.0606461,0.2004547-0.1656857,0.364893-0.3375893,0.2452736L13.18783,18.565506
		c-0.0758343-0.0527687-0.1764984-0.0527687-0.2523327,0L6.492115,23.049202
		c-0.1719036,0.1196213-0.3982353-0.0448189-0.3375902-0.2452736l2.273139-7.5135689
		c0.0267534-0.0884295-0.0043535-0.1841669-0.0779753-0.2399826l-6.255373-4.7424765
		C1.9274276,10.1813755,2.0138783,9.915307,2.2232628,9.9110394L10.071537,9.751092
		c0.0923691-0.0018826,0.1738081-0.0610514,0.2041416-0.1483173l2.785985-8.0149422 M13.0616636,0
		c-0.6759892,0-1.2778549,0.4280029-1.4998026,1.0665021L9.1386395,8.0377808
		c-0.0303335,0.087266-0.1117725,0.1464348-0.2041416,0.1483173L1.5555773,8.3364773
		C0.879734,8.3502712,0.2867034,8.7904215,0.0778061,9.4333134c-0.2088812,0.6429253,0.0121627,1.3475847,0.5508409,1.7559786
		l5.8812819,4.458848c0.0736213,0.0558157,0.1047287,0.1515532,0.0779753,0.2399826l-2.1371937,7.0642548
		c-0.1957493,0.6470261,0.0396056,1.3470345,0.5864892,1.744379C5.3152285,24.8987255,5.6427965,25,5.970542,25
		c0.3169723,0,0.6341062-0.0946846,0.9069018-0.2845058l6.0580535-4.215559c0.0758343-0.0527687,0.1764984-0.0527687,0.2523327,0
		l6.0580692,4.215559C19.5186634,24.9053154,19.8358612,25,20.1528015,25c0.3277931,0,0.6552811-0.1012421,0.933342-0.3032436
		c0.5468845-0.3973446,0.782238-1.097353,0.5864887-1.744379l-2.1371937-7.0642548
		c-0.0267525-0.0884295,0.0043545-0.1841669,0.0779762-0.2399826l5.8812809-4.458848
		c0.5386791-0.4083939,0.7597218-1.1130533,0.5508423-1.7559786c-0.2088985-0.6428919-0.8019295-1.0830421-1.4777718-1.0968361
		l-7.3789368-0.1503792c-0.0923691-0.0018826-0.1738071-0.0610514-0.2041416-0.1483173l-2.4232216-6.9712787
		C14.3395185,0.4280029,13.7376518,0,13.0616636,0L13.0616636,0z"/>
</g>
</svg>
