<?xml version="1.0" encoding="utf-8"?>
<!-- Generator: Adobe Illustrator 23.0.0, SVG Export Plug-In . SVG Version: 6.00 Build 0)  -->
<!DOCTYPE svg PUBLIC "-//W3C//DTD SVG 1.1//EN" "http://www.w3.org/Graphics/SVG/1.1/DTD/svg11.dtd" [
	<!ENTITY ns_extend "http://ns.adobe.com/Extensibility/1.0/">
	<!ENTITY ns_ai "http://ns.adobe.com/AdobeIllustrator/10.0/">
	<!ENTITY ns_graphs "http://ns.adobe.com/Graphs/1.0/">
	<!ENTITY ns_vars "http://ns.adobe.com/Variables/1.0/">
	<!ENTITY ns_imrep "http://ns.adobe.com/ImageReplacement/1.0/">
	<!ENTITY ns_sfw "http://ns.adobe.com/SaveForWeb/1.0/">
	<!ENTITY ns_custom "http://ns.adobe.com/GenericCustomNamespace/1.0/">
	<!ENTITY ns_adobe_xpath "http://ns.adobe.com/XPath/1.0/">
]>
<svg version="1.1" xmlns:x="&ns_extend;" xmlns:i="&ns_ai;" xmlns:graph="&ns_graphs;"
	 xmlns="http://www.w3.org/2000/svg" xmlns:xlink="http://www.w3.org/1999/xlink" x="0px" y="0px" viewBox="0 0 48 48"
	 enable-background="new 0 0 48 48" xml:space="preserve">
<metadata>
	<sfw  xmlns="&ns_sfw;">
		<slices></slices>
		<sliceSourceBounds  bottomLeftOrigin="true" height="48" width="48" x="2045.0605469" y="-408.0050659"></sliceSourceBounds>
	</sfw>
</metadata>
<g id="Inspo">
</g>
<g id="Work_x5C_">
	<path fill="#C61B37" d="M48,16.19664v-4.9786835c0-0.7742615-0.2034302-1.5001831-0.5566406-2.1307983
		c-0.1464844-0.480423-0.411438-0.9265594-0.7976074-1.2817841l-7.6607666-7.0453033
		C38.4534302,0.2713165,37.7578125,0,37.0356445,0H9.2402344C8.3796387,0,7.5639038,0.385025,7.0168762,1.049469
		L1.0250244,8.3273163C0.865448,8.5211792,0.7386475,8.7335815,0.6366577,8.9551849C0.2352905,9.6157837,0,10.388443,0,11.2179565
		V16.19664c0,2.4130554,1.9558411,4.3692169,4.3685303,4.3692169C1.9558411,20.5658569,0,22.5219269,0,24.9349823v4.9786835
		c0,2.413147,1.9558411,4.3692169,4.3685303,4.3692169C1.9558411,34.2828827,0,36.2390442,0,38.6520996v4.9786835
		C0,46.0438385,1.9558411,48,4.3685303,48h39.2629395C46.0440674,48,48,46.0438385,48,43.6307831v-4.9786835
		c0-2.4130554-1.9559326-4.3692169-4.3685303-4.3692169C46.0440674,34.2828827,48,32.3268127,48,29.9136658v-4.9786835
		c0-2.4130554-1.9559326-4.3691254-4.3685303-4.3691254C46.0440674,20.5658569,48,18.6096954,48,16.19664z M45.1199341,38.6520996
		v4.9786835c0,0.8209076-0.6677856,1.4887848-1.4884644,1.4887848H4.3685303c-0.8208618,0-1.4885559-0.6678772-1.4885559-1.4887848
		v-4.9786835c0-0.8209076,0.6676941-1.488739,1.4885559-1.488739h39.2629395
		C44.4521484,37.1633606,45.1199341,37.831192,45.1199341,38.6520996z M45.1199341,24.9349823v4.9786835
		c0,0.8209076-0.6677856,1.488739-1.4884644,1.488739H4.3685303c-0.8208618,0-1.4885559-0.6678314-1.4885559-1.488739v-4.9786835
		c0-0.820816,0.6676941-1.4886475,1.4885559-1.4886475h39.2629395
		C44.4521484,23.4463348,45.1199341,24.1141663,45.1199341,24.9349823z M9.2402344,2.8804321h27.7954102l4.3150635,3.9683075
		H5.9729919L9.2402344,2.8804321z M45.1199341,16.19664c0,0.8209076-0.6677856,1.488739-1.4884644,1.488739H4.3685303
		c-0.8208618,0-1.4885559-0.6678314-1.4885559-1.488739v-4.9786835c0-0.8209076,0.6676941-1.488739,1.4885559-1.488739h39.2629395
		c0.8206787,0,1.4884644,0.6678314,1.4884644,1.488739V16.19664z M41.8346558,13.7072296
		c0,0.7975159-0.6463623,1.4440155-1.4437866,1.4440155s-1.4437866-0.6464996-1.4437866-1.4440155
		s0.6463623-1.4440155,1.4437866-1.4440155S41.8346558,12.9097137,41.8346558,13.7072296z M41.8346558,27.4243469
		c0,0.7975159-0.6463623,1.4440613-1.4437866,1.4440613s-1.4437866-0.6465454-1.4437866-1.4440613
		c0-0.7974701,0.6463623-1.4440155,1.4437866-1.4440155S41.8346558,26.6268768,41.8346558,27.4243469z M41.8346558,41.14151
		c0,0.7975159-0.6463623,1.4440155-1.4437866,1.4440155s-1.4437866-0.6464996-1.4437866-1.4440155
		s0.6463623-1.4440155,1.4437866-1.4440155S41.8346558,40.3439941,41.8346558,41.14151z"/>
</g>
</svg>
