<?xml version="1.0" encoding="utf-8"?>
<!-- Generator: Adobe Illustrator 23.0.0, SVG Export Plug-In . SVG Version: 6.00 Build 0)  -->
<!DOCTYPE svg PUBLIC "-//W3C//DTD SVG 1.1//EN" "http://www.w3.org/Graphics/SVG/1.1/DTD/svg11.dtd" [
	<!ENTITY ns_extend "http://ns.adobe.com/Extensibility/1.0/">
	<!ENTITY ns_ai "http://ns.adobe.com/AdobeIllustrator/10.0/">
	<!ENTITY ns_graphs "http://ns.adobe.com/Graphs/1.0/">
	<!ENTITY ns_vars "http://ns.adobe.com/Variables/1.0/">
	<!ENTITY ns_imrep "http://ns.adobe.com/ImageReplacement/1.0/">
	<!ENTITY ns_sfw "http://ns.adobe.com/SaveForWeb/1.0/">
	<!ENTITY ns_custom "http://ns.adobe.com/GenericCustomNamespace/1.0/">
	<!ENTITY ns_adobe_xpath "http://ns.adobe.com/XPath/1.0/">
]>
<svg version="1.1" id="Layer_1" xmlns:x="&ns_extend;" xmlns:i="&ns_ai;" xmlns:graph="&ns_graphs;"
	 xmlns="http://www.w3.org/2000/svg" xmlns:xlink="http://www.w3.org/1999/xlink" x="0px" y="0px" viewBox="0 0 52.9999695 53"
	 enable-background="new 0 0 52.9999695 53" xml:space="preserve">
<metadata>
	<sfw  xmlns="&ns_sfw;">
		<slices></slices>
		<sliceSourceBounds  bottomLeftOrigin="true" height="53" width="52.9999695" x="-1.753814" y="-1.2462178"></sliceSourceBounds>
	</sfw>
</metadata>
<path fill="#F05138" d="M52.9962692,14.6799421c-0.0031242-0.5330257-0.0090141-1.0657835-0.0237389-1.5994349
	c-0.0310555-1.1608238-0.099678-2.3321781-0.3060036-3.4805975c-0.2093544-1.1662674-0.5515862-2.2507024-1.0909462-3.3101506
	c-0.5294571-1.0404401-1.2215996-1.9925337-2.0472412-2.8181748c-0.8254585-0.8256412-1.7775536-1.5176916-2.8184395-2.0474155
	c-1.0585556-0.5387372-2.1431732-0.8808804-3.3083649-1.0902357c-1.149044-0.2069458-2.3204002-0.2751245-3.4821167-0.3065367
	c-0.5333862-0.0144568-1.0662308-0.020525-1.5994339-0.0238269C37.6870995,0,37.0537682,0,36.4210625,0H22.3912277h-5.8122406
	c-0.6333313,0-1.2659483,0-1.898654,0.0036588c-0.5333824,0.0033018-1.0668554,0.0093701-1.5994349,0.0238269
	c-0.2903852,0.007853-0.5813932,0.0180263-0.8725815,0.0320369c-0.8734732,0.0421209-1.7482862,0.1193128-2.609623,0.2744999
	C8.7247744,0.4910835,7.8960991,0.7227485,7.0899115,1.056057C6.8212128,1.1670706,6.5549226,1.2895069,6.2902389,1.4241688
	c-0.7806644,0.397293-1.5115337,0.8858776-2.1762767,1.4536176c-0.221581,0.1892762-0.4358444,0.3872983-0.6421654,0.5937085
	c-0.82582,0.8256414-1.5179592,1.7777345-2.0474155,2.8181746C0.8850194,7.3491178,0.5432332,8.4335527,0.3336995,9.5998201
	c-0.2061426,1.1484194-0.2746783,2.3197737-0.3059121,3.4805975c-0.0146352,0.5336494-0.0207927,1.0664082-0.0242731,1.5994349
	c-0.0040158,0.6330624-0.0034803,1.2662153-0.0034803,1.8991003v8.6400509v11.2017536
	c0,0.6335068-0.0006247,1.266037,0.0034803,1.8995476c0.0034803,0.5330238,0.0096378,1.0657845,0.0242731,1.5985374
	c0.0312337,1.1614494,0.0996802,2.3330688,0.3059121,3.480957c0.2095337,1.1659088,0.55132,2.2513275,1.0906818,3.3105049
	c0.5294564,1.0407066,1.2215958,1.9925346,2.0474155,2.8178177c0.8251951,0.8259964,1.7775562,1.5179596,2.8185318,2.0480385
	c1.0586452,0.538826,2.1431689,0.8805237,3.3086333,1.0898781c1.1483297,0.2066803,2.3205767,0.2753944,3.4820251,0.3064499
	c0.5325794,0.0141869,1.0660515,0.0205231,1.5994349,0.0235558c0.6327066,0.0045509,1.2653227,0.0039253,1.898653,0.0039253
	h19.8419876c0.6327019,0,1.266037,0.0006256,1.8988304-0.0039253c0.5332069-0.0030327,1.0660515-0.0093689,1.5994339-0.0235558
	c1.1617203-0.0310555,2.3330688-0.0998611,3.4821167-0.3064499c1.1651993-0.2093544,2.2498131-0.5511436,3.3083649-1.0898781
	c1.0408859-0.5299911,1.992981-1.2220421,2.8184433-2.0480385c0.8256416-0.8253708,1.517868-1.7771111,2.0472374-2.8178177
	c0.53936-1.0591774,0.8815956-2.1445045,1.09095-3.3105049c0.2063179-1.1478844,0.2749443-2.3195076,0.3059998-3.480957
	c0.014637-0.5327568,0.0205231-1.0654221,0.0237389-1.5985374c0.0041046-0.6335106,0.0037498-1.2660408,0.0037498-1.8995476
	V16.578949C53.0000191,15.9460649,53.0002823,15.312912,52.9962692,14.6799421z"/>
<path fill="#FFFFFF" d="M41.9965515,32.7157249c-0.0012512-0.001606-0.0024109-0.0027657-0.0037498-0.0042839
	c0.0586281-0.1995392,0.1191368-0.3978271,0.1704483-0.6023636c2.199749-8.7640972-3.1689758-19.1256638-12.2539749-24.5813026
	c3.9812317,5.3970995,5.7415619,11.9342289,4.1775551,17.6510715c-0.1394806,0.5099125-0.3071594,0.9993-0.4925117,1.4749451
	c-0.2011452-0.132164-0.4545822-0.2821751-0.7949409-0.4698429c0,0-9.0371685-5.5798607-18.8319759-15.4492741
	c-0.2570086-0.2590609,5.2229919,7.8325272,11.4421654,14.4031239C22.4794865,23.4933872,14.3137398,17.5521049,9.14429,12.8207321
	c0.6351156,1.0591803,1.3905258,2.0790949,2.2208958,3.0609941c4.3169479,5.4747362,9.946784,12.229701,16.6915741,17.4167328
	c-4.7389603,2.9000969-11.4352036,3.1256027-18.102356,0.0030327c-1.6490517-0.7728119-3.1993155-1.7052727-4.6343718-2.7647228
	c2.8221903,4.5141659,7.168766,8.4089222,12.4589558,10.6826496c6.3087673,2.711174,12.5823746,2.5273438,17.25494,0.0444412
	l-0.0036621,0.0053558c0.021328-0.0134773,0.0484581-0.0281982,0.070591-0.041851
	c0.1918602-0.1031609,0.3822975-0.2081947,0.5685425-0.3191223c2.2449913-1.1652832,6.6792908-2.3475227,9.059391,2.2834511
	C45.3117027,44.3250351,46.5503426,38.3188744,41.9965515,32.7157249z"/>
</svg>
