<?xml version="1.0" encoding="utf-8"?>
<!-- Generator: Adobe Illustrator 23.0.0, SVG Export Plug-In . SVG Version: 6.00 Build 0)  -->
<!DOCTYPE svg PUBLIC "-//W3C//DTD SVG 1.1//EN" "http://www.w3.org/Graphics/SVG/1.1/DTD/svg11.dtd" [
	<!ENTITY ns_extend "http://ns.adobe.com/Extensibility/1.0/">
	<!ENTITY ns_ai "http://ns.adobe.com/AdobeIllustrator/10.0/">
	<!ENTITY ns_graphs "http://ns.adobe.com/Graphs/1.0/">
	<!ENTITY ns_vars "http://ns.adobe.com/Variables/1.0/">
	<!ENTITY ns_imrep "http://ns.adobe.com/ImageReplacement/1.0/">
	<!ENTITY ns_sfw "http://ns.adobe.com/SaveForWeb/1.0/">
	<!ENTITY ns_custom "http://ns.adobe.com/GenericCustomNamespace/1.0/">
	<!ENTITY ns_adobe_xpath "http://ns.adobe.com/XPath/1.0/">
]>
<svg version="1.1" id="Capa_1" xmlns:x="&ns_extend;" xmlns:i="&ns_ai;" xmlns:graph="&ns_graphs;"
	 xmlns="http://www.w3.org/2000/svg" xmlns:xlink="http://www.w3.org/1999/xlink" x="0px" y="0px" viewBox="0 0 46.0630608 52"
	 enable-background="new 0 0 46.0630608 52" xml:space="preserve">
<metadata>
	<sfw  xmlns="&ns_sfw;">
		<slices></slices>
		<sliceSourceBounds  bottomLeftOrigin="true" height="52" width="46.0630608" x="232.9684601" y="230"></sliceSourceBounds>
	</sfw>
</metadata>
<g>
	<g>
		<path fill="#C21935" d="M23.3614044,27.4330444h-0.6598511c-0.8429699,0-1.52882-0.6858501-1.52882-1.5288181
			c0-0.8429699,0.6858521-1.52882,1.52882-1.52882h0.6598511c0.842968,0,1.5289211,0.6858521,1.5289211,1.52882h3.0708427
			c0-2.1191025-1.4409676-3.9071102-3.3941193-4.4381809V17.986515h-3.0708427v3.4795303
			c-1.953249,0.5311718-3.3941174,2.3190784-3.3941174,4.438282c-0.000103,2.5361176,2.063343,4.5995617,4.5995617,4.5995617
			h0.659853c0.842968,0,1.5289211,0.6858501,1.5289211,1.5288219c-0.000103,0.842968-0.6859531,1.52882-1.5289211,1.52882
			h-0.6598511c-0.8429699,0-1.52882-0.6858521-1.52882-1.52882h-3.0708427c0,2.1190987,1.4409695,3.9072113,3.3941174,4.438282
			v3.4796295h3.0708427V36.470993c1.9531479-0.5311737,3.3941193-2.3190765,3.3941193-4.4381828
			C27.9610691,29.4964924,25.897625,27.4330444,23.3614044,27.4330444z"/>
	</g>
</g>
<g>
	<g>
		<path fill="#C21935" d="M39.3172798,12.6828203c-3.9862251-3.986227-9.1763744-6.3297811-14.7503262-6.6941876v-2.917789
			h2.9684677V0h-9.0078812v3.0708437h2.9684677v2.9176874c-5.5738525,0.3646097-10.7641029,2.7081642-14.750227,6.6942892
			C2.3956561,17.0329456,0,22.8166256,0,28.9685707s2.3956561,11.9356232,6.7457809,16.2857475
			C11.0959053,49.6043434,16.8795853,52,23.0315304,52s11.9356251-2.3956566,16.2857494-6.7457809
			s6.7457809-10.1338043,6.7457809-16.2857475S43.667305,17.0328426,39.3172798,12.6828203z M38.1903458,41.9558754
			l-2.3761559-2.3761559l-2.1714096,2.1714058l2.3761559,2.3761559c-3.228363,2.7745857-7.2071762,4.4227448-11.4519825,4.7435799
			v-3.3602982h-3.0708427v3.3602982c-4.2448044-0.3208351-8.2236185-1.968792-11.4519844-4.7435799l2.3761559-2.3761559
			l-2.1714067-2.1714058l-2.3761554,2.3761559c-2.7745862-3.2283669-4.4227424-7.20718-4.7435784-11.4519844h3.3602967v-3.0708466
			H3.1291399c0.3208361-4.2447033,1.9687891-8.2236176,4.7435789-11.4519825l2.3760548,2.3760548l2.1714067-2.1714077
			l-2.3760548-2.3760548c3.2283669-2.7745857,7.2071791-4.4227409,11.4519854-4.743578v3.1508751h3.0708427V9.0660782
			c4.2447033,0.3208351,8.2236195,1.9687891,11.4519825,4.743578l-2.2279778,2.2280788l2.1714096,2.1714058l2.2279778-2.2280779
			c2.7746887,3.2283678,4.4227409,7.2071791,4.743576,11.4519854h-3.3602982v3.0708427h3.3602982
			C42.6130867,34.7486954,40.9651337,38.7275047,38.1903458,41.9558754z"/>
	</g>
</g>
</svg>
