<?xml version="1.0" encoding="utf-8"?>
<!-- Generator: Adobe Illustrator 23.0.0, SVG Export Plug-In . SVG Version: 6.00 Build 0)  -->
<!DOCTYPE svg PUBLIC "-//W3C//DTD SVG 1.1//EN" "http://www.w3.org/Graphics/SVG/1.1/DTD/svg11.dtd" [
	<!ENTITY ns_extend "http://ns.adobe.com/Extensibility/1.0/">
	<!ENTITY ns_ai "http://ns.adobe.com/AdobeIllustrator/10.0/">
	<!ENTITY ns_graphs "http://ns.adobe.com/Graphs/1.0/">
	<!ENTITY ns_vars "http://ns.adobe.com/Variables/1.0/">
	<!ENTITY ns_imrep "http://ns.adobe.com/ImageReplacement/1.0/">
	<!ENTITY ns_sfw "http://ns.adobe.com/SaveForWeb/1.0/">
	<!ENTITY ns_custom "http://ns.adobe.com/GenericCustomNamespace/1.0/">
	<!ENTITY ns_adobe_xpath "http://ns.adobe.com/XPath/1.0/">
]>
<svg version="1.1" id="Layer_1" xmlns:x="&ns_extend;" xmlns:i="&ns_ai;" xmlns:graph="&ns_graphs;"
	 xmlns="http://www.w3.org/2000/svg" xmlns:xlink="http://www.w3.org/1999/xlink" x="0px" y="0px" viewBox="0 0 97.1673889 53"
	 enable-background="new 0 0 97.1673889 53" xml:space="preserve">
<metadata>
	<sfw  xmlns="&ns_sfw;">
		<slices></slices>
		<sliceSourceBounds  bottomLeftOrigin="true" height="52.013485" width="97.1673889" x="911.8512573" y="514"></sliceSourceBounds>
	</sfw>
</metadata>
<g>
	<path fill="#C7223C" d="M0,34.2776794c3.1272309,0,3.5678864-1.718399,3.5678864-3.259903
		c0-1.2335186-0.1761043-2.4670372-0.3522084-3.7005558c-0.1761043-1.2335186-0.3522084-2.4228134-0.3522084-3.6563339
		c0-4.0519753,2.6431417-5.7695827,6.3871322-5.7695827h0.9247446v2.4228153H9.3824825
		c-2.5989184,0-3.4794393,1.4088326-3.4794393,3.7874241c0,1.0139809,0.1318808,2.0706062,0.3079848,3.1272297
		c0.1761041,1.1024284,0.3087745,2.1590538,0.3087745,3.3483486c0.0434341,2.8192482-1.1900849,4.22966-3.1722441,4.7571831
		v0.0884476c1.9821591,0.4848785,3.2156782,1.9821587,3.1722441,4.801403c0,1.190876-0.1326704,2.2917252-0.3087745,3.3483505
		c-0.1761041,1.1008453-0.3079848,2.1148262-0.3079848,3.1714516c0,2.4670372,1.0131912,3.8332291,3.4794393,3.8332291h0.7928638V53
		H9.2506018c-3.656333,0-6.3871322-1.5857277-6.3871322-6.0349236c0-1.1892967,0.1761041-2.4228134,0.3522084-3.6121101
		c0.1761041-1.1892967,0.3522084-2.3785896,0.3522084-3.5678864c0-1.366188-0.4406555-3.2614822-3.5678864-3.2614822V34.2776794z"/>
</g>
<g>
	<path fill="#C7223C" d="M97.1673889,36.6136246c-3.1272278,0-3.5678864,1.718399-3.5678864,3.259903
		c0,1.2335167,0.1761093,2.4670372,0.352211,3.7005577c0.1761017,1.2335167,0.352211,2.4228134,0.352211,3.6563301
		C94.3039246,51.2823906,91.6607819,53,87.9167862,53h-0.9247437v-2.4228134h0.7928696
		c2.5989151,0,3.4794388-1.4088326,3.4794388-3.787426c0-1.0139809-0.1318817-2.0706062-0.307991-3.1272316
		c-0.1761017-1.1024246-0.3087692-2.15905-0.3087692-3.3483467c-0.0434341-2.8192444,1.1900864-4.22966,3.1722412-4.7571831
		v-0.0884438c-1.9821548-0.4848824-3.2156754-1.9821625-3.1722412-4.8014069c0-1.1908741,0.1326675-2.2917233,0.3087692-3.3483486
		c0.1761093-1.1008492,0.307991-2.11483,0.307991-3.1714535c0-2.4670391-1.0131912-3.8332272-3.4794388-3.8332272h-0.7928696
		V17.891304h0.9247437c3.6563339,0,6.3871384,1.5857277,6.3871384,6.0349236c0,1.1892967-0.1761093,2.4228153-0.352211,3.6121101
		c-0.1761017,1.1892967-0.352211,2.3785915-0.352211,3.5678864c0,1.366188,0.4406586,3.2614822,3.5678864,3.2614822V36.6136246z"/>
</g>
<g>
	<g>
		<g>
			<path fill="#1A2858" d="M48.9135704,28.4195595h-0.6598511c-0.8429718,0-1.52882-0.6858501-1.52882-1.5288181
				c0-0.8429699,0.6858521-1.52882,1.52882-1.52882h0.6598511c0.842968,0,1.5289192,0.6858521,1.5289192,1.52882h3.0708427
				c0-2.1191025-1.4409676-3.9071102-3.3941193-4.4381809v-3.4795303h-3.0708427v3.4795303
				c-1.9532471,0.5311718-3.3941154,2.3190784-3.3941154,4.438282c-0.000103,2.5361176,2.063343,4.5995617,4.5995598,4.5995617
				h0.6598549c0.842968,0,1.5289192,0.6858501,1.5289192,1.5288219c-0.000103,0.842968-0.6859512,1.52882-1.5289192,1.52882
				h-0.6598511c-0.8429718,0-1.52882-0.6858521-1.52882-1.52882h-3.0708427c0,2.1190987,1.4409676,3.9072113,3.3941154,4.438282
				v3.4796295h3.0708427v-3.4796295c1.9531479-0.5311737,3.3941193-2.3190765,3.3941193-4.4381828
				C53.5132332,30.4830074,51.449791,28.4195595,48.9135704,28.4195595z"/>
		</g>
	</g>
	<g>
		<g>
			<path fill="#1A2858" d="M64.8694458,13.6693354c-3.9862251-3.986227-9.1763763-6.3297811-14.7503281-6.6941876v-2.917789
				h2.9684677V0.986515h-9.0078812v3.0708437h2.9684677v2.9176874c-5.5738525,0.3646097-10.7641029,2.7081642-14.7502251,6.6942892
				c-4.3501263,4.3501253-6.7457809,10.1338053-6.7457809,16.2857513s2.3956547,11.9356232,6.7457809,16.2857475
				c4.3501244,4.3500252,10.1338043,6.7456818,16.2857475,6.7456818s11.935627-2.3956566,16.2857513-6.7457809
				s6.7457809-10.1338043,6.7457809-16.2857475S69.2194672,18.0193577,64.8694458,13.6693354z M63.7425117,42.9423904
				l-2.3761559-2.3761559l-2.1714096,2.1714058l2.3761559,2.3761559c-3.228363,2.7745857-7.2071762,4.4227448-11.4519844,4.7435799
				v-3.3602982H47.048275v3.3602982c-4.2448044-0.3208351-8.2236176-1.968792-11.4519844-4.7435799l2.3761559-2.3761559
				l-2.1714058-2.1714058l-2.3761559,2.3761559c-2.7745857-3.2283669-4.4227409-7.20718-4.743578-11.4519844h3.3602962v-3.0708466
				h-3.3602982c0.320837-4.2447033,1.9687901-8.2236176,4.7435799-11.4519825l2.3760529,2.3760548l2.1714096-2.1714077
				l-2.3760567-2.3760548c3.2283669-2.7745857,7.20718-4.4227409,11.4519844-4.743578v3.1508751h3.0708427v-3.1508732
				c4.2447052,0.3208351,8.2236214,1.9687891,11.4519844,4.743578L59.3431244,17.02425l2.1714096,2.1714058l2.2279778-2.2280769
				c2.7746849,3.2283669,4.4227409,7.2071781,4.7435722,11.4519844h-3.3602982v3.0708427h3.3602982
				C68.1652527,35.7352104,66.5172958,39.7140198,63.7425117,42.9423904z"/>
		</g>
	</g>
</g>
</svg>
