<?xml version="1.0" encoding="utf-8"?>
<!-- Generator: Adobe Illustrator 23.0.0, SVG Export Plug-In . SVG Version: 6.00 Build 0)  -->
<!DOCTYPE svg PUBLIC "-//W3C//DTD SVG 1.1//EN" "http://www.w3.org/Graphics/SVG/1.1/DTD/svg11.dtd" [
	<!ENTITY ns_extend "http://ns.adobe.com/Extensibility/1.0/">
	<!ENTITY ns_ai "http://ns.adobe.com/AdobeIllustrator/10.0/">
	<!ENTITY ns_graphs "http://ns.adobe.com/Graphs/1.0/">
	<!ENTITY ns_vars "http://ns.adobe.com/Variables/1.0/">
	<!ENTITY ns_imrep "http://ns.adobe.com/ImageReplacement/1.0/">
	<!ENTITY ns_sfw "http://ns.adobe.com/SaveForWeb/1.0/">
	<!ENTITY ns_custom "http://ns.adobe.com/GenericCustomNamespace/1.0/">
	<!ENTITY ns_adobe_xpath "http://ns.adobe.com/XPath/1.0/">
]>
<svg version="1.1" id="Capa_1" xmlns:x="&ns_extend;" xmlns:i="&ns_ai;" xmlns:graph="&ns_graphs;"
	 xmlns="http://www.w3.org/2000/svg" xmlns:xlink="http://www.w3.org/1999/xlink" x="0px" y="0px" viewBox="0 0 62.7585678 40"
	 enable-background="new 0 0 62.7585678 40" xml:space="preserve">
<metadata>
	<sfw  xmlns="&ns_sfw;">
		<slices></slices>
		<sliceSourceBounds  bottomLeftOrigin="true" height="40" width="62.7585678" x="224.6199646" y="235.9994812">
			</sliceSourceBounds>
	</sfw>
</metadata>
<g>
	<g>
		<path fill="#BE1833" d="M62.3597679,18.7793293C61.7991028,18.012373,48.4404373,0,31.3790073,0
			S0.9582967,18.012373,0.3982484,18.778595c-0.5309978,0.7276096-0.5309978,1.7144661,0,2.4420757
			C0.9582967,21.9876251,14.3175755,40,31.3790073,40s30.4200954-18.0124989,30.9807606-18.778717
			C62.8915024,20.4937973,62.8915024,19.5062027,62.3597679,18.7793293z M31.3790073,35.8620911
			c-12.567564,0-23.4524059-11.9551735-26.6745529-15.8635006C7.9224329,16.086834,18.7844772,4.1379094,31.3790073,4.1379094
			c12.5669498,0,23.4510555,11.9530926,26.6745548,15.8634987C54.8355789,23.913044,43.9735374,35.8620911,31.3790073,35.8620911z"
			/>
	</g>
</g>
<g>
	<g>
		<path fill="#BE1833" d="M31.3790073,7.5862088c-6.8448715,0-12.4138546,5.5689807-12.4138546,12.4138527
			s5.5689812,12.4138527,12.4138527,12.4138527s12.4138527-5.5689831,12.4138527-12.4138527
			S38.223877,7.5862088,31.3790073,7.5862088z M31.3790073,28.2758789c-4.5634918,0-8.2758217-3.7124481-8.2758217-8.2758179
			s3.71245-8.2758188,8.2758198-8.2758188s8.2758179,3.71245,8.2758179,8.2758188S35.9424973,28.2758789,31.3790073,28.2758789z"/>
	</g>
</g>
</svg>
