<?xml version="1.0" encoding="utf-8"?>
<!-- Generator: Adobe Illustrator 23.0.0, SVG Export Plug-In . SVG Version: 6.00 Build 0)  -->
<!DOCTYPE svg PUBLIC "-//W3C//DTD SVG 1.1//EN" "http://www.w3.org/Graphics/SVG/1.1/DTD/svg11.dtd" [
	<!ENTITY ns_extend "http://ns.adobe.com/Extensibility/1.0/">
	<!ENTITY ns_ai "http://ns.adobe.com/AdobeIllustrator/10.0/">
	<!ENTITY ns_graphs "http://ns.adobe.com/Graphs/1.0/">
	<!ENTITY ns_vars "http://ns.adobe.com/Variables/1.0/">
	<!ENTITY ns_imrep "http://ns.adobe.com/ImageReplacement/1.0/">
	<!ENTITY ns_sfw "http://ns.adobe.com/SaveForWeb/1.0/">
	<!ENTITY ns_custom "http://ns.adobe.com/GenericCustomNamespace/1.0/">
	<!ENTITY ns_adobe_xpath "http://ns.adobe.com/XPath/1.0/">
]>
<svg version="1.1" id="Layer_1" xmlns:x="&ns_extend;" xmlns:i="&ns_ai;" xmlns:graph="&ns_graphs;"
	 xmlns="http://www.w3.org/2000/svg" xmlns:xlink="http://www.w3.org/1999/xlink" x="0px" y="0px" viewBox="0 0 50.9958839 51"
	 enable-background="new 0 0 50.9958839 51" xml:space="preserve">
<metadata>
	<sfw  xmlns="&ns_sfw;">
		<slices></slices>
		<sliceSourceBounds  bottomLeftOrigin="true" height="51" width="50.9958839" x="-0.0000002" y="0"></sliceSourceBounds>
	</sfw>
</metadata>
<path fill="#C61B37" d="M45.1616631,18.7265644c-1.0562592,0-2.0450821,0.3015175-2.8900681,0.8243675
	c-1.0415154-1.2909374-2.6372604-2.1192894-4.4240494-2.1192894c-1.2689285,0-2.4418259,0.4174633-3.3882179,1.1218014
	c-1.0256767-1.0007763-2.4323616-1.6198483-3.9828777-1.6198483c-0.5831146,0-1.1523819,0.0857639-1.6933594,0.2493229V5.6777349
	C28.7830906,2.5470119,26.2360764,0,23.1053543,0s-5.6777344,2.5470119-5.6777344,5.6777349V30.426384
	c0,1.0136261-0.6605091,2.4448128-1.7410727,2.540638c-0.0059767-0.0019913-0.0126505-0.0042839-0.0203199-0.0070724
	l-7.405858-2.8266163l-0.0659418-0.0238094c-2.0130057-0.6881008-3.745512-0.6853123-5.1493073,0.0082684
	c-1.2463127,0.6157856-2.1406057,1.7108917-2.6582756,3.2548351c-1.3474162,4.0188408,1.0798652,6.055851,3.3630121,7.3799591
	l13.0032101,8.1850014C18.6414604,50.2870979,20.8573704,51,23.166317,51h16.7231216
	c2.9927673,0,5.7931824-1.1710091,7.885376-3.2972679c2.0771561-2.11092,3.2210693-4.9222984,3.2210693-7.9161568V24.3687382
	C50.9958839,21.0994587,48.5422058,18.7265644,45.1616631,18.7265644z M47.0115089,39.7865791
	c0,3.9861679-3.1949692,7.2290497-7.1220703,7.2290497h-16.72332c-1.4870682,0-2.9158649-0.4651756-4.1321964-1.3453255
	l-0.0520954-0.0377502L5.8409576,37.3609886l-0.0652442-0.039444c-1.1901326-0.6870079-1.594348-1.1621437-1.7239394-1.4399529
	c-0.0528924-0.1134567-0.1767068-0.3790131,0.1127577-1.2424278c0.1680412-0.5013313,0.3851895-0.8206825,0.6455684-0.949379
	c0.3955488-0.1955338,1.1467032-0.130188,2.0640063,0.1791992l7.3843431,2.8183479l0.0198231,0.007473
	c0.5196619,0.1920471,1.0086451,0.2762184,1.4951363,0.2576904c3.4827423-0.1329765,5.6384888-3.4912109,5.6384888-6.5263081
	V5.6777349c0-0.9337382,0.7596226-1.6933594,1.6933594-1.6933594c0.9337387,0,1.6933594,0.7596211,1.6933594,1.6933594v16.8339882
	V23.80266v2.4942188h3.9843769v-2.4942207v-1.2909374c0-0.8936958,0.7438812-1.59375,1.6933594-1.59375
	s1.6933594,0.7187805,1.6933594,1.6364822v3.7424259h3.984375v-3.2022419c0-0.941309,0.7438812-1.6786175,1.6933594-1.6786175
	s1.6933594,0.7373066,1.6933594,1.6786175v1.4092731v1.4941406v0.2988281h3.984375v-0.2988281v-1.4941406
	c0-0.8659039,0.6576195-1.7929688,1.6364861-1.7929688c0.6908913,0,1.8498421,0.2153549,1.8498421,1.6577988V39.7865791z"/>
</svg>
