<?xml version="1.0" encoding="utf-8"?>
<!-- Generator: Adobe Illustrator 23.0.0, SVG Export Plug-In . SVG Version: 6.00 Build 0)  -->
<!DOCTYPE svg PUBLIC "-//W3C//DTD SVG 1.1//EN" "http://www.w3.org/Graphics/SVG/1.1/DTD/svg11.dtd" [
	<!ENTITY ns_extend "http://ns.adobe.com/Extensibility/1.0/">
	<!ENTITY ns_ai "http://ns.adobe.com/AdobeIllustrator/10.0/">
	<!ENTITY ns_graphs "http://ns.adobe.com/Graphs/1.0/">
	<!ENTITY ns_vars "http://ns.adobe.com/Variables/1.0/">
	<!ENTITY ns_imrep "http://ns.adobe.com/ImageReplacement/1.0/">
	<!ENTITY ns_sfw "http://ns.adobe.com/SaveForWeb/1.0/">
	<!ENTITY ns_custom "http://ns.adobe.com/GenericCustomNamespace/1.0/">
	<!ENTITY ns_adobe_xpath "http://ns.adobe.com/XPath/1.0/">
]>
<svg version="1.1" id="Layer_1" xmlns:x="&ns_extend;" xmlns:i="&ns_ai;" xmlns:graph="&ns_graphs;"
	 xmlns="http://www.w3.org/2000/svg" xmlns:xlink="http://www.w3.org/1999/xlink" x="0px" y="0px" viewBox="0 0 14.1625843 16"
	 enable-background="new 0 0 14.1625843 16" xml:space="preserve">
<metadata>
	<sfw  xmlns="&ns_sfw;">
		<slices></slices>
		<sliceSourceBounds  bottomLeftOrigin="true" height="16" width="14.1625843" x="28.0187073" y="31.6501808"></sliceSourceBounds>
	</sfw>
</metadata>
<title>C icon</title>
<path fill="#2B3B73" d="M11.0556917,11.3389359c-0.8397751,0.7420778-1.9257975,1.1448412-3.0463676,1.1297779
	c-2.5823507,0-4.4787655-1.8964148-4.4787655-4.49894s1.8358903-4.418242,4.4787655-4.418242
	c1.1230774-0.015187,2.2132254,0.3792741,3.0665426,1.1096044l0.5648899,0.4841905l2.5016527-2.5016527L13.5169964,2.05861
	c-1.5131521-1.3518867-3.4787769-2.0862958-5.5076723-2.0578113C3.3691616,0.0007986,0,3.3497856,0,7.9495993
	s3.4498601,8.0496731,8.0093241,8.0496731c2.0481405,0.0274382,4.0305882-0.7222872,5.5480213-2.0981607l0.6052389-0.5648899
	l-2.5420027-2.5016518L11.0556917,11.3389359z"/>
<circle fill="#2B3B73" cx="7.8882766" cy="7.9899483" r="2.6832244"/>
</svg>
