<?xml version="1.0" encoding="utf-8"?>
<!-- Generator: Adobe Illustrator 23.0.0, SVG Export Plug-In . SVG Version: 6.00 Build 0)  -->
<!DOCTYPE svg PUBLIC "-//W3C//DTD SVG 1.1//EN" "http://www.w3.org/Graphics/SVG/1.1/DTD/svg11.dtd" [
	<!ENTITY ns_extend "http://ns.adobe.com/Extensibility/1.0/">
	<!ENTITY ns_ai "http://ns.adobe.com/AdobeIllustrator/10.0/">
	<!ENTITY ns_graphs "http://ns.adobe.com/Graphs/1.0/">
	<!ENTITY ns_vars "http://ns.adobe.com/Variables/1.0/">
	<!ENTITY ns_imrep "http://ns.adobe.com/ImageReplacement/1.0/">
	<!ENTITY ns_sfw "http://ns.adobe.com/SaveForWeb/1.0/">
	<!ENTITY ns_custom "http://ns.adobe.com/GenericCustomNamespace/1.0/">
	<!ENTITY ns_adobe_xpath "http://ns.adobe.com/XPath/1.0/">
]>
<svg version="1.1" id="Capa_1" xmlns:x="&ns_extend;" xmlns:i="&ns_ai;" xmlns:graph="&ns_graphs;"
	 xmlns="http://www.w3.org/2000/svg" xmlns:xlink="http://www.w3.org/1999/xlink" x="0px" y="0px" viewBox="0 0 19.6974659 16"
	 enable-background="new 0 0 19.6974659 16" xml:space="preserve">
<metadata>
	<sfw  xmlns="&ns_sfw;">
		<slices></slices>
		<sliceSourceBounds  bottomLeftOrigin="true" height="16" width="19.6974659" x="296.1517639" y="297.9995117">
			</sliceSourceBounds>
	</sfw>
</metadata>
<g>
	<g>
		<path fill="#2B3B73" d="M19.6974659,1.893052c-0.7249794,0.3212429-1.5028667,0.539106-2.3201866,0.6363705
			c0.8345375-0.4997435,1.4733524-1.2924068,1.776123-2.2340245c-0.7828159,0.4627945-1.6468983,0.7988429-2.5675945,0.9810127
			C15.8485346,0.4898949,14.7998371,0,13.6366539,0c-2.2315454,0-4.0409155,1.8093696-4.0409155,4.0396924
			c0,0.316319,0.0356941,0.625267,0.1046352,0.9206972C6.3425941,4.7917385,3.3651502,3.1830127,1.3723879,0.7384953
			C1.0240448,1.3342481,0.825879,2.028424,0.825879,2.7694294c0,1.4019659,0.7139055,2.6389816,1.7970749,3.362704
			C1.9607381,6.1099896,1.3379174,5.9278202,0.7926636,5.6250196v0.0504665c0,1.9570684,1.3933403,3.5904164,3.24085,3.9621577
			c-0.3384943,0.0910845-0.6954312,0.141552-1.0646949,0.141552c-0.2609274,0-0.5132613-0.0258455-0.7606709-0.0750885
			c0.5144844,1.6062794,2.0063121,2.774354,3.7738407,2.8063784c-1.3822684,1.083169-3.1251755,1.7269096-5.0182271,1.7269096
			c-0.3261673,0-0.6474426-0.0196972-0.9637612-0.0553913C1.788449,15.3304129,3.9116912,16,6.1937041,16
			c7.433166,0,11.4962559-6.1567879,11.4962559-11.4962578l-0.0135517-0.5231102
			C18.4702988,3.4143939,19.1571026,2.7029665,19.6974659,1.893052z"/>
	</g>
</g>
</svg>
